<?xml version="1.0" encoding="UTF-8" standalone="no"?>
<!-- Created with Inkscape (http://www.inkscape.org/) -->

<svg
   width="210mm"
   height="297mm"
   viewBox="0 0 210 297"
   version="1.1"
   id="svg5"
   xml:space="preserve"
   inkscape:version="1.2.2 (b0a8486541, 2022-12-01)"
   sodipodi:docname="qr.svg"
   xmlns:inkscape="http://www.inkscape.org/namespaces/inkscape"
   xmlns:sodipodi="http://sodipodi.sourceforge.net/DTD/sodipodi-0.dtd"
   xmlns="http://www.w3.org/2000/svg"
   xmlns:svg="http://www.w3.org/2000/svg"><sodipodi:namedview
     id="namedview7"
     pagecolor="#ffffff"
     bordercolor="#000000"
     borderopacity="0.25"
     inkscape:showpageshadow="2"
     inkscape:pageopacity="0.0"
     inkscape:pagecheckerboard="0"
     inkscape:deskcolor="#d1d1d1"
     inkscape:document-units="mm"
     showgrid="false"
     inkscape:zoom="1.1061539"
     inkscape:cx="301.04311"
     inkscape:cy="244.089"
     inkscape:window-width="1920"
     inkscape:window-height="1048"
     inkscape:window-x="0"
     inkscape:window-y="0"
     inkscape:window-maximized="1"
     inkscape:current-layer="layer1" /><defs
     id="defs2" /><g
     inkscape:label="Lager 1"
     inkscape:groupmode="layer"
     id="layer1"><path
       style="fill:#000000;stroke-width:0.0574711"
       d="M 0,8.7931017 V 7.5862055 H 1.2068963 2.4137926 V 8.7931017 9.9999982 H 1.2068963 0 Z m 2.0689651,0 V 7.931033 H 1.2068963 0.34482751 v 0.8620687 0.862069 H 1.2068963 2.0689651 Z m -1.37931007,0 V 8.2758605 H 1.2068963 1.7241375 V 8.7931017 9.3103432 H 1.2068963 0.68965503 Z M 2.7586201,9.6551707 V 9.3103432 H 2.9310339 3.1034476 V 9.1379292 8.9655155 H 3.2758614 3.4482751 V 8.7931017 8.620688 H 3.1034476 2.7586201 V 8.2758605 7.931033 H 3.1034476 3.4482751 V 8.2758605 8.620688 H 3.6206889 3.7931026 V 8.4482742 8.2758605 H 3.9655164 4.1379301 V 8.1034467 7.931033 H 4.3103439 4.4827576 V 8.1034467 8.2758605 H 4.8275851 5.1724126 V 8.7931017 9.3103432 H 4.9999989 4.8275851 V 9.6551707 9.9999982 H 4.4827576 4.1379301 V 9.8275845 9.6551707 H 3.9655164 3.7931026 V 9.3103432 8.9655155 H 3.6206889 3.4482751 v 0.1724137 0.172414 H 3.2758614 3.1034476 V 9.6551707 9.9999982 H 2.9310339 2.7586201 Z M 4.4827576,9.482757 V 9.3103432 H 4.3103439 4.1379301 V 9.482757 9.6551707 H 4.3103439 4.4827576 Z M 4.1379301,8.7931017 V 8.620688 H 4.3103439 4.4827576 V 8.7931017 8.9655155 H 4.6551714 4.8275851 V 8.7931017 8.620688 H 4.6551714 4.4827576 V 8.4482742 8.2758605 H 4.3103439 4.1379301 V 8.4482742 8.620688 H 3.9655164 3.7931026 V 8.7931017 8.9655155 H 3.9655164 4.1379301 Z M 7.5862053,9.8275845 V 9.6551707 H 7.2413778 6.8965503 V 9.482757 9.3103432 H 6.5517228 6.2068953 V 9.1379292 8.9655155 H 6.379309 6.5517228 V 8.7931017 8.620688 H 6.379309 6.2068953 V 8.4482742 8.2758605 H 6.0344815 5.8620678 V 8.1034467 7.931033 H 5.5172401 5.1724126 V 7.7586192 7.5862055 H 5.3448264 5.5172401 V 7.0689642 6.5517229 H 5.3448264 5.1724126 V 6.7241367 6.8965505 H 4.9999989 4.8275851 V 7.241378 7.5862055 H 4.6551714 4.4827576 V 7.4137917 7.241378 H 4.3103439 4.1379301 V 7.0689642 6.8965505 H 3.9655164 3.7931026 V 6.5517229 6.2068954 H 3.6206889 3.4482751 V 6.3793091 6.5517229 H 3.2758614 3.1034476 V 6.3793091 6.2068954 H 2.9310339 2.7586201 V 6.0344816 5.8620679 H 2.4137926 2.0689651 V 6.0344816 6.2068954 H 2.2413789 2.4137926 V 6.3793091 6.5517229 H 2.0689651 1.7241375 V 6.7241367 6.8965505 H 2.0689651 2.4137926 V 7.0689642 7.241378 H 2.0689651 1.7241375 V 7.0689642 6.8965505 H 1.2068963 0.68965503 V 7.0689642 7.241378 H 0.34482751 0 V 7.0689642 6.8965505 H 0.34482751 0.68965503 V 6.5517229 6.2068954 H 0.34482751 0 V 6.0344816 5.8620679 H 0.34482751 0.68965503 V 5.6896541 5.5172404 H 0.86206878 1.0344825 V 5.3448266 5.1724129 H 0.68965503 0.34482751 V 5.3448266 5.5172404 H 0.17241375 0 V 5.1724129 4.8275854 H 0.17241375 0.34482751 V 4.6551716 4.4827579 H 0.17241375 0 V 4.1379304 3.7931029 H 0.17241375 0.34482751 V 3.4482754 3.1034479 H 0.17241375 0 V 2.9310341 2.7586202 H 0.34482751 0.68965503 V 3.1034479 3.4482754 H 0.86206878 1.0344825 V 3.2758616 3.1034479 H 1.2068963 1.37931 V 2.9310341 2.7586202 h 0.5172413 0.5172413 v 0.1724139 0.1724138 h 0.689655 0.689655 V 2.9310341 2.7586202 H 3.9655164 4.1379301 V 2.4137927 2.0689652 H 3.9655164 3.7931026 V 2.241379 2.4137927 H 3.6206889 3.4482751 V 2.5862065 2.7586202 H 3.2758614 3.1034476 V 2.5862065 2.4137927 H 2.9310339 2.7586201 V 2.0689652 1.7241377 H 2.9310339 3.1034476 V 2.0689652 2.4137927 H 3.2758614 3.4482751 V 2.241379 2.0689652 H 3.6206889 3.7931026 V 1.8965515 1.7241377 H 4.1379301 4.4827576 V 1.3793102 1.0344827 H 4.8275851 5.1724126 V 0.68965502 0.34482751 H 5.3448264 5.5172401 V 0.17241375 0 H 5.6896539 5.8620678 V 0.17241375 0.34482751 H 6.0344815 6.2068953 V 0.51724126 0.68965502 H 6.0344815 5.8620678 V 0.51724126 0.34482751 H 5.6896539 5.5172401 V 0.68965502 1.0344827 H 6.0344815 6.5517228 V 0.51724126 0 H 6.8965503 7.2413778 V 0.51724126 1.0344827 H 6.8965503 6.5517228 V 1.3793102 1.7241377 H 6.7241365 6.8965503 V 1.551724 1.3793102 H 7.068964 7.2413778 V 1.551724 1.7241377 H 7.068964 6.8965503 V 1.8965515 2.0689652 H 7.068964 7.2413778 V 2.4137927 2.7586202 H 7.068964 6.8965503 V 2.9310341 3.1034479 H 6.7241365 6.5517228 V 3.2758616 3.4482754 H 6.7241365 6.8965503 V 4.3103441 5.1724129 H 7.068964 7.2413778 V 5.3448266 5.5172404 H 7.4137915 7.5862053 V 5.8620679 6.2068954 H 7.758619 7.9310328 V 5.8620679 5.5172404 H 8.1034465 8.2758603 V 5.6896541 5.8620679 H 8.448274 8.6206878 V 5.6896541 5.5172404 H 8.9655153 9.310345 V 5.3448266 5.1724129 H 8.448274 7.5862053 V 4.9999991 4.8275854 h 0.689655 0.689655 V 4.6551716 4.4827579 H 8.2758603 7.5862053 V 4.3103441 4.1379304 H 7.4137915 7.2413778 V 3.9655166 3.7931029 H 7.4137915 7.5862053 V 3.6206891 3.4482754 H 7.758619 7.9310328 V 3.1034479 2.7586202 H 8.1034465 8.2758603 V 2.9310341 3.1034479 H 8.448274 8.6206878 V 2.9310341 2.7586202 H 9.310345 10 V 2.9310341 3.1034479 H 9.6551725 9.310345 V 3.4482754 3.7931029 H 9.137929 8.9655153 V 3.9655166 4.1379304 H 9.310345 9.6551725 V 4.3103441 4.4827579 H 9.4827588 9.310345 V 4.6551716 4.8275854 H 9.4827588 9.6551725 V 5.3448266 5.8620679 H 9.4827588 9.310345 V 6.0344816 6.2068954 H 9.4827588 9.6551725 V 6.5517229 6.8965505 H 9.4827588 9.310345 V 6.7241367 6.5517229 H 8.448274 7.5862053 V 6.7241367 6.8965505 H 8.1034465 8.6206878 V 7.0689642 7.241378 H 8.9655153 9.310345 V 7.5862055 7.931033 H 9.4827588 9.6551725 V 7.7586192 7.5862055 H 9.8275863 10 V 7.7586192 7.931033 H 9.8275863 9.6551725 V 8.1034467 8.2758605 H 9.8275863 10 V 8.4482742 8.620688 H 9.8275863 9.6551725 V 8.7931017 8.9655155 H 9.8275863 10 v 0.1724137 0.172414 H 9.6551725 9.310345 V 9.482757 9.6551707 H 9.4827588 9.6551725 V 9.8275845 9.9999982 H 9.4827588 9.310345 V 9.8275845 9.6551707 H 8.9655153 8.6206878 V 9.8275845 9.9999982 H 8.448274 8.2758603 V 9.8275845 9.6551707 H 8.1034465 7.9310328 V 9.8275845 9.9999982 H 7.758619 7.5862053 Z M 7.2413778,9.1379292 V 8.9655155 h 0.1724137 0.1724138 v 0.1724137 0.172414 H 7.9310328 8.2758603 V 9.1379292 8.9655155 H 8.448274 8.6206878 v 0.1724137 0.172414 H 8.7931015 8.9655153 V 9.1379292 8.9655155 H 8.7931015 8.6206878 V 8.7931017 8.620688 H 8.448274 8.2758603 V 8.7931017 8.9655155 H 8.1034465 7.9310328 V 8.7931017 8.620688 H 7.4137915 6.8965503 V 8.9655155 9.3103432 H 7.068964 7.2413778 Z M 9.6551725,8.4482742 V 8.2758605 H 9.310345 8.9655153 V 8.1034467 7.931033 H 8.7931015 8.6206878 V 8.1034467 8.2758605 H 8.7931015 8.9655153 V 8.4482742 8.620688 H 9.310345 9.6551725 Z M 6.8965503,8.1034467 V 7.931033 H 6.5517228 6.2068953 V 7.5862055 7.241378 H 6.0344815 5.8620678 V 7.5862055 7.931033 h 0.1724137 0.1724138 v 0.1724137 0.1724138 h 0.3448275 0.3448275 z m 1.37931,-0.3448275 V 7.241378 H 7.758619 7.2413778 V 7.7586192 8.2758605 H 7.758619 8.2758603 Z m -0.689655,0 V 7.5862055 H 7.758619 7.9310328 V 7.7586192 7.931033 H 7.758619 7.5862053 Z M 6.8965503,7.4137917 V 7.241378 H 6.7241365 6.5517228 V 7.4137917 7.5862055 H 6.7241365 6.8965503 Z M 4.8275851,6.5517229 V 6.2068954 H 5.1724126 5.5172401 V 6.3793091 6.5517229 H 5.8620678 6.2068953 V 6.3793091 6.2068954 H 6.5517228 6.8965503 V 6.3793091 6.5517229 H 7.2413778 7.5862053 V 6.3793091 6.2068954 H 7.4137915 7.2413778 V 5.8620679 5.5172404 H 7.068964 6.8965503 V 5.6896541 5.8620679 H 6.2068953 5.5172401 V 5.5172404 5.1724129 H 5.6896539 5.8620678 V 5.3448266 5.5172404 H 6.2068953 6.5517228 V 5.3448266 5.1724129 H 6.379309 6.2068953 V 4.9999991 4.8275854 H 6.379309 6.5517228 V 4.3103441 3.7931029 H 6.379309 6.2068953 V 3.4482754 3.1034479 H 6.379309 6.5517228 V 2.7586202 2.4137927 H 6.7241365 6.8965503 V 2.241379 2.0689652 H 6.7241365 6.5517228 V 1.8965515 1.7241377 H 6.379309 6.2068953 V 1.551724 1.3793102 H 6.0344815 5.8620678 V 1.551724 1.7241377 H 5.6896539 5.5172401 V 1.551724 1.3793102 H 5.1724126 4.8275851 V 1.7241377 2.0689652 H 4.6551714 4.4827576 V 2.241379 2.4137927 H 4.6551714 4.8275851 V 2.241379 2.0689652 H 4.9999989 5.1724126 V 2.241379 2.4137927 H 5.3448264 5.5172401 V 2.5862065 2.7586202 H 4.8275851 4.1379301 V 2.9310341 3.1034479 H 3.9655164 3.7931026 V 3.2758616 3.4482754 H 3.1034476 2.4137926 V 3.2758616 3.1034479 H 2.2413789 2.0689651 V 3.2758616 3.4482754 H 1.8965513 1.7241375 V 3.7931029 4.1379304 H 1.37931 1.0344825 V 3.9655166 3.7931029 H 1.2068963 1.37931 V 3.6206891 3.4482754 H 1.2068963 1.0344825 V 3.6206891 3.7931029 H 0.86206878 0.68965503 V 3.9655166 4.1379304 H 0.51724126 0.34482751 V 4.3103441 4.4827579 H 0.51724126 0.68965503 V 4.6551716 4.8275854 H 0.86206878 1.0344825 V 4.9999991 5.1724129 H 1.37931 1.7241375 V 5.5172404 5.8620679 H 1.2068963 0.68965503 V 6.0344816 6.2068954 H 1.2068963 1.7241375 V 6.0344816 5.8620679 H 1.8965513 2.0689651 V 5.6896541 5.5172404 H 2.2413789 2.4137926 V 5.3448266 5.1724129 H 2.5862064 2.7586201 V 5.5172404 5.8620679 H 2.9310339 3.1034476 V 5.5172404 5.1724129 H 3.2758614 3.4482751 V 5.5172404 5.8620679 H 3.6206889 3.7931026 V 6.0344816 6.2068954 H 3.9655164 4.1379301 V 6.0344816 5.8620679 H 4.4827576 4.8275851 V 6.0344816 6.2068954 H 4.6551714 4.4827576 V 6.3793091 6.5517229 H 4.3103439 4.1379301 V 6.7241367 6.8965505 H 4.4827576 4.8275851 Z M 3.7931026,5.6896541 V 5.5172404 H 3.9655164 4.1379301 V 5.3448266 5.1724129 H 4.3103439 4.4827576 V 5.3448266 5.5172404 H 4.3103439 4.1379301 V 5.6896541 5.8620679 H 3.9655164 3.7931026 Z M 4.8275851,5.3448266 V 4.8275854 H 4.6551714 4.4827576 V 4.6551716 4.4827579 H 4.3103439 4.1379301 V 4.3103441 4.1379304 H 3.9655164 3.7931026 V 4.3103441 4.4827579 H 3.6206889 3.4482751 V 4.1379304 3.7931029 H 3.6206889 3.7931026 V 3.6206891 3.4482754 H 3.9655164 4.1379301 V 3.2758616 3.1034479 H 4.4827576 4.8275851 V 3.2758616 3.4482754 H 4.9999989 5.1724126 V 3.2758616 3.1034479 H 5.3448264 5.5172401 V 2.9310341 2.7586202 H 5.6896539 5.8620678 V 3.2758616 3.7931029 H 6.0344815 6.2068953 V 3.9655166 4.1379304 H 6.0344815 5.8620678 V 4.3103441 4.4827579 H 5.6896539 5.5172401 V 3.9655166 3.4482754 H 5.3448264 5.1724126 v 0.689655 0.689655 H 5.3448264 5.5172401 V 4.9999991 5.1724129 H 5.3448264 5.1724126 V 5.5172404 5.8620679 H 4.9999989 4.8275851 Z m 0,-1.5517237 V 3.4482754 H 4.6551714 4.4827576 V 3.6206891 3.7931029 H 4.3103439 4.1379301 V 3.9655166 4.1379304 H 4.4827576 4.8275851 Z M 1.7241375,4.6551716 V 4.1379304 H 2.0689651 2.4137926 V 4.3103441 4.4827579 H 2.5862064 2.7586201 V 4.3103441 4.1379304 H 2.9310339 3.1034476 V 4.3103441 4.4827579 H 2.9310339 2.7586201 V 4.6551716 4.8275854 H 2.9310339 3.1034476 V 4.9999991 5.1724129 H 2.9310339 2.7586201 V 4.9999991 4.8275854 H 2.5862064 2.4137926 V 4.9999991 5.1724129 H 2.0689651 1.7241375 Z m 0.6896551,0 V 4.4827579 H 2.2413789 2.0689651 V 4.6551716 4.8275854 H 2.2413789 2.4137926 Z M 0.68965503,4.3103441 V 4.1379304 H 0.86206878 1.0344825 V 4.3103441 4.4827579 H 0.86206878 0.68965503 Z M 2.0689651,3.6206891 V 3.4482754 H 2.2413789 2.4137926 V 3.6206891 3.7931029 H 2.2413789 2.0689651 Z M 5.5172401,2.241379 V 2.0689652 H 5.6896539 5.8620678 V 1.8965515 1.7241377 H 6.0344815 6.2068953 V 1.8965515 2.0689652 H 6.379309 6.5517228 V 2.241379 2.4137927 H 6.379309 6.2068953 V 2.241379 2.0689652 H 6.0344815 5.8620678 V 2.241379 2.4137927 H 5.6896539 5.5172401 Z M 8.9655153,6.0344816 V 5.8620679 H 8.7931015 8.6206878 V 6.0344816 6.2068954 H 8.7931015 8.9655153 Z M 8.6206878,3.9655166 V 3.7931029 H 8.448274 8.2758603 V 3.6206891 3.4482754 H 8.1034465 7.9310328 V 3.6206891 3.7931029 H 7.758619 7.5862053 V 3.9655166 4.1379304 H 8.1034465 8.6206878 Z M 8.9655153,3.2758616 V 3.1034479 H 8.7931015 8.6206878 V 3.2758616 3.4482754 H 8.7931015 8.9655153 Z M 5.5172401,8.9655155 V 8.620688 H 5.6896539 5.8620678 V 8.9655155 9.3103432 H 5.6896539 5.5172401 Z M 2.7586201,7.4137917 V 7.241378 H 2.9310339 3.1034476 V 7.0689642 6.8965505 H 3.2758614 3.4482751 V 7.0689642 7.241378 H 3.6206889 3.7931026 V 7.4137917 7.5862055 H 3.6206889 3.4482751 V 7.4137917 7.241378 H 3.2758614 3.1034476 V 7.4137917 7.5862055 H 2.9310339 2.7586201 Z M 9.6551725,3.6206891 V 3.4482754 H 9.8275863 10 V 3.6206891 3.7931029 H 9.8275863 9.6551725 Z M 0,1.2068965 V 0 H 1.2068963 2.4137926 V 1.2068965 2.4137927 H 1.2068963 0 Z m 2.0689651,0 V 0.34482751 H 1.2068963 0.34482751 V 1.2068965 2.0689652 H 1.2068963 2.0689651 Z m -1.37931007,0 V 0.68965502 H 1.2068963 1.7241375 V 1.2068965 1.7241377 H 1.2068963 0.68965503 Z m 6.89655027,0 V 0 H 8.7931015 10 V 1.2068965 2.4137927 H 8.7931015 7.5862053 Z m 2.0689672,0 V 0.34482751 H 8.7931015 7.9310328 V 1.2068965 2.0689652 h 0.8620687 0.862071 z m -1.3793122,0 V 0.68965502 H 8.7931015 9.310345 V 1.2068965 1.7241377 H 8.7931015 8.2758603 Z M 2.7586201,0.68965502 V 0 H 3.2758614 3.7931026 V 0.34482751 0.68965502 H 3.9655164 4.1379301 V 1.0344827 1.3793102 H 3.9655164 3.7931026 V 1.2068965 1.0344827 H 3.6206889 3.4482751 V 1.2068965 1.3793102 H 3.1034476 2.7586201 Z M 3.4482751,0.862069 V 0.68965502 H 3.2758614 3.1034476 V 0.862069 1.0344827 H 3.2758614 3.4482751 Z M 4.4827576,0.51724126 V 0.34482751 H 4.3103439 4.1379301 V 0.17241375 0 H 4.4827576 4.8275851 V 0.34482751 0.68965502 H 4.6551714 4.4827576 Z"
       id="path1584" /></g></svg>
