<?xml version="1.0" encoding="UTF-8" standalone="no"?>
<svg
   id="main_svg"
   width="150"
   height="560"
   version="1.1"
   sodipodi:docname="voronoi_svg_export.svg"
   inkscape:version="1.2.2 (b0a8486541, 2022-12-01)"
   xmlns:inkscape="http://www.inkscape.org/namespaces/inkscape"
   xmlns:sodipodi="http://sodipodi.sourceforge.net/DTD/sodipodi-0.dtd"
   xmlns="http://www.w3.org/2000/svg"
   xmlns:svg="http://www.w3.org/2000/svg">
  <defs
     id="defs72" />
  <sodipodi:namedview
     id="namedview70"
     pagecolor="#ffffff"
     bordercolor="#000000"
     borderopacity="0.25"
     inkscape:showpageshadow="2"
     inkscape:pageopacity="0.0"
     inkscape:pagecheckerboard="0"
     inkscape:deskcolor="#d1d1d1"
     showgrid="false"
     inkscape:zoom="4.4345697"
     inkscape:cx="-5.5247751"
     inkscape:cy="142.74215"
     inkscape:window-width="1920"
     inkscape:window-height="1048"
     inkscape:window-x="0"
     inkscape:window-y="0"
     inkscape:window-maximized="1"
     inkscape:current-layer="main_svg" />
  <path
     d="m 28.875353,4.9250006 c 0.843899,3.4897671 0.843899,3.4897671 8.641929,9.0282864 7.798033,5.538519 7.798033,5.538519 11.997873,4.72578 4.199849,-0.812739 4.199849,-0.812739 4.199849,-9.0282866 0,-8.2155473 0,-8.2155473 -12.841775,-8.2155473 -12.841774,0 -12.841774,0 -11.997876,3.4897675 z"
     fill="#221155"
     fill-opacity="0.2"
     id="path443"
     style="fill:none;stroke:#000000;stroke-width:0.629349;stroke-dasharray:none;stroke-opacity:1" />
  <path
     d="m 12.875543,12.109702 c 6.775267,10.67447 6.775267,10.67447 8.510553,10.442955 1.735285,-0.231516 1.735285,-0.231516 4.343299,-6.994836 C 28.337408,8.7945016 28.337408,8.7945016 27.447596,5.1148676 26.557784,1.4352331 26.557784,1.4352331 16.329029,1.4352331 c -10.2287536,0 -10.2287536,0 -3.453486,10.6744689 z"
     fill="#221155"
     fill-opacity="0.2"
     id="path446"
     style="fill:none;stroke:#000000;stroke-width:0.629349;stroke-dasharray:none;stroke-opacity:1" />
  <path
     d="m 28.909315,25.159456 c 4.382679,2.501361 4.382679,2.501361 9.690018,-1.204932 5.307343,-3.706292 5.307343,-3.706292 -1.934623,-8.849865 -7.24196,-5.1435742 -7.24196,-5.1435742 -9.690015,1.20493 -2.448056,6.348504 -2.448056,6.348504 1.93462,8.849867 z"
     fill="#221155"
     fill-opacity="0.2"
     id="path449"
     style="fill:none;stroke:#000000;stroke-width:0.629349;stroke-dasharray:none;stroke-opacity:1" />
  <path
     d="M 6.1157522,32.774004 C 10.798556,32.015658 10.798556,32.015658 14.597887,27.748859 18.397218,23.482061 18.397218,23.482061 11.400469,12.458647 4.403721,1.4352331 4.403721,1.4352331 2.9183347,1.4352331 c -1.4853865,0 -1.4853865,0 -1.4853865,16.0485579 0,16.048558 0,16.048558 4.682804,15.290213 z"
     fill="#221155"
     fill-opacity="0.2"
     id="path452"
     style="fill:none;stroke:#000000;stroke-width:0.629349;stroke-dasharray:none;stroke-opacity:1" />
  <path
     d="m 16.473166,36.374154 c 4.293556,3.755544 4.293556,3.755544 8.223435,3.900922 3.92988,0.145371 3.92988,0.145371 5.908672,-2.967111 1.978792,-3.112492 1.978792,-3.112492 1.992821,-5.749203 0.01411,-2.636711 0.01411,-2.636711 -4.546085,-5.239344 -4.560116,-2.602632 -4.560116,-2.602632 -6.481211,-2.346327 -1.921095,0.256306 -1.921095,0.256306 -5.656142,4.450911 -3.735047,4.194606 -3.735047,4.194606 0.55851,7.950152 z"
     fill="#221155"
     fill-opacity="0.2"
     id="path455"
     style="fill:none;stroke:#000000;stroke-width:0.629349;stroke-dasharray:none;stroke-opacity:1" />
  <path
     d="m 43.86638,38.615476 c 9.848624,4.662085 9.848624,4.662085 9.848624,-7.314052 0,-11.976137 0,-11.976137 -4.13958,-11.175061 -4.139576,0.801076 -4.139576,0.801076 -9.835127,4.778471 -5.695558,3.977394 -5.695558,3.977394 -5.709047,6.512976 -0.0134,2.53558 -0.0134,2.53558 9.83513,7.197666 z"
     fill="#221155"
     fill-opacity="0.2"
     id="path458"
     style="fill:none;stroke:#000000;stroke-width:0.629349;stroke-dasharray:none;stroke-opacity:1" />
  <path
     d="m 32.004386,47.032532 c 2.197111,5.799564 2.197111,5.799564 11.953866,5.787768 9.756752,-0.01164 9.756752,-0.01164 9.756752,-3.984886 0,-3.973087 0,-3.973087 -10.075365,-8.742508 -10.075364,-4.769415 -10.075364,-4.769415 -11.953864,-1.814679 -1.8785,2.954743 -1.8785,2.954743 0.318611,8.754305 z"
     fill="#221155"
     fill-opacity="0.2"
     id="path461"
     style="fill:none;stroke:#000000;stroke-width:0.629349;stroke-dasharray:none;stroke-opacity:1" />
  <path
     d="m 8.3014161,52.004153 c 6.8684669,-0.0611 6.8684669,-0.0611 9.0984629,-5.513465 2.229996,-5.452364 2.229996,-5.452364 -2.111831,-9.250134 -4.341825,-3.797763 -4.341825,-3.797763 -9.0984629,-3.027461 -4.7566369,0.770303 -4.7566369,0.770303 -4.7566369,9.311232 0,8.540929 0,8.540929 6.8684679,8.479828 z"
     fill="#221155"
     fill-opacity="0.2"
     id="path464"
     style="fill:none;stroke:#000000;stroke-width:0.629349;stroke-dasharray:none;stroke-opacity:1" />
  <path
     d="m 17.356512,53.107246 c 0.839002,0.675362 0.839002,0.675362 7.690098,0.966148 7.828126,-0.700262 7.828126,-0.700262 5.645311,-6.462089 -2.182814,-5.761823 -2.182814,-5.761823 -5.957421,-5.901457 -3.774607,-0.139639 -3.774607,-0.139639 -5.995799,5.2912 -2.221192,5.43084 -2.221192,5.43084 -1.382189,6.106198 z"
     fill="#221155"
     fill-opacity="0.2"
     id="path467"
     style="fill:none;stroke:#000000;stroke-width:0.629349;stroke-dasharray:none;stroke-opacity:1" />
  <path
     d="m 9.2918572,66.800823 c 7.8589088,-5.31577 7.8589088,-5.31577 7.8888198,-8.644008 0.02991,-3.32824 0.02991,-3.32824 -0.873962,-4.055818 -0.903873,-0.72758 -0.903873,-0.72758 -7.8888203,-0.665442 -6.9849465,0.06212 -6.9849465,0.06212 -6.9849465,9.371589 0,9.30945 0,9.30945 7.858909,3.993679 z"
     fill="#221155"
     fill-opacity="0.2"
     id="path470"
     style="fill:none;stroke:#000000;stroke-width:0.629349;stroke-dasharray:none;stroke-opacity:1" />
  <path
     d="m 20.405168,63.067866 c 1.822422,1.531422 1.822422,1.531422 5.912497,-0.914693 4.090075,-2.446119 4.090075,-2.446119 4.534689,-4.41347 0.444613,-1.967348 0.444613,-1.967348 -5.884181,-2.235961 -6.328796,-0.268623 -6.328796,-0.268623 -6.357111,2.88204 -0.02833,3.15066 -0.02833,3.15066 1.794106,4.682084 z"
     fill="#221155"
     fill-opacity="0.2"
     id="path473"
     style="fill:none;stroke:#000000;stroke-width:0.629349;stroke-dasharray:none;stroke-opacity:1" />
  <path
     d="m 33.612892,66.963811 c 1.836543,6.814711 1.836543,6.814711 3.566588,7.370463 1.730052,0.55576 1.730052,0.55576 9.132786,-0.921842 7.402738,-1.477599 7.402738,-1.477599 7.402738,-10.324566 0,-8.846972 0,-8.846972 -9.853908,-8.835064 -11.02287,1.197642 -11.02287,1.197642 -11.553809,3.546968 -0.530939,2.349329 -0.530939,2.349329 1.305605,9.164041 z"
     fill="#221155"
     fill-opacity="0.2"
     id="path476"
     style="fill:none;stroke:#000000;stroke-width:0.629349;stroke-dasharray:none;stroke-opacity:1" />
  <path
     d="m 11.249663,73.915948 c 9.816716,-5.25161 9.816716,-5.25161 9.984293,-6.695722 0.167578,-1.44412 0.167578,-1.44412 -1.624769,-2.950267 -1.792346,-1.506152 -1.792346,-1.506152 -9.9842919,4.034881 -8.1919469,5.541037 -8.1919469,5.541037 -8.1919469,8.201878 0,2.660838 0,2.660838 9.8167148,-2.59077 z"
     fill="#221155"
     fill-opacity="0.2"
     id="path479"
     style="fill:none;stroke:#000000;stroke-width:0.629349;stroke-dasharray:none;stroke-opacity:1" />
  <path
     d="m 26.533011,71.890822 c 4.040107,3.093158 4.040107,3.093158 5.748961,2.53659 1.708852,-0.556571 1.708852,-0.556571 0.01023,-6.859532 -1.698628,-6.302958 -1.698628,-6.302958 -5.581367,-3.980839 -3.882739,2.322118 -3.882739,2.322118 -4.050333,3.766371 -0.167594,1.444253 -0.167594,1.444253 3.872514,4.53741 z"
     fill="#221155"
     fill-opacity="0.2"
     id="path482"
     style="fill:none;stroke:#000000;stroke-width:0.629349;stroke-dasharray:none;stroke-opacity:1" />
  <path
     d="m 8.4962869,85.661611 c 7.0633401,2.374351 8.8917251,2.21366 14.8746071,-3.796764 5.982881,-6.010424 5.982881,-6.010424 2.138789,-8.953509 C 21.665592,69.96825 21.665592,69.96825 11.54927,75.380139 1.4329482,80.792025 1.4329482,80.792025 1.4329482,82.039644 c 0,1.247614 0,1.247614 7.0633387,3.621967 z"
     fill="#221155"
     fill-opacity="0.2"
     id="path485"
     style="fill:none;stroke:#000000;stroke-width:0.629349;stroke-dasharray:none;stroke-opacity:1" />
  <path
     d="m 24.782055,91.090277 c 5.845107,2.74071 5.845107,2.74071 8.520941,1.805959 2.67583,-0.934746 2.67583,-0.934746 3.725825,-8.851665 1.049996,-7.916917 1.049996,-7.916917 -0.558991,-8.433783 -1.608983,-0.516865 -1.608983,-0.516865 -3.62808,0.14075 -2.019099,0.657614 -2.019099,0.657614 -7.96195,6.627825 -5.942853,5.97021 -5.942853,5.97021 -0.09774,8.710914 z"
     fill="#221155"
     fill-opacity="0.2"
     id="path488"
     style="fill:none;stroke:#000000;stroke-width:0.629349;stroke-dasharray:none;stroke-opacity:1" />
  <path
     d="m 45.566808,94.719987 c 8.148196,2.719762 8.148196,2.719762 8.148196,-9.302377 0,-12.022136 0,-12.022136 -7.102472,-10.60447 -7.102472,1.417663 -7.102472,1.417663 -8.148195,9.302381 -1.045724,7.884719 -1.045724,7.884719 7.102471,10.604466 z"
     fill="#221155"
     fill-opacity="0.2"
     id="path491"
     style="fill:none;stroke:#000000;stroke-width:0.629349;stroke-dasharray:none;stroke-opacity:1" />
  <path
     d="m 31.61059,100.68223 c 0.280776,5.57944 0.280776,5.57944 11.192591,8.5738 10.911823,2.99436 10.911823,2.99436 10.911823,-3.65593 0,-6.650283 0,-6.650283 -8.539427,-9.500627 -8.539426,-2.850343 -8.539426,-2.850343 -11.192591,-1.923507 -2.653171,0.926828 -2.653171,0.926828 -2.372396,6.506264 z"
     fill="#221155"
     fill-opacity="0.2"
     id="path494"
     style="fill:none;stroke:#000000;stroke-width:0.629349;stroke-dasharray:none;stroke-opacity:1" />
  <path
     d="m 18.081737,100.85427 c 1.782947,11.44538 1.782947,11.44538 3.094359,11.73759 1.311413,0.29223 1.311413,0.29223 5.301873,-2.90709 3.990461,-3.19929 3.990461,-3.19929 3.70321,-8.90743 -0.287251,-5.708137 -0.287251,-5.708137 -6.443351,-8.594662 -7.439038,-2.773772 -7.439038,-2.773772 -5.656091,8.671592 z"
     fill="#221155"
     fill-opacity="0.2"
     id="path497"
     style="fill:none;stroke:#000000;stroke-width:0.629349;stroke-dasharray:none;stroke-opacity:1" />
  <path
     d="m 9.933373,115.5026 c 8.500425,-3.08243 8.500425,-3.08243 6.699819,-14.64116 C 14.832587,89.302712 14.832587,89.302712 8.1327677,87.05056 1.4329482,84.798408 1.4329482,84.798408 1.4329482,101.69172 c 0,16.89331 0,16.89331 8.5004248,13.81088 z"
     fill="#221155"
     fill-opacity="0.2"
     id="path500"
     style="fill:none;stroke:#000000;stroke-width:0.629349;stroke-dasharray:none;stroke-opacity:1" />
  <path
     d="m 25.896459,117.39032 c 2.279805,3.5756 2.279805,3.5756 15.049173,4.83649 12.769372,1.2609 12.769372,1.2609 12.769372,-3.61509 0,-4.876 0,-4.876 -11.175003,-7.94258 -11.175001,-3.06657 -11.175001,-3.06657 -15.049173,0.0395 -3.874173,3.10607 -3.874173,3.10607 -1.594369,6.68169 z"
     fill="#221155"
     fill-opacity="0.2"
     id="path503"
     style="fill:none;stroke:#000000;stroke-width:0.629349;stroke-dasharray:none;stroke-opacity:1" />
  <path
     d="m 12.541234,135.85141 c 11.108286,-4.61239 11.108286,-4.61239 12.767904,-9.3637 1.659618,-4.75131 1.659618,-4.75131 -0.713479,-8.47323 -2.373097,-3.72192 -2.373097,-3.72192 -3.844303,-4.04975 -1.471207,-0.32781 -1.471207,-0.32781 -10.394808,2.90807 -8.9235998,3.23589 -8.9235998,3.23589 -8.9235998,13.41344 0,10.17756 0,10.17756 11.1082858,5.56517 z"
     fill="#221155"
     fill-opacity="0.2"
     id="path506"
     style="fill:none;stroke:#000000;stroke-width:0.629349;stroke-dasharray:none;stroke-opacity:1" />
  <path
     d="m 30.720734,135.20283 c 5.640479,3.71614 5.640479,3.71614 14.317374,-0.90278 8.676896,-4.61893 8.676896,-4.61893 8.676896,-6.99596 0,-2.37703 0,-2.37703 -12.732583,-3.63429 -12.732582,-1.25726 -12.732582,-1.25726 -14.317375,3.27982 -1.584792,4.53708 -1.584792,4.53708 4.055688,8.25321 z"
     fill="#221155"
     fill-opacity="0.2"
     id="path509"
     style="fill:none;stroke:#000000;stroke-width:0.629349;stroke-dasharray:none;stroke-opacity:1" />
  <path
     d="m 6.1536219,145.66 c 4.7206741,2.40424 4.7206741,2.40424 7.9725201,2.91252 3.251847,0.50827 3.251847,0.50827 10.927431,-1.06222 7.675584,-1.57049 7.675584,-1.57049 9.019687,-4.53418 1.344102,-2.96369 1.344102,-2.96369 -4.292826,-6.67748 -5.636931,-3.71379 -5.636931,-3.71379 -16.992208,1.00117 -11.3552778,5.95595 -11.3552778,5.95595 -6.6346041,8.36019 z"
     fill="#221155"
     fill-opacity="0.2"
     id="path512"
     style="fill:none;stroke:#000000;stroke-width:0.629349;stroke-dasharray:none;stroke-opacity:1" />
  <path
     d="m 35.138374,148.94508 c 1.119027,2.3821 1.119027,2.3821 7.998507,7.27131 6.879481,4.8892 6.879481,4.8892 8.7288,4.84596 1.849323,-0.0432 1.849323,-0.0432 1.849323,-14.90088 0,-14.85765 0,-14.85765 -8.42053,-10.37521 -8.420527,4.48245 -8.420527,4.48245 -9.847826,7.62958 -1.427296,3.14713 -1.427296,3.14713 -0.308274,5.52924 z"
     fill="#221155"
     fill-opacity="0.2"
     id="path515"
     style="fill:none;stroke:#000000;stroke-width:0.629349;stroke-dasharray:none;stroke-opacity:1" />
  <path
     d="m 23.716016,155.33836 c 4.902113,5.08933 4.902113,5.08933 8.024141,0.73847 3.122027,-4.35085 3.122027,-4.35085 2.101914,-6.5224 -1.020118,-2.17155 -1.020118,-2.17155 -8.024142,-0.73846 -7.004026,1.43308 -7.004026,1.43308 -2.101913,6.52239 z"
     fill="#221155"
     fill-opacity="0.2"
     id="path518"
     style="fill:none;stroke:#000000;stroke-width:0.629349;stroke-dasharray:none;stroke-opacity:1" />
  <path
     d="m 29.665508,163.69293 c 0.223792,1.95609 0.223792,1.95609 2.541915,3.79365 2.318123,1.83756 2.318123,1.83756 9.278123,-1.95126 6.960001,-3.78882 6.960001,-3.78882 0.664927,-8.26269 -6.295073,-4.47388 -6.295073,-4.47388 -9.501914,-0.005 -3.206841,4.46906 -3.206841,4.46906 -2.983051,6.42514 z"
     fill="#221155"
     fill-opacity="0.2"
     id="path521"
     style="fill:none;stroke:#000000;stroke-width:0.629349;stroke-dasharray:none;stroke-opacity:1" />
  <path
     d="m 15.923455,158.26852 c 4.049432,8.59825 4.049432,8.59825 8.27442,7.88139 4.224989,-0.71687 4.224989,-0.71687 4.020941,-2.50038 -0.204048,-1.78351 -0.204048,-1.78351 -5.688261,-7.47715 -5.484212,-5.69364 -5.484212,-5.69364 -8.070372,-6.09787 -2.586159,-0.40422 -2.586159,-0.40422 1.463272,8.19401 z"
     fill="#221155"
     fill-opacity="0.2"
     id="path524"
     style="fill:none;stroke:#000000;stroke-width:0.629349;stroke-dasharray:none;stroke-opacity:1" />
  <path
     d="m 7.7086109,175.66086 c 6.2756621,-0.5558 6.2756621,-0.5558 8.6539451,-4.30205 2.378282,-3.74625 2.378282,-3.74625 -1.938401,-12.91195 -4.316685,-9.1657 -4.316685,-9.1657 -8.6539458,-11.37468 -4.337261,-2.20896 -4.337261,-2.20896 -4.337261,13.46776 0,15.67672 0,15.67672 6.2756627,15.12092 z"
     fill="#221155"
     fill-opacity="0.2"
     id="path527"
     style="fill:none;stroke:#000000;stroke-width:0.629349;stroke-dasharray:none;stroke-opacity:1" />
  <path
     d="m 18.610914,178.01576 c 3.24959,2.40726 3.24959,2.40726 8.931591,-0.86764 5.681999,-3.27491 5.681999,-3.27491 5.913263,-4.96787 0.231267,-1.69296 0.231267,-1.69296 -2.1039,-3.54403 -2.335159,-1.85107 -2.335159,-1.85107 -6.848255,-1.08533 -4.513095,0.76574 -4.513095,0.76574 -6.827693,4.41167 -2.314598,3.64593 -2.314598,3.64593 0.934994,6.0532 z"
     fill="#221155"
     fill-opacity="0.2"
     id="path530"
     style="fill:none;stroke:#000000;stroke-width:0.629349;stroke-dasharray:none;stroke-opacity:1" />
  <path
     d="m 42.346087,187.35339 c 7.716443,13.18337 7.716443,13.18337 9.542679,13.18337 1.826238,0 1.826238,0 1.826238,-19.04244 0,-19.04244 0,-19.04244 -1.864777,-18.99884 -1.864781,0.0436 -1.864781,0.0436 -9.301266,4.09182 -7.436493,4.04821 -7.436493,4.04821 -7.677905,5.81547 -0.241427,1.76727 -0.241427,1.76727 7.475031,14.95062 z"
     fill="#221155"
     fill-opacity="0.2"
     id="path533"
     style="fill:none;stroke:#000000;stroke-width:0.629349;stroke-dasharray:none;stroke-opacity:1" />
  <path
     d="m 24.292741,191.09199 c 1.687801,9.44477 1.687801,9.44477 12.898941,9.44477 11.211139,0 11.211139,0 3.82364,-12.62137 -7.387498,-12.62136 -7.387498,-12.62136 -12.89894,-9.44476 -5.511443,3.17661 -5.511443,3.17661 -3.823641,12.62136 z"
     fill="#221155"
     fill-opacity="0.2"
     id="path536"
     style="fill:none;stroke:#000000;stroke-width:0.629349;stroke-dasharray:none;stroke-opacity:1" />
  <path
     d="m 22.840955,191.11041 c -1.684511,-9.42635 -1.684511,-9.42635 -5.166863,-12.00604 -3.482353,-2.5797 -3.482353,-2.5797 -9.861748,-2.01471 -6.3793958,0.56499 -6.3793958,0.56499 -6.3793958,12.00604 0,11.44106 0,11.44106 11.5462588,11.44106 11.546259,0 11.546259,0 9.861748,-9.42635 z"
     fill="#221155"
     fill-opacity="0.2"
     id="path539"
     style="fill:none;stroke:#000000;stroke-width:0.629349;stroke-dasharray:none;stroke-opacity:1" />
</svg>
