%TF.GenerationSoftware,KiCad,Pcbnew,9.0.5*%
%TF.CreationDate,2025-10-29T22:06:58+01:00*%
%TF.ProjectId,GB_DMG_PSU,47425f44-4d47-45f5-9053-552e6b696361,rev?*%
%TF.SameCoordinates,Original*%
%TF.FileFunction,Legend,Top*%
%TF.FilePolarity,Positive*%
%FSLAX46Y46*%
G04 Gerber Fmt 4.6, Leading zero omitted, Abs format (unit mm)*
G04 Created by KiCad (PCBNEW 9.0.5) date 2025-10-29 22:06:58*
%MOMM*%
%LPD*%
G01*
G04 APERTURE LIST*
%ADD10C,0.200000*%
%ADD11C,0.150000*%
%ADD12C,0.120000*%
G04 APERTURE END LIST*
D10*
X74433333Y-32304933D02*
X75042857Y-32304933D01*
X75842856Y-32609695D02*
X75385713Y-32609695D01*
X75614285Y-32609695D02*
X75614285Y-31809695D01*
X75614285Y-31809695D02*
X75538094Y-31923980D01*
X75538094Y-31923980D02*
X75461904Y-32000171D01*
X75461904Y-32000171D02*
X75385713Y-32038266D01*
X76299999Y-32152552D02*
X76223809Y-32114457D01*
X76223809Y-32114457D02*
X76185714Y-32076361D01*
X76185714Y-32076361D02*
X76147618Y-32000171D01*
X76147618Y-32000171D02*
X76147618Y-31962076D01*
X76147618Y-31962076D02*
X76185714Y-31885885D01*
X76185714Y-31885885D02*
X76223809Y-31847790D01*
X76223809Y-31847790D02*
X76299999Y-31809695D01*
X76299999Y-31809695D02*
X76452380Y-31809695D01*
X76452380Y-31809695D02*
X76528571Y-31847790D01*
X76528571Y-31847790D02*
X76566666Y-31885885D01*
X76566666Y-31885885D02*
X76604761Y-31962076D01*
X76604761Y-31962076D02*
X76604761Y-32000171D01*
X76604761Y-32000171D02*
X76566666Y-32076361D01*
X76566666Y-32076361D02*
X76528571Y-32114457D01*
X76528571Y-32114457D02*
X76452380Y-32152552D01*
X76452380Y-32152552D02*
X76299999Y-32152552D01*
X76299999Y-32152552D02*
X76223809Y-32190647D01*
X76223809Y-32190647D02*
X76185714Y-32228742D01*
X76185714Y-32228742D02*
X76147618Y-32304933D01*
X76147618Y-32304933D02*
X76147618Y-32457314D01*
X76147618Y-32457314D02*
X76185714Y-32533504D01*
X76185714Y-32533504D02*
X76223809Y-32571600D01*
X76223809Y-32571600D02*
X76299999Y-32609695D01*
X76299999Y-32609695D02*
X76452380Y-32609695D01*
X76452380Y-32609695D02*
X76528571Y-32571600D01*
X76528571Y-32571600D02*
X76566666Y-32533504D01*
X76566666Y-32533504D02*
X76604761Y-32457314D01*
X76604761Y-32457314D02*
X76604761Y-32304933D01*
X76604761Y-32304933D02*
X76566666Y-32228742D01*
X76566666Y-32228742D02*
X76528571Y-32190647D01*
X76528571Y-32190647D02*
X76452380Y-32152552D01*
X74890476Y-29347790D02*
X74814286Y-29309695D01*
X74814286Y-29309695D02*
X74700000Y-29309695D01*
X74700000Y-29309695D02*
X74585714Y-29347790D01*
X74585714Y-29347790D02*
X74509524Y-29423980D01*
X74509524Y-29423980D02*
X74471429Y-29500171D01*
X74471429Y-29500171D02*
X74433333Y-29652552D01*
X74433333Y-29652552D02*
X74433333Y-29766838D01*
X74433333Y-29766838D02*
X74471429Y-29919219D01*
X74471429Y-29919219D02*
X74509524Y-29995409D01*
X74509524Y-29995409D02*
X74585714Y-30071600D01*
X74585714Y-30071600D02*
X74700000Y-30109695D01*
X74700000Y-30109695D02*
X74776191Y-30109695D01*
X74776191Y-30109695D02*
X74890476Y-30071600D01*
X74890476Y-30071600D02*
X74928572Y-30033504D01*
X74928572Y-30033504D02*
X74928572Y-29766838D01*
X74928572Y-29766838D02*
X74776191Y-29766838D01*
X75271429Y-30109695D02*
X75271429Y-29309695D01*
X75271429Y-29309695D02*
X75728572Y-30109695D01*
X75728572Y-30109695D02*
X75728572Y-29309695D01*
X76109524Y-30109695D02*
X76109524Y-29309695D01*
X76109524Y-29309695D02*
X76300000Y-29309695D01*
X76300000Y-29309695D02*
X76414286Y-29347790D01*
X76414286Y-29347790D02*
X76490476Y-29423980D01*
X76490476Y-29423980D02*
X76528571Y-29500171D01*
X76528571Y-29500171D02*
X76566667Y-29652552D01*
X76566667Y-29652552D02*
X76566667Y-29766838D01*
X76566667Y-29766838D02*
X76528571Y-29919219D01*
X76528571Y-29919219D02*
X76490476Y-29995409D01*
X76490476Y-29995409D02*
X76414286Y-30071600D01*
X76414286Y-30071600D02*
X76300000Y-30109695D01*
X76300000Y-30109695D02*
X76109524Y-30109695D01*
X71069600Y-40381578D02*
X71117219Y-40476816D01*
X71117219Y-40476816D02*
X71117219Y-40667292D01*
X71117219Y-40667292D02*
X71069600Y-40762530D01*
X71069600Y-40762530D02*
X71021980Y-40810149D01*
X71021980Y-40810149D02*
X70926742Y-40857768D01*
X70926742Y-40857768D02*
X70641028Y-40857768D01*
X70641028Y-40857768D02*
X70545790Y-40810149D01*
X70545790Y-40810149D02*
X70498171Y-40762530D01*
X70498171Y-40762530D02*
X70450552Y-40667292D01*
X70450552Y-40667292D02*
X70450552Y-40476816D01*
X70450552Y-40476816D02*
X70498171Y-40381578D01*
X71117219Y-39953006D02*
X70117219Y-39953006D01*
X71117219Y-39524435D02*
X70593409Y-39524435D01*
X70593409Y-39524435D02*
X70498171Y-39572054D01*
X70498171Y-39572054D02*
X70450552Y-39667292D01*
X70450552Y-39667292D02*
X70450552Y-39810149D01*
X70450552Y-39810149D02*
X70498171Y-39905387D01*
X70498171Y-39905387D02*
X70545790Y-39953006D01*
X70450552Y-38619673D02*
X71260076Y-38619673D01*
X71260076Y-38619673D02*
X71355314Y-38667292D01*
X71355314Y-38667292D02*
X71402933Y-38714911D01*
X71402933Y-38714911D02*
X71450552Y-38810149D01*
X71450552Y-38810149D02*
X71450552Y-38953006D01*
X71450552Y-38953006D02*
X71402933Y-39048244D01*
X71069600Y-38619673D02*
X71117219Y-38714911D01*
X71117219Y-38714911D02*
X71117219Y-38905387D01*
X71117219Y-38905387D02*
X71069600Y-39000625D01*
X71069600Y-39000625D02*
X71021980Y-39048244D01*
X71021980Y-39048244D02*
X70926742Y-39095863D01*
X70926742Y-39095863D02*
X70641028Y-39095863D01*
X70641028Y-39095863D02*
X70545790Y-39048244D01*
X70545790Y-39048244D02*
X70498171Y-39000625D01*
X70498171Y-39000625D02*
X70450552Y-38905387D01*
X70450552Y-38905387D02*
X70450552Y-38714911D01*
X70450552Y-38714911D02*
X70498171Y-38619673D01*
X74847619Y-34559695D02*
X74466667Y-34559695D01*
X74466667Y-34559695D02*
X74428571Y-34940647D01*
X74428571Y-34940647D02*
X74466667Y-34902552D01*
X74466667Y-34902552D02*
X74542857Y-34864457D01*
X74542857Y-34864457D02*
X74733333Y-34864457D01*
X74733333Y-34864457D02*
X74809524Y-34902552D01*
X74809524Y-34902552D02*
X74847619Y-34940647D01*
X74847619Y-34940647D02*
X74885714Y-35016838D01*
X74885714Y-35016838D02*
X74885714Y-35207314D01*
X74885714Y-35207314D02*
X74847619Y-35283504D01*
X74847619Y-35283504D02*
X74809524Y-35321600D01*
X74809524Y-35321600D02*
X74733333Y-35359695D01*
X74733333Y-35359695D02*
X74542857Y-35359695D01*
X74542857Y-35359695D02*
X74466667Y-35321600D01*
X74466667Y-35321600D02*
X74428571Y-35283504D01*
X75114286Y-34559695D02*
X75380953Y-35359695D01*
X75380953Y-35359695D02*
X75647619Y-34559695D01*
X71117219Y-33583959D02*
X70117219Y-33583959D01*
X70498171Y-33583959D02*
X70450552Y-33488721D01*
X70450552Y-33488721D02*
X70450552Y-33298245D01*
X70450552Y-33298245D02*
X70498171Y-33203007D01*
X70498171Y-33203007D02*
X70545790Y-33155388D01*
X70545790Y-33155388D02*
X70641028Y-33107769D01*
X70641028Y-33107769D02*
X70926742Y-33107769D01*
X70926742Y-33107769D02*
X71021980Y-33155388D01*
X71021980Y-33155388D02*
X71069600Y-33203007D01*
X71069600Y-33203007D02*
X71117219Y-33298245D01*
X71117219Y-33298245D02*
X71117219Y-33488721D01*
X71117219Y-33488721D02*
X71069600Y-33583959D01*
X71117219Y-32250626D02*
X70593409Y-32250626D01*
X70593409Y-32250626D02*
X70498171Y-32298245D01*
X70498171Y-32298245D02*
X70450552Y-32393483D01*
X70450552Y-32393483D02*
X70450552Y-32583959D01*
X70450552Y-32583959D02*
X70498171Y-32679197D01*
X71069600Y-32250626D02*
X71117219Y-32345864D01*
X71117219Y-32345864D02*
X71117219Y-32583959D01*
X71117219Y-32583959D02*
X71069600Y-32679197D01*
X71069600Y-32679197D02*
X70974361Y-32726816D01*
X70974361Y-32726816D02*
X70879123Y-32726816D01*
X70879123Y-32726816D02*
X70783885Y-32679197D01*
X70783885Y-32679197D02*
X70736266Y-32583959D01*
X70736266Y-32583959D02*
X70736266Y-32345864D01*
X70736266Y-32345864D02*
X70688647Y-32250626D01*
X70450552Y-31917292D02*
X70450552Y-31536340D01*
X70117219Y-31774435D02*
X70974361Y-31774435D01*
X70974361Y-31774435D02*
X71069600Y-31726816D01*
X71069600Y-31726816D02*
X71117219Y-31631578D01*
X71117219Y-31631578D02*
X71117219Y-31536340D01*
X70450552Y-31345863D02*
X70450552Y-30964911D01*
X70117219Y-31203006D02*
X70974361Y-31203006D01*
X70974361Y-31203006D02*
X71069600Y-31155387D01*
X71069600Y-31155387D02*
X71117219Y-31060149D01*
X71117219Y-31060149D02*
X71117219Y-30964911D01*
X70736266Y-30631577D02*
X70736266Y-29869673D01*
X71117219Y-30250625D02*
X70355314Y-30250625D01*
X74433333Y-26809695D02*
X74700000Y-27609695D01*
X74700000Y-27609695D02*
X74966666Y-26809695D01*
X75690476Y-27533504D02*
X75652380Y-27571600D01*
X75652380Y-27571600D02*
X75538095Y-27609695D01*
X75538095Y-27609695D02*
X75461904Y-27609695D01*
X75461904Y-27609695D02*
X75347618Y-27571600D01*
X75347618Y-27571600D02*
X75271428Y-27495409D01*
X75271428Y-27495409D02*
X75233333Y-27419219D01*
X75233333Y-27419219D02*
X75195237Y-27266838D01*
X75195237Y-27266838D02*
X75195237Y-27152552D01*
X75195237Y-27152552D02*
X75233333Y-27000171D01*
X75233333Y-27000171D02*
X75271428Y-26923980D01*
X75271428Y-26923980D02*
X75347618Y-26847790D01*
X75347618Y-26847790D02*
X75461904Y-26809695D01*
X75461904Y-26809695D02*
X75538095Y-26809695D01*
X75538095Y-26809695D02*
X75652380Y-26847790D01*
X75652380Y-26847790D02*
X75690476Y-26885885D01*
X76490476Y-27533504D02*
X76452380Y-27571600D01*
X76452380Y-27571600D02*
X76338095Y-27609695D01*
X76338095Y-27609695D02*
X76261904Y-27609695D01*
X76261904Y-27609695D02*
X76147618Y-27571600D01*
X76147618Y-27571600D02*
X76071428Y-27495409D01*
X76071428Y-27495409D02*
X76033333Y-27419219D01*
X76033333Y-27419219D02*
X75995237Y-27266838D01*
X75995237Y-27266838D02*
X75995237Y-27152552D01*
X75995237Y-27152552D02*
X76033333Y-27000171D01*
X76033333Y-27000171D02*
X76071428Y-26923980D01*
X76071428Y-26923980D02*
X76147618Y-26847790D01*
X76147618Y-26847790D02*
X76261904Y-26809695D01*
X76261904Y-26809695D02*
X76338095Y-26809695D01*
X76338095Y-26809695D02*
X76452380Y-26847790D01*
X76452380Y-26847790D02*
X76490476Y-26885885D01*
D11*
X80457142Y-56859580D02*
X80409523Y-56907200D01*
X80409523Y-56907200D02*
X80266666Y-56954819D01*
X80266666Y-56954819D02*
X80171428Y-56954819D01*
X80171428Y-56954819D02*
X80028571Y-56907200D01*
X80028571Y-56907200D02*
X79933333Y-56811961D01*
X79933333Y-56811961D02*
X79885714Y-56716723D01*
X79885714Y-56716723D02*
X79838095Y-56526247D01*
X79838095Y-56526247D02*
X79838095Y-56383390D01*
X79838095Y-56383390D02*
X79885714Y-56192914D01*
X79885714Y-56192914D02*
X79933333Y-56097676D01*
X79933333Y-56097676D02*
X80028571Y-56002438D01*
X80028571Y-56002438D02*
X80171428Y-55954819D01*
X80171428Y-55954819D02*
X80266666Y-55954819D01*
X80266666Y-55954819D02*
X80409523Y-56002438D01*
X80409523Y-56002438D02*
X80457142Y-56050057D01*
X81409523Y-56954819D02*
X80838095Y-56954819D01*
X81123809Y-56954819D02*
X81123809Y-55954819D01*
X81123809Y-55954819D02*
X81028571Y-56097676D01*
X81028571Y-56097676D02*
X80933333Y-56192914D01*
X80933333Y-56192914D02*
X80838095Y-56240533D01*
X82266666Y-56288152D02*
X82266666Y-56954819D01*
X82028571Y-55907200D02*
X81790476Y-56621485D01*
X81790476Y-56621485D02*
X82409523Y-56621485D01*
X80740490Y-69859580D02*
X80692871Y-69907200D01*
X80692871Y-69907200D02*
X80550014Y-69954819D01*
X80550014Y-69954819D02*
X80454776Y-69954819D01*
X80454776Y-69954819D02*
X80311919Y-69907200D01*
X80311919Y-69907200D02*
X80216681Y-69811961D01*
X80216681Y-69811961D02*
X80169062Y-69716723D01*
X80169062Y-69716723D02*
X80121443Y-69526247D01*
X80121443Y-69526247D02*
X80121443Y-69383390D01*
X80121443Y-69383390D02*
X80169062Y-69192914D01*
X80169062Y-69192914D02*
X80216681Y-69097676D01*
X80216681Y-69097676D02*
X80311919Y-69002438D01*
X80311919Y-69002438D02*
X80454776Y-68954819D01*
X80454776Y-68954819D02*
X80550014Y-68954819D01*
X80550014Y-68954819D02*
X80692871Y-69002438D01*
X80692871Y-69002438D02*
X80740490Y-69050057D01*
X81692871Y-69954819D02*
X81121443Y-69954819D01*
X81407157Y-69954819D02*
X81407157Y-68954819D01*
X81407157Y-68954819D02*
X81311919Y-69097676D01*
X81311919Y-69097676D02*
X81216681Y-69192914D01*
X81216681Y-69192914D02*
X81121443Y-69240533D01*
X82597633Y-68954819D02*
X82121443Y-68954819D01*
X82121443Y-68954819D02*
X82073824Y-69431009D01*
X82073824Y-69431009D02*
X82121443Y-69383390D01*
X82121443Y-69383390D02*
X82216681Y-69335771D01*
X82216681Y-69335771D02*
X82454776Y-69335771D01*
X82454776Y-69335771D02*
X82550014Y-69383390D01*
X82550014Y-69383390D02*
X82597633Y-69431009D01*
X82597633Y-69431009D02*
X82645252Y-69526247D01*
X82645252Y-69526247D02*
X82645252Y-69764342D01*
X82645252Y-69764342D02*
X82597633Y-69859580D01*
X82597633Y-69859580D02*
X82550014Y-69907200D01*
X82550014Y-69907200D02*
X82454776Y-69954819D01*
X82454776Y-69954819D02*
X82216681Y-69954819D01*
X82216681Y-69954819D02*
X82121443Y-69907200D01*
X82121443Y-69907200D02*
X82073824Y-69859580D01*
X84154819Y-73238094D02*
X83154819Y-73238094D01*
X83154819Y-73238094D02*
X83154819Y-72999999D01*
X83154819Y-72999999D02*
X83202438Y-72857142D01*
X83202438Y-72857142D02*
X83297676Y-72761904D01*
X83297676Y-72761904D02*
X83392914Y-72714285D01*
X83392914Y-72714285D02*
X83583390Y-72666666D01*
X83583390Y-72666666D02*
X83726247Y-72666666D01*
X83726247Y-72666666D02*
X83916723Y-72714285D01*
X83916723Y-72714285D02*
X84011961Y-72761904D01*
X84011961Y-72761904D02*
X84107200Y-72857142D01*
X84107200Y-72857142D02*
X84154819Y-72999999D01*
X84154819Y-72999999D02*
X84154819Y-73238094D01*
X83154819Y-72333332D02*
X83154819Y-71666666D01*
X83154819Y-71666666D02*
X84154819Y-72095237D01*
X73511905Y-43204819D02*
X73511905Y-42204819D01*
X73511905Y-42204819D02*
X73750000Y-42204819D01*
X73750000Y-42204819D02*
X73892857Y-42252438D01*
X73892857Y-42252438D02*
X73988095Y-42347676D01*
X73988095Y-42347676D02*
X74035714Y-42442914D01*
X74035714Y-42442914D02*
X74083333Y-42633390D01*
X74083333Y-42633390D02*
X74083333Y-42776247D01*
X74083333Y-42776247D02*
X74035714Y-42966723D01*
X74035714Y-42966723D02*
X73988095Y-43061961D01*
X73988095Y-43061961D02*
X73892857Y-43157200D01*
X73892857Y-43157200D02*
X73750000Y-43204819D01*
X73750000Y-43204819D02*
X73511905Y-43204819D01*
X74416667Y-42204819D02*
X75035714Y-42204819D01*
X75035714Y-42204819D02*
X74702381Y-42585771D01*
X74702381Y-42585771D02*
X74845238Y-42585771D01*
X74845238Y-42585771D02*
X74940476Y-42633390D01*
X74940476Y-42633390D02*
X74988095Y-42681009D01*
X74988095Y-42681009D02*
X75035714Y-42776247D01*
X75035714Y-42776247D02*
X75035714Y-43014342D01*
X75035714Y-43014342D02*
X74988095Y-43109580D01*
X74988095Y-43109580D02*
X74940476Y-43157200D01*
X74940476Y-43157200D02*
X74845238Y-43204819D01*
X74845238Y-43204819D02*
X74559524Y-43204819D01*
X74559524Y-43204819D02*
X74464286Y-43157200D01*
X74464286Y-43157200D02*
X74416667Y-43109580D01*
X71466681Y-52800645D02*
X71133348Y-52324454D01*
X70895253Y-52800645D02*
X70895253Y-51800645D01*
X70895253Y-51800645D02*
X71276205Y-51800645D01*
X71276205Y-51800645D02*
X71371443Y-51848264D01*
X71371443Y-51848264D02*
X71419062Y-51895883D01*
X71419062Y-51895883D02*
X71466681Y-51991121D01*
X71466681Y-51991121D02*
X71466681Y-52133978D01*
X71466681Y-52133978D02*
X71419062Y-52229216D01*
X71419062Y-52229216D02*
X71371443Y-52276835D01*
X71371443Y-52276835D02*
X71276205Y-52324454D01*
X71276205Y-52324454D02*
X70895253Y-52324454D01*
X71942872Y-52800645D02*
X72133348Y-52800645D01*
X72133348Y-52800645D02*
X72228586Y-52753026D01*
X72228586Y-52753026D02*
X72276205Y-52705406D01*
X72276205Y-52705406D02*
X72371443Y-52562549D01*
X72371443Y-52562549D02*
X72419062Y-52372073D01*
X72419062Y-52372073D02*
X72419062Y-51991121D01*
X72419062Y-51991121D02*
X72371443Y-51895883D01*
X72371443Y-51895883D02*
X72323824Y-51848264D01*
X72323824Y-51848264D02*
X72228586Y-51800645D01*
X72228586Y-51800645D02*
X72038110Y-51800645D01*
X72038110Y-51800645D02*
X71942872Y-51848264D01*
X71942872Y-51848264D02*
X71895253Y-51895883D01*
X71895253Y-51895883D02*
X71847634Y-51991121D01*
X71847634Y-51991121D02*
X71847634Y-52229216D01*
X71847634Y-52229216D02*
X71895253Y-52324454D01*
X71895253Y-52324454D02*
X71942872Y-52372073D01*
X71942872Y-52372073D02*
X72038110Y-52419692D01*
X72038110Y-52419692D02*
X72228586Y-52419692D01*
X72228586Y-52419692D02*
X72323824Y-52372073D01*
X72323824Y-52372073D02*
X72371443Y-52324454D01*
X72371443Y-52324454D02*
X72419062Y-52229216D01*
X80011905Y-75454819D02*
X80011905Y-74454819D01*
X80011905Y-74454819D02*
X80250000Y-74454819D01*
X80250000Y-74454819D02*
X80392857Y-74502438D01*
X80392857Y-74502438D02*
X80488095Y-74597676D01*
X80488095Y-74597676D02*
X80535714Y-74692914D01*
X80535714Y-74692914D02*
X80583333Y-74883390D01*
X80583333Y-74883390D02*
X80583333Y-75026247D01*
X80583333Y-75026247D02*
X80535714Y-75216723D01*
X80535714Y-75216723D02*
X80488095Y-75311961D01*
X80488095Y-75311961D02*
X80392857Y-75407200D01*
X80392857Y-75407200D02*
X80250000Y-75454819D01*
X80250000Y-75454819D02*
X80011905Y-75454819D01*
X81535714Y-75454819D02*
X80964286Y-75454819D01*
X81250000Y-75454819D02*
X81250000Y-74454819D01*
X81250000Y-74454819D02*
X81154762Y-74597676D01*
X81154762Y-74597676D02*
X81059524Y-74692914D01*
X81059524Y-74692914D02*
X80964286Y-74740533D01*
X76583333Y-68454819D02*
X76107143Y-68454819D01*
X76107143Y-68454819D02*
X76107143Y-67454819D01*
X77392857Y-67454819D02*
X76916667Y-67454819D01*
X76916667Y-67454819D02*
X76869048Y-67931009D01*
X76869048Y-67931009D02*
X76916667Y-67883390D01*
X76916667Y-67883390D02*
X77011905Y-67835771D01*
X77011905Y-67835771D02*
X77250000Y-67835771D01*
X77250000Y-67835771D02*
X77345238Y-67883390D01*
X77345238Y-67883390D02*
X77392857Y-67931009D01*
X77392857Y-67931009D02*
X77440476Y-68026247D01*
X77440476Y-68026247D02*
X77440476Y-68264342D01*
X77440476Y-68264342D02*
X77392857Y-68359580D01*
X77392857Y-68359580D02*
X77345238Y-68407200D01*
X77345238Y-68407200D02*
X77250000Y-68454819D01*
X77250000Y-68454819D02*
X77011905Y-68454819D01*
X77011905Y-68454819D02*
X76916667Y-68407200D01*
X76916667Y-68407200D02*
X76869048Y-68359580D01*
X80933333Y-35709580D02*
X80885714Y-35757200D01*
X80885714Y-35757200D02*
X80742857Y-35804819D01*
X80742857Y-35804819D02*
X80647619Y-35804819D01*
X80647619Y-35804819D02*
X80504762Y-35757200D01*
X80504762Y-35757200D02*
X80409524Y-35661961D01*
X80409524Y-35661961D02*
X80361905Y-35566723D01*
X80361905Y-35566723D02*
X80314286Y-35376247D01*
X80314286Y-35376247D02*
X80314286Y-35233390D01*
X80314286Y-35233390D02*
X80361905Y-35042914D01*
X80361905Y-35042914D02*
X80409524Y-34947676D01*
X80409524Y-34947676D02*
X80504762Y-34852438D01*
X80504762Y-34852438D02*
X80647619Y-34804819D01*
X80647619Y-34804819D02*
X80742857Y-34804819D01*
X80742857Y-34804819D02*
X80885714Y-34852438D01*
X80885714Y-34852438D02*
X80933333Y-34900057D01*
X81266667Y-34804819D02*
X81885714Y-34804819D01*
X81885714Y-34804819D02*
X81552381Y-35185771D01*
X81552381Y-35185771D02*
X81695238Y-35185771D01*
X81695238Y-35185771D02*
X81790476Y-35233390D01*
X81790476Y-35233390D02*
X81838095Y-35281009D01*
X81838095Y-35281009D02*
X81885714Y-35376247D01*
X81885714Y-35376247D02*
X81885714Y-35614342D01*
X81885714Y-35614342D02*
X81838095Y-35709580D01*
X81838095Y-35709580D02*
X81790476Y-35757200D01*
X81790476Y-35757200D02*
X81695238Y-35804819D01*
X81695238Y-35804819D02*
X81409524Y-35804819D01*
X81409524Y-35804819D02*
X81314286Y-35757200D01*
X81314286Y-35757200D02*
X81266667Y-35709580D01*
X71757142Y-64459580D02*
X71709523Y-64507200D01*
X71709523Y-64507200D02*
X71566666Y-64554819D01*
X71566666Y-64554819D02*
X71471428Y-64554819D01*
X71471428Y-64554819D02*
X71328571Y-64507200D01*
X71328571Y-64507200D02*
X71233333Y-64411961D01*
X71233333Y-64411961D02*
X71185714Y-64316723D01*
X71185714Y-64316723D02*
X71138095Y-64126247D01*
X71138095Y-64126247D02*
X71138095Y-63983390D01*
X71138095Y-63983390D02*
X71185714Y-63792914D01*
X71185714Y-63792914D02*
X71233333Y-63697676D01*
X71233333Y-63697676D02*
X71328571Y-63602438D01*
X71328571Y-63602438D02*
X71471428Y-63554819D01*
X71471428Y-63554819D02*
X71566666Y-63554819D01*
X71566666Y-63554819D02*
X71709523Y-63602438D01*
X71709523Y-63602438D02*
X71757142Y-63650057D01*
X72709523Y-64554819D02*
X72138095Y-64554819D01*
X72423809Y-64554819D02*
X72423809Y-63554819D01*
X72423809Y-63554819D02*
X72328571Y-63697676D01*
X72328571Y-63697676D02*
X72233333Y-63792914D01*
X72233333Y-63792914D02*
X72138095Y-63840533D01*
X73090476Y-63650057D02*
X73138095Y-63602438D01*
X73138095Y-63602438D02*
X73233333Y-63554819D01*
X73233333Y-63554819D02*
X73471428Y-63554819D01*
X73471428Y-63554819D02*
X73566666Y-63602438D01*
X73566666Y-63602438D02*
X73614285Y-63650057D01*
X73614285Y-63650057D02*
X73661904Y-63745295D01*
X73661904Y-63745295D02*
X73661904Y-63840533D01*
X73661904Y-63840533D02*
X73614285Y-63983390D01*
X73614285Y-63983390D02*
X73042857Y-64554819D01*
X73042857Y-64554819D02*
X73661904Y-64554819D01*
X74633333Y-75359580D02*
X74585714Y-75407200D01*
X74585714Y-75407200D02*
X74442857Y-75454819D01*
X74442857Y-75454819D02*
X74347619Y-75454819D01*
X74347619Y-75454819D02*
X74204762Y-75407200D01*
X74204762Y-75407200D02*
X74109524Y-75311961D01*
X74109524Y-75311961D02*
X74061905Y-75216723D01*
X74061905Y-75216723D02*
X74014286Y-75026247D01*
X74014286Y-75026247D02*
X74014286Y-74883390D01*
X74014286Y-74883390D02*
X74061905Y-74692914D01*
X74061905Y-74692914D02*
X74109524Y-74597676D01*
X74109524Y-74597676D02*
X74204762Y-74502438D01*
X74204762Y-74502438D02*
X74347619Y-74454819D01*
X74347619Y-74454819D02*
X74442857Y-74454819D01*
X74442857Y-74454819D02*
X74585714Y-74502438D01*
X74585714Y-74502438D02*
X74633333Y-74550057D01*
X75490476Y-74788152D02*
X75490476Y-75454819D01*
X75252381Y-74407200D02*
X75014286Y-75121485D01*
X75014286Y-75121485D02*
X75633333Y-75121485D01*
X84109580Y-62142857D02*
X84157200Y-62190476D01*
X84157200Y-62190476D02*
X84204819Y-62333333D01*
X84204819Y-62333333D02*
X84204819Y-62428571D01*
X84204819Y-62428571D02*
X84157200Y-62571428D01*
X84157200Y-62571428D02*
X84061961Y-62666666D01*
X84061961Y-62666666D02*
X83966723Y-62714285D01*
X83966723Y-62714285D02*
X83776247Y-62761904D01*
X83776247Y-62761904D02*
X83633390Y-62761904D01*
X83633390Y-62761904D02*
X83442914Y-62714285D01*
X83442914Y-62714285D02*
X83347676Y-62666666D01*
X83347676Y-62666666D02*
X83252438Y-62571428D01*
X83252438Y-62571428D02*
X83204819Y-62428571D01*
X83204819Y-62428571D02*
X83204819Y-62333333D01*
X83204819Y-62333333D02*
X83252438Y-62190476D01*
X83252438Y-62190476D02*
X83300057Y-62142857D01*
X84204819Y-61190476D02*
X84204819Y-61761904D01*
X84204819Y-61476190D02*
X83204819Y-61476190D01*
X83204819Y-61476190D02*
X83347676Y-61571428D01*
X83347676Y-61571428D02*
X83442914Y-61666666D01*
X83442914Y-61666666D02*
X83490533Y-61761904D01*
X83204819Y-60857142D02*
X83204819Y-60238095D01*
X83204819Y-60238095D02*
X83585771Y-60571428D01*
X83585771Y-60571428D02*
X83585771Y-60428571D01*
X83585771Y-60428571D02*
X83633390Y-60333333D01*
X83633390Y-60333333D02*
X83681009Y-60285714D01*
X83681009Y-60285714D02*
X83776247Y-60238095D01*
X83776247Y-60238095D02*
X84014342Y-60238095D01*
X84014342Y-60238095D02*
X84109580Y-60285714D01*
X84109580Y-60285714D02*
X84157200Y-60333333D01*
X84157200Y-60333333D02*
X84204819Y-60428571D01*
X84204819Y-60428571D02*
X84204819Y-60714285D01*
X84204819Y-60714285D02*
X84157200Y-60809523D01*
X84157200Y-60809523D02*
X84109580Y-60857142D01*
X74333333Y-54204819D02*
X74000000Y-53728628D01*
X73761905Y-54204819D02*
X73761905Y-53204819D01*
X73761905Y-53204819D02*
X74142857Y-53204819D01*
X74142857Y-53204819D02*
X74238095Y-53252438D01*
X74238095Y-53252438D02*
X74285714Y-53300057D01*
X74285714Y-53300057D02*
X74333333Y-53395295D01*
X74333333Y-53395295D02*
X74333333Y-53538152D01*
X74333333Y-53538152D02*
X74285714Y-53633390D01*
X74285714Y-53633390D02*
X74238095Y-53681009D01*
X74238095Y-53681009D02*
X74142857Y-53728628D01*
X74142857Y-53728628D02*
X73761905Y-53728628D01*
X75190476Y-53538152D02*
X75190476Y-54204819D01*
X74952381Y-53157200D02*
X74714286Y-53871485D01*
X74714286Y-53871485D02*
X75333333Y-53871485D01*
X81404761Y-42550057D02*
X81309523Y-42502438D01*
X81309523Y-42502438D02*
X81214285Y-42407200D01*
X81214285Y-42407200D02*
X81071428Y-42264342D01*
X81071428Y-42264342D02*
X80976190Y-42216723D01*
X80976190Y-42216723D02*
X80880952Y-42216723D01*
X80928571Y-42454819D02*
X80833333Y-42407200D01*
X80833333Y-42407200D02*
X80738095Y-42311961D01*
X80738095Y-42311961D02*
X80690476Y-42121485D01*
X80690476Y-42121485D02*
X80690476Y-41788152D01*
X80690476Y-41788152D02*
X80738095Y-41597676D01*
X80738095Y-41597676D02*
X80833333Y-41502438D01*
X80833333Y-41502438D02*
X80928571Y-41454819D01*
X80928571Y-41454819D02*
X81119047Y-41454819D01*
X81119047Y-41454819D02*
X81214285Y-41502438D01*
X81214285Y-41502438D02*
X81309523Y-41597676D01*
X81309523Y-41597676D02*
X81357142Y-41788152D01*
X81357142Y-41788152D02*
X81357142Y-42121485D01*
X81357142Y-42121485D02*
X81309523Y-42311961D01*
X81309523Y-42311961D02*
X81214285Y-42407200D01*
X81214285Y-42407200D02*
X81119047Y-42454819D01*
X81119047Y-42454819D02*
X80928571Y-42454819D01*
X82309523Y-42454819D02*
X81738095Y-42454819D01*
X82023809Y-42454819D02*
X82023809Y-41454819D01*
X82023809Y-41454819D02*
X81928571Y-41597676D01*
X81928571Y-41597676D02*
X81833333Y-41692914D01*
X81833333Y-41692914D02*
X81738095Y-41740533D01*
X80583333Y-49454819D02*
X80250000Y-48978628D01*
X80011905Y-49454819D02*
X80011905Y-48454819D01*
X80011905Y-48454819D02*
X80392857Y-48454819D01*
X80392857Y-48454819D02*
X80488095Y-48502438D01*
X80488095Y-48502438D02*
X80535714Y-48550057D01*
X80535714Y-48550057D02*
X80583333Y-48645295D01*
X80583333Y-48645295D02*
X80583333Y-48788152D01*
X80583333Y-48788152D02*
X80535714Y-48883390D01*
X80535714Y-48883390D02*
X80488095Y-48931009D01*
X80488095Y-48931009D02*
X80392857Y-48978628D01*
X80392857Y-48978628D02*
X80011905Y-48978628D01*
X81488095Y-48454819D02*
X81011905Y-48454819D01*
X81011905Y-48454819D02*
X80964286Y-48931009D01*
X80964286Y-48931009D02*
X81011905Y-48883390D01*
X81011905Y-48883390D02*
X81107143Y-48835771D01*
X81107143Y-48835771D02*
X81345238Y-48835771D01*
X81345238Y-48835771D02*
X81440476Y-48883390D01*
X81440476Y-48883390D02*
X81488095Y-48931009D01*
X81488095Y-48931009D02*
X81535714Y-49026247D01*
X81535714Y-49026247D02*
X81535714Y-49264342D01*
X81535714Y-49264342D02*
X81488095Y-49359580D01*
X81488095Y-49359580D02*
X81440476Y-49407200D01*
X81440476Y-49407200D02*
X81345238Y-49454819D01*
X81345238Y-49454819D02*
X81107143Y-49454819D01*
X81107143Y-49454819D02*
X81011905Y-49407200D01*
X81011905Y-49407200D02*
X80964286Y-49359580D01*
X82833333Y-81204819D02*
X82357143Y-81204819D01*
X82357143Y-81204819D02*
X82357143Y-80204819D01*
X83595238Y-80538152D02*
X83595238Y-81204819D01*
X83357143Y-80157200D02*
X83119048Y-80871485D01*
X83119048Y-80871485D02*
X83738095Y-80871485D01*
X74857142Y-39609580D02*
X74809523Y-39657200D01*
X74809523Y-39657200D02*
X74666666Y-39704819D01*
X74666666Y-39704819D02*
X74571428Y-39704819D01*
X74571428Y-39704819D02*
X74428571Y-39657200D01*
X74428571Y-39657200D02*
X74333333Y-39561961D01*
X74333333Y-39561961D02*
X74285714Y-39466723D01*
X74285714Y-39466723D02*
X74238095Y-39276247D01*
X74238095Y-39276247D02*
X74238095Y-39133390D01*
X74238095Y-39133390D02*
X74285714Y-38942914D01*
X74285714Y-38942914D02*
X74333333Y-38847676D01*
X74333333Y-38847676D02*
X74428571Y-38752438D01*
X74428571Y-38752438D02*
X74571428Y-38704819D01*
X74571428Y-38704819D02*
X74666666Y-38704819D01*
X74666666Y-38704819D02*
X74809523Y-38752438D01*
X74809523Y-38752438D02*
X74857142Y-38800057D01*
X75809523Y-39704819D02*
X75238095Y-39704819D01*
X75523809Y-39704819D02*
X75523809Y-38704819D01*
X75523809Y-38704819D02*
X75428571Y-38847676D01*
X75428571Y-38847676D02*
X75333333Y-38942914D01*
X75333333Y-38942914D02*
X75238095Y-38990533D01*
X76428571Y-38704819D02*
X76523809Y-38704819D01*
X76523809Y-38704819D02*
X76619047Y-38752438D01*
X76619047Y-38752438D02*
X76666666Y-38800057D01*
X76666666Y-38800057D02*
X76714285Y-38895295D01*
X76714285Y-38895295D02*
X76761904Y-39085771D01*
X76761904Y-39085771D02*
X76761904Y-39323866D01*
X76761904Y-39323866D02*
X76714285Y-39514342D01*
X76714285Y-39514342D02*
X76666666Y-39609580D01*
X76666666Y-39609580D02*
X76619047Y-39657200D01*
X76619047Y-39657200D02*
X76523809Y-39704819D01*
X76523809Y-39704819D02*
X76428571Y-39704819D01*
X76428571Y-39704819D02*
X76333333Y-39657200D01*
X76333333Y-39657200D02*
X76285714Y-39609580D01*
X76285714Y-39609580D02*
X76238095Y-39514342D01*
X76238095Y-39514342D02*
X76190476Y-39323866D01*
X76190476Y-39323866D02*
X76190476Y-39085771D01*
X76190476Y-39085771D02*
X76238095Y-38895295D01*
X76238095Y-38895295D02*
X76285714Y-38800057D01*
X76285714Y-38800057D02*
X76333333Y-38752438D01*
X76333333Y-38752438D02*
X76428571Y-38704819D01*
X70904761Y-42274819D02*
X70571428Y-41798628D01*
X70333333Y-42274819D02*
X70333333Y-41274819D01*
X70333333Y-41274819D02*
X70714285Y-41274819D01*
X70714285Y-41274819D02*
X70809523Y-41322438D01*
X70809523Y-41322438D02*
X70857142Y-41370057D01*
X70857142Y-41370057D02*
X70904761Y-41465295D01*
X70904761Y-41465295D02*
X70904761Y-41608152D01*
X70904761Y-41608152D02*
X70857142Y-41703390D01*
X70857142Y-41703390D02*
X70809523Y-41751009D01*
X70809523Y-41751009D02*
X70714285Y-41798628D01*
X70714285Y-41798628D02*
X70333333Y-41798628D01*
X71190476Y-41274819D02*
X71523809Y-42274819D01*
X71523809Y-42274819D02*
X71857142Y-41274819D01*
X72714285Y-42274819D02*
X72142857Y-42274819D01*
X72428571Y-42274819D02*
X72428571Y-41274819D01*
X72428571Y-41274819D02*
X72333333Y-41417676D01*
X72333333Y-41417676D02*
X72238095Y-41512914D01*
X72238095Y-41512914D02*
X72142857Y-41560533D01*
X76359580Y-72666666D02*
X76407200Y-72714285D01*
X76407200Y-72714285D02*
X76454819Y-72857142D01*
X76454819Y-72857142D02*
X76454819Y-72952380D01*
X76454819Y-72952380D02*
X76407200Y-73095237D01*
X76407200Y-73095237D02*
X76311961Y-73190475D01*
X76311961Y-73190475D02*
X76216723Y-73238094D01*
X76216723Y-73238094D02*
X76026247Y-73285713D01*
X76026247Y-73285713D02*
X75883390Y-73285713D01*
X75883390Y-73285713D02*
X75692914Y-73238094D01*
X75692914Y-73238094D02*
X75597676Y-73190475D01*
X75597676Y-73190475D02*
X75502438Y-73095237D01*
X75502438Y-73095237D02*
X75454819Y-72952380D01*
X75454819Y-72952380D02*
X75454819Y-72857142D01*
X75454819Y-72857142D02*
X75502438Y-72714285D01*
X75502438Y-72714285D02*
X75550057Y-72666666D01*
X75454819Y-71761904D02*
X75454819Y-72238094D01*
X75454819Y-72238094D02*
X75931009Y-72285713D01*
X75931009Y-72285713D02*
X75883390Y-72238094D01*
X75883390Y-72238094D02*
X75835771Y-72142856D01*
X75835771Y-72142856D02*
X75835771Y-71904761D01*
X75835771Y-71904761D02*
X75883390Y-71809523D01*
X75883390Y-71809523D02*
X75931009Y-71761904D01*
X75931009Y-71761904D02*
X76026247Y-71714285D01*
X76026247Y-71714285D02*
X76264342Y-71714285D01*
X76264342Y-71714285D02*
X76359580Y-71761904D01*
X76359580Y-71761904D02*
X76407200Y-71809523D01*
X76407200Y-71809523D02*
X76454819Y-71904761D01*
X76454819Y-71904761D02*
X76454819Y-72142856D01*
X76454819Y-72142856D02*
X76407200Y-72238094D01*
X76407200Y-72238094D02*
X76359580Y-72285713D01*
X75454819Y-48738094D02*
X74454819Y-48738094D01*
X74454819Y-48738094D02*
X74454819Y-48499999D01*
X74454819Y-48499999D02*
X74502438Y-48357142D01*
X74502438Y-48357142D02*
X74597676Y-48261904D01*
X74597676Y-48261904D02*
X74692914Y-48214285D01*
X74692914Y-48214285D02*
X74883390Y-48166666D01*
X74883390Y-48166666D02*
X75026247Y-48166666D01*
X75026247Y-48166666D02*
X75216723Y-48214285D01*
X75216723Y-48214285D02*
X75311961Y-48261904D01*
X75311961Y-48261904D02*
X75407200Y-48357142D01*
X75407200Y-48357142D02*
X75454819Y-48499999D01*
X75454819Y-48499999D02*
X75454819Y-48738094D01*
X74550057Y-47785713D02*
X74502438Y-47738094D01*
X74502438Y-47738094D02*
X74454819Y-47642856D01*
X74454819Y-47642856D02*
X74454819Y-47404761D01*
X74454819Y-47404761D02*
X74502438Y-47309523D01*
X74502438Y-47309523D02*
X74550057Y-47261904D01*
X74550057Y-47261904D02*
X74645295Y-47214285D01*
X74645295Y-47214285D02*
X74740533Y-47214285D01*
X74740533Y-47214285D02*
X74883390Y-47261904D01*
X74883390Y-47261904D02*
X75454819Y-47833332D01*
X75454819Y-47833332D02*
X75454819Y-47214285D01*
X77457142Y-56954819D02*
X77123809Y-56478628D01*
X76885714Y-56954819D02*
X76885714Y-55954819D01*
X76885714Y-55954819D02*
X77266666Y-55954819D01*
X77266666Y-55954819D02*
X77361904Y-56002438D01*
X77361904Y-56002438D02*
X77409523Y-56050057D01*
X77409523Y-56050057D02*
X77457142Y-56145295D01*
X77457142Y-56145295D02*
X77457142Y-56288152D01*
X77457142Y-56288152D02*
X77409523Y-56383390D01*
X77409523Y-56383390D02*
X77361904Y-56431009D01*
X77361904Y-56431009D02*
X77266666Y-56478628D01*
X77266666Y-56478628D02*
X76885714Y-56478628D01*
X78409523Y-56954819D02*
X77838095Y-56954819D01*
X78123809Y-56954819D02*
X78123809Y-55954819D01*
X78123809Y-55954819D02*
X78028571Y-56097676D01*
X78028571Y-56097676D02*
X77933333Y-56192914D01*
X77933333Y-56192914D02*
X77838095Y-56240533D01*
X78790476Y-56050057D02*
X78838095Y-56002438D01*
X78838095Y-56002438D02*
X78933333Y-55954819D01*
X78933333Y-55954819D02*
X79171428Y-55954819D01*
X79171428Y-55954819D02*
X79266666Y-56002438D01*
X79266666Y-56002438D02*
X79314285Y-56050057D01*
X79314285Y-56050057D02*
X79361904Y-56145295D01*
X79361904Y-56145295D02*
X79361904Y-56240533D01*
X79361904Y-56240533D02*
X79314285Y-56383390D01*
X79314285Y-56383390D02*
X78742857Y-56954819D01*
X78742857Y-56954819D02*
X79361904Y-56954819D01*
X80859580Y-53742857D02*
X80907200Y-53790476D01*
X80907200Y-53790476D02*
X80954819Y-53933333D01*
X80954819Y-53933333D02*
X80954819Y-54028571D01*
X80954819Y-54028571D02*
X80907200Y-54171428D01*
X80907200Y-54171428D02*
X80811961Y-54266666D01*
X80811961Y-54266666D02*
X80716723Y-54314285D01*
X80716723Y-54314285D02*
X80526247Y-54361904D01*
X80526247Y-54361904D02*
X80383390Y-54361904D01*
X80383390Y-54361904D02*
X80192914Y-54314285D01*
X80192914Y-54314285D02*
X80097676Y-54266666D01*
X80097676Y-54266666D02*
X80002438Y-54171428D01*
X80002438Y-54171428D02*
X79954819Y-54028571D01*
X79954819Y-54028571D02*
X79954819Y-53933333D01*
X79954819Y-53933333D02*
X80002438Y-53790476D01*
X80002438Y-53790476D02*
X80050057Y-53742857D01*
X80954819Y-52790476D02*
X80954819Y-53361904D01*
X80954819Y-53076190D02*
X79954819Y-53076190D01*
X79954819Y-53076190D02*
X80097676Y-53171428D01*
X80097676Y-53171428D02*
X80192914Y-53266666D01*
X80192914Y-53266666D02*
X80240533Y-53361904D01*
X79954819Y-51933333D02*
X79954819Y-52123809D01*
X79954819Y-52123809D02*
X80002438Y-52219047D01*
X80002438Y-52219047D02*
X80050057Y-52266666D01*
X80050057Y-52266666D02*
X80192914Y-52361904D01*
X80192914Y-52361904D02*
X80383390Y-52409523D01*
X80383390Y-52409523D02*
X80764342Y-52409523D01*
X80764342Y-52409523D02*
X80859580Y-52361904D01*
X80859580Y-52361904D02*
X80907200Y-52314285D01*
X80907200Y-52314285D02*
X80954819Y-52219047D01*
X80954819Y-52219047D02*
X80954819Y-52028571D01*
X80954819Y-52028571D02*
X80907200Y-51933333D01*
X80907200Y-51933333D02*
X80859580Y-51885714D01*
X80859580Y-51885714D02*
X80764342Y-51838095D01*
X80764342Y-51838095D02*
X80526247Y-51838095D01*
X80526247Y-51838095D02*
X80431009Y-51885714D01*
X80431009Y-51885714D02*
X80383390Y-51933333D01*
X80383390Y-51933333D02*
X80335771Y-52028571D01*
X80335771Y-52028571D02*
X80335771Y-52219047D01*
X80335771Y-52219047D02*
X80383390Y-52314285D01*
X80383390Y-52314285D02*
X80431009Y-52361904D01*
X80431009Y-52361904D02*
X80526247Y-52409523D01*
X72333333Y-71454819D02*
X72000000Y-70978628D01*
X71761905Y-71454819D02*
X71761905Y-70454819D01*
X71761905Y-70454819D02*
X72142857Y-70454819D01*
X72142857Y-70454819D02*
X72238095Y-70502438D01*
X72238095Y-70502438D02*
X72285714Y-70550057D01*
X72285714Y-70550057D02*
X72333333Y-70645295D01*
X72333333Y-70645295D02*
X72333333Y-70788152D01*
X72333333Y-70788152D02*
X72285714Y-70883390D01*
X72285714Y-70883390D02*
X72238095Y-70931009D01*
X72238095Y-70931009D02*
X72142857Y-70978628D01*
X72142857Y-70978628D02*
X71761905Y-70978628D01*
X72904762Y-70883390D02*
X72809524Y-70835771D01*
X72809524Y-70835771D02*
X72761905Y-70788152D01*
X72761905Y-70788152D02*
X72714286Y-70692914D01*
X72714286Y-70692914D02*
X72714286Y-70645295D01*
X72714286Y-70645295D02*
X72761905Y-70550057D01*
X72761905Y-70550057D02*
X72809524Y-70502438D01*
X72809524Y-70502438D02*
X72904762Y-70454819D01*
X72904762Y-70454819D02*
X73095238Y-70454819D01*
X73095238Y-70454819D02*
X73190476Y-70502438D01*
X73190476Y-70502438D02*
X73238095Y-70550057D01*
X73238095Y-70550057D02*
X73285714Y-70645295D01*
X73285714Y-70645295D02*
X73285714Y-70692914D01*
X73285714Y-70692914D02*
X73238095Y-70788152D01*
X73238095Y-70788152D02*
X73190476Y-70835771D01*
X73190476Y-70835771D02*
X73095238Y-70883390D01*
X73095238Y-70883390D02*
X72904762Y-70883390D01*
X72904762Y-70883390D02*
X72809524Y-70931009D01*
X72809524Y-70931009D02*
X72761905Y-70978628D01*
X72761905Y-70978628D02*
X72714286Y-71073866D01*
X72714286Y-71073866D02*
X72714286Y-71264342D01*
X72714286Y-71264342D02*
X72761905Y-71359580D01*
X72761905Y-71359580D02*
X72809524Y-71407200D01*
X72809524Y-71407200D02*
X72904762Y-71454819D01*
X72904762Y-71454819D02*
X73095238Y-71454819D01*
X73095238Y-71454819D02*
X73190476Y-71407200D01*
X73190476Y-71407200D02*
X73238095Y-71359580D01*
X73238095Y-71359580D02*
X73285714Y-71264342D01*
X73285714Y-71264342D02*
X73285714Y-71073866D01*
X73285714Y-71073866D02*
X73238095Y-70978628D01*
X73238095Y-70978628D02*
X73190476Y-70931009D01*
X73190476Y-70931009D02*
X73095238Y-70883390D01*
X77754819Y-73142857D02*
X77278628Y-73476190D01*
X77754819Y-73714285D02*
X76754819Y-73714285D01*
X76754819Y-73714285D02*
X76754819Y-73333333D01*
X76754819Y-73333333D02*
X76802438Y-73238095D01*
X76802438Y-73238095D02*
X76850057Y-73190476D01*
X76850057Y-73190476D02*
X76945295Y-73142857D01*
X76945295Y-73142857D02*
X77088152Y-73142857D01*
X77088152Y-73142857D02*
X77183390Y-73190476D01*
X77183390Y-73190476D02*
X77231009Y-73238095D01*
X77231009Y-73238095D02*
X77278628Y-73333333D01*
X77278628Y-73333333D02*
X77278628Y-73714285D01*
X77754819Y-72190476D02*
X77754819Y-72761904D01*
X77754819Y-72476190D02*
X76754819Y-72476190D01*
X76754819Y-72476190D02*
X76897676Y-72571428D01*
X76897676Y-72571428D02*
X76992914Y-72666666D01*
X76992914Y-72666666D02*
X77040533Y-72761904D01*
X77088152Y-71333333D02*
X77754819Y-71333333D01*
X76707200Y-71571428D02*
X77421485Y-71809523D01*
X77421485Y-71809523D02*
X77421485Y-71190476D01*
X75583333Y-88359580D02*
X75535714Y-88407200D01*
X75535714Y-88407200D02*
X75392857Y-88454819D01*
X75392857Y-88454819D02*
X75297619Y-88454819D01*
X75297619Y-88454819D02*
X75154762Y-88407200D01*
X75154762Y-88407200D02*
X75059524Y-88311961D01*
X75059524Y-88311961D02*
X75011905Y-88216723D01*
X75011905Y-88216723D02*
X74964286Y-88026247D01*
X74964286Y-88026247D02*
X74964286Y-87883390D01*
X74964286Y-87883390D02*
X75011905Y-87692914D01*
X75011905Y-87692914D02*
X75059524Y-87597676D01*
X75059524Y-87597676D02*
X75154762Y-87502438D01*
X75154762Y-87502438D02*
X75297619Y-87454819D01*
X75297619Y-87454819D02*
X75392857Y-87454819D01*
X75392857Y-87454819D02*
X75535714Y-87502438D01*
X75535714Y-87502438D02*
X75583333Y-87550057D01*
X76059524Y-88454819D02*
X76250000Y-88454819D01*
X76250000Y-88454819D02*
X76345238Y-88407200D01*
X76345238Y-88407200D02*
X76392857Y-88359580D01*
X76392857Y-88359580D02*
X76488095Y-88216723D01*
X76488095Y-88216723D02*
X76535714Y-88026247D01*
X76535714Y-88026247D02*
X76535714Y-87645295D01*
X76535714Y-87645295D02*
X76488095Y-87550057D01*
X76488095Y-87550057D02*
X76440476Y-87502438D01*
X76440476Y-87502438D02*
X76345238Y-87454819D01*
X76345238Y-87454819D02*
X76154762Y-87454819D01*
X76154762Y-87454819D02*
X76059524Y-87502438D01*
X76059524Y-87502438D02*
X76011905Y-87550057D01*
X76011905Y-87550057D02*
X75964286Y-87645295D01*
X75964286Y-87645295D02*
X75964286Y-87883390D01*
X75964286Y-87883390D02*
X76011905Y-87978628D01*
X76011905Y-87978628D02*
X76059524Y-88026247D01*
X76059524Y-88026247D02*
X76154762Y-88073866D01*
X76154762Y-88073866D02*
X76345238Y-88073866D01*
X76345238Y-88073866D02*
X76440476Y-88026247D01*
X76440476Y-88026247D02*
X76488095Y-87978628D01*
X76488095Y-87978628D02*
X76535714Y-87883390D01*
X70738095Y-81704819D02*
X70738095Y-82514342D01*
X70738095Y-82514342D02*
X70785714Y-82609580D01*
X70785714Y-82609580D02*
X70833333Y-82657200D01*
X70833333Y-82657200D02*
X70928571Y-82704819D01*
X70928571Y-82704819D02*
X71119047Y-82704819D01*
X71119047Y-82704819D02*
X71214285Y-82657200D01*
X71214285Y-82657200D02*
X71261904Y-82609580D01*
X71261904Y-82609580D02*
X71309523Y-82514342D01*
X71309523Y-82514342D02*
X71309523Y-81704819D01*
X71690476Y-81704819D02*
X72309523Y-81704819D01*
X72309523Y-81704819D02*
X71976190Y-82085771D01*
X71976190Y-82085771D02*
X72119047Y-82085771D01*
X72119047Y-82085771D02*
X72214285Y-82133390D01*
X72214285Y-82133390D02*
X72261904Y-82181009D01*
X72261904Y-82181009D02*
X72309523Y-82276247D01*
X72309523Y-82276247D02*
X72309523Y-82514342D01*
X72309523Y-82514342D02*
X72261904Y-82609580D01*
X72261904Y-82609580D02*
X72214285Y-82657200D01*
X72214285Y-82657200D02*
X72119047Y-82704819D01*
X72119047Y-82704819D02*
X71833333Y-82704819D01*
X71833333Y-82704819D02*
X71738095Y-82657200D01*
X71738095Y-82657200D02*
X71690476Y-82609580D01*
X71583333Y-80204819D02*
X71250000Y-79728628D01*
X71011905Y-80204819D02*
X71011905Y-79204819D01*
X71011905Y-79204819D02*
X71392857Y-79204819D01*
X71392857Y-79204819D02*
X71488095Y-79252438D01*
X71488095Y-79252438D02*
X71535714Y-79300057D01*
X71535714Y-79300057D02*
X71583333Y-79395295D01*
X71583333Y-79395295D02*
X71583333Y-79538152D01*
X71583333Y-79538152D02*
X71535714Y-79633390D01*
X71535714Y-79633390D02*
X71488095Y-79681009D01*
X71488095Y-79681009D02*
X71392857Y-79728628D01*
X71392857Y-79728628D02*
X71011905Y-79728628D01*
X72535714Y-80204819D02*
X71964286Y-80204819D01*
X72250000Y-80204819D02*
X72250000Y-79204819D01*
X72250000Y-79204819D02*
X72154762Y-79347676D01*
X72154762Y-79347676D02*
X72059524Y-79442914D01*
X72059524Y-79442914D02*
X71964286Y-79490533D01*
X69954819Y-60261904D02*
X70764342Y-60261904D01*
X70764342Y-60261904D02*
X70859580Y-60214285D01*
X70859580Y-60214285D02*
X70907200Y-60166666D01*
X70907200Y-60166666D02*
X70954819Y-60071428D01*
X70954819Y-60071428D02*
X70954819Y-59880952D01*
X70954819Y-59880952D02*
X70907200Y-59785714D01*
X70907200Y-59785714D02*
X70859580Y-59738095D01*
X70859580Y-59738095D02*
X70764342Y-59690476D01*
X70764342Y-59690476D02*
X69954819Y-59690476D01*
X70050057Y-59261904D02*
X70002438Y-59214285D01*
X70002438Y-59214285D02*
X69954819Y-59119047D01*
X69954819Y-59119047D02*
X69954819Y-58880952D01*
X69954819Y-58880952D02*
X70002438Y-58785714D01*
X70002438Y-58785714D02*
X70050057Y-58738095D01*
X70050057Y-58738095D02*
X70145295Y-58690476D01*
X70145295Y-58690476D02*
X70240533Y-58690476D01*
X70240533Y-58690476D02*
X70383390Y-58738095D01*
X70383390Y-58738095D02*
X70954819Y-59309523D01*
X70954819Y-59309523D02*
X70954819Y-58690476D01*
X71259580Y-85642857D02*
X71307200Y-85690476D01*
X71307200Y-85690476D02*
X71354819Y-85833333D01*
X71354819Y-85833333D02*
X71354819Y-85928571D01*
X71354819Y-85928571D02*
X71307200Y-86071428D01*
X71307200Y-86071428D02*
X71211961Y-86166666D01*
X71211961Y-86166666D02*
X71116723Y-86214285D01*
X71116723Y-86214285D02*
X70926247Y-86261904D01*
X70926247Y-86261904D02*
X70783390Y-86261904D01*
X70783390Y-86261904D02*
X70592914Y-86214285D01*
X70592914Y-86214285D02*
X70497676Y-86166666D01*
X70497676Y-86166666D02*
X70402438Y-86071428D01*
X70402438Y-86071428D02*
X70354819Y-85928571D01*
X70354819Y-85928571D02*
X70354819Y-85833333D01*
X70354819Y-85833333D02*
X70402438Y-85690476D01*
X70402438Y-85690476D02*
X70450057Y-85642857D01*
X71354819Y-84690476D02*
X71354819Y-85261904D01*
X71354819Y-84976190D02*
X70354819Y-84976190D01*
X70354819Y-84976190D02*
X70497676Y-85071428D01*
X70497676Y-85071428D02*
X70592914Y-85166666D01*
X70592914Y-85166666D02*
X70640533Y-85261904D01*
X71354819Y-83738095D02*
X71354819Y-84309523D01*
X71354819Y-84023809D02*
X70354819Y-84023809D01*
X70354819Y-84023809D02*
X70497676Y-84119047D01*
X70497676Y-84119047D02*
X70592914Y-84214285D01*
X70592914Y-84214285D02*
X70640533Y-84309523D01*
X71583333Y-78704819D02*
X71250000Y-78228628D01*
X71011905Y-78704819D02*
X71011905Y-77704819D01*
X71011905Y-77704819D02*
X71392857Y-77704819D01*
X71392857Y-77704819D02*
X71488095Y-77752438D01*
X71488095Y-77752438D02*
X71535714Y-77800057D01*
X71535714Y-77800057D02*
X71583333Y-77895295D01*
X71583333Y-77895295D02*
X71583333Y-78038152D01*
X71583333Y-78038152D02*
X71535714Y-78133390D01*
X71535714Y-78133390D02*
X71488095Y-78181009D01*
X71488095Y-78181009D02*
X71392857Y-78228628D01*
X71392857Y-78228628D02*
X71011905Y-78228628D01*
X71916667Y-77704819D02*
X72583333Y-77704819D01*
X72583333Y-77704819D02*
X72154762Y-78704819D01*
X77307142Y-44472080D02*
X77259523Y-44519700D01*
X77259523Y-44519700D02*
X77116666Y-44567319D01*
X77116666Y-44567319D02*
X77021428Y-44567319D01*
X77021428Y-44567319D02*
X76878571Y-44519700D01*
X76878571Y-44519700D02*
X76783333Y-44424461D01*
X76783333Y-44424461D02*
X76735714Y-44329223D01*
X76735714Y-44329223D02*
X76688095Y-44138747D01*
X76688095Y-44138747D02*
X76688095Y-43995890D01*
X76688095Y-43995890D02*
X76735714Y-43805414D01*
X76735714Y-43805414D02*
X76783333Y-43710176D01*
X76783333Y-43710176D02*
X76878571Y-43614938D01*
X76878571Y-43614938D02*
X77021428Y-43567319D01*
X77021428Y-43567319D02*
X77116666Y-43567319D01*
X77116666Y-43567319D02*
X77259523Y-43614938D01*
X77259523Y-43614938D02*
X77307142Y-43662557D01*
X78259523Y-44567319D02*
X77688095Y-44567319D01*
X77973809Y-44567319D02*
X77973809Y-43567319D01*
X77973809Y-43567319D02*
X77878571Y-43710176D01*
X77878571Y-43710176D02*
X77783333Y-43805414D01*
X77783333Y-43805414D02*
X77688095Y-43853033D01*
X78830952Y-43995890D02*
X78735714Y-43948271D01*
X78735714Y-43948271D02*
X78688095Y-43900652D01*
X78688095Y-43900652D02*
X78640476Y-43805414D01*
X78640476Y-43805414D02*
X78640476Y-43757795D01*
X78640476Y-43757795D02*
X78688095Y-43662557D01*
X78688095Y-43662557D02*
X78735714Y-43614938D01*
X78735714Y-43614938D02*
X78830952Y-43567319D01*
X78830952Y-43567319D02*
X79021428Y-43567319D01*
X79021428Y-43567319D02*
X79116666Y-43614938D01*
X79116666Y-43614938D02*
X79164285Y-43662557D01*
X79164285Y-43662557D02*
X79211904Y-43757795D01*
X79211904Y-43757795D02*
X79211904Y-43805414D01*
X79211904Y-43805414D02*
X79164285Y-43900652D01*
X79164285Y-43900652D02*
X79116666Y-43948271D01*
X79116666Y-43948271D02*
X79021428Y-43995890D01*
X79021428Y-43995890D02*
X78830952Y-43995890D01*
X78830952Y-43995890D02*
X78735714Y-44043509D01*
X78735714Y-44043509D02*
X78688095Y-44091128D01*
X78688095Y-44091128D02*
X78640476Y-44186366D01*
X78640476Y-44186366D02*
X78640476Y-44376842D01*
X78640476Y-44376842D02*
X78688095Y-44472080D01*
X78688095Y-44472080D02*
X78735714Y-44519700D01*
X78735714Y-44519700D02*
X78830952Y-44567319D01*
X78830952Y-44567319D02*
X79021428Y-44567319D01*
X79021428Y-44567319D02*
X79116666Y-44519700D01*
X79116666Y-44519700D02*
X79164285Y-44472080D01*
X79164285Y-44472080D02*
X79211904Y-44376842D01*
X79211904Y-44376842D02*
X79211904Y-44186366D01*
X79211904Y-44186366D02*
X79164285Y-44091128D01*
X79164285Y-44091128D02*
X79116666Y-44043509D01*
X79116666Y-44043509D02*
X79021428Y-43995890D01*
X74633333Y-77259580D02*
X74585714Y-77307200D01*
X74585714Y-77307200D02*
X74442857Y-77354819D01*
X74442857Y-77354819D02*
X74347619Y-77354819D01*
X74347619Y-77354819D02*
X74204762Y-77307200D01*
X74204762Y-77307200D02*
X74109524Y-77211961D01*
X74109524Y-77211961D02*
X74061905Y-77116723D01*
X74061905Y-77116723D02*
X74014286Y-76926247D01*
X74014286Y-76926247D02*
X74014286Y-76783390D01*
X74014286Y-76783390D02*
X74061905Y-76592914D01*
X74061905Y-76592914D02*
X74109524Y-76497676D01*
X74109524Y-76497676D02*
X74204762Y-76402438D01*
X74204762Y-76402438D02*
X74347619Y-76354819D01*
X74347619Y-76354819D02*
X74442857Y-76354819D01*
X74442857Y-76354819D02*
X74585714Y-76402438D01*
X74585714Y-76402438D02*
X74633333Y-76450057D01*
X75014286Y-76450057D02*
X75061905Y-76402438D01*
X75061905Y-76402438D02*
X75157143Y-76354819D01*
X75157143Y-76354819D02*
X75395238Y-76354819D01*
X75395238Y-76354819D02*
X75490476Y-76402438D01*
X75490476Y-76402438D02*
X75538095Y-76450057D01*
X75538095Y-76450057D02*
X75585714Y-76545295D01*
X75585714Y-76545295D02*
X75585714Y-76640533D01*
X75585714Y-76640533D02*
X75538095Y-76783390D01*
X75538095Y-76783390D02*
X74966667Y-77354819D01*
X74966667Y-77354819D02*
X75585714Y-77354819D01*
X80740490Y-68454819D02*
X80407157Y-67978628D01*
X80169062Y-68454819D02*
X80169062Y-67454819D01*
X80169062Y-67454819D02*
X80550014Y-67454819D01*
X80550014Y-67454819D02*
X80645252Y-67502438D01*
X80645252Y-67502438D02*
X80692871Y-67550057D01*
X80692871Y-67550057D02*
X80740490Y-67645295D01*
X80740490Y-67645295D02*
X80740490Y-67788152D01*
X80740490Y-67788152D02*
X80692871Y-67883390D01*
X80692871Y-67883390D02*
X80645252Y-67931009D01*
X80645252Y-67931009D02*
X80550014Y-67978628D01*
X80550014Y-67978628D02*
X80169062Y-67978628D01*
X81692871Y-68454819D02*
X81121443Y-68454819D01*
X81407157Y-68454819D02*
X81407157Y-67454819D01*
X81407157Y-67454819D02*
X81311919Y-67597676D01*
X81311919Y-67597676D02*
X81216681Y-67692914D01*
X81216681Y-67692914D02*
X81121443Y-67740533D01*
X82026205Y-67454819D02*
X82645252Y-67454819D01*
X82645252Y-67454819D02*
X82311919Y-67835771D01*
X82311919Y-67835771D02*
X82454776Y-67835771D01*
X82454776Y-67835771D02*
X82550014Y-67883390D01*
X82550014Y-67883390D02*
X82597633Y-67931009D01*
X82597633Y-67931009D02*
X82645252Y-68026247D01*
X82645252Y-68026247D02*
X82645252Y-68264342D01*
X82645252Y-68264342D02*
X82597633Y-68359580D01*
X82597633Y-68359580D02*
X82550014Y-68407200D01*
X82550014Y-68407200D02*
X82454776Y-68454819D01*
X82454776Y-68454819D02*
X82169062Y-68454819D01*
X82169062Y-68454819D02*
X82073824Y-68407200D01*
X82073824Y-68407200D02*
X82026205Y-68359580D01*
X84204819Y-64988094D02*
X83204819Y-64988094D01*
X83204819Y-64988094D02*
X83204819Y-64749999D01*
X83204819Y-64749999D02*
X83252438Y-64607142D01*
X83252438Y-64607142D02*
X83347676Y-64511904D01*
X83347676Y-64511904D02*
X83442914Y-64464285D01*
X83442914Y-64464285D02*
X83633390Y-64416666D01*
X83633390Y-64416666D02*
X83776247Y-64416666D01*
X83776247Y-64416666D02*
X83966723Y-64464285D01*
X83966723Y-64464285D02*
X84061961Y-64511904D01*
X84061961Y-64511904D02*
X84157200Y-64607142D01*
X84157200Y-64607142D02*
X84204819Y-64749999D01*
X84204819Y-64749999D02*
X84204819Y-64988094D01*
X83204819Y-63511904D02*
X83204819Y-63988094D01*
X83204819Y-63988094D02*
X83681009Y-64035713D01*
X83681009Y-64035713D02*
X83633390Y-63988094D01*
X83633390Y-63988094D02*
X83585771Y-63892856D01*
X83585771Y-63892856D02*
X83585771Y-63654761D01*
X83585771Y-63654761D02*
X83633390Y-63559523D01*
X83633390Y-63559523D02*
X83681009Y-63511904D01*
X83681009Y-63511904D02*
X83776247Y-63464285D01*
X83776247Y-63464285D02*
X84014342Y-63464285D01*
X84014342Y-63464285D02*
X84109580Y-63511904D01*
X84109580Y-63511904D02*
X84157200Y-63559523D01*
X84157200Y-63559523D02*
X84204819Y-63654761D01*
X84204819Y-63654761D02*
X84204819Y-63892856D01*
X84204819Y-63892856D02*
X84157200Y-63988094D01*
X84157200Y-63988094D02*
X84109580Y-64035713D01*
X70990490Y-54300645D02*
X70657157Y-53824454D01*
X70419062Y-54300645D02*
X70419062Y-53300645D01*
X70419062Y-53300645D02*
X70800014Y-53300645D01*
X70800014Y-53300645D02*
X70895252Y-53348264D01*
X70895252Y-53348264D02*
X70942871Y-53395883D01*
X70942871Y-53395883D02*
X70990490Y-53491121D01*
X70990490Y-53491121D02*
X70990490Y-53633978D01*
X70990490Y-53633978D02*
X70942871Y-53729216D01*
X70942871Y-53729216D02*
X70895252Y-53776835D01*
X70895252Y-53776835D02*
X70800014Y-53824454D01*
X70800014Y-53824454D02*
X70419062Y-53824454D01*
X71942871Y-54300645D02*
X71371443Y-54300645D01*
X71657157Y-54300645D02*
X71657157Y-53300645D01*
X71657157Y-53300645D02*
X71561919Y-53443502D01*
X71561919Y-53443502D02*
X71466681Y-53538740D01*
X71466681Y-53538740D02*
X71371443Y-53586359D01*
X72561919Y-53300645D02*
X72657157Y-53300645D01*
X72657157Y-53300645D02*
X72752395Y-53348264D01*
X72752395Y-53348264D02*
X72800014Y-53395883D01*
X72800014Y-53395883D02*
X72847633Y-53491121D01*
X72847633Y-53491121D02*
X72895252Y-53681597D01*
X72895252Y-53681597D02*
X72895252Y-53919692D01*
X72895252Y-53919692D02*
X72847633Y-54110168D01*
X72847633Y-54110168D02*
X72800014Y-54205406D01*
X72800014Y-54205406D02*
X72752395Y-54253026D01*
X72752395Y-54253026D02*
X72657157Y-54300645D01*
X72657157Y-54300645D02*
X72561919Y-54300645D01*
X72561919Y-54300645D02*
X72466681Y-54253026D01*
X72466681Y-54253026D02*
X72419062Y-54205406D01*
X72419062Y-54205406D02*
X72371443Y-54110168D01*
X72371443Y-54110168D02*
X72323824Y-53919692D01*
X72323824Y-53919692D02*
X72323824Y-53681597D01*
X72323824Y-53681597D02*
X72371443Y-53491121D01*
X72371443Y-53491121D02*
X72419062Y-53395883D01*
X72419062Y-53395883D02*
X72466681Y-53348264D01*
X72466681Y-53348264D02*
X72561919Y-53300645D01*
X77457142Y-55454819D02*
X77123809Y-54978628D01*
X76885714Y-55454819D02*
X76885714Y-54454819D01*
X76885714Y-54454819D02*
X77266666Y-54454819D01*
X77266666Y-54454819D02*
X77361904Y-54502438D01*
X77361904Y-54502438D02*
X77409523Y-54550057D01*
X77409523Y-54550057D02*
X77457142Y-54645295D01*
X77457142Y-54645295D02*
X77457142Y-54788152D01*
X77457142Y-54788152D02*
X77409523Y-54883390D01*
X77409523Y-54883390D02*
X77361904Y-54931009D01*
X77361904Y-54931009D02*
X77266666Y-54978628D01*
X77266666Y-54978628D02*
X76885714Y-54978628D01*
X78409523Y-55454819D02*
X77838095Y-55454819D01*
X78123809Y-55454819D02*
X78123809Y-54454819D01*
X78123809Y-54454819D02*
X78028571Y-54597676D01*
X78028571Y-54597676D02*
X77933333Y-54692914D01*
X77933333Y-54692914D02*
X77838095Y-54740533D01*
X79361904Y-55454819D02*
X78790476Y-55454819D01*
X79076190Y-55454819D02*
X79076190Y-54454819D01*
X79076190Y-54454819D02*
X78980952Y-54597676D01*
X78980952Y-54597676D02*
X78885714Y-54692914D01*
X78885714Y-54692914D02*
X78790476Y-54740533D01*
X72333333Y-75954819D02*
X72000000Y-75478628D01*
X71761905Y-75954819D02*
X71761905Y-74954819D01*
X71761905Y-74954819D02*
X72142857Y-74954819D01*
X72142857Y-74954819D02*
X72238095Y-75002438D01*
X72238095Y-75002438D02*
X72285714Y-75050057D01*
X72285714Y-75050057D02*
X72333333Y-75145295D01*
X72333333Y-75145295D02*
X72333333Y-75288152D01*
X72333333Y-75288152D02*
X72285714Y-75383390D01*
X72285714Y-75383390D02*
X72238095Y-75431009D01*
X72238095Y-75431009D02*
X72142857Y-75478628D01*
X72142857Y-75478628D02*
X71761905Y-75478628D01*
X72666667Y-74954819D02*
X73285714Y-74954819D01*
X73285714Y-74954819D02*
X72952381Y-75335771D01*
X72952381Y-75335771D02*
X73095238Y-75335771D01*
X73095238Y-75335771D02*
X73190476Y-75383390D01*
X73190476Y-75383390D02*
X73238095Y-75431009D01*
X73238095Y-75431009D02*
X73285714Y-75526247D01*
X73285714Y-75526247D02*
X73285714Y-75764342D01*
X73285714Y-75764342D02*
X73238095Y-75859580D01*
X73238095Y-75859580D02*
X73190476Y-75907200D01*
X73190476Y-75907200D02*
X73095238Y-75954819D01*
X73095238Y-75954819D02*
X72809524Y-75954819D01*
X72809524Y-75954819D02*
X72714286Y-75907200D01*
X72714286Y-75907200D02*
X72666667Y-75859580D01*
X73133333Y-89059580D02*
X73085714Y-89107200D01*
X73085714Y-89107200D02*
X72942857Y-89154819D01*
X72942857Y-89154819D02*
X72847619Y-89154819D01*
X72847619Y-89154819D02*
X72704762Y-89107200D01*
X72704762Y-89107200D02*
X72609524Y-89011961D01*
X72609524Y-89011961D02*
X72561905Y-88916723D01*
X72561905Y-88916723D02*
X72514286Y-88726247D01*
X72514286Y-88726247D02*
X72514286Y-88583390D01*
X72514286Y-88583390D02*
X72561905Y-88392914D01*
X72561905Y-88392914D02*
X72609524Y-88297676D01*
X72609524Y-88297676D02*
X72704762Y-88202438D01*
X72704762Y-88202438D02*
X72847619Y-88154819D01*
X72847619Y-88154819D02*
X72942857Y-88154819D01*
X72942857Y-88154819D02*
X73085714Y-88202438D01*
X73085714Y-88202438D02*
X73133333Y-88250057D01*
X74085714Y-89154819D02*
X73514286Y-89154819D01*
X73800000Y-89154819D02*
X73800000Y-88154819D01*
X73800000Y-88154819D02*
X73704762Y-88297676D01*
X73704762Y-88297676D02*
X73609524Y-88392914D01*
X73609524Y-88392914D02*
X73514286Y-88440533D01*
X75645253Y-60454819D02*
X75645253Y-59454819D01*
X75645253Y-59454819D02*
X75883348Y-59454819D01*
X75883348Y-59454819D02*
X76026205Y-59502438D01*
X76026205Y-59502438D02*
X76121443Y-59597676D01*
X76121443Y-59597676D02*
X76169062Y-59692914D01*
X76169062Y-59692914D02*
X76216681Y-59883390D01*
X76216681Y-59883390D02*
X76216681Y-60026247D01*
X76216681Y-60026247D02*
X76169062Y-60216723D01*
X76169062Y-60216723D02*
X76121443Y-60311961D01*
X76121443Y-60311961D02*
X76026205Y-60407200D01*
X76026205Y-60407200D02*
X75883348Y-60454819D01*
X75883348Y-60454819D02*
X75645253Y-60454819D01*
X77073824Y-59788152D02*
X77073824Y-60454819D01*
X76835729Y-59407200D02*
X76597634Y-60121485D01*
X76597634Y-60121485D02*
X77216681Y-60121485D01*
X82833333Y-87204819D02*
X82357143Y-87204819D01*
X82357143Y-87204819D02*
X82357143Y-86204819D01*
X83071429Y-86204819D02*
X83690476Y-86204819D01*
X83690476Y-86204819D02*
X83357143Y-86585771D01*
X83357143Y-86585771D02*
X83500000Y-86585771D01*
X83500000Y-86585771D02*
X83595238Y-86633390D01*
X83595238Y-86633390D02*
X83642857Y-86681009D01*
X83642857Y-86681009D02*
X83690476Y-86776247D01*
X83690476Y-86776247D02*
X83690476Y-87014342D01*
X83690476Y-87014342D02*
X83642857Y-87109580D01*
X83642857Y-87109580D02*
X83595238Y-87157200D01*
X83595238Y-87157200D02*
X83500000Y-87204819D01*
X83500000Y-87204819D02*
X83214286Y-87204819D01*
X83214286Y-87204819D02*
X83119048Y-87157200D01*
X83119048Y-87157200D02*
X83071429Y-87109580D01*
X75054819Y-50761904D02*
X75864342Y-50761904D01*
X75864342Y-50761904D02*
X75959580Y-50714285D01*
X75959580Y-50714285D02*
X76007200Y-50666666D01*
X76007200Y-50666666D02*
X76054819Y-50571428D01*
X76054819Y-50571428D02*
X76054819Y-50380952D01*
X76054819Y-50380952D02*
X76007200Y-50285714D01*
X76007200Y-50285714D02*
X75959580Y-50238095D01*
X75959580Y-50238095D02*
X75864342Y-50190476D01*
X75864342Y-50190476D02*
X75054819Y-50190476D01*
X75388152Y-49285714D02*
X76054819Y-49285714D01*
X75007200Y-49523809D02*
X75721485Y-49761904D01*
X75721485Y-49761904D02*
X75721485Y-49142857D01*
X84204819Y-59238094D02*
X83204819Y-59238094D01*
X83204819Y-59238094D02*
X83204819Y-58999999D01*
X83204819Y-58999999D02*
X83252438Y-58857142D01*
X83252438Y-58857142D02*
X83347676Y-58761904D01*
X83347676Y-58761904D02*
X83442914Y-58714285D01*
X83442914Y-58714285D02*
X83633390Y-58666666D01*
X83633390Y-58666666D02*
X83776247Y-58666666D01*
X83776247Y-58666666D02*
X83966723Y-58714285D01*
X83966723Y-58714285D02*
X84061961Y-58761904D01*
X84061961Y-58761904D02*
X84157200Y-58857142D01*
X84157200Y-58857142D02*
X84204819Y-58999999D01*
X84204819Y-58999999D02*
X84204819Y-59238094D01*
X83204819Y-57809523D02*
X83204819Y-57999999D01*
X83204819Y-57999999D02*
X83252438Y-58095237D01*
X83252438Y-58095237D02*
X83300057Y-58142856D01*
X83300057Y-58142856D02*
X83442914Y-58238094D01*
X83442914Y-58238094D02*
X83633390Y-58285713D01*
X83633390Y-58285713D02*
X84014342Y-58285713D01*
X84014342Y-58285713D02*
X84109580Y-58238094D01*
X84109580Y-58238094D02*
X84157200Y-58190475D01*
X84157200Y-58190475D02*
X84204819Y-58095237D01*
X84204819Y-58095237D02*
X84204819Y-57904761D01*
X84204819Y-57904761D02*
X84157200Y-57809523D01*
X84157200Y-57809523D02*
X84109580Y-57761904D01*
X84109580Y-57761904D02*
X84014342Y-57714285D01*
X84014342Y-57714285D02*
X83776247Y-57714285D01*
X83776247Y-57714285D02*
X83681009Y-57761904D01*
X83681009Y-57761904D02*
X83633390Y-57809523D01*
X83633390Y-57809523D02*
X83585771Y-57904761D01*
X83585771Y-57904761D02*
X83585771Y-58095237D01*
X83585771Y-58095237D02*
X83633390Y-58190475D01*
X83633390Y-58190475D02*
X83681009Y-58238094D01*
X83681009Y-58238094D02*
X83776247Y-58285713D01*
X77283333Y-43067319D02*
X76950000Y-42591128D01*
X76711905Y-43067319D02*
X76711905Y-42067319D01*
X76711905Y-42067319D02*
X77092857Y-42067319D01*
X77092857Y-42067319D02*
X77188095Y-42114938D01*
X77188095Y-42114938D02*
X77235714Y-42162557D01*
X77235714Y-42162557D02*
X77283333Y-42257795D01*
X77283333Y-42257795D02*
X77283333Y-42400652D01*
X77283333Y-42400652D02*
X77235714Y-42495890D01*
X77235714Y-42495890D02*
X77188095Y-42543509D01*
X77188095Y-42543509D02*
X77092857Y-42591128D01*
X77092857Y-42591128D02*
X76711905Y-42591128D01*
X78140476Y-42067319D02*
X77950000Y-42067319D01*
X77950000Y-42067319D02*
X77854762Y-42114938D01*
X77854762Y-42114938D02*
X77807143Y-42162557D01*
X77807143Y-42162557D02*
X77711905Y-42305414D01*
X77711905Y-42305414D02*
X77664286Y-42495890D01*
X77664286Y-42495890D02*
X77664286Y-42876842D01*
X77664286Y-42876842D02*
X77711905Y-42972080D01*
X77711905Y-42972080D02*
X77759524Y-43019700D01*
X77759524Y-43019700D02*
X77854762Y-43067319D01*
X77854762Y-43067319D02*
X78045238Y-43067319D01*
X78045238Y-43067319D02*
X78140476Y-43019700D01*
X78140476Y-43019700D02*
X78188095Y-42972080D01*
X78188095Y-42972080D02*
X78235714Y-42876842D01*
X78235714Y-42876842D02*
X78235714Y-42638747D01*
X78235714Y-42638747D02*
X78188095Y-42543509D01*
X78188095Y-42543509D02*
X78140476Y-42495890D01*
X78140476Y-42495890D02*
X78045238Y-42448271D01*
X78045238Y-42448271D02*
X77854762Y-42448271D01*
X77854762Y-42448271D02*
X77759524Y-42495890D01*
X77759524Y-42495890D02*
X77711905Y-42543509D01*
X77711905Y-42543509D02*
X77664286Y-42638747D01*
D12*
%TO.C,C14*%
X79261252Y-57365000D02*
X78738748Y-57365000D01*
X79261252Y-58835000D02*
X78738748Y-58835000D01*
%TO.C,C15*%
X81109420Y-65990000D02*
X81390580Y-65990000D01*
X81109420Y-67010000D02*
X81390580Y-67010000D01*
%TO.C,D7*%
X81200000Y-70915000D02*
X81200000Y-73575000D01*
X82900000Y-70915000D02*
X81200000Y-70915000D01*
X82900000Y-70915000D02*
X82900000Y-73575000D01*
%TO.C,D3*%
X73400000Y-46610000D02*
X73400000Y-43950000D01*
X73400000Y-46610000D02*
X75100000Y-46610000D01*
X75100000Y-46610000D02*
X75100000Y-43950000D01*
%TO.C,R9*%
X71396090Y-54823326D02*
X71870606Y-54823326D01*
X71396090Y-55868326D02*
X71870606Y-55868326D01*
%TO.C,D1*%
X79140000Y-75900000D02*
X79140000Y-77600000D01*
X79140000Y-75900000D02*
X81800000Y-75900000D01*
X79140000Y-77600000D02*
X81800000Y-77600000D01*
%TO.C,L5*%
X74140000Y-61640000D02*
X74390000Y-61640000D01*
X74140000Y-66860000D02*
X74140000Y-61640000D01*
X74390000Y-66860000D02*
X74140000Y-66860000D01*
X79110000Y-61640000D02*
X79360000Y-61640000D01*
X79360000Y-61640000D02*
X79360000Y-66860000D01*
X79360000Y-66860000D02*
X79110000Y-66860000D01*
%TO.C,C3*%
X80388748Y-36290000D02*
X81811252Y-36290000D01*
X80388748Y-38110000D02*
X81811252Y-38110000D01*
%TO.C,C12*%
X72105400Y-61515000D02*
X72627904Y-61515000D01*
X72105400Y-62985000D02*
X72627904Y-62985000D01*
%TO.C,C4*%
X77761252Y-74265000D02*
X77238748Y-74265000D01*
X77761252Y-75735000D02*
X77238748Y-75735000D01*
%TO.C,C13*%
X81109420Y-60990000D02*
X81390580Y-60990000D01*
X81109420Y-62010000D02*
X81390580Y-62010000D01*
%TO.C,R4*%
X74262742Y-51727500D02*
X74737258Y-51727500D01*
X74262742Y-52772500D02*
X74737258Y-52772500D01*
%TO.C,Q1*%
X79940000Y-43990000D02*
X80940000Y-43990000D01*
X79940000Y-45510000D02*
X79940000Y-43990000D01*
X79990000Y-45510000D02*
X79940000Y-45510000D01*
X81890000Y-45510000D02*
X81110000Y-45510000D01*
X82060000Y-43990000D02*
X83060000Y-43990000D01*
X83060000Y-43990000D02*
X83060000Y-45510000D01*
X83060000Y-45510000D02*
X83010000Y-45510000D01*
X81450000Y-46290000D02*
X81120000Y-46050000D01*
X81450000Y-45810000D01*
X81450000Y-46290000D01*
G36*
X81450000Y-46290000D02*
G01*
X81120000Y-46050000D01*
X81450000Y-45810000D01*
X81450000Y-46290000D01*
G37*
%TO.C,R5*%
X81737258Y-46977500D02*
X81262742Y-46977500D01*
X81737258Y-48022500D02*
X81262742Y-48022500D01*
%TO.C,L4*%
X76890000Y-78140000D02*
X82110000Y-78140000D01*
X76890000Y-78390000D02*
X76890000Y-78140000D01*
X76890000Y-83360000D02*
X76890000Y-83110000D01*
X82110000Y-78140000D02*
X82110000Y-78390000D01*
X82110000Y-83110000D02*
X82110000Y-83360000D01*
X82110000Y-83360000D02*
X76890000Y-83360000D01*
%TO.C,C10*%
X74788748Y-36340000D02*
X76211252Y-36340000D01*
X74788748Y-38160000D02*
X76211252Y-38160000D01*
%TO.C,RV1*%
X71262742Y-42727500D02*
X71737258Y-42727500D01*
X71262742Y-43772500D02*
X71737258Y-43772500D01*
%TO.C,C5*%
X78290000Y-72665580D02*
X78290000Y-72384420D01*
X79310000Y-72665580D02*
X79310000Y-72384420D01*
%TO.C,D2*%
X71014000Y-50560000D02*
X71170000Y-50560000D01*
X73330000Y-50560000D02*
X73486000Y-50560000D01*
X71014484Y-50560000D02*
G75*
G02*
X71170000Y-47328563I1235516J1560000D01*
G01*
X71170000Y-50040961D02*
G75*
G02*
X71170000Y-47959039I1080000J1040961D01*
G01*
X73330000Y-47328563D02*
G75*
G02*
X73485516Y-50560000I-1080000J-1671437D01*
G01*
X73330000Y-47959039D02*
G75*
G02*
X73330000Y-50040961I-1080000J-1040961D01*
G01*
%TO.C,R12*%
X74879394Y-56227500D02*
X75353910Y-56227500D01*
X74879394Y-57272500D02*
X75353910Y-57272500D01*
%TO.C,C16*%
X77938748Y-52365000D02*
X78461252Y-52365000D01*
X77938748Y-53835000D02*
X78461252Y-53835000D01*
%TO.C,R8*%
X72262742Y-71977500D02*
X72737258Y-71977500D01*
X72262742Y-73022500D02*
X72737258Y-73022500D01*
%TO.C,R14*%
X79777500Y-72287742D02*
X79777500Y-72762258D01*
X80822500Y-72287742D02*
X80822500Y-72762258D01*
%TO.C,C9*%
X75240000Y-85609420D02*
X75240000Y-85890580D01*
X76260000Y-85609420D02*
X76260000Y-85890580D01*
%TO.C,U3*%
X73590000Y-80690000D02*
X75410000Y-80690000D01*
X73590000Y-80740000D02*
X73590000Y-80690000D01*
X73590000Y-82640000D02*
X73590000Y-81860000D01*
X73590000Y-83810000D02*
X73590000Y-83760000D01*
X75410000Y-80690000D02*
X75410000Y-80740000D01*
X75410000Y-83760000D02*
X75410000Y-83810000D01*
X75410000Y-83810000D02*
X73590000Y-83810000D01*
X76190000Y-84090000D02*
X75710000Y-84090000D01*
X75950000Y-83760000D01*
X76190000Y-84090000D01*
G36*
X76190000Y-84090000D02*
G01*
X75710000Y-84090000D01*
X75950000Y-83760000D01*
X76190000Y-84090000D01*
G37*
%TO.C,R1*%
X74012742Y-79227500D02*
X74487258Y-79227500D01*
X74012742Y-80272500D02*
X74487258Y-80272500D01*
%TO.C,U2*%
X72344152Y-57890000D02*
X74164152Y-57890000D01*
X72344152Y-57940000D02*
X72344152Y-57890000D01*
X72344152Y-59840000D02*
X72344152Y-59060000D01*
X72344152Y-61010000D02*
X72344152Y-60960000D01*
X74164152Y-57890000D02*
X74164152Y-57940000D01*
X74164152Y-60960000D02*
X74164152Y-61010000D01*
X74164152Y-61010000D02*
X72344152Y-61010000D01*
X74944152Y-61290000D02*
X74464152Y-61290000D01*
X74704152Y-60960000D01*
X74944152Y-61290000D01*
G36*
X74944152Y-61290000D02*
G01*
X74464152Y-61290000D01*
X74704152Y-60960000D01*
X74944152Y-61290000D01*
G37*
%TO.C,C11*%
X73038748Y-84265000D02*
X73561252Y-84265000D01*
X73038748Y-85735000D02*
X73561252Y-85735000D01*
%TO.C,R7*%
X74487258Y-77727500D02*
X74012742Y-77727500D01*
X74487258Y-78772500D02*
X74012742Y-78772500D01*
%TO.C,C18*%
X78090580Y-46602500D02*
X77809420Y-46602500D01*
X78090580Y-47622500D02*
X77809420Y-47622500D01*
%TO.C,C2*%
X77761252Y-76265000D02*
X77238748Y-76265000D01*
X77761252Y-77735000D02*
X77238748Y-77735000D01*
%TO.C,R13*%
X81012742Y-64477500D02*
X81487258Y-64477500D01*
X81012742Y-65522500D02*
X81487258Y-65522500D01*
%TO.C,D5*%
X82910000Y-62400000D02*
X80250000Y-62400000D01*
X82910000Y-64100000D02*
X80250000Y-64100000D01*
X82910000Y-64100000D02*
X82910000Y-62400000D01*
%TO.C,R10*%
X71396090Y-56323326D02*
X71870606Y-56323326D01*
X71396090Y-57368326D02*
X71870606Y-57368326D01*
%TO.C,R11*%
X75353910Y-54727500D02*
X74879394Y-54727500D01*
X75353910Y-55772500D02*
X74879394Y-55772500D01*
%TO.C,R3*%
X72262742Y-73477500D02*
X72737258Y-73477500D01*
X72262742Y-74522500D02*
X72737258Y-74522500D01*
%TO.C,C1*%
X73038748Y-86265000D02*
X73561252Y-86265000D01*
X73038748Y-87735000D02*
X73561252Y-87735000D01*
%TO.C,D4*%
X80610000Y-59150000D02*
X77950000Y-59150000D01*
X80610000Y-60850000D02*
X77950000Y-60850000D01*
X80610000Y-60850000D02*
X80610000Y-59150000D01*
%TO.C,JP1*%
X70100000Y-45800000D02*
X70100000Y-45200000D01*
X70800000Y-44500000D02*
X72200000Y-44500000D01*
X72200000Y-46500000D02*
X70800000Y-46500000D01*
X72900000Y-45200000D02*
X72900000Y-45800000D01*
X70100000Y-45200000D02*
G75*
G02*
X70800000Y-44500000I699999J1D01*
G01*
X70800000Y-46500000D02*
G75*
G02*
X70100000Y-45800000I-1J699999D01*
G01*
X72200000Y-44500000D02*
G75*
G02*
X72900000Y-45200000I0J-700000D01*
G01*
X72900000Y-45800000D02*
G75*
G02*
X72200000Y-46500000I-700000J0D01*
G01*
%TO.C,JP2*%
X81500000Y-51200000D02*
X81500000Y-49800000D01*
X82200000Y-49100000D02*
X82800000Y-49100000D01*
X82800000Y-51900000D02*
X82200000Y-51900000D01*
X83500000Y-49800000D02*
X83500000Y-51200000D01*
X81500000Y-49800000D02*
G75*
G02*
X82200000Y-49100000I699999J1D01*
G01*
X82200000Y-51900000D02*
G75*
G02*
X81500000Y-51200000I0J700000D01*
G01*
X82800000Y-49100000D02*
G75*
G02*
X83500000Y-49800000I1J-699999D01*
G01*
X83500000Y-51200000D02*
G75*
G02*
X82800000Y-51900000I-700000J0D01*
G01*
%TO.C,L3*%
X76890000Y-84140000D02*
X77140000Y-84140000D01*
X76890000Y-89360000D02*
X76890000Y-84140000D01*
X77140000Y-89360000D02*
X76890000Y-89360000D01*
X81860000Y-84140000D02*
X82110000Y-84140000D01*
X82110000Y-84140000D02*
X82110000Y-89360000D01*
X82110000Y-89360000D02*
X81860000Y-89360000D01*
%TO.C,U4*%
X76440000Y-49090000D02*
X76490000Y-49090000D01*
X76440000Y-50910000D02*
X76440000Y-49090000D01*
X76490000Y-50910000D02*
X76440000Y-50910000D01*
X77610000Y-49090000D02*
X78390000Y-49090000D01*
X79510000Y-49090000D02*
X79560000Y-49090000D01*
X79560000Y-49090000D02*
X79560000Y-50910000D01*
X79560000Y-50910000D02*
X79510000Y-50910000D01*
X76490000Y-51450000D02*
X76160000Y-51690000D01*
X76160000Y-51210000D01*
X76490000Y-51450000D01*
G36*
X76490000Y-51450000D02*
G01*
X76160000Y-51690000D01*
X76160000Y-51210000D01*
X76490000Y-51450000D01*
G37*
%TO.C,D6*%
X81150000Y-57640000D02*
X81150000Y-60300000D01*
X82850000Y-57640000D02*
X81150000Y-57640000D01*
X82850000Y-57640000D02*
X82850000Y-60300000D01*
%TO.C,R6*%
X77712742Y-45090000D02*
X78187258Y-45090000D01*
X77712742Y-46135000D02*
X78187258Y-46135000D01*
%TD*%
M02*
