M48
; DRILL file {KiCad 9.0.6-9.0.6~ubuntu24.04.1} date 2025-11-27T16:32:04+0100
; FORMAT={-:-/ absolute / metric / decimal}
; #@! TF.CreationDate,2025-11-27T16:32:04+01:00
; #@! TF.GenerationSoftware,Kicad,Pcbnew,9.0.6-9.0.6~ubuntu24.04.1
; #@! TF.FileFunction,Plated,1,2,PTH
FMAT,2
METRIC
; #@! TA.AperFunction,Plated,PTH,ViaDrill
T1C0.300
; #@! TA.AperFunction,Plated,PTH,ComponentDrill
T2C1.000
%
G90
G05
T1
X70.25Y-49.75
X70.25Y-51.5
X70.25Y-53.25
X70.25Y-55.0
X70.25Y-56.75
X70.25Y-58.5
X70.25Y-60.25
X70.25Y-62.0
X70.25Y-63.75
X70.25Y-65.5
X70.25Y-67.25
X70.25Y-69.0
X70.25Y-70.75
X70.25Y-72.5
X70.25Y-74.25
X70.25Y-76.0
X70.25Y-77.75
X70.25Y-79.5
X70.25Y-81.25
X70.25Y-83.0
X70.25Y-84.75
X70.25Y-86.5
X70.25Y-88.25
X70.25Y-90.0
X71.75Y-54.25
X71.75Y-63.6
X71.75Y-90.0
X72.4Y-86.0
X72.5Y-75.5
X73.25Y-57.75
X73.25Y-59.5
X73.25Y-71.0
X73.367Y-61.0
X73.4Y-63.5
X73.5Y-90.0
X74.025Y-39.0
X74.3Y-86.0
X74.5Y-74.0
X74.5Y-81.75
X74.5Y-82.75
X74.5Y-83.75
X75.25Y-37.25
X75.25Y-90.0
X75.675Y-74.988
X75.675Y-77.0
X76.5Y-76.0
X76.75Y-86.5
X77.0Y-58.1
X77.0Y-90.0
X77.75Y-76.0
X78.0Y-56.9
X78.25Y-37.25
X78.75Y-90.0
X80.5Y-90.0
X81.0Y-37.25
X81.5Y-67.75
X81.5Y-82.25
X81.75Y-59.0
X82.25Y-90.0
X82.6Y-35.5
X83.0Y-73.35
X83.75Y-49.75
X83.75Y-51.5
X83.75Y-53.25
X83.75Y-55.0
X83.75Y-56.75
X83.75Y-58.5
X83.75Y-60.25
X83.75Y-62.0
X83.75Y-63.75
X83.75Y-65.5
X83.75Y-67.25
X83.75Y-69.0
X83.75Y-70.75
X83.75Y-72.5
X83.75Y-74.25
X83.75Y-76.0
X83.75Y-77.75
X83.75Y-79.5
X83.75Y-81.25
X83.75Y-83.0
X83.75Y-84.75
X83.75Y-86.5
X83.75Y-88.25
X83.75Y-90.0
T2
X73.25Y-27.19
X73.25Y-29.73
X73.25Y-32.27
X73.25Y-34.81
M30
