%TF.GenerationSoftware,KiCad,Pcbnew,9.0.6-9.0.6~ubuntu24.04.1*%
%TF.CreationDate,2025-11-27T16:32:03+01:00*%
%TF.ProjectId,GB_DMG_PSU,47425f44-4d47-45f5-9053-552e6b696361,rev?*%
%TF.SameCoordinates,Original*%
%TF.FileFunction,Legend,Top*%
%TF.FilePolarity,Positive*%
%FSLAX46Y46*%
G04 Gerber Fmt 4.6, Leading zero omitted, Abs format (unit mm)*
G04 Created by KiCad (PCBNEW 9.0.6-9.0.6~ubuntu24.04.1) date 2025-11-27 16:32:03*
%MOMM*%
%LPD*%
G01*
G04 APERTURE LIST*
%ADD10C,0.000000*%
%ADD11C,0.200000*%
%ADD12C,0.150000*%
%ADD13C,0.120000*%
G04 APERTURE END LIST*
D10*
G36*
X74068967Y-42948277D02*
G01*
X73896553Y-42948277D01*
X73724140Y-42948277D01*
X73724140Y-43120691D01*
X73724140Y-43293105D01*
X73551726Y-43293105D01*
X73379313Y-43293105D01*
X73379313Y-43465519D01*
X73379313Y-43637932D01*
X73896553Y-43637932D01*
X74413795Y-43637932D01*
X74413795Y-43465519D01*
X74413795Y-43293105D01*
X74586208Y-43293105D01*
X74758622Y-43293105D01*
X74758622Y-43465519D01*
X74758622Y-43637932D01*
X74586208Y-43637932D01*
X74413795Y-43637932D01*
X74413795Y-43810346D01*
X74413795Y-43982760D01*
X73724140Y-43982760D01*
X73034484Y-43982760D01*
X73034484Y-44155173D01*
X73034484Y-44327587D01*
X73724139Y-44327587D01*
X74413795Y-44327587D01*
X74413795Y-44500001D01*
X74413795Y-44672415D01*
X73551726Y-44672415D01*
X72689655Y-44672415D01*
X72689655Y-44844829D01*
X72689655Y-45017243D01*
X73034485Y-45017243D01*
X73379313Y-45017243D01*
X73379313Y-45189656D01*
X73379313Y-45362070D01*
X73551726Y-45362070D01*
X73724140Y-45362070D01*
X73724140Y-45189656D01*
X73724140Y-45017243D01*
X73896553Y-45017243D01*
X74068967Y-45017243D01*
X74068967Y-45362070D01*
X74068967Y-45534484D01*
X74068967Y-45706897D01*
X74241381Y-45706897D01*
X74413795Y-45706897D01*
X74413795Y-45362070D01*
X74413795Y-45017243D01*
X74586208Y-45017243D01*
X74758622Y-45017243D01*
X74758622Y-45362070D01*
X74758622Y-45706897D01*
X74586208Y-45706897D01*
X74413795Y-45706897D01*
X74413795Y-45879311D01*
X74413795Y-46051725D01*
X74758622Y-46051725D01*
X75103450Y-46051725D01*
X75103450Y-45879311D01*
X75103450Y-45706897D01*
X75448277Y-45706897D01*
X75793105Y-45706897D01*
X75793105Y-45879311D01*
X75793105Y-46051725D01*
X76137932Y-46051725D01*
X76482760Y-46051725D01*
X76482760Y-45879311D01*
X76482760Y-45706897D01*
X76827588Y-45706897D01*
X77172415Y-45706897D01*
X77172415Y-46051725D01*
X77172415Y-46396553D01*
X77517242Y-46396553D01*
X77862070Y-46396553D01*
X77862070Y-46224139D01*
X77862070Y-46051725D01*
X77689656Y-46051725D01*
X77517242Y-46051725D01*
X77517242Y-45879311D01*
X77517242Y-45706897D01*
X77344829Y-45706897D01*
X77172415Y-45706897D01*
X77172415Y-45534484D01*
X77172415Y-45362070D01*
X77517242Y-45362070D01*
X77862070Y-45362070D01*
X77862070Y-45534484D01*
X77862070Y-45706897D01*
X78034484Y-45706897D01*
X78206897Y-45706897D01*
X78206897Y-45534484D01*
X78206897Y-45362070D01*
X78379311Y-45362070D01*
X78551725Y-45362070D01*
X78551725Y-45017243D01*
X78551725Y-44672415D01*
X78724138Y-44672415D01*
X78896552Y-44672415D01*
X78896552Y-45017243D01*
X78896552Y-45362070D01*
X79068966Y-45362070D01*
X79241380Y-45362070D01*
X79241380Y-45017243D01*
X79241380Y-44672415D01*
X79413794Y-44672415D01*
X79586207Y-44672415D01*
X79586207Y-44844829D01*
X79586207Y-45017243D01*
X79758621Y-45017243D01*
X79931035Y-45017243D01*
X79931035Y-45189656D01*
X79931035Y-45362070D01*
X79586207Y-45362070D01*
X79241380Y-45362070D01*
X79241380Y-45534484D01*
X79241380Y-45706897D01*
X79068966Y-45706897D01*
X78896552Y-45706897D01*
X78896552Y-45879311D01*
X78896552Y-46051725D01*
X78724138Y-46051725D01*
X78551725Y-46051725D01*
X78551725Y-45879311D01*
X78551725Y-45706897D01*
X78379311Y-45706897D01*
X78206897Y-45706897D01*
X78206897Y-46051725D01*
X78206897Y-46396553D01*
X78034484Y-46396553D01*
X77862070Y-46396553D01*
X77862070Y-46568966D01*
X77862070Y-46741380D01*
X77689656Y-46741380D01*
X77517242Y-46741380D01*
X77517242Y-46913794D01*
X77517242Y-47086207D01*
X77344829Y-47086207D01*
X77172415Y-47086207D01*
X77172415Y-46741380D01*
X77172415Y-46396553D01*
X77000001Y-46396553D01*
X76827588Y-46396553D01*
X76827588Y-46224139D01*
X76827588Y-46051725D01*
X76655174Y-46051725D01*
X76482760Y-46051725D01*
X76482760Y-46568966D01*
X76482760Y-47086207D01*
X76655174Y-47086207D01*
X76827588Y-47086207D01*
X76827588Y-47258621D01*
X76827588Y-47431035D01*
X76482760Y-47431035D01*
X76137932Y-47431035D01*
X76137932Y-47086207D01*
X76137932Y-46741380D01*
X75965518Y-46741380D01*
X75793105Y-46741380D01*
X75793105Y-46913794D01*
X75793105Y-47086207D01*
X75793105Y-47258621D01*
X75793105Y-47431035D01*
X75448277Y-47431035D01*
X75103450Y-47431035D01*
X75103450Y-47603449D01*
X75103449Y-47775863D01*
X75448277Y-47775863D01*
X75793105Y-47775863D01*
X75793105Y-47603449D01*
X75793105Y-47431035D01*
X75965518Y-47431035D01*
X76137932Y-47431035D01*
X76137932Y-47603449D01*
X76137932Y-47775863D01*
X75965518Y-47775863D01*
X75793105Y-47775863D01*
X75793105Y-47948277D01*
X75793105Y-48120690D01*
X75620691Y-48120690D01*
X75448277Y-48120690D01*
X75448277Y-48293103D01*
X75448277Y-48465517D01*
X75620691Y-48465517D01*
X75793105Y-48465517D01*
X75793105Y-48637931D01*
X75793105Y-48810345D01*
X75448277Y-48810345D01*
X75103450Y-48810345D01*
X75103450Y-48982759D01*
X75103450Y-49155172D01*
X74758622Y-49155172D01*
X74413795Y-49155172D01*
X74413795Y-49327586D01*
X74413795Y-49500000D01*
X74241381Y-49500000D01*
X74068967Y-49500000D01*
X74068967Y-49327586D01*
X74068967Y-49155172D01*
X73896553Y-49155172D01*
X73724140Y-49155172D01*
X73724140Y-49327586D01*
X73724140Y-49500000D01*
X73551726Y-49500000D01*
X73379313Y-49500000D01*
X73379313Y-49327586D01*
X73379313Y-49155172D01*
X73034485Y-49155172D01*
X72689655Y-49155172D01*
X72689655Y-48982759D01*
X72689655Y-48810345D01*
X72344828Y-48810345D01*
X72000000Y-48810345D01*
X72000000Y-48637931D01*
X72000000Y-48465517D01*
X72172414Y-48465517D01*
X72344828Y-48465517D01*
X73034485Y-48465517D01*
X73034485Y-48637931D01*
X73034485Y-48810345D01*
X73206899Y-48810345D01*
X73379313Y-48810345D01*
X73379313Y-48637931D01*
X73379313Y-48465517D01*
X73551726Y-48465517D01*
X73724140Y-48465517D01*
X73724140Y-48637931D01*
X73724140Y-48810345D01*
X74068967Y-48810345D01*
X74413795Y-48810345D01*
X74413795Y-48637931D01*
X74413795Y-48465517D01*
X74586208Y-48465517D01*
X74758622Y-48465517D01*
X74758622Y-48637931D01*
X74758622Y-48810345D01*
X74931036Y-48810345D01*
X75103450Y-48810345D01*
X75103450Y-48465517D01*
X75103450Y-48120690D01*
X74586208Y-48120690D01*
X74068967Y-48120690D01*
X74068967Y-48293103D01*
X74068967Y-48465517D01*
X73896553Y-48465517D01*
X73724140Y-48465517D01*
X73724140Y-48293103D01*
X73724140Y-48120690D01*
X73551726Y-48120690D01*
X73379313Y-48120690D01*
X73379313Y-48293103D01*
X73379313Y-48465517D01*
X73206899Y-48465517D01*
X73034485Y-48465517D01*
X72344828Y-48465517D01*
X72344828Y-48293103D01*
X72344828Y-48120690D01*
X72172414Y-48120690D01*
X72000000Y-48120690D01*
X72000000Y-47948277D01*
X72000000Y-47775863D01*
X72172414Y-47775863D01*
X72344828Y-47775863D01*
X72344828Y-47948277D01*
X72344828Y-48120690D01*
X72689655Y-48120690D01*
X73034485Y-48120690D01*
X73034485Y-47948277D01*
X73034485Y-47775863D01*
X72689655Y-47775863D01*
X72344828Y-47775863D01*
X72344828Y-47603449D01*
X72344828Y-47431035D01*
X72172414Y-47431035D01*
X72000000Y-47431035D01*
X72000000Y-47258621D01*
X72000000Y-47086207D01*
X72172414Y-47086207D01*
X72344828Y-47086207D01*
X72344828Y-47258621D01*
X72344828Y-47431035D01*
X72517241Y-47431035D01*
X72689655Y-47431035D01*
X73034485Y-47431035D01*
X73034485Y-47603449D01*
X73034485Y-47775863D01*
X73206899Y-47775863D01*
X73379313Y-47775863D01*
X73724140Y-47775863D01*
X74241381Y-47775863D01*
X74758622Y-47775863D01*
X74758622Y-47258621D01*
X74758622Y-46741380D01*
X75103450Y-46741380D01*
X75103450Y-46913794D01*
X75103450Y-47086207D01*
X75275864Y-47086207D01*
X75448277Y-47086207D01*
X75448277Y-46913794D01*
X75448277Y-46741380D01*
X75275864Y-46741380D01*
X75103450Y-46741380D01*
X74758622Y-46741380D01*
X74241381Y-46741380D01*
X73724140Y-46741380D01*
X73724140Y-47258621D01*
X73724140Y-47603449D01*
X73724140Y-47775863D01*
X73379313Y-47775863D01*
X73379313Y-47603449D01*
X73379313Y-47431035D01*
X73206899Y-47431035D01*
X73034485Y-47431035D01*
X72689655Y-47431035D01*
X72689655Y-47086207D01*
X72689655Y-46741380D01*
X73034485Y-46741380D01*
X73379313Y-46741380D01*
X73379313Y-46568966D01*
X73379313Y-46396553D01*
X73896553Y-46396553D01*
X74413795Y-46396553D01*
X74413795Y-46224139D01*
X74413795Y-46051725D01*
X73551726Y-46051725D01*
X72689655Y-46051725D01*
X72689655Y-46224139D01*
X72689655Y-46396553D01*
X72517241Y-46396553D01*
X72344828Y-46396553D01*
X72344828Y-46051725D01*
X72344828Y-45706897D01*
X72517241Y-45706897D01*
X72689655Y-45706897D01*
X72689655Y-45534484D01*
X72689655Y-45362070D01*
X73034485Y-45362070D01*
X73034485Y-45534484D01*
X73034485Y-45706897D01*
X73206899Y-45706897D01*
X73379313Y-45706897D01*
X73379313Y-45534484D01*
X73379313Y-45362070D01*
X73206899Y-45362070D01*
X73034485Y-45362070D01*
X72689655Y-45362070D01*
X72517241Y-45362070D01*
X72344828Y-45362070D01*
X72344828Y-44844829D01*
X72344828Y-44327587D01*
X72517241Y-44327587D01*
X72689655Y-44327587D01*
X72689655Y-44155173D01*
X72689655Y-43982760D01*
X72517241Y-43982760D01*
X72344828Y-43982760D01*
X72344828Y-43810346D01*
X72344828Y-43637932D01*
X72689655Y-43637932D01*
X73034485Y-43637932D01*
X73034485Y-43465519D01*
X73034485Y-43293105D01*
X72862071Y-43293105D01*
X72689655Y-43293105D01*
X72689655Y-42948277D01*
X72689655Y-42603450D01*
X73034485Y-42603450D01*
X73034485Y-42775864D01*
X73034485Y-42948277D01*
X73206899Y-42948277D01*
X73379313Y-42948277D01*
X73379313Y-42775864D01*
X73379313Y-42603450D01*
X73206899Y-42603450D01*
X73034485Y-42603450D01*
X72689655Y-42603450D01*
X72344828Y-42603450D01*
X72000000Y-42603450D01*
X72000000Y-42431036D01*
X72000000Y-42258622D01*
X72689655Y-42258622D01*
X73379313Y-42258622D01*
X73379313Y-42431036D01*
X73379313Y-42603450D01*
X73551726Y-42603450D01*
X73724140Y-42603450D01*
X73724140Y-42431036D01*
X73724140Y-42258622D01*
X73896553Y-42258622D01*
X74068967Y-42258622D01*
X74068967Y-42603450D01*
X74068967Y-42775864D01*
X74068967Y-42948277D01*
G37*
G36*
X81655172Y-46396553D02*
G01*
X82000000Y-46396553D01*
X82000000Y-46568966D01*
X82000000Y-46741380D01*
X81655172Y-46741380D01*
X81310345Y-46741380D01*
X81310345Y-46568966D01*
X81310345Y-46396553D01*
X81655172Y-46396553D01*
G37*
G36*
X80965518Y-44844829D02*
G01*
X80965518Y-45017243D01*
X81137931Y-45017243D01*
X81310345Y-45017243D01*
X81310345Y-45189656D01*
X81310345Y-45362070D01*
X80793104Y-45362070D01*
X80275862Y-45362070D01*
X80275862Y-45534484D01*
X80275862Y-45706897D01*
X80793104Y-45706897D01*
X81310345Y-45706897D01*
X81310345Y-45534484D01*
X81310345Y-45362070D01*
X81655172Y-45362070D01*
X82000000Y-45362070D01*
X82000000Y-45534484D01*
X82000000Y-45706897D01*
X81655172Y-45706897D01*
X81310345Y-45706897D01*
X81310345Y-46051725D01*
X81310345Y-46396553D01*
X80793104Y-46396553D01*
X80275862Y-46396553D01*
X80275862Y-46224139D01*
X80275862Y-46051725D01*
X79931035Y-46051725D01*
X79586207Y-46051725D01*
X79586207Y-45879311D01*
X79586207Y-45706897D01*
X79758621Y-45706897D01*
X79931035Y-45706897D01*
X79931035Y-45534484D01*
X79931035Y-45362070D01*
X80103449Y-45362070D01*
X80275862Y-45362070D01*
X80275862Y-45017243D01*
X80275862Y-44672415D01*
X80620690Y-44672415D01*
X80965518Y-44672415D01*
X80965518Y-44844829D01*
G37*
G36*
X74241381Y-42948277D02*
G01*
X74413795Y-42948277D01*
X74413795Y-43120691D01*
X74413795Y-43293105D01*
X74241381Y-43293105D01*
X74068967Y-43293105D01*
X74068967Y-43120691D01*
X74068967Y-42948277D01*
X74241381Y-42948277D01*
G37*
G36*
X76482760Y-48465517D02*
G01*
X76482760Y-48810345D01*
X76310346Y-48810345D01*
X76137932Y-48810345D01*
X76137932Y-48465517D01*
X76137932Y-48120690D01*
X76310346Y-48120690D01*
X76482760Y-48120690D01*
X76482760Y-48465517D01*
G37*
G36*
X72689655Y-49327586D02*
G01*
X72689655Y-49500000D01*
X72517241Y-49500000D01*
X72344828Y-49500000D01*
X72344828Y-49327586D01*
X72344828Y-49155172D01*
X72517241Y-49155172D01*
X72689655Y-49155172D01*
X72689655Y-49327586D01*
G37*
G36*
X76310346Y-41568967D02*
G01*
X76482760Y-41568967D01*
X76482760Y-41741381D01*
X76482760Y-41913795D01*
X76310346Y-41913795D01*
X76137932Y-41913795D01*
X76137932Y-41741381D01*
X76137932Y-41568967D01*
X76310346Y-41568967D01*
G37*
G36*
X76137932Y-41396553D02*
G01*
X76137932Y-41568967D01*
X75965518Y-41568967D01*
X75793105Y-41568967D01*
X75793105Y-41396553D01*
X75793105Y-41224140D01*
X75965518Y-41224140D01*
X76137932Y-41224140D01*
X76137932Y-41396553D01*
G37*
G36*
X73724140Y-40706899D02*
G01*
X73724140Y-41224140D01*
X73206899Y-41224140D01*
X72689655Y-41224140D01*
X72689655Y-40706899D01*
X72689655Y-40189657D01*
X73206899Y-40189657D01*
X73724140Y-40189657D01*
X73724140Y-40706899D01*
G37*
G36*
X82000000Y-49500000D02*
G01*
X80793104Y-49500000D01*
X79586207Y-49500000D01*
X79586207Y-48293103D01*
X79586207Y-47431035D01*
X79931035Y-47431035D01*
X79931035Y-48293103D01*
X79931035Y-49155173D01*
X80793104Y-49155173D01*
X81655172Y-49155173D01*
X81655172Y-48293104D01*
X81655172Y-47431035D01*
X80793104Y-47431035D01*
X79931035Y-47431035D01*
X79586207Y-47431035D01*
X79586207Y-47086207D01*
X80793104Y-47086207D01*
X82000000Y-47086207D01*
X82000000Y-48293103D01*
X82000000Y-48293104D01*
X82000000Y-49500000D01*
G37*
G36*
X74413795Y-41913795D02*
G01*
X73206899Y-41913795D01*
X72000000Y-41913795D01*
X72000000Y-40706899D01*
X72000000Y-39844830D01*
X72344828Y-39844830D01*
X72344828Y-40706899D01*
X72344828Y-41568967D01*
X73206899Y-41568967D01*
X74068967Y-41568967D01*
X74068967Y-40706899D01*
X74068967Y-39844830D01*
X73206899Y-39844830D01*
X72344828Y-39844830D01*
X72000000Y-39844830D01*
X72000000Y-39500002D01*
X73206899Y-39500002D01*
X74413795Y-39500002D01*
X74413795Y-40706899D01*
X74413795Y-41913795D01*
G37*
G36*
X78379311Y-43293105D02*
G01*
X78551725Y-43293105D01*
X78551725Y-43637932D01*
X78551725Y-43982760D01*
X78379311Y-43982760D01*
X78206897Y-43982760D01*
X78206897Y-43810346D01*
X78206897Y-43637932D01*
X78034484Y-43637932D01*
X77862070Y-43637932D01*
X77862070Y-43810346D01*
X77862070Y-43982760D01*
X77689656Y-43982760D01*
X77517242Y-43982760D01*
X77517242Y-44155173D01*
X77517242Y-44327587D01*
X77344829Y-44327587D01*
X77172415Y-44327587D01*
X77172415Y-44844829D01*
X77172415Y-45362070D01*
X77000001Y-45362070D01*
X76827588Y-45362070D01*
X76827588Y-45017243D01*
X76827588Y-44672415D01*
X76655174Y-44672415D01*
X76482760Y-44672415D01*
X76482760Y-44500001D01*
X76482760Y-44327587D01*
X76655174Y-44327587D01*
X76827588Y-44327587D01*
X76827588Y-43637932D01*
X76827588Y-42948277D01*
X76655174Y-42948277D01*
X76482760Y-42948277D01*
X76482760Y-43465519D01*
X76482760Y-43982760D01*
X76310346Y-43982760D01*
X76137932Y-43982760D01*
X76137932Y-43810346D01*
X76137932Y-43637932D01*
X75965518Y-43637932D01*
X75793105Y-43637932D01*
X75793105Y-43465519D01*
X75793105Y-43293105D01*
X75620691Y-43293105D01*
X75448277Y-43293105D01*
X75448277Y-43810346D01*
X75448277Y-44327587D01*
X75620691Y-44327587D01*
X75793105Y-44327587D01*
X75793105Y-44500001D01*
X75793105Y-44672415D01*
X75620691Y-44672415D01*
X75448277Y-44672415D01*
X75448277Y-44844829D01*
X75448277Y-45017243D01*
X75793105Y-45017243D01*
X76137932Y-45017243D01*
X76137932Y-44844829D01*
X76137932Y-44672415D01*
X76310346Y-44672415D01*
X76482760Y-44672415D01*
X76482760Y-45017243D01*
X76482760Y-45362070D01*
X75793105Y-45362070D01*
X75103450Y-45362070D01*
X75103450Y-45189656D01*
X75103450Y-45017243D01*
X74931036Y-45017243D01*
X74758622Y-45017243D01*
X74758622Y-44844829D01*
X74758622Y-44672415D01*
X74931036Y-44672415D01*
X75103450Y-44672415D01*
X75103450Y-43810346D01*
X75103450Y-42948277D01*
X75275864Y-42948277D01*
X75448277Y-42948277D01*
X75448277Y-42775864D01*
X75448277Y-42603450D01*
X75620691Y-42603450D01*
X75793105Y-42603450D01*
X75793105Y-42948277D01*
X75793105Y-43293105D01*
X75965518Y-43293105D01*
X76137932Y-43293105D01*
X76137932Y-42775864D01*
X76137932Y-42258622D01*
X76310346Y-42258622D01*
X76482760Y-42258622D01*
X76482760Y-42431036D01*
X76482760Y-42603450D01*
X76655174Y-42603450D01*
X76827588Y-42603450D01*
X76827588Y-42775864D01*
X76827588Y-42948277D01*
X77000001Y-42948277D01*
X77172415Y-42948277D01*
X77172415Y-43293105D01*
X77172415Y-43637932D01*
X77517242Y-43637932D01*
X77862070Y-43637932D01*
X77862070Y-43465519D01*
X77862070Y-43293105D01*
X77689656Y-43293105D01*
X77517242Y-43293105D01*
X77517242Y-43120691D01*
X77517242Y-42948277D01*
X77344829Y-42948277D01*
X77172415Y-42948277D01*
X77172415Y-42775864D01*
X77172415Y-42603450D01*
X77517242Y-42603450D01*
X77862070Y-42603450D01*
X77862070Y-42775864D01*
X77862070Y-42948277D01*
X78034484Y-42948277D01*
X78206897Y-42948277D01*
X78206897Y-43120691D01*
X78206897Y-43293105D01*
X78379311Y-43293105D01*
G37*
G36*
X75103450Y-41741381D02*
G01*
X75103450Y-41913795D01*
X75275864Y-41913795D01*
X75448277Y-41913795D01*
X75448277Y-42258622D01*
X75448277Y-42603450D01*
X75275864Y-42603450D01*
X75103450Y-42603450D01*
X75103450Y-42431036D01*
X75103450Y-42258622D01*
X74931036Y-42258622D01*
X74758622Y-42258622D01*
X74758622Y-41913795D01*
X74758622Y-41568967D01*
X74931036Y-41568967D01*
X75103450Y-41568967D01*
X75103450Y-41741381D01*
G37*
G36*
X72344828Y-43120691D02*
G01*
X72344828Y-43293105D01*
X72172414Y-43293105D01*
X72000000Y-43293105D01*
X72000000Y-43120691D01*
X72000000Y-42948277D01*
X72172414Y-42948277D01*
X72344828Y-42948277D01*
X72344828Y-43120691D01*
G37*
G36*
X78034484Y-45017243D02*
G01*
X78206897Y-45017243D01*
X78206897Y-45189656D01*
X78206897Y-45362070D01*
X78034484Y-45362070D01*
X77862070Y-45362070D01*
X77862070Y-45189656D01*
X77862070Y-45017243D01*
X78034484Y-45017243D01*
G37*
G36*
X77862070Y-44844829D02*
G01*
X77862070Y-45017243D01*
X77689656Y-45017243D01*
X77517242Y-45017243D01*
X77517242Y-44844829D01*
X77517242Y-44672415D01*
X77689656Y-44672415D01*
X77862070Y-44672415D01*
X77862070Y-44844829D01*
G37*
G36*
X81310345Y-48293103D02*
G01*
X81310345Y-48810345D01*
X80793104Y-48810345D01*
X80275862Y-48810345D01*
X80275862Y-48293103D01*
X80275862Y-47775863D01*
X80793104Y-47775863D01*
X81310345Y-47775863D01*
X81310345Y-48293103D01*
G37*
G36*
X79068966Y-46741380D02*
G01*
X79241380Y-46741380D01*
X79241380Y-46913794D01*
X79241380Y-47086207D01*
X79068966Y-47086207D01*
X78896552Y-47086207D01*
X78896552Y-46913794D01*
X78896552Y-46741380D01*
X79068966Y-46741380D01*
G37*
G36*
X78896552Y-46568966D02*
G01*
X78896552Y-46741380D01*
X78724138Y-46741380D01*
X78551725Y-46741380D01*
X78551725Y-46568966D01*
X78551725Y-46396553D01*
X78724138Y-46396553D01*
X78896552Y-46396553D01*
X78896552Y-46568966D01*
G37*
G36*
X81310345Y-43810346D02*
G01*
X81310345Y-43982760D01*
X81137931Y-43982760D01*
X80965518Y-43982760D01*
X80965518Y-43810346D01*
X80965518Y-43637932D01*
X81137931Y-43637932D01*
X81310345Y-43637932D01*
X81310345Y-43810346D01*
G37*
G36*
X80620690Y-42431036D02*
G01*
X80620690Y-42603450D01*
X80793104Y-42603450D01*
X80965518Y-42603450D01*
X80965518Y-42775864D01*
X80965518Y-42948277D01*
X81137931Y-42948277D01*
X81310345Y-42948277D01*
X81310345Y-42603450D01*
X81310345Y-42258622D01*
X81655172Y-42258622D01*
X82000000Y-42258622D01*
X82000000Y-42431036D01*
X82000000Y-42603450D01*
X81827586Y-42603450D01*
X81655172Y-42603450D01*
X81655172Y-42948277D01*
X81655172Y-43293105D01*
X81827586Y-43293105D01*
X82000000Y-43293105D01*
X82000000Y-43637932D01*
X82000000Y-43982760D01*
X81827586Y-43982760D01*
X81655172Y-43982760D01*
X81655172Y-43810346D01*
X81655172Y-43637932D01*
X81482759Y-43637932D01*
X81310345Y-43637932D01*
X81310345Y-43465519D01*
X81310345Y-43293105D01*
X81137931Y-43293105D01*
X80965518Y-43293105D01*
X80965518Y-43465519D01*
X80965518Y-43637932D01*
X80620690Y-43637932D01*
X80275862Y-43637932D01*
X80275862Y-43293105D01*
X80275862Y-43120691D01*
X80620690Y-43120691D01*
X80620690Y-43293105D01*
X80793104Y-43293105D01*
X80965518Y-43293105D01*
X80965518Y-43120691D01*
X80965518Y-42948277D01*
X80793104Y-42948277D01*
X80620690Y-42948277D01*
X80620690Y-43120691D01*
X80275862Y-43120691D01*
X80275862Y-42948277D01*
X80103449Y-42948277D01*
X79931035Y-42948277D01*
X79931035Y-42775864D01*
X79931035Y-42603450D01*
X79758621Y-42603450D01*
X79586207Y-42603450D01*
X79586207Y-42431036D01*
X79586207Y-42258622D01*
X80103449Y-42258622D01*
X80620690Y-42258622D01*
X80620690Y-42431036D01*
G37*
G36*
X80275862Y-46568966D02*
G01*
X80275862Y-46741380D01*
X79931035Y-46741380D01*
X79586207Y-46741380D01*
X79586207Y-46568966D01*
X79586207Y-46396553D01*
X79931035Y-46396553D01*
X80275862Y-46396553D01*
X80275862Y-46568966D01*
G37*
G36*
X79241380Y-44500001D02*
G01*
X79241380Y-44672415D01*
X79068966Y-44672415D01*
X78896552Y-44672415D01*
X78896552Y-44500001D01*
X78896552Y-44327587D01*
X79068966Y-44327587D01*
X79241380Y-44327587D01*
X79241380Y-44500001D01*
G37*
G36*
X82000000Y-41913795D02*
G01*
X80793104Y-41913795D01*
X79586207Y-41913795D01*
X79586207Y-40706899D01*
X79586207Y-39844830D01*
X79931035Y-39844830D01*
X79931035Y-40706899D01*
X79931035Y-41568967D01*
X80793104Y-41568967D01*
X81655172Y-41568967D01*
X81655172Y-40706899D01*
X81655172Y-39844830D01*
X80793104Y-39844830D01*
X79931035Y-39844830D01*
X79586207Y-39844830D01*
X79586207Y-39500002D01*
X80793104Y-39500002D01*
X82000000Y-39500002D01*
X82000000Y-40706899D01*
X82000000Y-41913795D01*
G37*
G36*
X81310345Y-40706899D02*
G01*
X81310345Y-41224140D01*
X80793104Y-41224140D01*
X80275862Y-41224140D01*
X80275862Y-40706899D01*
X80275862Y-40189657D01*
X80793104Y-40189657D01*
X81310345Y-40189657D01*
X81310345Y-40706899D01*
G37*
G36*
X76137932Y-40017243D02*
G01*
X76137932Y-40189657D01*
X75965518Y-40189657D01*
X75793105Y-40189657D01*
X75793105Y-40017243D01*
X75793105Y-39844830D01*
X75965518Y-39844830D01*
X76137932Y-39844830D01*
X76137932Y-40017243D01*
G37*
G36*
X80275862Y-44672415D02*
G01*
X79931035Y-44672415D01*
X79586207Y-44672415D01*
X79586207Y-44500001D01*
X79586207Y-44327587D01*
X79413794Y-44327587D01*
X79241380Y-44327587D01*
X79241380Y-44155173D01*
X79241380Y-43982760D01*
X79068966Y-43982760D01*
X78896552Y-43982760D01*
X78896552Y-43810346D01*
X78896552Y-43637932D01*
X79068966Y-43637932D01*
X79241380Y-43637932D01*
X79241380Y-43810346D01*
X79241380Y-43982760D01*
X79413794Y-43982760D01*
X79586207Y-43982760D01*
X79586207Y-44155173D01*
X79586207Y-44327587D01*
X79758621Y-44327587D01*
X79931035Y-44327587D01*
X79931035Y-44155173D01*
X79931035Y-43982760D01*
X79758621Y-43982760D01*
X79586207Y-43982760D01*
X79586207Y-43810346D01*
X79586207Y-43637932D01*
X79931035Y-43637932D01*
X80275862Y-43637932D01*
X80275862Y-44155173D01*
X80275862Y-44672415D01*
G37*
G36*
X81655172Y-44155173D02*
G01*
X81655172Y-44327587D01*
X81827586Y-44327587D01*
X82000000Y-44327587D01*
X82000000Y-44672415D01*
X82000000Y-45017243D01*
X81827586Y-45017243D01*
X81655172Y-45017243D01*
X81655172Y-44844829D01*
X81655172Y-44672415D01*
X81310345Y-44672415D01*
X80965518Y-44672415D01*
X80965518Y-44500001D01*
X80965518Y-44327587D01*
X81137931Y-44327587D01*
X81310345Y-44327587D01*
X81310345Y-44155173D01*
X81310345Y-43982760D01*
X81482759Y-43982760D01*
X81655172Y-43982760D01*
X81655172Y-44155173D01*
G37*
G36*
X77862070Y-39672416D02*
G01*
X77862070Y-39844830D01*
X77689656Y-39844830D01*
X77517242Y-39844830D01*
X77517242Y-40017243D01*
X77517242Y-40189657D01*
X77344829Y-40189657D01*
X77172415Y-40189657D01*
X77172415Y-39844830D01*
X77172415Y-39500002D01*
X77517242Y-39500002D01*
X77862070Y-39500002D01*
X77862070Y-39672416D01*
G37*
G36*
X78206897Y-49155172D02*
G01*
X78034484Y-49155172D01*
X77862070Y-49155172D01*
X77862070Y-49327586D01*
X77862070Y-49500000D01*
X77517242Y-49500000D01*
X77172415Y-49500000D01*
X77172415Y-49155172D01*
X77172415Y-48810345D01*
X77517242Y-48810345D01*
X77517242Y-48982759D01*
X77517242Y-49155172D01*
X77689656Y-49155172D01*
X77862070Y-49155172D01*
X77862070Y-48982759D01*
X77862070Y-48810345D01*
X77689656Y-48810345D01*
X77517242Y-48810345D01*
X77172415Y-48810345D01*
X77000001Y-48810345D01*
X76827588Y-48810345D01*
X76827588Y-48293103D01*
X76827588Y-47775863D01*
X77172415Y-47775863D01*
X77517242Y-47775863D01*
X77517242Y-47948277D01*
X77517242Y-48120690D01*
X77344829Y-48120690D01*
X77172415Y-48120690D01*
X77172415Y-48293103D01*
X77172415Y-48465517D01*
X77344829Y-48465517D01*
X77517242Y-48465517D01*
X77517242Y-48293103D01*
X77517242Y-48120690D01*
X77689656Y-48120690D01*
X77862070Y-48120690D01*
X77862070Y-48293103D01*
X77862070Y-48465517D01*
X78034484Y-48465517D01*
X78206897Y-48465517D01*
X78206897Y-48293103D01*
X78206897Y-48120690D01*
X78034484Y-48120690D01*
X77862070Y-48120690D01*
X77862070Y-47948277D01*
X77862070Y-47775863D01*
X78034484Y-47775863D01*
X78206897Y-47775863D01*
X78206897Y-47948277D01*
X78206897Y-48120690D01*
X78379311Y-48120690D01*
X78551725Y-48120690D01*
X78551725Y-47775863D01*
X78551725Y-47431035D01*
X78896552Y-47431035D01*
X79241380Y-47431035D01*
X79241380Y-47775863D01*
X79241380Y-48120690D01*
X78896552Y-48120690D01*
X78551725Y-48120690D01*
X78551725Y-48293103D01*
X78551725Y-48465517D01*
X78379311Y-48465517D01*
X78206897Y-48465517D01*
X78206897Y-48810345D01*
X78206897Y-48982759D01*
X78206897Y-49155172D01*
G37*
G36*
X79068966Y-48810345D02*
G01*
X79241380Y-48810345D01*
X79241380Y-49155172D01*
X79241380Y-49500000D01*
X79068966Y-49500000D01*
X78896552Y-49500000D01*
X78896552Y-49155172D01*
X78896552Y-48810345D01*
X79068966Y-48810345D01*
G37*
G36*
X78724138Y-48465517D02*
G01*
X78896552Y-48465517D01*
X78896552Y-48637931D01*
X78896552Y-48810345D01*
X78724138Y-48810345D01*
X78551725Y-48810345D01*
X78551725Y-48637931D01*
X78551725Y-48465517D01*
X78724138Y-48465517D01*
G37*
G36*
X77862070Y-47603449D02*
G01*
X77862070Y-47775863D01*
X77689656Y-47775863D01*
X77517242Y-47775863D01*
X77517242Y-47603449D01*
X77517242Y-47431035D01*
X77689656Y-47431035D01*
X77862070Y-47431035D01*
X77862070Y-47603449D01*
G37*
G36*
X79241380Y-40879312D02*
G01*
X78896552Y-40879312D01*
X78551725Y-40879312D01*
X78551725Y-40706899D01*
X78551725Y-40534485D01*
X78379311Y-40534485D01*
X78206897Y-40534485D01*
X78206897Y-40706899D01*
X78206897Y-40879312D01*
X78034484Y-40879312D01*
X77862070Y-40879312D01*
X77862070Y-40534485D01*
X77862070Y-40189657D01*
X78034484Y-40189657D01*
X78206897Y-40189657D01*
X78551725Y-40189657D01*
X78551725Y-40362071D01*
X78551725Y-40534485D01*
X78724138Y-40534485D01*
X78896552Y-40534485D01*
X78896552Y-40362071D01*
X78896552Y-40189657D01*
X78724138Y-40189657D01*
X78551725Y-40189657D01*
X78206897Y-40189657D01*
X78206897Y-39844830D01*
X78206897Y-39500002D01*
X78724138Y-39500002D01*
X79241380Y-39500002D01*
X79241380Y-40189657D01*
X79241380Y-40362071D01*
X79241380Y-40879312D01*
G37*
G36*
X78551725Y-46913794D02*
G01*
X78551725Y-47086207D01*
X78379311Y-47086207D01*
X78206897Y-47086207D01*
X78206897Y-46913794D01*
X78206897Y-46741380D01*
X78379311Y-46741380D01*
X78551725Y-46741380D01*
X78551725Y-46913794D01*
G37*
G36*
X79586207Y-42775864D02*
G01*
X79586207Y-42948277D01*
X78896552Y-42948277D01*
X78206897Y-42948277D01*
X78206897Y-42775864D01*
X78206897Y-42603450D01*
X78896552Y-42603450D01*
X79586207Y-42603450D01*
X79586207Y-42775864D01*
G37*
G36*
X78034484Y-42258622D02*
G01*
X78206897Y-42258622D01*
X78206897Y-42431036D01*
X78206897Y-42603450D01*
X78034484Y-42603450D01*
X77862070Y-42603450D01*
X77862070Y-42431036D01*
X77862070Y-42258622D01*
X78034484Y-42258622D01*
G37*
G36*
X75448277Y-40017243D02*
G01*
X75448277Y-40534485D01*
X75965518Y-40534485D01*
X76482760Y-40534485D01*
X76482760Y-40189657D01*
X76482760Y-39844830D01*
X76655174Y-39844830D01*
X76827588Y-39844830D01*
X76827588Y-40189657D01*
X76827588Y-40534485D01*
X77172415Y-40534485D01*
X77517242Y-40534485D01*
X77517242Y-40879312D01*
X77517242Y-41224140D01*
X77862070Y-41224140D01*
X78206897Y-41224140D01*
X78206897Y-41396553D01*
X78206897Y-41568967D01*
X78034484Y-41568967D01*
X77862070Y-41568967D01*
X77862070Y-41913795D01*
X77862070Y-42258622D01*
X77172415Y-42258622D01*
X76482760Y-42258622D01*
X76482760Y-42086208D01*
X76482760Y-41913795D01*
X76655174Y-41913795D01*
X76827588Y-41913795D01*
X76827588Y-41741381D01*
X76827588Y-41568967D01*
X77000001Y-41568967D01*
X77172415Y-41568967D01*
X77172415Y-41741381D01*
X77172415Y-41913795D01*
X77344829Y-41913795D01*
X77517242Y-41913795D01*
X77517242Y-41741381D01*
X77517242Y-41568967D01*
X77344829Y-41568967D01*
X77172415Y-41568967D01*
X77172415Y-41224140D01*
X77172415Y-40879312D01*
X76827588Y-40879312D01*
X76482760Y-40879312D01*
X76482760Y-41051726D01*
X76482760Y-41224140D01*
X76310346Y-41224140D01*
X76137932Y-41224140D01*
X76137932Y-41051726D01*
X76137932Y-40879312D01*
X75965518Y-40879312D01*
X75793105Y-40879312D01*
X75793105Y-41051726D01*
X75793105Y-41224140D01*
X75620691Y-41224140D01*
X75448277Y-41224140D01*
X75448277Y-41396553D01*
X75448277Y-41568967D01*
X75275864Y-41568967D01*
X75103450Y-41568967D01*
X75103450Y-41396553D01*
X75103450Y-41224140D01*
X74931036Y-41224140D01*
X74758622Y-41224140D01*
X74758622Y-41051726D01*
X74758622Y-40879312D01*
X74931036Y-40879312D01*
X75103450Y-40879312D01*
X75103450Y-41051726D01*
X75103450Y-41224140D01*
X75275864Y-41224140D01*
X75448277Y-41224140D01*
X75448277Y-40879312D01*
X75448277Y-40534485D01*
X75103450Y-40534485D01*
X74758622Y-40534485D01*
X74758622Y-40017243D01*
X74758622Y-39500002D01*
X75103450Y-39500002D01*
X75448277Y-39500002D01*
X75448277Y-40017243D01*
G37*
G36*
X79241380Y-41568967D02*
G01*
X79241380Y-41913795D01*
X79068966Y-41913795D01*
X78896552Y-41913795D01*
X78896552Y-42086208D01*
X78896552Y-42258622D01*
X78724138Y-42258622D01*
X78551725Y-42258622D01*
X78551725Y-42086208D01*
X78551725Y-41913795D01*
X78379311Y-41913795D01*
X78206897Y-41913795D01*
X78206897Y-41741381D01*
X78206897Y-41568967D01*
X78379311Y-41568967D01*
X78551725Y-41568967D01*
X78551725Y-41741381D01*
X78551725Y-41913795D01*
X78724138Y-41913795D01*
X78896552Y-41913795D01*
X78896552Y-41568967D01*
X78896552Y-41224140D01*
X79068966Y-41224140D01*
X79241380Y-41224140D01*
X79241380Y-41568967D01*
G37*
G36*
X75620691Y-41568967D02*
G01*
X75793105Y-41568967D01*
X75793105Y-41741381D01*
X75793105Y-41913795D01*
X75620691Y-41913795D01*
X75448277Y-41913795D01*
X75448277Y-41741381D01*
X75448277Y-41568967D01*
X75620691Y-41568967D01*
G37*
G36*
X76482760Y-39672416D02*
G01*
X76482760Y-39844830D01*
X76310346Y-39844830D01*
X76137932Y-39844830D01*
X76137932Y-39672416D01*
X76137932Y-39500002D01*
X76310346Y-39500002D01*
X76482760Y-39500002D01*
X76482760Y-39672416D01*
G37*
G36*
X79931035Y-43120691D02*
G01*
X79931035Y-43293105D01*
X79758621Y-43293105D01*
X79586207Y-43293105D01*
X79586207Y-43120691D01*
X79586207Y-42948277D01*
X79758621Y-42948277D01*
X79931035Y-42948277D01*
X79931035Y-43120691D01*
G37*
G36*
X74413795Y-47258621D02*
G01*
X74413795Y-47431035D01*
X74241381Y-47431035D01*
X74068967Y-47431035D01*
X74068967Y-47258621D01*
X74068967Y-47086207D01*
X74241381Y-47086207D01*
X74413795Y-47086207D01*
X74413795Y-47258621D01*
G37*
D11*
X69933333Y-32304933D02*
X70542857Y-32304933D01*
X71342856Y-32609695D02*
X70885713Y-32609695D01*
X71114285Y-32609695D02*
X71114285Y-31809695D01*
X71114285Y-31809695D02*
X71038094Y-31923980D01*
X71038094Y-31923980D02*
X70961904Y-32000171D01*
X70961904Y-32000171D02*
X70885713Y-32038266D01*
X71799999Y-32152552D02*
X71723809Y-32114457D01*
X71723809Y-32114457D02*
X71685714Y-32076361D01*
X71685714Y-32076361D02*
X71647618Y-32000171D01*
X71647618Y-32000171D02*
X71647618Y-31962076D01*
X71647618Y-31962076D02*
X71685714Y-31885885D01*
X71685714Y-31885885D02*
X71723809Y-31847790D01*
X71723809Y-31847790D02*
X71799999Y-31809695D01*
X71799999Y-31809695D02*
X71952380Y-31809695D01*
X71952380Y-31809695D02*
X72028571Y-31847790D01*
X72028571Y-31847790D02*
X72066666Y-31885885D01*
X72066666Y-31885885D02*
X72104761Y-31962076D01*
X72104761Y-31962076D02*
X72104761Y-32000171D01*
X72104761Y-32000171D02*
X72066666Y-32076361D01*
X72066666Y-32076361D02*
X72028571Y-32114457D01*
X72028571Y-32114457D02*
X71952380Y-32152552D01*
X71952380Y-32152552D02*
X71799999Y-32152552D01*
X71799999Y-32152552D02*
X71723809Y-32190647D01*
X71723809Y-32190647D02*
X71685714Y-32228742D01*
X71685714Y-32228742D02*
X71647618Y-32304933D01*
X71647618Y-32304933D02*
X71647618Y-32457314D01*
X71647618Y-32457314D02*
X71685714Y-32533504D01*
X71685714Y-32533504D02*
X71723809Y-32571600D01*
X71723809Y-32571600D02*
X71799999Y-32609695D01*
X71799999Y-32609695D02*
X71952380Y-32609695D01*
X71952380Y-32609695D02*
X72028571Y-32571600D01*
X72028571Y-32571600D02*
X72066666Y-32533504D01*
X72066666Y-32533504D02*
X72104761Y-32457314D01*
X72104761Y-32457314D02*
X72104761Y-32304933D01*
X72104761Y-32304933D02*
X72066666Y-32228742D01*
X72066666Y-32228742D02*
X72028571Y-32190647D01*
X72028571Y-32190647D02*
X71952380Y-32152552D01*
X70390476Y-29347790D02*
X70314286Y-29309695D01*
X70314286Y-29309695D02*
X70200000Y-29309695D01*
X70200000Y-29309695D02*
X70085714Y-29347790D01*
X70085714Y-29347790D02*
X70009524Y-29423980D01*
X70009524Y-29423980D02*
X69971429Y-29500171D01*
X69971429Y-29500171D02*
X69933333Y-29652552D01*
X69933333Y-29652552D02*
X69933333Y-29766838D01*
X69933333Y-29766838D02*
X69971429Y-29919219D01*
X69971429Y-29919219D02*
X70009524Y-29995409D01*
X70009524Y-29995409D02*
X70085714Y-30071600D01*
X70085714Y-30071600D02*
X70200000Y-30109695D01*
X70200000Y-30109695D02*
X70276191Y-30109695D01*
X70276191Y-30109695D02*
X70390476Y-30071600D01*
X70390476Y-30071600D02*
X70428572Y-30033504D01*
X70428572Y-30033504D02*
X70428572Y-29766838D01*
X70428572Y-29766838D02*
X70276191Y-29766838D01*
X70771429Y-30109695D02*
X70771429Y-29309695D01*
X70771429Y-29309695D02*
X71228572Y-30109695D01*
X71228572Y-30109695D02*
X71228572Y-29309695D01*
X71609524Y-30109695D02*
X71609524Y-29309695D01*
X71609524Y-29309695D02*
X71800000Y-29309695D01*
X71800000Y-29309695D02*
X71914286Y-29347790D01*
X71914286Y-29347790D02*
X71990476Y-29423980D01*
X71990476Y-29423980D02*
X72028571Y-29500171D01*
X72028571Y-29500171D02*
X72066667Y-29652552D01*
X72066667Y-29652552D02*
X72066667Y-29766838D01*
X72066667Y-29766838D02*
X72028571Y-29919219D01*
X72028571Y-29919219D02*
X71990476Y-29995409D01*
X71990476Y-29995409D02*
X71914286Y-30071600D01*
X71914286Y-30071600D02*
X71800000Y-30109695D01*
X71800000Y-30109695D02*
X71609524Y-30109695D01*
X71547619Y-50867219D02*
X71547619Y-49867219D01*
X71547619Y-49867219D02*
X71785714Y-49867219D01*
X71785714Y-49867219D02*
X71928571Y-49914838D01*
X71928571Y-49914838D02*
X72023809Y-50010076D01*
X72023809Y-50010076D02*
X72071428Y-50105314D01*
X72071428Y-50105314D02*
X72119047Y-50295790D01*
X72119047Y-50295790D02*
X72119047Y-50438647D01*
X72119047Y-50438647D02*
X72071428Y-50629123D01*
X72071428Y-50629123D02*
X72023809Y-50724361D01*
X72023809Y-50724361D02*
X71928571Y-50819600D01*
X71928571Y-50819600D02*
X71785714Y-50867219D01*
X71785714Y-50867219D02*
X71547619Y-50867219D01*
X72547619Y-50867219D02*
X72547619Y-49867219D01*
X72547619Y-49867219D02*
X72880952Y-50581504D01*
X72880952Y-50581504D02*
X73214285Y-49867219D01*
X73214285Y-49867219D02*
X73214285Y-50867219D01*
X74214285Y-49914838D02*
X74119047Y-49867219D01*
X74119047Y-49867219D02*
X73976190Y-49867219D01*
X73976190Y-49867219D02*
X73833333Y-49914838D01*
X73833333Y-49914838D02*
X73738095Y-50010076D01*
X73738095Y-50010076D02*
X73690476Y-50105314D01*
X73690476Y-50105314D02*
X73642857Y-50295790D01*
X73642857Y-50295790D02*
X73642857Y-50438647D01*
X73642857Y-50438647D02*
X73690476Y-50629123D01*
X73690476Y-50629123D02*
X73738095Y-50724361D01*
X73738095Y-50724361D02*
X73833333Y-50819600D01*
X73833333Y-50819600D02*
X73976190Y-50867219D01*
X73976190Y-50867219D02*
X74071428Y-50867219D01*
X74071428Y-50867219D02*
X74214285Y-50819600D01*
X74214285Y-50819600D02*
X74261904Y-50771980D01*
X74261904Y-50771980D02*
X74261904Y-50438647D01*
X74261904Y-50438647D02*
X74071428Y-50438647D01*
X74690476Y-50486266D02*
X75452381Y-50486266D01*
X75928571Y-50867219D02*
X75928571Y-49867219D01*
X75928571Y-49867219D02*
X76309523Y-49867219D01*
X76309523Y-49867219D02*
X76404761Y-49914838D01*
X76404761Y-49914838D02*
X76452380Y-49962457D01*
X76452380Y-49962457D02*
X76499999Y-50057695D01*
X76499999Y-50057695D02*
X76499999Y-50200552D01*
X76499999Y-50200552D02*
X76452380Y-50295790D01*
X76452380Y-50295790D02*
X76404761Y-50343409D01*
X76404761Y-50343409D02*
X76309523Y-50391028D01*
X76309523Y-50391028D02*
X75928571Y-50391028D01*
X76880952Y-50819600D02*
X77023809Y-50867219D01*
X77023809Y-50867219D02*
X77261904Y-50867219D01*
X77261904Y-50867219D02*
X77357142Y-50819600D01*
X77357142Y-50819600D02*
X77404761Y-50771980D01*
X77404761Y-50771980D02*
X77452380Y-50676742D01*
X77452380Y-50676742D02*
X77452380Y-50581504D01*
X77452380Y-50581504D02*
X77404761Y-50486266D01*
X77404761Y-50486266D02*
X77357142Y-50438647D01*
X77357142Y-50438647D02*
X77261904Y-50391028D01*
X77261904Y-50391028D02*
X77071428Y-50343409D01*
X77071428Y-50343409D02*
X76976190Y-50295790D01*
X76976190Y-50295790D02*
X76928571Y-50248171D01*
X76928571Y-50248171D02*
X76880952Y-50152933D01*
X76880952Y-50152933D02*
X76880952Y-50057695D01*
X76880952Y-50057695D02*
X76928571Y-49962457D01*
X76928571Y-49962457D02*
X76976190Y-49914838D01*
X76976190Y-49914838D02*
X77071428Y-49867219D01*
X77071428Y-49867219D02*
X77309523Y-49867219D01*
X77309523Y-49867219D02*
X77452380Y-49914838D01*
X77880952Y-49867219D02*
X77880952Y-50676742D01*
X77880952Y-50676742D02*
X77928571Y-50771980D01*
X77928571Y-50771980D02*
X77976190Y-50819600D01*
X77976190Y-50819600D02*
X78071428Y-50867219D01*
X78071428Y-50867219D02*
X78261904Y-50867219D01*
X78261904Y-50867219D02*
X78357142Y-50819600D01*
X78357142Y-50819600D02*
X78404761Y-50771980D01*
X78404761Y-50771980D02*
X78452380Y-50676742D01*
X78452380Y-50676742D02*
X78452380Y-49867219D01*
X79547619Y-49867219D02*
X79880952Y-50867219D01*
X79880952Y-50867219D02*
X80214285Y-49867219D01*
X81071428Y-50867219D02*
X80500000Y-50867219D01*
X80785714Y-50867219D02*
X80785714Y-49867219D01*
X80785714Y-49867219D02*
X80690476Y-50010076D01*
X80690476Y-50010076D02*
X80595238Y-50105314D01*
X80595238Y-50105314D02*
X80500000Y-50152933D01*
X81547619Y-50819600D02*
X81547619Y-50867219D01*
X81547619Y-50867219D02*
X81500000Y-50962457D01*
X81500000Y-50962457D02*
X81452381Y-51010076D01*
X82499999Y-50867219D02*
X81928571Y-50867219D01*
X82214285Y-50867219D02*
X82214285Y-49867219D01*
X82214285Y-49867219D02*
X82119047Y-50010076D01*
X82119047Y-50010076D02*
X82023809Y-50105314D01*
X82023809Y-50105314D02*
X81928571Y-50152933D01*
X71347619Y-34559695D02*
X70966667Y-34559695D01*
X70966667Y-34559695D02*
X70928571Y-34940647D01*
X70928571Y-34940647D02*
X70966667Y-34902552D01*
X70966667Y-34902552D02*
X71042857Y-34864457D01*
X71042857Y-34864457D02*
X71233333Y-34864457D01*
X71233333Y-34864457D02*
X71309524Y-34902552D01*
X71309524Y-34902552D02*
X71347619Y-34940647D01*
X71347619Y-34940647D02*
X71385714Y-35016838D01*
X71385714Y-35016838D02*
X71385714Y-35207314D01*
X71385714Y-35207314D02*
X71347619Y-35283504D01*
X71347619Y-35283504D02*
X71309524Y-35321600D01*
X71309524Y-35321600D02*
X71233333Y-35359695D01*
X71233333Y-35359695D02*
X71042857Y-35359695D01*
X71042857Y-35359695D02*
X70966667Y-35321600D01*
X70966667Y-35321600D02*
X70928571Y-35283504D01*
X71614286Y-34559695D02*
X71880953Y-35359695D01*
X71880953Y-35359695D02*
X72147619Y-34559695D01*
X69933333Y-26809695D02*
X70200000Y-27609695D01*
X70200000Y-27609695D02*
X70466666Y-26809695D01*
X71190476Y-27533504D02*
X71152380Y-27571600D01*
X71152380Y-27571600D02*
X71038095Y-27609695D01*
X71038095Y-27609695D02*
X70961904Y-27609695D01*
X70961904Y-27609695D02*
X70847618Y-27571600D01*
X70847618Y-27571600D02*
X70771428Y-27495409D01*
X70771428Y-27495409D02*
X70733333Y-27419219D01*
X70733333Y-27419219D02*
X70695237Y-27266838D01*
X70695237Y-27266838D02*
X70695237Y-27152552D01*
X70695237Y-27152552D02*
X70733333Y-27000171D01*
X70733333Y-27000171D02*
X70771428Y-26923980D01*
X70771428Y-26923980D02*
X70847618Y-26847790D01*
X70847618Y-26847790D02*
X70961904Y-26809695D01*
X70961904Y-26809695D02*
X71038095Y-26809695D01*
X71038095Y-26809695D02*
X71152380Y-26847790D01*
X71152380Y-26847790D02*
X71190476Y-26885885D01*
X71990476Y-27533504D02*
X71952380Y-27571600D01*
X71952380Y-27571600D02*
X71838095Y-27609695D01*
X71838095Y-27609695D02*
X71761904Y-27609695D01*
X71761904Y-27609695D02*
X71647618Y-27571600D01*
X71647618Y-27571600D02*
X71571428Y-27495409D01*
X71571428Y-27495409D02*
X71533333Y-27419219D01*
X71533333Y-27419219D02*
X71495237Y-27266838D01*
X71495237Y-27266838D02*
X71495237Y-27152552D01*
X71495237Y-27152552D02*
X71533333Y-27000171D01*
X71533333Y-27000171D02*
X71571428Y-26923980D01*
X71571428Y-26923980D02*
X71647618Y-26847790D01*
X71647618Y-26847790D02*
X71761904Y-26809695D01*
X71761904Y-26809695D02*
X71838095Y-26809695D01*
X71838095Y-26809695D02*
X71952380Y-26847790D01*
X71952380Y-26847790D02*
X71990476Y-26885885D01*
D12*
X80457142Y-56859580D02*
X80409523Y-56907200D01*
X80409523Y-56907200D02*
X80266666Y-56954819D01*
X80266666Y-56954819D02*
X80171428Y-56954819D01*
X80171428Y-56954819D02*
X80028571Y-56907200D01*
X80028571Y-56907200D02*
X79933333Y-56811961D01*
X79933333Y-56811961D02*
X79885714Y-56716723D01*
X79885714Y-56716723D02*
X79838095Y-56526247D01*
X79838095Y-56526247D02*
X79838095Y-56383390D01*
X79838095Y-56383390D02*
X79885714Y-56192914D01*
X79885714Y-56192914D02*
X79933333Y-56097676D01*
X79933333Y-56097676D02*
X80028571Y-56002438D01*
X80028571Y-56002438D02*
X80171428Y-55954819D01*
X80171428Y-55954819D02*
X80266666Y-55954819D01*
X80266666Y-55954819D02*
X80409523Y-56002438D01*
X80409523Y-56002438D02*
X80457142Y-56050057D01*
X81409523Y-56954819D02*
X80838095Y-56954819D01*
X81123809Y-56954819D02*
X81123809Y-55954819D01*
X81123809Y-55954819D02*
X81028571Y-56097676D01*
X81028571Y-56097676D02*
X80933333Y-56192914D01*
X80933333Y-56192914D02*
X80838095Y-56240533D01*
X82266666Y-56288152D02*
X82266666Y-56954819D01*
X82028571Y-55907200D02*
X81790476Y-56621485D01*
X81790476Y-56621485D02*
X82409523Y-56621485D01*
X80740490Y-69859580D02*
X80692871Y-69907200D01*
X80692871Y-69907200D02*
X80550014Y-69954819D01*
X80550014Y-69954819D02*
X80454776Y-69954819D01*
X80454776Y-69954819D02*
X80311919Y-69907200D01*
X80311919Y-69907200D02*
X80216681Y-69811961D01*
X80216681Y-69811961D02*
X80169062Y-69716723D01*
X80169062Y-69716723D02*
X80121443Y-69526247D01*
X80121443Y-69526247D02*
X80121443Y-69383390D01*
X80121443Y-69383390D02*
X80169062Y-69192914D01*
X80169062Y-69192914D02*
X80216681Y-69097676D01*
X80216681Y-69097676D02*
X80311919Y-69002438D01*
X80311919Y-69002438D02*
X80454776Y-68954819D01*
X80454776Y-68954819D02*
X80550014Y-68954819D01*
X80550014Y-68954819D02*
X80692871Y-69002438D01*
X80692871Y-69002438D02*
X80740490Y-69050057D01*
X81692871Y-69954819D02*
X81121443Y-69954819D01*
X81407157Y-69954819D02*
X81407157Y-68954819D01*
X81407157Y-68954819D02*
X81311919Y-69097676D01*
X81311919Y-69097676D02*
X81216681Y-69192914D01*
X81216681Y-69192914D02*
X81121443Y-69240533D01*
X82597633Y-68954819D02*
X82121443Y-68954819D01*
X82121443Y-68954819D02*
X82073824Y-69431009D01*
X82073824Y-69431009D02*
X82121443Y-69383390D01*
X82121443Y-69383390D02*
X82216681Y-69335771D01*
X82216681Y-69335771D02*
X82454776Y-69335771D01*
X82454776Y-69335771D02*
X82550014Y-69383390D01*
X82550014Y-69383390D02*
X82597633Y-69431009D01*
X82597633Y-69431009D02*
X82645252Y-69526247D01*
X82645252Y-69526247D02*
X82645252Y-69764342D01*
X82645252Y-69764342D02*
X82597633Y-69859580D01*
X82597633Y-69859580D02*
X82550014Y-69907200D01*
X82550014Y-69907200D02*
X82454776Y-69954819D01*
X82454776Y-69954819D02*
X82216681Y-69954819D01*
X82216681Y-69954819D02*
X82121443Y-69907200D01*
X82121443Y-69907200D02*
X82073824Y-69859580D01*
X71833333Y-52800645D02*
X71500000Y-52324454D01*
X71261905Y-52800645D02*
X71261905Y-51800645D01*
X71261905Y-51800645D02*
X71642857Y-51800645D01*
X71642857Y-51800645D02*
X71738095Y-51848264D01*
X71738095Y-51848264D02*
X71785714Y-51895883D01*
X71785714Y-51895883D02*
X71833333Y-51991121D01*
X71833333Y-51991121D02*
X71833333Y-52133978D01*
X71833333Y-52133978D02*
X71785714Y-52229216D01*
X71785714Y-52229216D02*
X71738095Y-52276835D01*
X71738095Y-52276835D02*
X71642857Y-52324454D01*
X71642857Y-52324454D02*
X71261905Y-52324454D01*
X72309524Y-52800645D02*
X72500000Y-52800645D01*
X72500000Y-52800645D02*
X72595238Y-52753026D01*
X72595238Y-52753026D02*
X72642857Y-52705406D01*
X72642857Y-52705406D02*
X72738095Y-52562549D01*
X72738095Y-52562549D02*
X72785714Y-52372073D01*
X72785714Y-52372073D02*
X72785714Y-51991121D01*
X72785714Y-51991121D02*
X72738095Y-51895883D01*
X72738095Y-51895883D02*
X72690476Y-51848264D01*
X72690476Y-51848264D02*
X72595238Y-51800645D01*
X72595238Y-51800645D02*
X72404762Y-51800645D01*
X72404762Y-51800645D02*
X72309524Y-51848264D01*
X72309524Y-51848264D02*
X72261905Y-51895883D01*
X72261905Y-51895883D02*
X72214286Y-51991121D01*
X72214286Y-51991121D02*
X72214286Y-52229216D01*
X72214286Y-52229216D02*
X72261905Y-52324454D01*
X72261905Y-52324454D02*
X72309524Y-52372073D01*
X72309524Y-52372073D02*
X72404762Y-52419692D01*
X72404762Y-52419692D02*
X72595238Y-52419692D01*
X72595238Y-52419692D02*
X72690476Y-52372073D01*
X72690476Y-52372073D02*
X72738095Y-52324454D01*
X72738095Y-52324454D02*
X72785714Y-52229216D01*
X80011905Y-75454819D02*
X80011905Y-74454819D01*
X80011905Y-74454819D02*
X80250000Y-74454819D01*
X80250000Y-74454819D02*
X80392857Y-74502438D01*
X80392857Y-74502438D02*
X80488095Y-74597676D01*
X80488095Y-74597676D02*
X80535714Y-74692914D01*
X80535714Y-74692914D02*
X80583333Y-74883390D01*
X80583333Y-74883390D02*
X80583333Y-75026247D01*
X80583333Y-75026247D02*
X80535714Y-75216723D01*
X80535714Y-75216723D02*
X80488095Y-75311961D01*
X80488095Y-75311961D02*
X80392857Y-75407200D01*
X80392857Y-75407200D02*
X80250000Y-75454819D01*
X80250000Y-75454819D02*
X80011905Y-75454819D01*
X81535714Y-75454819D02*
X80964286Y-75454819D01*
X81250000Y-75454819D02*
X81250000Y-74454819D01*
X81250000Y-74454819D02*
X81154762Y-74597676D01*
X81154762Y-74597676D02*
X81059524Y-74692914D01*
X81059524Y-74692914D02*
X80964286Y-74740533D01*
X76583333Y-68454819D02*
X76107143Y-68454819D01*
X76107143Y-68454819D02*
X76107143Y-67454819D01*
X77392857Y-67454819D02*
X76916667Y-67454819D01*
X76916667Y-67454819D02*
X76869048Y-67931009D01*
X76869048Y-67931009D02*
X76916667Y-67883390D01*
X76916667Y-67883390D02*
X77011905Y-67835771D01*
X77011905Y-67835771D02*
X77250000Y-67835771D01*
X77250000Y-67835771D02*
X77345238Y-67883390D01*
X77345238Y-67883390D02*
X77392857Y-67931009D01*
X77392857Y-67931009D02*
X77440476Y-68026247D01*
X77440476Y-68026247D02*
X77440476Y-68264342D01*
X77440476Y-68264342D02*
X77392857Y-68359580D01*
X77392857Y-68359580D02*
X77345238Y-68407200D01*
X77345238Y-68407200D02*
X77250000Y-68454819D01*
X77250000Y-68454819D02*
X77011905Y-68454819D01*
X77011905Y-68454819D02*
X76916667Y-68407200D01*
X76916667Y-68407200D02*
X76869048Y-68359580D01*
X80933333Y-35709580D02*
X80885714Y-35757200D01*
X80885714Y-35757200D02*
X80742857Y-35804819D01*
X80742857Y-35804819D02*
X80647619Y-35804819D01*
X80647619Y-35804819D02*
X80504762Y-35757200D01*
X80504762Y-35757200D02*
X80409524Y-35661961D01*
X80409524Y-35661961D02*
X80361905Y-35566723D01*
X80361905Y-35566723D02*
X80314286Y-35376247D01*
X80314286Y-35376247D02*
X80314286Y-35233390D01*
X80314286Y-35233390D02*
X80361905Y-35042914D01*
X80361905Y-35042914D02*
X80409524Y-34947676D01*
X80409524Y-34947676D02*
X80504762Y-34852438D01*
X80504762Y-34852438D02*
X80647619Y-34804819D01*
X80647619Y-34804819D02*
X80742857Y-34804819D01*
X80742857Y-34804819D02*
X80885714Y-34852438D01*
X80885714Y-34852438D02*
X80933333Y-34900057D01*
X81266667Y-34804819D02*
X81885714Y-34804819D01*
X81885714Y-34804819D02*
X81552381Y-35185771D01*
X81552381Y-35185771D02*
X81695238Y-35185771D01*
X81695238Y-35185771D02*
X81790476Y-35233390D01*
X81790476Y-35233390D02*
X81838095Y-35281009D01*
X81838095Y-35281009D02*
X81885714Y-35376247D01*
X81885714Y-35376247D02*
X81885714Y-35614342D01*
X81885714Y-35614342D02*
X81838095Y-35709580D01*
X81838095Y-35709580D02*
X81790476Y-35757200D01*
X81790476Y-35757200D02*
X81695238Y-35804819D01*
X81695238Y-35804819D02*
X81409524Y-35804819D01*
X81409524Y-35804819D02*
X81314286Y-35757200D01*
X81314286Y-35757200D02*
X81266667Y-35709580D01*
X71757142Y-64459580D02*
X71709523Y-64507200D01*
X71709523Y-64507200D02*
X71566666Y-64554819D01*
X71566666Y-64554819D02*
X71471428Y-64554819D01*
X71471428Y-64554819D02*
X71328571Y-64507200D01*
X71328571Y-64507200D02*
X71233333Y-64411961D01*
X71233333Y-64411961D02*
X71185714Y-64316723D01*
X71185714Y-64316723D02*
X71138095Y-64126247D01*
X71138095Y-64126247D02*
X71138095Y-63983390D01*
X71138095Y-63983390D02*
X71185714Y-63792914D01*
X71185714Y-63792914D02*
X71233333Y-63697676D01*
X71233333Y-63697676D02*
X71328571Y-63602438D01*
X71328571Y-63602438D02*
X71471428Y-63554819D01*
X71471428Y-63554819D02*
X71566666Y-63554819D01*
X71566666Y-63554819D02*
X71709523Y-63602438D01*
X71709523Y-63602438D02*
X71757142Y-63650057D01*
X72709523Y-64554819D02*
X72138095Y-64554819D01*
X72423809Y-64554819D02*
X72423809Y-63554819D01*
X72423809Y-63554819D02*
X72328571Y-63697676D01*
X72328571Y-63697676D02*
X72233333Y-63792914D01*
X72233333Y-63792914D02*
X72138095Y-63840533D01*
X73090476Y-63650057D02*
X73138095Y-63602438D01*
X73138095Y-63602438D02*
X73233333Y-63554819D01*
X73233333Y-63554819D02*
X73471428Y-63554819D01*
X73471428Y-63554819D02*
X73566666Y-63602438D01*
X73566666Y-63602438D02*
X73614285Y-63650057D01*
X73614285Y-63650057D02*
X73661904Y-63745295D01*
X73661904Y-63745295D02*
X73661904Y-63840533D01*
X73661904Y-63840533D02*
X73614285Y-63983390D01*
X73614285Y-63983390D02*
X73042857Y-64554819D01*
X73042857Y-64554819D02*
X73661904Y-64554819D01*
X74633333Y-75359580D02*
X74585714Y-75407200D01*
X74585714Y-75407200D02*
X74442857Y-75454819D01*
X74442857Y-75454819D02*
X74347619Y-75454819D01*
X74347619Y-75454819D02*
X74204762Y-75407200D01*
X74204762Y-75407200D02*
X74109524Y-75311961D01*
X74109524Y-75311961D02*
X74061905Y-75216723D01*
X74061905Y-75216723D02*
X74014286Y-75026247D01*
X74014286Y-75026247D02*
X74014286Y-74883390D01*
X74014286Y-74883390D02*
X74061905Y-74692914D01*
X74061905Y-74692914D02*
X74109524Y-74597676D01*
X74109524Y-74597676D02*
X74204762Y-74502438D01*
X74204762Y-74502438D02*
X74347619Y-74454819D01*
X74347619Y-74454819D02*
X74442857Y-74454819D01*
X74442857Y-74454819D02*
X74585714Y-74502438D01*
X74585714Y-74502438D02*
X74633333Y-74550057D01*
X75490476Y-74788152D02*
X75490476Y-75454819D01*
X75252381Y-74407200D02*
X75014286Y-75121485D01*
X75014286Y-75121485D02*
X75633333Y-75121485D01*
X84109580Y-62142857D02*
X84157200Y-62190476D01*
X84157200Y-62190476D02*
X84204819Y-62333333D01*
X84204819Y-62333333D02*
X84204819Y-62428571D01*
X84204819Y-62428571D02*
X84157200Y-62571428D01*
X84157200Y-62571428D02*
X84061961Y-62666666D01*
X84061961Y-62666666D02*
X83966723Y-62714285D01*
X83966723Y-62714285D02*
X83776247Y-62761904D01*
X83776247Y-62761904D02*
X83633390Y-62761904D01*
X83633390Y-62761904D02*
X83442914Y-62714285D01*
X83442914Y-62714285D02*
X83347676Y-62666666D01*
X83347676Y-62666666D02*
X83252438Y-62571428D01*
X83252438Y-62571428D02*
X83204819Y-62428571D01*
X83204819Y-62428571D02*
X83204819Y-62333333D01*
X83204819Y-62333333D02*
X83252438Y-62190476D01*
X83252438Y-62190476D02*
X83300057Y-62142857D01*
X84204819Y-61190476D02*
X84204819Y-61761904D01*
X84204819Y-61476190D02*
X83204819Y-61476190D01*
X83204819Y-61476190D02*
X83347676Y-61571428D01*
X83347676Y-61571428D02*
X83442914Y-61666666D01*
X83442914Y-61666666D02*
X83490533Y-61761904D01*
X83204819Y-60857142D02*
X83204819Y-60238095D01*
X83204819Y-60238095D02*
X83585771Y-60571428D01*
X83585771Y-60571428D02*
X83585771Y-60428571D01*
X83585771Y-60428571D02*
X83633390Y-60333333D01*
X83633390Y-60333333D02*
X83681009Y-60285714D01*
X83681009Y-60285714D02*
X83776247Y-60238095D01*
X83776247Y-60238095D02*
X84014342Y-60238095D01*
X84014342Y-60238095D02*
X84109580Y-60285714D01*
X84109580Y-60285714D02*
X84157200Y-60333333D01*
X84157200Y-60333333D02*
X84204819Y-60428571D01*
X84204819Y-60428571D02*
X84204819Y-60714285D01*
X84204819Y-60714285D02*
X84157200Y-60809523D01*
X84157200Y-60809523D02*
X84109580Y-60857142D01*
X82833333Y-81204819D02*
X82357143Y-81204819D01*
X82357143Y-81204819D02*
X82357143Y-80204819D01*
X83595238Y-80538152D02*
X83595238Y-81204819D01*
X83357143Y-80157200D02*
X83119048Y-80871485D01*
X83119048Y-80871485D02*
X83738095Y-80871485D01*
X71107142Y-37609580D02*
X71059523Y-37657200D01*
X71059523Y-37657200D02*
X70916666Y-37704819D01*
X70916666Y-37704819D02*
X70821428Y-37704819D01*
X70821428Y-37704819D02*
X70678571Y-37657200D01*
X70678571Y-37657200D02*
X70583333Y-37561961D01*
X70583333Y-37561961D02*
X70535714Y-37466723D01*
X70535714Y-37466723D02*
X70488095Y-37276247D01*
X70488095Y-37276247D02*
X70488095Y-37133390D01*
X70488095Y-37133390D02*
X70535714Y-36942914D01*
X70535714Y-36942914D02*
X70583333Y-36847676D01*
X70583333Y-36847676D02*
X70678571Y-36752438D01*
X70678571Y-36752438D02*
X70821428Y-36704819D01*
X70821428Y-36704819D02*
X70916666Y-36704819D01*
X70916666Y-36704819D02*
X71059523Y-36752438D01*
X71059523Y-36752438D02*
X71107142Y-36800057D01*
X72059523Y-37704819D02*
X71488095Y-37704819D01*
X71773809Y-37704819D02*
X71773809Y-36704819D01*
X71773809Y-36704819D02*
X71678571Y-36847676D01*
X71678571Y-36847676D02*
X71583333Y-36942914D01*
X71583333Y-36942914D02*
X71488095Y-36990533D01*
X72678571Y-36704819D02*
X72773809Y-36704819D01*
X72773809Y-36704819D02*
X72869047Y-36752438D01*
X72869047Y-36752438D02*
X72916666Y-36800057D01*
X72916666Y-36800057D02*
X72964285Y-36895295D01*
X72964285Y-36895295D02*
X73011904Y-37085771D01*
X73011904Y-37085771D02*
X73011904Y-37323866D01*
X73011904Y-37323866D02*
X72964285Y-37514342D01*
X72964285Y-37514342D02*
X72916666Y-37609580D01*
X72916666Y-37609580D02*
X72869047Y-37657200D01*
X72869047Y-37657200D02*
X72773809Y-37704819D01*
X72773809Y-37704819D02*
X72678571Y-37704819D01*
X72678571Y-37704819D02*
X72583333Y-37657200D01*
X72583333Y-37657200D02*
X72535714Y-37609580D01*
X72535714Y-37609580D02*
X72488095Y-37514342D01*
X72488095Y-37514342D02*
X72440476Y-37323866D01*
X72440476Y-37323866D02*
X72440476Y-37085771D01*
X72440476Y-37085771D02*
X72488095Y-36895295D01*
X72488095Y-36895295D02*
X72535714Y-36800057D01*
X72535714Y-36800057D02*
X72583333Y-36752438D01*
X72583333Y-36752438D02*
X72678571Y-36704819D01*
X78059580Y-72666666D02*
X78107200Y-72714285D01*
X78107200Y-72714285D02*
X78154819Y-72857142D01*
X78154819Y-72857142D02*
X78154819Y-72952380D01*
X78154819Y-72952380D02*
X78107200Y-73095237D01*
X78107200Y-73095237D02*
X78011961Y-73190475D01*
X78011961Y-73190475D02*
X77916723Y-73238094D01*
X77916723Y-73238094D02*
X77726247Y-73285713D01*
X77726247Y-73285713D02*
X77583390Y-73285713D01*
X77583390Y-73285713D02*
X77392914Y-73238094D01*
X77392914Y-73238094D02*
X77297676Y-73190475D01*
X77297676Y-73190475D02*
X77202438Y-73095237D01*
X77202438Y-73095237D02*
X77154819Y-72952380D01*
X77154819Y-72952380D02*
X77154819Y-72857142D01*
X77154819Y-72857142D02*
X77202438Y-72714285D01*
X77202438Y-72714285D02*
X77250057Y-72666666D01*
X77154819Y-71761904D02*
X77154819Y-72238094D01*
X77154819Y-72238094D02*
X77631009Y-72285713D01*
X77631009Y-72285713D02*
X77583390Y-72238094D01*
X77583390Y-72238094D02*
X77535771Y-72142856D01*
X77535771Y-72142856D02*
X77535771Y-71904761D01*
X77535771Y-71904761D02*
X77583390Y-71809523D01*
X77583390Y-71809523D02*
X77631009Y-71761904D01*
X77631009Y-71761904D02*
X77726247Y-71714285D01*
X77726247Y-71714285D02*
X77964342Y-71714285D01*
X77964342Y-71714285D02*
X78059580Y-71761904D01*
X78059580Y-71761904D02*
X78107200Y-71809523D01*
X78107200Y-71809523D02*
X78154819Y-71904761D01*
X78154819Y-71904761D02*
X78154819Y-72142856D01*
X78154819Y-72142856D02*
X78107200Y-72238094D01*
X78107200Y-72238094D02*
X78059580Y-72285713D01*
X77457142Y-56954819D02*
X77123809Y-56478628D01*
X76885714Y-56954819D02*
X76885714Y-55954819D01*
X76885714Y-55954819D02*
X77266666Y-55954819D01*
X77266666Y-55954819D02*
X77361904Y-56002438D01*
X77361904Y-56002438D02*
X77409523Y-56050057D01*
X77409523Y-56050057D02*
X77457142Y-56145295D01*
X77457142Y-56145295D02*
X77457142Y-56288152D01*
X77457142Y-56288152D02*
X77409523Y-56383390D01*
X77409523Y-56383390D02*
X77361904Y-56431009D01*
X77361904Y-56431009D02*
X77266666Y-56478628D01*
X77266666Y-56478628D02*
X76885714Y-56478628D01*
X78409523Y-56954819D02*
X77838095Y-56954819D01*
X78123809Y-56954819D02*
X78123809Y-55954819D01*
X78123809Y-55954819D02*
X78028571Y-56097676D01*
X78028571Y-56097676D02*
X77933333Y-56192914D01*
X77933333Y-56192914D02*
X77838095Y-56240533D01*
X78790476Y-56050057D02*
X78838095Y-56002438D01*
X78838095Y-56002438D02*
X78933333Y-55954819D01*
X78933333Y-55954819D02*
X79171428Y-55954819D01*
X79171428Y-55954819D02*
X79266666Y-56002438D01*
X79266666Y-56002438D02*
X79314285Y-56050057D01*
X79314285Y-56050057D02*
X79361904Y-56145295D01*
X79361904Y-56145295D02*
X79361904Y-56240533D01*
X79361904Y-56240533D02*
X79314285Y-56383390D01*
X79314285Y-56383390D02*
X78742857Y-56954819D01*
X78742857Y-56954819D02*
X79361904Y-56954819D01*
X72333333Y-71454819D02*
X72000000Y-70978628D01*
X71761905Y-71454819D02*
X71761905Y-70454819D01*
X71761905Y-70454819D02*
X72142857Y-70454819D01*
X72142857Y-70454819D02*
X72238095Y-70502438D01*
X72238095Y-70502438D02*
X72285714Y-70550057D01*
X72285714Y-70550057D02*
X72333333Y-70645295D01*
X72333333Y-70645295D02*
X72333333Y-70788152D01*
X72333333Y-70788152D02*
X72285714Y-70883390D01*
X72285714Y-70883390D02*
X72238095Y-70931009D01*
X72238095Y-70931009D02*
X72142857Y-70978628D01*
X72142857Y-70978628D02*
X71761905Y-70978628D01*
X72904762Y-70883390D02*
X72809524Y-70835771D01*
X72809524Y-70835771D02*
X72761905Y-70788152D01*
X72761905Y-70788152D02*
X72714286Y-70692914D01*
X72714286Y-70692914D02*
X72714286Y-70645295D01*
X72714286Y-70645295D02*
X72761905Y-70550057D01*
X72761905Y-70550057D02*
X72809524Y-70502438D01*
X72809524Y-70502438D02*
X72904762Y-70454819D01*
X72904762Y-70454819D02*
X73095238Y-70454819D01*
X73095238Y-70454819D02*
X73190476Y-70502438D01*
X73190476Y-70502438D02*
X73238095Y-70550057D01*
X73238095Y-70550057D02*
X73285714Y-70645295D01*
X73285714Y-70645295D02*
X73285714Y-70692914D01*
X73285714Y-70692914D02*
X73238095Y-70788152D01*
X73238095Y-70788152D02*
X73190476Y-70835771D01*
X73190476Y-70835771D02*
X73095238Y-70883390D01*
X73095238Y-70883390D02*
X72904762Y-70883390D01*
X72904762Y-70883390D02*
X72809524Y-70931009D01*
X72809524Y-70931009D02*
X72761905Y-70978628D01*
X72761905Y-70978628D02*
X72714286Y-71073866D01*
X72714286Y-71073866D02*
X72714286Y-71264342D01*
X72714286Y-71264342D02*
X72761905Y-71359580D01*
X72761905Y-71359580D02*
X72809524Y-71407200D01*
X72809524Y-71407200D02*
X72904762Y-71454819D01*
X72904762Y-71454819D02*
X73095238Y-71454819D01*
X73095238Y-71454819D02*
X73190476Y-71407200D01*
X73190476Y-71407200D02*
X73238095Y-71359580D01*
X73238095Y-71359580D02*
X73285714Y-71264342D01*
X73285714Y-71264342D02*
X73285714Y-71073866D01*
X73285714Y-71073866D02*
X73238095Y-70978628D01*
X73238095Y-70978628D02*
X73190476Y-70931009D01*
X73190476Y-70931009D02*
X73095238Y-70883390D01*
X79454819Y-73142857D02*
X78978628Y-73476190D01*
X79454819Y-73714285D02*
X78454819Y-73714285D01*
X78454819Y-73714285D02*
X78454819Y-73333333D01*
X78454819Y-73333333D02*
X78502438Y-73238095D01*
X78502438Y-73238095D02*
X78550057Y-73190476D01*
X78550057Y-73190476D02*
X78645295Y-73142857D01*
X78645295Y-73142857D02*
X78788152Y-73142857D01*
X78788152Y-73142857D02*
X78883390Y-73190476D01*
X78883390Y-73190476D02*
X78931009Y-73238095D01*
X78931009Y-73238095D02*
X78978628Y-73333333D01*
X78978628Y-73333333D02*
X78978628Y-73714285D01*
X79454819Y-72190476D02*
X79454819Y-72761904D01*
X79454819Y-72476190D02*
X78454819Y-72476190D01*
X78454819Y-72476190D02*
X78597676Y-72571428D01*
X78597676Y-72571428D02*
X78692914Y-72666666D01*
X78692914Y-72666666D02*
X78740533Y-72761904D01*
X78788152Y-71333333D02*
X79454819Y-71333333D01*
X78407200Y-71571428D02*
X79121485Y-71809523D01*
X79121485Y-71809523D02*
X79121485Y-71190476D01*
X75583333Y-88359580D02*
X75535714Y-88407200D01*
X75535714Y-88407200D02*
X75392857Y-88454819D01*
X75392857Y-88454819D02*
X75297619Y-88454819D01*
X75297619Y-88454819D02*
X75154762Y-88407200D01*
X75154762Y-88407200D02*
X75059524Y-88311961D01*
X75059524Y-88311961D02*
X75011905Y-88216723D01*
X75011905Y-88216723D02*
X74964286Y-88026247D01*
X74964286Y-88026247D02*
X74964286Y-87883390D01*
X74964286Y-87883390D02*
X75011905Y-87692914D01*
X75011905Y-87692914D02*
X75059524Y-87597676D01*
X75059524Y-87597676D02*
X75154762Y-87502438D01*
X75154762Y-87502438D02*
X75297619Y-87454819D01*
X75297619Y-87454819D02*
X75392857Y-87454819D01*
X75392857Y-87454819D02*
X75535714Y-87502438D01*
X75535714Y-87502438D02*
X75583333Y-87550057D01*
X76059524Y-88454819D02*
X76250000Y-88454819D01*
X76250000Y-88454819D02*
X76345238Y-88407200D01*
X76345238Y-88407200D02*
X76392857Y-88359580D01*
X76392857Y-88359580D02*
X76488095Y-88216723D01*
X76488095Y-88216723D02*
X76535714Y-88026247D01*
X76535714Y-88026247D02*
X76535714Y-87645295D01*
X76535714Y-87645295D02*
X76488095Y-87550057D01*
X76488095Y-87550057D02*
X76440476Y-87502438D01*
X76440476Y-87502438D02*
X76345238Y-87454819D01*
X76345238Y-87454819D02*
X76154762Y-87454819D01*
X76154762Y-87454819D02*
X76059524Y-87502438D01*
X76059524Y-87502438D02*
X76011905Y-87550057D01*
X76011905Y-87550057D02*
X75964286Y-87645295D01*
X75964286Y-87645295D02*
X75964286Y-87883390D01*
X75964286Y-87883390D02*
X76011905Y-87978628D01*
X76011905Y-87978628D02*
X76059524Y-88026247D01*
X76059524Y-88026247D02*
X76154762Y-88073866D01*
X76154762Y-88073866D02*
X76345238Y-88073866D01*
X76345238Y-88073866D02*
X76440476Y-88026247D01*
X76440476Y-88026247D02*
X76488095Y-87978628D01*
X76488095Y-87978628D02*
X76535714Y-87883390D01*
X70738095Y-81704819D02*
X70738095Y-82514342D01*
X70738095Y-82514342D02*
X70785714Y-82609580D01*
X70785714Y-82609580D02*
X70833333Y-82657200D01*
X70833333Y-82657200D02*
X70928571Y-82704819D01*
X70928571Y-82704819D02*
X71119047Y-82704819D01*
X71119047Y-82704819D02*
X71214285Y-82657200D01*
X71214285Y-82657200D02*
X71261904Y-82609580D01*
X71261904Y-82609580D02*
X71309523Y-82514342D01*
X71309523Y-82514342D02*
X71309523Y-81704819D01*
X71690476Y-81704819D02*
X72309523Y-81704819D01*
X72309523Y-81704819D02*
X71976190Y-82085771D01*
X71976190Y-82085771D02*
X72119047Y-82085771D01*
X72119047Y-82085771D02*
X72214285Y-82133390D01*
X72214285Y-82133390D02*
X72261904Y-82181009D01*
X72261904Y-82181009D02*
X72309523Y-82276247D01*
X72309523Y-82276247D02*
X72309523Y-82514342D01*
X72309523Y-82514342D02*
X72261904Y-82609580D01*
X72261904Y-82609580D02*
X72214285Y-82657200D01*
X72214285Y-82657200D02*
X72119047Y-82704819D01*
X72119047Y-82704819D02*
X71833333Y-82704819D01*
X71833333Y-82704819D02*
X71738095Y-82657200D01*
X71738095Y-82657200D02*
X71690476Y-82609580D01*
X71583333Y-80204819D02*
X71250000Y-79728628D01*
X71011905Y-80204819D02*
X71011905Y-79204819D01*
X71011905Y-79204819D02*
X71392857Y-79204819D01*
X71392857Y-79204819D02*
X71488095Y-79252438D01*
X71488095Y-79252438D02*
X71535714Y-79300057D01*
X71535714Y-79300057D02*
X71583333Y-79395295D01*
X71583333Y-79395295D02*
X71583333Y-79538152D01*
X71583333Y-79538152D02*
X71535714Y-79633390D01*
X71535714Y-79633390D02*
X71488095Y-79681009D01*
X71488095Y-79681009D02*
X71392857Y-79728628D01*
X71392857Y-79728628D02*
X71011905Y-79728628D01*
X72535714Y-80204819D02*
X71964286Y-80204819D01*
X72250000Y-80204819D02*
X72250000Y-79204819D01*
X72250000Y-79204819D02*
X72154762Y-79347676D01*
X72154762Y-79347676D02*
X72059524Y-79442914D01*
X72059524Y-79442914D02*
X71964286Y-79490533D01*
X69954819Y-60261904D02*
X70764342Y-60261904D01*
X70764342Y-60261904D02*
X70859580Y-60214285D01*
X70859580Y-60214285D02*
X70907200Y-60166666D01*
X70907200Y-60166666D02*
X70954819Y-60071428D01*
X70954819Y-60071428D02*
X70954819Y-59880952D01*
X70954819Y-59880952D02*
X70907200Y-59785714D01*
X70907200Y-59785714D02*
X70859580Y-59738095D01*
X70859580Y-59738095D02*
X70764342Y-59690476D01*
X70764342Y-59690476D02*
X69954819Y-59690476D01*
X70050057Y-59261904D02*
X70002438Y-59214285D01*
X70002438Y-59214285D02*
X69954819Y-59119047D01*
X69954819Y-59119047D02*
X69954819Y-58880952D01*
X69954819Y-58880952D02*
X70002438Y-58785714D01*
X70002438Y-58785714D02*
X70050057Y-58738095D01*
X70050057Y-58738095D02*
X70145295Y-58690476D01*
X70145295Y-58690476D02*
X70240533Y-58690476D01*
X70240533Y-58690476D02*
X70383390Y-58738095D01*
X70383390Y-58738095D02*
X70954819Y-59309523D01*
X70954819Y-59309523D02*
X70954819Y-58690476D01*
X71259580Y-85642857D02*
X71307200Y-85690476D01*
X71307200Y-85690476D02*
X71354819Y-85833333D01*
X71354819Y-85833333D02*
X71354819Y-85928571D01*
X71354819Y-85928571D02*
X71307200Y-86071428D01*
X71307200Y-86071428D02*
X71211961Y-86166666D01*
X71211961Y-86166666D02*
X71116723Y-86214285D01*
X71116723Y-86214285D02*
X70926247Y-86261904D01*
X70926247Y-86261904D02*
X70783390Y-86261904D01*
X70783390Y-86261904D02*
X70592914Y-86214285D01*
X70592914Y-86214285D02*
X70497676Y-86166666D01*
X70497676Y-86166666D02*
X70402438Y-86071428D01*
X70402438Y-86071428D02*
X70354819Y-85928571D01*
X70354819Y-85928571D02*
X70354819Y-85833333D01*
X70354819Y-85833333D02*
X70402438Y-85690476D01*
X70402438Y-85690476D02*
X70450057Y-85642857D01*
X71354819Y-84690476D02*
X71354819Y-85261904D01*
X71354819Y-84976190D02*
X70354819Y-84976190D01*
X70354819Y-84976190D02*
X70497676Y-85071428D01*
X70497676Y-85071428D02*
X70592914Y-85166666D01*
X70592914Y-85166666D02*
X70640533Y-85261904D01*
X71354819Y-83738095D02*
X71354819Y-84309523D01*
X71354819Y-84023809D02*
X70354819Y-84023809D01*
X70354819Y-84023809D02*
X70497676Y-84119047D01*
X70497676Y-84119047D02*
X70592914Y-84214285D01*
X70592914Y-84214285D02*
X70640533Y-84309523D01*
X71583333Y-78704819D02*
X71250000Y-78228628D01*
X71011905Y-78704819D02*
X71011905Y-77704819D01*
X71011905Y-77704819D02*
X71392857Y-77704819D01*
X71392857Y-77704819D02*
X71488095Y-77752438D01*
X71488095Y-77752438D02*
X71535714Y-77800057D01*
X71535714Y-77800057D02*
X71583333Y-77895295D01*
X71583333Y-77895295D02*
X71583333Y-78038152D01*
X71583333Y-78038152D02*
X71535714Y-78133390D01*
X71535714Y-78133390D02*
X71488095Y-78181009D01*
X71488095Y-78181009D02*
X71392857Y-78228628D01*
X71392857Y-78228628D02*
X71011905Y-78228628D01*
X71916667Y-77704819D02*
X72583333Y-77704819D01*
X72583333Y-77704819D02*
X72154762Y-78704819D01*
X74633333Y-77259580D02*
X74585714Y-77307200D01*
X74585714Y-77307200D02*
X74442857Y-77354819D01*
X74442857Y-77354819D02*
X74347619Y-77354819D01*
X74347619Y-77354819D02*
X74204762Y-77307200D01*
X74204762Y-77307200D02*
X74109524Y-77211961D01*
X74109524Y-77211961D02*
X74061905Y-77116723D01*
X74061905Y-77116723D02*
X74014286Y-76926247D01*
X74014286Y-76926247D02*
X74014286Y-76783390D01*
X74014286Y-76783390D02*
X74061905Y-76592914D01*
X74061905Y-76592914D02*
X74109524Y-76497676D01*
X74109524Y-76497676D02*
X74204762Y-76402438D01*
X74204762Y-76402438D02*
X74347619Y-76354819D01*
X74347619Y-76354819D02*
X74442857Y-76354819D01*
X74442857Y-76354819D02*
X74585714Y-76402438D01*
X74585714Y-76402438D02*
X74633333Y-76450057D01*
X75014286Y-76450057D02*
X75061905Y-76402438D01*
X75061905Y-76402438D02*
X75157143Y-76354819D01*
X75157143Y-76354819D02*
X75395238Y-76354819D01*
X75395238Y-76354819D02*
X75490476Y-76402438D01*
X75490476Y-76402438D02*
X75538095Y-76450057D01*
X75538095Y-76450057D02*
X75585714Y-76545295D01*
X75585714Y-76545295D02*
X75585714Y-76640533D01*
X75585714Y-76640533D02*
X75538095Y-76783390D01*
X75538095Y-76783390D02*
X74966667Y-77354819D01*
X74966667Y-77354819D02*
X75585714Y-77354819D01*
X80740490Y-68454819D02*
X80407157Y-67978628D01*
X80169062Y-68454819D02*
X80169062Y-67454819D01*
X80169062Y-67454819D02*
X80550014Y-67454819D01*
X80550014Y-67454819D02*
X80645252Y-67502438D01*
X80645252Y-67502438D02*
X80692871Y-67550057D01*
X80692871Y-67550057D02*
X80740490Y-67645295D01*
X80740490Y-67645295D02*
X80740490Y-67788152D01*
X80740490Y-67788152D02*
X80692871Y-67883390D01*
X80692871Y-67883390D02*
X80645252Y-67931009D01*
X80645252Y-67931009D02*
X80550014Y-67978628D01*
X80550014Y-67978628D02*
X80169062Y-67978628D01*
X81692871Y-68454819D02*
X81121443Y-68454819D01*
X81407157Y-68454819D02*
X81407157Y-67454819D01*
X81407157Y-67454819D02*
X81311919Y-67597676D01*
X81311919Y-67597676D02*
X81216681Y-67692914D01*
X81216681Y-67692914D02*
X81121443Y-67740533D01*
X82026205Y-67454819D02*
X82645252Y-67454819D01*
X82645252Y-67454819D02*
X82311919Y-67835771D01*
X82311919Y-67835771D02*
X82454776Y-67835771D01*
X82454776Y-67835771D02*
X82550014Y-67883390D01*
X82550014Y-67883390D02*
X82597633Y-67931009D01*
X82597633Y-67931009D02*
X82645252Y-68026247D01*
X82645252Y-68026247D02*
X82645252Y-68264342D01*
X82645252Y-68264342D02*
X82597633Y-68359580D01*
X82597633Y-68359580D02*
X82550014Y-68407200D01*
X82550014Y-68407200D02*
X82454776Y-68454819D01*
X82454776Y-68454819D02*
X82169062Y-68454819D01*
X82169062Y-68454819D02*
X82073824Y-68407200D01*
X82073824Y-68407200D02*
X82026205Y-68359580D01*
X84204819Y-64988094D02*
X83204819Y-64988094D01*
X83204819Y-64988094D02*
X83204819Y-64749999D01*
X83204819Y-64749999D02*
X83252438Y-64607142D01*
X83252438Y-64607142D02*
X83347676Y-64511904D01*
X83347676Y-64511904D02*
X83442914Y-64464285D01*
X83442914Y-64464285D02*
X83633390Y-64416666D01*
X83633390Y-64416666D02*
X83776247Y-64416666D01*
X83776247Y-64416666D02*
X83966723Y-64464285D01*
X83966723Y-64464285D02*
X84061961Y-64511904D01*
X84061961Y-64511904D02*
X84157200Y-64607142D01*
X84157200Y-64607142D02*
X84204819Y-64749999D01*
X84204819Y-64749999D02*
X84204819Y-64988094D01*
X83204819Y-63511904D02*
X83204819Y-63988094D01*
X83204819Y-63988094D02*
X83681009Y-64035713D01*
X83681009Y-64035713D02*
X83633390Y-63988094D01*
X83633390Y-63988094D02*
X83585771Y-63892856D01*
X83585771Y-63892856D02*
X83585771Y-63654761D01*
X83585771Y-63654761D02*
X83633390Y-63559523D01*
X83633390Y-63559523D02*
X83681009Y-63511904D01*
X83681009Y-63511904D02*
X83776247Y-63464285D01*
X83776247Y-63464285D02*
X84014342Y-63464285D01*
X84014342Y-63464285D02*
X84109580Y-63511904D01*
X84109580Y-63511904D02*
X84157200Y-63559523D01*
X84157200Y-63559523D02*
X84204819Y-63654761D01*
X84204819Y-63654761D02*
X84204819Y-63892856D01*
X84204819Y-63892856D02*
X84157200Y-63988094D01*
X84157200Y-63988094D02*
X84109580Y-64035713D01*
X71357142Y-54300645D02*
X71023809Y-53824454D01*
X70785714Y-54300645D02*
X70785714Y-53300645D01*
X70785714Y-53300645D02*
X71166666Y-53300645D01*
X71166666Y-53300645D02*
X71261904Y-53348264D01*
X71261904Y-53348264D02*
X71309523Y-53395883D01*
X71309523Y-53395883D02*
X71357142Y-53491121D01*
X71357142Y-53491121D02*
X71357142Y-53633978D01*
X71357142Y-53633978D02*
X71309523Y-53729216D01*
X71309523Y-53729216D02*
X71261904Y-53776835D01*
X71261904Y-53776835D02*
X71166666Y-53824454D01*
X71166666Y-53824454D02*
X70785714Y-53824454D01*
X72309523Y-54300645D02*
X71738095Y-54300645D01*
X72023809Y-54300645D02*
X72023809Y-53300645D01*
X72023809Y-53300645D02*
X71928571Y-53443502D01*
X71928571Y-53443502D02*
X71833333Y-53538740D01*
X71833333Y-53538740D02*
X71738095Y-53586359D01*
X72928571Y-53300645D02*
X73023809Y-53300645D01*
X73023809Y-53300645D02*
X73119047Y-53348264D01*
X73119047Y-53348264D02*
X73166666Y-53395883D01*
X73166666Y-53395883D02*
X73214285Y-53491121D01*
X73214285Y-53491121D02*
X73261904Y-53681597D01*
X73261904Y-53681597D02*
X73261904Y-53919692D01*
X73261904Y-53919692D02*
X73214285Y-54110168D01*
X73214285Y-54110168D02*
X73166666Y-54205406D01*
X73166666Y-54205406D02*
X73119047Y-54253026D01*
X73119047Y-54253026D02*
X73023809Y-54300645D01*
X73023809Y-54300645D02*
X72928571Y-54300645D01*
X72928571Y-54300645D02*
X72833333Y-54253026D01*
X72833333Y-54253026D02*
X72785714Y-54205406D01*
X72785714Y-54205406D02*
X72738095Y-54110168D01*
X72738095Y-54110168D02*
X72690476Y-53919692D01*
X72690476Y-53919692D02*
X72690476Y-53681597D01*
X72690476Y-53681597D02*
X72738095Y-53491121D01*
X72738095Y-53491121D02*
X72785714Y-53395883D01*
X72785714Y-53395883D02*
X72833333Y-53348264D01*
X72833333Y-53348264D02*
X72928571Y-53300645D01*
X77457142Y-55454819D02*
X77123809Y-54978628D01*
X76885714Y-55454819D02*
X76885714Y-54454819D01*
X76885714Y-54454819D02*
X77266666Y-54454819D01*
X77266666Y-54454819D02*
X77361904Y-54502438D01*
X77361904Y-54502438D02*
X77409523Y-54550057D01*
X77409523Y-54550057D02*
X77457142Y-54645295D01*
X77457142Y-54645295D02*
X77457142Y-54788152D01*
X77457142Y-54788152D02*
X77409523Y-54883390D01*
X77409523Y-54883390D02*
X77361904Y-54931009D01*
X77361904Y-54931009D02*
X77266666Y-54978628D01*
X77266666Y-54978628D02*
X76885714Y-54978628D01*
X78409523Y-55454819D02*
X77838095Y-55454819D01*
X78123809Y-55454819D02*
X78123809Y-54454819D01*
X78123809Y-54454819D02*
X78028571Y-54597676D01*
X78028571Y-54597676D02*
X77933333Y-54692914D01*
X77933333Y-54692914D02*
X77838095Y-54740533D01*
X79361904Y-55454819D02*
X78790476Y-55454819D01*
X79076190Y-55454819D02*
X79076190Y-54454819D01*
X79076190Y-54454819D02*
X78980952Y-54597676D01*
X78980952Y-54597676D02*
X78885714Y-54692914D01*
X78885714Y-54692914D02*
X78790476Y-54740533D01*
X72333333Y-75954819D02*
X72000000Y-75478628D01*
X71761905Y-75954819D02*
X71761905Y-74954819D01*
X71761905Y-74954819D02*
X72142857Y-74954819D01*
X72142857Y-74954819D02*
X72238095Y-75002438D01*
X72238095Y-75002438D02*
X72285714Y-75050057D01*
X72285714Y-75050057D02*
X72333333Y-75145295D01*
X72333333Y-75145295D02*
X72333333Y-75288152D01*
X72333333Y-75288152D02*
X72285714Y-75383390D01*
X72285714Y-75383390D02*
X72238095Y-75431009D01*
X72238095Y-75431009D02*
X72142857Y-75478628D01*
X72142857Y-75478628D02*
X71761905Y-75478628D01*
X72666667Y-74954819D02*
X73285714Y-74954819D01*
X73285714Y-74954819D02*
X72952381Y-75335771D01*
X72952381Y-75335771D02*
X73095238Y-75335771D01*
X73095238Y-75335771D02*
X73190476Y-75383390D01*
X73190476Y-75383390D02*
X73238095Y-75431009D01*
X73238095Y-75431009D02*
X73285714Y-75526247D01*
X73285714Y-75526247D02*
X73285714Y-75764342D01*
X73285714Y-75764342D02*
X73238095Y-75859580D01*
X73238095Y-75859580D02*
X73190476Y-75907200D01*
X73190476Y-75907200D02*
X73095238Y-75954819D01*
X73095238Y-75954819D02*
X72809524Y-75954819D01*
X72809524Y-75954819D02*
X72714286Y-75907200D01*
X72714286Y-75907200D02*
X72666667Y-75859580D01*
X73133333Y-89059580D02*
X73085714Y-89107200D01*
X73085714Y-89107200D02*
X72942857Y-89154819D01*
X72942857Y-89154819D02*
X72847619Y-89154819D01*
X72847619Y-89154819D02*
X72704762Y-89107200D01*
X72704762Y-89107200D02*
X72609524Y-89011961D01*
X72609524Y-89011961D02*
X72561905Y-88916723D01*
X72561905Y-88916723D02*
X72514286Y-88726247D01*
X72514286Y-88726247D02*
X72514286Y-88583390D01*
X72514286Y-88583390D02*
X72561905Y-88392914D01*
X72561905Y-88392914D02*
X72609524Y-88297676D01*
X72609524Y-88297676D02*
X72704762Y-88202438D01*
X72704762Y-88202438D02*
X72847619Y-88154819D01*
X72847619Y-88154819D02*
X72942857Y-88154819D01*
X72942857Y-88154819D02*
X73085714Y-88202438D01*
X73085714Y-88202438D02*
X73133333Y-88250057D01*
X74085714Y-89154819D02*
X73514286Y-89154819D01*
X73800000Y-89154819D02*
X73800000Y-88154819D01*
X73800000Y-88154819D02*
X73704762Y-88297676D01*
X73704762Y-88297676D02*
X73609524Y-88392914D01*
X73609524Y-88392914D02*
X73514286Y-88440533D01*
X75645253Y-60454819D02*
X75645253Y-59454819D01*
X75645253Y-59454819D02*
X75883348Y-59454819D01*
X75883348Y-59454819D02*
X76026205Y-59502438D01*
X76026205Y-59502438D02*
X76121443Y-59597676D01*
X76121443Y-59597676D02*
X76169062Y-59692914D01*
X76169062Y-59692914D02*
X76216681Y-59883390D01*
X76216681Y-59883390D02*
X76216681Y-60026247D01*
X76216681Y-60026247D02*
X76169062Y-60216723D01*
X76169062Y-60216723D02*
X76121443Y-60311961D01*
X76121443Y-60311961D02*
X76026205Y-60407200D01*
X76026205Y-60407200D02*
X75883348Y-60454819D01*
X75883348Y-60454819D02*
X75645253Y-60454819D01*
X77073824Y-59788152D02*
X77073824Y-60454819D01*
X76835729Y-59407200D02*
X76597634Y-60121485D01*
X76597634Y-60121485D02*
X77216681Y-60121485D01*
X82833333Y-87204819D02*
X82357143Y-87204819D01*
X82357143Y-87204819D02*
X82357143Y-86204819D01*
X83071429Y-86204819D02*
X83690476Y-86204819D01*
X83690476Y-86204819D02*
X83357143Y-86585771D01*
X83357143Y-86585771D02*
X83500000Y-86585771D01*
X83500000Y-86585771D02*
X83595238Y-86633390D01*
X83595238Y-86633390D02*
X83642857Y-86681009D01*
X83642857Y-86681009D02*
X83690476Y-86776247D01*
X83690476Y-86776247D02*
X83690476Y-87014342D01*
X83690476Y-87014342D02*
X83642857Y-87109580D01*
X83642857Y-87109580D02*
X83595238Y-87157200D01*
X83595238Y-87157200D02*
X83500000Y-87204819D01*
X83500000Y-87204819D02*
X83214286Y-87204819D01*
X83214286Y-87204819D02*
X83119048Y-87157200D01*
X83119048Y-87157200D02*
X83071429Y-87109580D01*
X84204819Y-59238094D02*
X83204819Y-59238094D01*
X83204819Y-59238094D02*
X83204819Y-58999999D01*
X83204819Y-58999999D02*
X83252438Y-58857142D01*
X83252438Y-58857142D02*
X83347676Y-58761904D01*
X83347676Y-58761904D02*
X83442914Y-58714285D01*
X83442914Y-58714285D02*
X83633390Y-58666666D01*
X83633390Y-58666666D02*
X83776247Y-58666666D01*
X83776247Y-58666666D02*
X83966723Y-58714285D01*
X83966723Y-58714285D02*
X84061961Y-58761904D01*
X84061961Y-58761904D02*
X84157200Y-58857142D01*
X84157200Y-58857142D02*
X84204819Y-58999999D01*
X84204819Y-58999999D02*
X84204819Y-59238094D01*
X83204819Y-57809523D02*
X83204819Y-57999999D01*
X83204819Y-57999999D02*
X83252438Y-58095237D01*
X83252438Y-58095237D02*
X83300057Y-58142856D01*
X83300057Y-58142856D02*
X83442914Y-58238094D01*
X83442914Y-58238094D02*
X83633390Y-58285713D01*
X83633390Y-58285713D02*
X84014342Y-58285713D01*
X84014342Y-58285713D02*
X84109580Y-58238094D01*
X84109580Y-58238094D02*
X84157200Y-58190475D01*
X84157200Y-58190475D02*
X84204819Y-58095237D01*
X84204819Y-58095237D02*
X84204819Y-57904761D01*
X84204819Y-57904761D02*
X84157200Y-57809523D01*
X84157200Y-57809523D02*
X84109580Y-57761904D01*
X84109580Y-57761904D02*
X84014342Y-57714285D01*
X84014342Y-57714285D02*
X83776247Y-57714285D01*
X83776247Y-57714285D02*
X83681009Y-57761904D01*
X83681009Y-57761904D02*
X83633390Y-57809523D01*
X83633390Y-57809523D02*
X83585771Y-57904761D01*
X83585771Y-57904761D02*
X83585771Y-58095237D01*
X83585771Y-58095237D02*
X83633390Y-58190475D01*
X83633390Y-58190475D02*
X83681009Y-58238094D01*
X83681009Y-58238094D02*
X83776247Y-58285713D01*
D13*
%TO.C,C14*%
X79261252Y-57365000D02*
X78738748Y-57365000D01*
X79261252Y-58835000D02*
X78738748Y-58835000D01*
%TO.C,C15*%
X81109420Y-65990000D02*
X81390580Y-65990000D01*
X81109420Y-67010000D02*
X81390580Y-67010000D01*
%TO.C,R9*%
X71762742Y-54823326D02*
X72237258Y-54823326D01*
X71762742Y-55868326D02*
X72237258Y-55868326D01*
%TO.C,D1*%
X79140000Y-75900000D02*
X79140000Y-77600000D01*
X79140000Y-75900000D02*
X81800000Y-75900000D01*
X79140000Y-77600000D02*
X81800000Y-77600000D01*
%TO.C,L5*%
X74140000Y-61640000D02*
X74390000Y-61640000D01*
X74140000Y-66860000D02*
X74140000Y-61640000D01*
X74390000Y-66860000D02*
X74140000Y-66860000D01*
X79110000Y-61640000D02*
X79360000Y-61640000D01*
X79360000Y-61640000D02*
X79360000Y-66860000D01*
X79360000Y-66860000D02*
X79110000Y-66860000D01*
%TO.C,C3*%
X80388748Y-36290000D02*
X81811252Y-36290000D01*
X80388748Y-38110000D02*
X81811252Y-38110000D01*
%TO.C,C12*%
X72105400Y-61515000D02*
X72627904Y-61515000D01*
X72105400Y-62985000D02*
X72627904Y-62985000D01*
%TO.C,C4*%
X77761252Y-74265000D02*
X77238748Y-74265000D01*
X77761252Y-75735000D02*
X77238748Y-75735000D01*
%TO.C,C13*%
X81109420Y-60990000D02*
X81390580Y-60990000D01*
X81109420Y-62010000D02*
X81390580Y-62010000D01*
%TO.C,L4*%
X76890000Y-78140000D02*
X82110000Y-78140000D01*
X76890000Y-78390000D02*
X76890000Y-78140000D01*
X76890000Y-83360000D02*
X76890000Y-83110000D01*
X82110000Y-78140000D02*
X82110000Y-78390000D01*
X82110000Y-83110000D02*
X82110000Y-83360000D01*
X82110000Y-83360000D02*
X76890000Y-83360000D01*
%TO.C,C10*%
X74788748Y-36340000D02*
X76211252Y-36340000D01*
X74788748Y-38160000D02*
X76211252Y-38160000D01*
%TO.C,C5*%
X79990000Y-72665580D02*
X79990000Y-72384420D01*
X81010000Y-72665580D02*
X81010000Y-72384420D01*
%TO.C,R12*%
X74879394Y-56227500D02*
X75353910Y-56227500D01*
X74879394Y-57272500D02*
X75353910Y-57272500D01*
%TO.C,R8*%
X72262742Y-71977500D02*
X72737258Y-71977500D01*
X72262742Y-73022500D02*
X72737258Y-73022500D01*
%TO.C,R14*%
X81477500Y-72287742D02*
X81477500Y-72762258D01*
X82522500Y-72287742D02*
X82522500Y-72762258D01*
%TO.C,C9*%
X75240000Y-85609420D02*
X75240000Y-85890580D01*
X76260000Y-85609420D02*
X76260000Y-85890580D01*
%TO.C,U3*%
X73590000Y-80690000D02*
X75410000Y-80690000D01*
X73590000Y-80740000D02*
X73590000Y-80690000D01*
X73590000Y-82640000D02*
X73590000Y-81860000D01*
X73590000Y-83810000D02*
X73590000Y-83760000D01*
X75410000Y-80690000D02*
X75410000Y-80740000D01*
X75410000Y-83760000D02*
X75410000Y-83810000D01*
X75410000Y-83810000D02*
X73590000Y-83810000D01*
X76190000Y-84090000D02*
X75710000Y-84090000D01*
X75950000Y-83760000D01*
X76190000Y-84090000D01*
G36*
X76190000Y-84090000D02*
G01*
X75710000Y-84090000D01*
X75950000Y-83760000D01*
X76190000Y-84090000D01*
G37*
%TO.C,R1*%
X74012742Y-79227500D02*
X74487258Y-79227500D01*
X74012742Y-80272500D02*
X74487258Y-80272500D01*
%TO.C,U2*%
X72344152Y-57890000D02*
X74164152Y-57890000D01*
X72344152Y-57940000D02*
X72344152Y-57890000D01*
X72344152Y-59840000D02*
X72344152Y-59060000D01*
X72344152Y-61010000D02*
X72344152Y-60960000D01*
X74164152Y-57890000D02*
X74164152Y-57940000D01*
X74164152Y-60960000D02*
X74164152Y-61010000D01*
X74164152Y-61010000D02*
X72344152Y-61010000D01*
X74944152Y-61290000D02*
X74464152Y-61290000D01*
X74704152Y-60960000D01*
X74944152Y-61290000D01*
G36*
X74944152Y-61290000D02*
G01*
X74464152Y-61290000D01*
X74704152Y-60960000D01*
X74944152Y-61290000D01*
G37*
%TO.C,C11*%
X73038748Y-84265000D02*
X73561252Y-84265000D01*
X73038748Y-85735000D02*
X73561252Y-85735000D01*
%TO.C,R7*%
X74487258Y-77727500D02*
X74012742Y-77727500D01*
X74487258Y-78772500D02*
X74012742Y-78772500D01*
%TO.C,C2*%
X77761252Y-76265000D02*
X77238748Y-76265000D01*
X77761252Y-77735000D02*
X77238748Y-77735000D01*
%TO.C,R13*%
X81012742Y-64477500D02*
X81487258Y-64477500D01*
X81012742Y-65522500D02*
X81487258Y-65522500D01*
%TO.C,D5*%
X82910000Y-62400000D02*
X80250000Y-62400000D01*
X82910000Y-64100000D02*
X80250000Y-64100000D01*
X82910000Y-64100000D02*
X82910000Y-62400000D01*
%TO.C,R10*%
X71762742Y-56323326D02*
X72237258Y-56323326D01*
X71762742Y-57368326D02*
X72237258Y-57368326D01*
%TO.C,R11*%
X75353910Y-54727500D02*
X74879394Y-54727500D01*
X75353910Y-55772500D02*
X74879394Y-55772500D01*
%TO.C,R3*%
X72262742Y-73477500D02*
X72737258Y-73477500D01*
X72262742Y-74522500D02*
X72737258Y-74522500D01*
%TO.C,C1*%
X73038748Y-86265000D02*
X73561252Y-86265000D01*
X73038748Y-87735000D02*
X73561252Y-87735000D01*
%TO.C,D4*%
X80610000Y-59150000D02*
X77950000Y-59150000D01*
X80610000Y-60850000D02*
X77950000Y-60850000D01*
X80610000Y-60850000D02*
X80610000Y-59150000D01*
%TO.C,L3*%
X76890000Y-84140000D02*
X77140000Y-84140000D01*
X76890000Y-89360000D02*
X76890000Y-84140000D01*
X77140000Y-89360000D02*
X76890000Y-89360000D01*
X81860000Y-84140000D02*
X82110000Y-84140000D01*
X82110000Y-84140000D02*
X82110000Y-89360000D01*
X82110000Y-89360000D02*
X81860000Y-89360000D01*
%TO.C,D6*%
X81150000Y-57640000D02*
X81150000Y-60300000D01*
X82850000Y-57640000D02*
X81150000Y-57640000D01*
X82850000Y-57640000D02*
X82850000Y-60300000D01*
%TD*%
M02*
