%TF.GenerationSoftware,KiCad,Pcbnew,9.0.6-9.0.6~ubuntu24.04.1*%
%TF.CreationDate,2025-11-27T16:32:03+01:00*%
%TF.ProjectId,GB_DMG_PSU,47425f44-4d47-45f5-9053-552e6b696361,rev?*%
%TF.SameCoordinates,Original*%
%TF.FileFunction,Soldermask,Top*%
%TF.FilePolarity,Negative*%
%FSLAX46Y46*%
G04 Gerber Fmt 4.6, Leading zero omitted, Abs format (unit mm)*
G04 Created by KiCad (PCBNEW 9.0.6-9.0.6~ubuntu24.04.1) date 2025-11-27 16:32:03*
%MOMM*%
%LPD*%
G01*
G04 APERTURE LIST*
G04 Aperture macros list*
%AMRoundRect*
0 Rectangle with rounded corners*
0 $1 Rounding radius*
0 $2 $3 $4 $5 $6 $7 $8 $9 X,Y pos of 4 corners*
0 Add a 4 corners polygon primitive as box body*
4,1,4,$2,$3,$4,$5,$6,$7,$8,$9,$2,$3,0*
0 Add four circle primitives for the rounded corners*
1,1,$1+$1,$2,$3*
1,1,$1+$1,$4,$5*
1,1,$1+$1,$6,$7*
1,1,$1+$1,$8,$9*
0 Add four rect primitives between the rounded corners*
20,1,$1+$1,$2,$3,$4,$5,0*
20,1,$1+$1,$4,$5,$6,$7,0*
20,1,$1+$1,$6,$7,$8,$9,0*
20,1,$1+$1,$8,$9,$2,$3,0*%
G04 Aperture macros list end*
%ADD10RoundRect,0.250000X0.250000X0.475000X-0.250000X0.475000X-0.250000X-0.475000X0.250000X-0.475000X0*%
%ADD11RoundRect,0.225000X-0.225000X-0.250000X0.225000X-0.250000X0.225000X0.250000X-0.225000X0.250000X0*%
%ADD12RoundRect,0.200000X-0.200000X-0.275000X0.200000X-0.275000X0.200000X0.275000X-0.200000X0.275000X0*%
%ADD13RoundRect,0.112500X-0.187500X-0.112500X0.187500X-0.112500X0.187500X0.112500X-0.187500X0.112500X0*%
%ADD14RoundRect,0.249999X1.850001X-0.450001X1.850001X0.450001X-1.850001X0.450001X-1.850001X-0.450001X0*%
%ADD15RoundRect,0.250000X-0.325000X-0.650000X0.325000X-0.650000X0.325000X0.650000X-0.325000X0.650000X0*%
%ADD16RoundRect,0.250000X-0.250000X-0.475000X0.250000X-0.475000X0.250000X0.475000X-0.250000X0.475000X0*%
%ADD17RoundRect,0.249999X0.450001X1.850001X-0.450001X1.850001X-0.450001X-1.850001X0.450001X-1.850001X0*%
%ADD18C,1.700000*%
%ADD19R,1.700000X1.700000*%
%ADD20RoundRect,0.225000X0.250000X-0.225000X0.250000X0.225000X-0.250000X0.225000X-0.250000X-0.225000X0*%
%ADD21RoundRect,0.200000X-0.275000X0.200000X-0.275000X-0.200000X0.275000X-0.200000X0.275000X0.200000X0*%
%ADD22RoundRect,0.225000X-0.250000X0.225000X-0.250000X-0.225000X0.250000X-0.225000X0.250000X0.225000X0*%
%ADD23RoundRect,0.150000X0.512500X0.150000X-0.512500X0.150000X-0.512500X-0.150000X0.512500X-0.150000X0*%
%ADD24RoundRect,0.200000X0.200000X0.275000X-0.200000X0.275000X-0.200000X-0.275000X0.200000X-0.275000X0*%
%ADD25RoundRect,0.112500X0.187500X0.112500X-0.187500X0.112500X-0.187500X-0.112500X0.187500X-0.112500X0*%
%ADD26RoundRect,0.112500X-0.112500X0.187500X-0.112500X-0.187500X0.112500X-0.187500X0.112500X0.187500X0*%
G04 APERTURE END LIST*
D10*
%TO.C,C14*%
X79950000Y-58100000D03*
X78050000Y-58100000D03*
%TD*%
D11*
%TO.C,C15*%
X80475000Y-66500000D03*
X82025000Y-66500000D03*
%TD*%
D12*
%TO.C,R9*%
X71175000Y-55345826D03*
X72825000Y-55345826D03*
%TD*%
D13*
%TO.C,D1*%
X79700000Y-76750000D03*
X81800000Y-76750000D03*
%TD*%
D14*
%TO.C,L5*%
X76750000Y-66100000D03*
X76750000Y-62400000D03*
%TD*%
D15*
%TO.C,C3*%
X79625000Y-37200000D03*
X82575000Y-37200000D03*
%TD*%
D16*
%TO.C,C12*%
X71416652Y-62250000D03*
X73316652Y-62250000D03*
%TD*%
D10*
%TO.C,C4*%
X78450000Y-75000000D03*
X76550000Y-75000000D03*
%TD*%
D11*
%TO.C,C13*%
X80475000Y-61500000D03*
X82025000Y-61500000D03*
%TD*%
D17*
%TO.C,L4*%
X81350000Y-80750000D03*
X77650000Y-80750000D03*
%TD*%
D15*
%TO.C,C10*%
X74025000Y-37250000D03*
X76975000Y-37250000D03*
%TD*%
D18*
%TO.C,J2*%
X73250000Y-34810000D03*
X73250000Y-32270000D03*
D19*
X73250000Y-29730000D03*
D18*
X73250000Y-27190000D03*
%TD*%
D20*
%TO.C,C5*%
X80500000Y-73300000D03*
X80500000Y-71750000D03*
%TD*%
D12*
%TO.C,R12*%
X74291652Y-56750000D03*
X75941652Y-56750000D03*
%TD*%
%TO.C,R8*%
X71675000Y-72500000D03*
X73325000Y-72500000D03*
%TD*%
D21*
%TO.C,R14*%
X82000000Y-71700000D03*
X82000000Y-73350000D03*
%TD*%
D22*
%TO.C,C9*%
X75750000Y-84975000D03*
X75750000Y-86525000D03*
%TD*%
D23*
%TO.C,U3*%
X75637500Y-83200000D03*
X75637500Y-82250000D03*
X75637500Y-81300000D03*
X73362500Y-81300000D03*
X73362500Y-83200000D03*
%TD*%
D12*
%TO.C,R1*%
X73425000Y-79750000D03*
X75075000Y-79750000D03*
%TD*%
D23*
%TO.C,U2*%
X74391652Y-60400000D03*
X74391652Y-59450000D03*
X74391652Y-58500000D03*
X72116652Y-58500000D03*
X72116652Y-60400000D03*
%TD*%
D16*
%TO.C,C11*%
X72350000Y-85000000D03*
X74250000Y-85000000D03*
%TD*%
D24*
%TO.C,R7*%
X75075000Y-78250000D03*
X73425000Y-78250000D03*
%TD*%
D10*
%TO.C,C2*%
X78450000Y-77000000D03*
X76550000Y-77000000D03*
%TD*%
D12*
%TO.C,R13*%
X80425000Y-65000000D03*
X82075000Y-65000000D03*
%TD*%
D25*
%TO.C,D5*%
X82350000Y-63250000D03*
X80250000Y-63250000D03*
%TD*%
D12*
%TO.C,R10*%
X71175000Y-56845826D03*
X72825000Y-56845826D03*
%TD*%
D24*
%TO.C,R11*%
X75941652Y-55250000D03*
X74291652Y-55250000D03*
%TD*%
D12*
%TO.C,R3*%
X71675000Y-74000000D03*
X73325000Y-74000000D03*
%TD*%
D16*
%TO.C,C1*%
X72350000Y-87000000D03*
X74250000Y-87000000D03*
%TD*%
D25*
%TO.C,D4*%
X80050000Y-60000000D03*
X77950000Y-60000000D03*
%TD*%
D14*
%TO.C,L3*%
X79500000Y-88600000D03*
X79500000Y-84900000D03*
%TD*%
D26*
%TO.C,D6*%
X82000000Y-58200000D03*
X82000000Y-60300000D03*
%TD*%
M02*
