%TF.GenerationSoftware,KiCad,Pcbnew,9.0.5*%
%TF.CreationDate,2025-10-29T13:39:02+01:00*%
%TF.ProjectId,GB_DMG_PSU,47425f44-4d47-45f5-9053-552e6b696361,rev?*%
%TF.SameCoordinates,Original*%
%TF.FileFunction,Copper,L1,Top*%
%TF.FilePolarity,Positive*%
%FSLAX46Y46*%
G04 Gerber Fmt 4.6, Leading zero omitted, Abs format (unit mm)*
G04 Created by KiCad (PCBNEW 9.0.5) date 2025-10-29 13:39:02*
%MOMM*%
%LPD*%
G01*
G04 APERTURE LIST*
G04 Aperture macros list*
%AMRoundRect*
0 Rectangle with rounded corners*
0 $1 Rounding radius*
0 $2 $3 $4 $5 $6 $7 $8 $9 X,Y pos of 4 corners*
0 Add a 4 corners polygon primitive as box body*
4,1,4,$2,$3,$4,$5,$6,$7,$8,$9,$2,$3,0*
0 Add four circle primitives for the rounded corners*
1,1,$1+$1,$2,$3*
1,1,$1+$1,$4,$5*
1,1,$1+$1,$6,$7*
1,1,$1+$1,$8,$9*
0 Add four rect primitives between the rounded corners*
20,1,$1+$1,$2,$3,$4,$5,0*
20,1,$1+$1,$4,$5,$6,$7,0*
20,1,$1+$1,$6,$7,$8,$9,0*
20,1,$1+$1,$8,$9,$2,$3,0*%
%AMFreePoly0*
4,1,23,0.500000,-0.750000,0.000000,-0.750000,0.000000,-0.745722,-0.065263,-0.745722,-0.191342,-0.711940,-0.304381,-0.646677,-0.396677,-0.554381,-0.461940,-0.441342,-0.495722,-0.315263,-0.495722,-0.250000,-0.500000,-0.250000,-0.500000,0.250000,-0.495722,0.250000,-0.495722,0.315263,-0.461940,0.441342,-0.396677,0.554381,-0.304381,0.646677,-0.191342,0.711940,-0.065263,0.745722,0.000000,0.745722,
0.000000,0.750000,0.500000,0.750000,0.500000,-0.750000,0.500000,-0.750000,$1*%
%AMFreePoly1*
4,1,23,0.000000,0.745722,0.065263,0.745722,0.191342,0.711940,0.304381,0.646677,0.396677,0.554381,0.461940,0.441342,0.495722,0.315263,0.495722,0.250000,0.500000,0.250000,0.500000,-0.250000,0.495722,-0.250000,0.495722,-0.315263,0.461940,-0.441342,0.396677,-0.554381,0.304381,-0.646677,0.191342,-0.711940,0.065263,-0.745722,0.000000,-0.745722,0.000000,-0.750000,-0.500000,-0.750000,
-0.500000,0.750000,0.000000,0.750000,0.000000,0.745722,0.000000,0.745722,$1*%
G04 Aperture macros list end*
%TA.AperFunction,SMDPad,CuDef*%
%ADD10RoundRect,0.250000X0.250000X0.475000X-0.250000X0.475000X-0.250000X-0.475000X0.250000X-0.475000X0*%
%TD*%
%TA.AperFunction,SMDPad,CuDef*%
%ADD11RoundRect,0.225000X-0.225000X-0.250000X0.225000X-0.250000X0.225000X0.250000X-0.225000X0.250000X0*%
%TD*%
%TA.AperFunction,SMDPad,CuDef*%
%ADD12RoundRect,0.112500X-0.112500X0.187500X-0.112500X-0.187500X0.112500X-0.187500X0.112500X0.187500X0*%
%TD*%
%TA.AperFunction,SMDPad,CuDef*%
%ADD13RoundRect,0.112500X0.112500X-0.187500X0.112500X0.187500X-0.112500X0.187500X-0.112500X-0.187500X0*%
%TD*%
%TA.AperFunction,SMDPad,CuDef*%
%ADD14RoundRect,0.200000X-0.200000X-0.275000X0.200000X-0.275000X0.200000X0.275000X-0.200000X0.275000X0*%
%TD*%
%TA.AperFunction,SMDPad,CuDef*%
%ADD15RoundRect,0.112500X-0.187500X-0.112500X0.187500X-0.112500X0.187500X0.112500X-0.187500X0.112500X0*%
%TD*%
%TA.AperFunction,SMDPad,CuDef*%
%ADD16RoundRect,0.249999X1.850001X-0.450001X1.850001X0.450001X-1.850001X0.450001X-1.850001X-0.450001X0*%
%TD*%
%TA.AperFunction,ComponentPad*%
%ADD17C,1.700000*%
%TD*%
%TA.AperFunction,SMDPad,CuDef*%
%ADD18RoundRect,0.250000X-0.250000X-0.475000X0.250000X-0.475000X0.250000X0.475000X-0.250000X0.475000X0*%
%TD*%
%TA.AperFunction,SMDPad,CuDef*%
%ADD19RoundRect,0.150000X0.150000X-0.587500X0.150000X0.587500X-0.150000X0.587500X-0.150000X-0.587500X0*%
%TD*%
%TA.AperFunction,SMDPad,CuDef*%
%ADD20RoundRect,0.200000X0.200000X0.275000X-0.200000X0.275000X-0.200000X-0.275000X0.200000X-0.275000X0*%
%TD*%
%TA.AperFunction,SMDPad,CuDef*%
%ADD21RoundRect,0.249999X0.450001X1.850001X-0.450001X1.850001X-0.450001X-1.850001X0.450001X-1.850001X0*%
%TD*%
%TA.AperFunction,SMDPad,CuDef*%
%ADD22RoundRect,0.250000X-0.325000X-0.650000X0.325000X-0.650000X0.325000X0.650000X-0.325000X0.650000X0*%
%TD*%
%TA.AperFunction,ComponentPad*%
%ADD23R,1.700000X1.700000*%
%TD*%
%TA.AperFunction,ComponentPad*%
%ADD24R,1.800000X1.800000*%
%TD*%
%TA.AperFunction,ComponentPad*%
%ADD25C,1.800000*%
%TD*%
%TA.AperFunction,SMDPad,CuDef*%
%ADD26RoundRect,0.200000X-0.275000X0.200000X-0.275000X-0.200000X0.275000X-0.200000X0.275000X0.200000X0*%
%TD*%
%TA.AperFunction,SMDPad,CuDef*%
%ADD27RoundRect,0.225000X-0.250000X0.225000X-0.250000X-0.225000X0.250000X-0.225000X0.250000X0.225000X0*%
%TD*%
%TA.AperFunction,SMDPad,CuDef*%
%ADD28RoundRect,0.150000X0.512500X0.150000X-0.512500X0.150000X-0.512500X-0.150000X0.512500X-0.150000X0*%
%TD*%
%TA.AperFunction,SMDPad,CuDef*%
%ADD29RoundRect,0.225000X0.225000X0.250000X-0.225000X0.250000X-0.225000X-0.250000X0.225000X-0.250000X0*%
%TD*%
%TA.AperFunction,SMDPad,CuDef*%
%ADD30RoundRect,0.112500X0.187500X0.112500X-0.187500X0.112500X-0.187500X-0.112500X0.187500X-0.112500X0*%
%TD*%
%TA.AperFunction,SMDPad,CuDef*%
%ADD31FreePoly0,0.000000*%
%TD*%
%TA.AperFunction,SMDPad,CuDef*%
%ADD32FreePoly1,0.000000*%
%TD*%
%TA.AperFunction,SMDPad,CuDef*%
%ADD33FreePoly0,270.000000*%
%TD*%
%TA.AperFunction,SMDPad,CuDef*%
%ADD34FreePoly1,270.000000*%
%TD*%
%TA.AperFunction,SMDPad,CuDef*%
%ADD35RoundRect,0.150000X0.150000X-0.512500X0.150000X0.512500X-0.150000X0.512500X-0.150000X-0.512500X0*%
%TD*%
%TA.AperFunction,ComponentPad*%
%ADD36RoundRect,0.250000X0.625000X-0.350000X0.625000X0.350000X-0.625000X0.350000X-0.625000X-0.350000X0*%
%TD*%
%TA.AperFunction,ComponentPad*%
%ADD37O,1.750000X1.200000*%
%TD*%
%TA.AperFunction,ViaPad*%
%ADD38C,0.700000*%
%TD*%
%TA.AperFunction,ViaPad*%
%ADD39C,0.600000*%
%TD*%
%TA.AperFunction,Conductor*%
%ADD40C,0.500000*%
%TD*%
%TA.AperFunction,Conductor*%
%ADD41C,0.200000*%
%TD*%
%TA.AperFunction,Conductor*%
%ADD42C,1.000000*%
%TD*%
G04 APERTURE END LIST*
D10*
%TO.P,C14,1*%
%TO.N,+18V*%
X79950000Y-58100000D03*
%TO.P,C14,2*%
%TO.N,GND*%
X78050000Y-58100000D03*
%TD*%
D11*
%TO.P,C15,1*%
%TO.N,/pump2*%
X80475000Y-66500000D03*
%TO.P,C15,2*%
%TO.N,GND*%
X82025000Y-66500000D03*
%TD*%
D12*
%TO.P,D7,1,K*%
%TO.N,GND*%
X82000000Y-71700000D03*
%TO.P,D7,2,A*%
%TO.N,-18V*%
X82000000Y-73800000D03*
%TD*%
D13*
%TO.P,D3,1,K*%
%TO.N,Net-(D3-K)*%
X74250000Y-46050000D03*
%TO.P,D3,2,A*%
%TO.N,VIN*%
X74250000Y-43950000D03*
%TD*%
D14*
%TO.P,R9,1*%
%TO.N,Net-(U2-EN)*%
X70808348Y-55345826D03*
%TO.P,R9,2*%
%TO.N,VCC*%
X72458348Y-55345826D03*
%TD*%
D15*
%TO.P,D1,1,K*%
%TO.N,+5V*%
X79700000Y-76750000D03*
%TO.P,D1,2,A*%
%TO.N,/sw2*%
X81800000Y-76750000D03*
%TD*%
D16*
%TO.P,L5,1*%
%TO.N,VCC*%
X76750000Y-66100000D03*
%TO.P,L5,2*%
%TO.N,/sw3*%
X76750000Y-62400000D03*
%TD*%
D17*
%TO.P,J4,1,Pin_1*%
%TO.N,VIN*%
X70750000Y-37250000D03*
%TD*%
D18*
%TO.P,C3,1*%
%TO.N,-18V*%
X79800000Y-37250000D03*
%TO.P,C3,2*%
%TO.N,GND*%
X81700000Y-37250000D03*
%TD*%
%TO.P,C12,1*%
%TO.N,VCC*%
X71416652Y-62250000D03*
%TO.P,C12,2*%
%TO.N,GND*%
X73316652Y-62250000D03*
%TD*%
D10*
%TO.P,C4,1*%
%TO.N,+5V*%
X78450000Y-75000000D03*
%TO.P,C4,2*%
%TO.N,GND*%
X76550000Y-75000000D03*
%TD*%
D11*
%TO.P,C13,1*%
%TO.N,/sw3*%
X80475000Y-61500000D03*
%TO.P,C13,2*%
%TO.N,/pump1*%
X82025000Y-61500000D03*
%TD*%
D14*
%TO.P,R4,1*%
%TO.N,Net-(D2-K)*%
X73675000Y-52250000D03*
%TO.P,R4,2*%
%TO.N,Net-(U4-STAT)*%
X75325000Y-52250000D03*
%TD*%
D19*
%TO.P,Q1,1,G*%
%TO.N,VIN*%
X80550000Y-45687500D03*
%TO.P,Q1,2,S*%
%TO.N,Net-(D3-K)*%
X82450000Y-45687500D03*
%TO.P,Q1,3,D*%
%TO.N,VBAT*%
X81500000Y-43812500D03*
%TD*%
D20*
%TO.P,R5,1*%
%TO.N,GND*%
X82325000Y-47500000D03*
%TO.P,R5,2*%
%TO.N,VIN*%
X80675000Y-47500000D03*
%TD*%
D21*
%TO.P,L4,1*%
%TO.N,/sw2*%
X81350000Y-80750000D03*
%TO.P,L4,2*%
%TO.N,GND*%
X77650000Y-80750000D03*
%TD*%
D22*
%TO.P,C10,1*%
%TO.N,+5V*%
X74025000Y-37250000D03*
%TO.P,C10,2*%
%TO.N,GND*%
X76975000Y-37250000D03*
%TD*%
D17*
%TO.P,J2,1,Pin_1*%
%TO.N,+5V*%
X73250000Y-34810000D03*
%TO.P,J2,2,Pin_2*%
%TO.N,-18V*%
X73250000Y-32270000D03*
D23*
%TO.P,J2,3,Pin_3*%
%TO.N,GND*%
X73250000Y-29730000D03*
D17*
%TO.P,J2,4,Pin_4*%
%TO.N,VCC*%
X73250000Y-27190000D03*
%TD*%
D14*
%TO.P,RV1,1*%
%TO.N,VIN*%
X70675000Y-43250000D03*
%TO.P,RV1,2*%
%TO.N,GND*%
X72325000Y-43250000D03*
%TD*%
D24*
%TO.P,D2,1,K*%
%TO.N,Net-(D2-K)*%
X72250000Y-50270000D03*
D25*
%TO.P,D2,2,A*%
%TO.N,VIN*%
X72250000Y-47730000D03*
%TD*%
D17*
%TO.P,J1,1,Pin_1*%
%TO.N,Net-(D3-K)*%
X70750000Y-34750000D03*
%TD*%
D14*
%TO.P,R12,1*%
%TO.N,Net-(U2-FB)*%
X74291652Y-56750000D03*
%TO.P,R12,2*%
%TO.N,GND*%
X75941652Y-56750000D03*
%TD*%
D18*
%TO.P,C16,1*%
%TO.N,GND*%
X77250000Y-53100000D03*
%TO.P,C16,2*%
%TO.N,VBAT*%
X79150000Y-53100000D03*
%TD*%
D14*
%TO.P,R8,1*%
%TO.N,Net-(U3-EN)*%
X71675000Y-72500000D03*
%TO.P,R8,2*%
%TO.N,VCC*%
X73325000Y-72500000D03*
%TD*%
D26*
%TO.P,R14,1*%
%TO.N,/pump2*%
X80250000Y-71925000D03*
%TO.P,R14,2*%
%TO.N,-18V*%
X80250000Y-73575000D03*
%TD*%
D27*
%TO.P,C9,1*%
%TO.N,/sw*%
X75750000Y-84975000D03*
%TO.P,C9,2*%
%TO.N,/sw2*%
X75750000Y-86525000D03*
%TD*%
D28*
%TO.P,U3,1,SW*%
%TO.N,/sw*%
X75637500Y-83200000D03*
%TO.P,U3,2,GND*%
%TO.N,GND*%
X75637500Y-82250000D03*
%TO.P,U3,3,FB*%
%TO.N,Net-(U3-FB)*%
X75637500Y-81300000D03*
%TO.P,U3,4,EN*%
%TO.N,Net-(U3-EN)*%
X73362500Y-81300000D03*
%TO.P,U3,5,IN*%
%TO.N,VCC*%
X73362500Y-83200000D03*
%TD*%
D14*
%TO.P,R1,1*%
%TO.N,Net-(U3-FB)*%
X73425000Y-79750000D03*
%TO.P,R1,2*%
%TO.N,GND*%
X75075000Y-79750000D03*
%TD*%
D28*
%TO.P,U2,1,SW*%
%TO.N,/sw3*%
X74391652Y-60400000D03*
%TO.P,U2,2,GND*%
%TO.N,GND*%
X74391652Y-59450000D03*
%TO.P,U2,3,FB*%
%TO.N,Net-(U2-FB)*%
X74391652Y-58500000D03*
%TO.P,U2,4,EN*%
%TO.N,Net-(U2-EN)*%
X72116652Y-58500000D03*
%TO.P,U2,5,IN*%
%TO.N,VCC*%
X72116652Y-60400000D03*
%TD*%
D18*
%TO.P,C11,1*%
%TO.N,VCC*%
X72350000Y-85000000D03*
%TO.P,C11,2*%
%TO.N,GND*%
X74250000Y-85000000D03*
%TD*%
D20*
%TO.P,R7,1*%
%TO.N,+5V*%
X75075000Y-78250000D03*
%TO.P,R7,2*%
%TO.N,Net-(U3-FB)*%
X73425000Y-78250000D03*
%TD*%
D29*
%TO.P,C18,1*%
%TO.N,VIN*%
X78725000Y-47112500D03*
%TO.P,C18,2*%
%TO.N,GND*%
X77175000Y-47112500D03*
%TD*%
D10*
%TO.P,C2,1*%
%TO.N,+5V*%
X78450000Y-77000000D03*
%TO.P,C2,2*%
%TO.N,GND*%
X76550000Y-77000000D03*
%TD*%
D14*
%TO.P,R13,1*%
%TO.N,/pump2*%
X80425000Y-65000000D03*
%TO.P,R13,2*%
%TO.N,GND*%
X82075000Y-65000000D03*
%TD*%
D30*
%TO.P,D5,1,K*%
%TO.N,/pump1*%
X82350000Y-63250000D03*
%TO.P,D5,2,A*%
%TO.N,/pump2*%
X80250000Y-63250000D03*
%TD*%
D14*
%TO.P,R10,1*%
%TO.N,Net-(U2-EN)*%
X70808348Y-56845826D03*
%TO.P,R10,2*%
%TO.N,GND*%
X72458348Y-56845826D03*
%TD*%
D20*
%TO.P,R11,1*%
%TO.N,+18V*%
X75941652Y-55250000D03*
%TO.P,R11,2*%
%TO.N,Net-(U2-FB)*%
X74291652Y-55250000D03*
%TD*%
D14*
%TO.P,R3,1*%
%TO.N,Net-(U3-EN)*%
X71675000Y-74000000D03*
%TO.P,R3,2*%
%TO.N,GND*%
X73325000Y-74000000D03*
%TD*%
D18*
%TO.P,C1,1*%
%TO.N,VCC*%
X72350000Y-87000000D03*
%TO.P,C1,2*%
%TO.N,GND*%
X74250000Y-87000000D03*
%TD*%
D30*
%TO.P,D4,1,K*%
%TO.N,+18V*%
X80050000Y-60000000D03*
%TO.P,D4,2,A*%
%TO.N,/sw3*%
X77950000Y-60000000D03*
%TD*%
D31*
%TO.P,JP1,1,A*%
%TO.N,VIN*%
X70850000Y-45500000D03*
D32*
%TO.P,JP1,2,B*%
%TO.N,VCC*%
X72150000Y-45500000D03*
%TD*%
D33*
%TO.P,JP2,1,A*%
%TO.N,Net-(D3-K)*%
X82500000Y-49850000D03*
D34*
%TO.P,JP2,2,B*%
%TO.N,VCC*%
X82500000Y-51150000D03*
%TD*%
D16*
%TO.P,L3,1*%
%TO.N,VCC*%
X79500000Y-88600000D03*
%TO.P,L3,2*%
%TO.N,/sw*%
X79500000Y-84900000D03*
%TD*%
D35*
%TO.P,U4,1,STAT*%
%TO.N,Net-(U4-STAT)*%
X77050000Y-51137500D03*
%TO.P,U4,2,GND*%
%TO.N,GND*%
X78000000Y-51137500D03*
%TO.P,U4,3,VBAT*%
%TO.N,VBAT*%
X78950000Y-51137500D03*
%TO.P,U4,4,VDD*%
%TO.N,VIN*%
X78950000Y-48862500D03*
%TO.P,U4,5,PROG*%
%TO.N,Net-(U4-PROG)*%
X77050000Y-48862500D03*
%TD*%
D12*
%TO.P,D6,1,K*%
%TO.N,GND*%
X82000000Y-58200000D03*
%TO.P,D6,2,A*%
%TO.N,/pump1*%
X82000000Y-60300000D03*
%TD*%
D14*
%TO.P,R6,1*%
%TO.N,GND*%
X77125000Y-45612500D03*
%TO.P,R6,2*%
%TO.N,Net-(U4-PROG)*%
X78775000Y-45612500D03*
%TD*%
D36*
%TO.P,J3,1,Pin_1*%
%TO.N,VBAT*%
X82600000Y-55000000D03*
D37*
%TO.P,J3,2,Pin_2*%
%TO.N,GND*%
X82600000Y-53000000D03*
%TD*%
D38*
%TO.N,GND*%
X83500000Y-74750000D03*
X74500000Y-74000000D03*
X82750000Y-37250000D03*
X73250000Y-57500000D03*
X76450000Y-50112500D03*
X74500000Y-83750000D03*
X81500000Y-67750000D03*
X77950000Y-48612500D03*
X74500000Y-82750000D03*
X75675000Y-77000000D03*
X77000000Y-44250000D03*
X81750000Y-59000000D03*
X73116652Y-59500000D03*
X77950000Y-49612500D03*
X82250000Y-48750000D03*
X73400000Y-63500000D03*
X75250000Y-37250000D03*
X76500000Y-76000000D03*
X72500000Y-75500000D03*
X75675000Y-74988198D03*
X74300000Y-86000000D03*
X74500000Y-81750000D03*
X73500000Y-43250000D03*
X83000000Y-56250000D03*
X78000000Y-56900000D03*
X77000000Y-58100000D03*
X70500000Y-59500000D03*
X73366652Y-61000000D03*
X79468567Y-50089520D03*
X76000000Y-47000000D03*
X78250000Y-37250000D03*
D39*
X71550000Y-43500000D03*
D38*
%TO.N,+5V*%
X80750000Y-55500000D03*
X77750000Y-76500000D03*
%TO.N,VCC*%
X71750000Y-63600000D03*
X72400000Y-86000000D03*
X71750000Y-54250000D03*
X73250000Y-71000000D03*
X72250000Y-45500000D03*
X82500000Y-51150000D03*
%TO.N,/sw2*%
X81500000Y-82250000D03*
X76750000Y-86500000D03*
%TO.N,VIN*%
X73500000Y-44250000D03*
X79675000Y-45634656D03*
%TO.N,Net-(D3-K)*%
X75000000Y-45000000D03*
X83186499Y-46985180D03*
%TD*%
D40*
%TO.N,GND*%
X72325000Y-43500000D02*
X71550000Y-43500000D01*
%TO.N,+5V*%
X74025000Y-37250000D02*
X74025000Y-39025000D01*
X78250000Y-54250000D02*
X79500000Y-55500000D01*
X74500000Y-51000000D02*
X74500000Y-53000000D01*
X75750000Y-46187925D02*
X75249000Y-46688925D01*
D41*
X75705292Y-74022574D02*
X77472574Y-74022574D01*
D40*
X75750000Y-54250000D02*
X78250000Y-54250000D01*
X75750000Y-40750000D02*
X75750000Y-46187925D01*
D41*
X78275000Y-74825000D02*
X78275000Y-75075000D01*
D40*
X79500000Y-55500000D02*
X80750000Y-55500000D01*
X74025000Y-39025000D02*
X75750000Y-40750000D01*
D41*
X75075000Y-74652866D02*
X75705292Y-74022574D01*
D40*
X75249000Y-46688925D02*
X75249000Y-50251000D01*
X74500000Y-53000000D02*
X75750000Y-54250000D01*
X75249000Y-50251000D02*
X74500000Y-51000000D01*
D42*
X74025000Y-37250000D02*
X74025000Y-35585000D01*
D41*
X77472574Y-74022574D02*
X78275000Y-74825000D01*
X75075000Y-78250000D02*
X75075000Y-74652866D01*
D42*
X74025000Y-35585000D02*
X73250000Y-34810000D01*
D40*
%TO.N,-18V*%
X83949000Y-41399000D02*
X83949000Y-71801000D01*
X82000000Y-73750000D02*
X82000000Y-73800000D01*
X73520000Y-32270000D02*
X76750000Y-35500000D01*
X81775000Y-73575000D02*
X82000000Y-73800000D01*
X83949000Y-71801000D02*
X82000000Y-73750000D01*
X78050000Y-35500000D02*
X79800000Y-37250000D01*
X73250000Y-32270000D02*
X73520000Y-32270000D01*
X80250000Y-73575000D02*
X81775000Y-73575000D01*
X79800000Y-37250000D02*
X83949000Y-41399000D01*
X76750000Y-35500000D02*
X78050000Y-35500000D01*
D41*
%TO.N,Net-(U3-FB)*%
X74975001Y-81300000D02*
X75637500Y-81300000D01*
X73425000Y-79750000D02*
X74975001Y-81300000D01*
X73425000Y-78250000D02*
X73425000Y-79750000D01*
%TO.N,Net-(U3-EN)*%
X71675000Y-74000000D02*
X71675000Y-80675000D01*
X71675000Y-72250000D02*
X71675000Y-74000000D01*
X72300000Y-81300000D02*
X73362500Y-81300000D01*
X71675000Y-80675000D02*
X72300000Y-81300000D01*
%TO.N,VCC*%
X72250000Y-54250000D02*
X72500000Y-54500000D01*
X73250000Y-71000000D02*
X73325000Y-71075000D01*
X72500000Y-54500000D02*
X72500000Y-55304174D01*
X71750000Y-54250000D02*
X72250000Y-54250000D01*
X72500000Y-55304174D02*
X72458348Y-55345826D01*
X73325000Y-71075000D02*
X73325000Y-72250000D01*
%TO.N,Net-(U2-EN)*%
X70808348Y-56845826D02*
X70808348Y-57191696D01*
X70750000Y-55404174D02*
X70750000Y-56787478D01*
X70808348Y-57191696D02*
X72116652Y-58500000D01*
X70925000Y-55000000D02*
X70866652Y-55058348D01*
X70750000Y-56787478D02*
X70808348Y-56845826D01*
%TO.N,Net-(U2-FB)*%
X74291652Y-55250000D02*
X74291652Y-58400000D01*
X74291652Y-58400000D02*
X74391652Y-58500000D01*
D40*
%TO.N,/sw*%
X75637500Y-84862500D02*
X75750000Y-84975000D01*
X79425000Y-84975000D02*
X79500000Y-84900000D01*
D41*
%TO.N,/sw2*%
X75750000Y-86525000D02*
X76725000Y-86525000D01*
X76725000Y-86525000D02*
X76750000Y-86500000D01*
%TO.N,+18V*%
X75941652Y-55250000D02*
X77866652Y-55250000D01*
X79641652Y-57025000D02*
X79641652Y-58500000D01*
X77866652Y-55250000D02*
X79641652Y-57025000D01*
D40*
%TO.N,/sw3*%
X80000000Y-61500000D02*
X79100000Y-62400000D01*
X80475000Y-61500000D02*
X80000000Y-61500000D01*
X79100000Y-62400000D02*
X76750000Y-62400000D01*
%TO.N,VBAT*%
X78950000Y-53012500D02*
X79037500Y-53100000D01*
X79187500Y-53137500D02*
X79150000Y-53100000D01*
X80500000Y-52900000D02*
X82600000Y-55000000D01*
X79037500Y-53100000D02*
X79150000Y-53100000D01*
X80500000Y-52750000D02*
X80112500Y-53137500D01*
X81500000Y-49000000D02*
X80500000Y-50000000D01*
X78950000Y-51137500D02*
X78950000Y-53012500D01*
X81500000Y-43812500D02*
X81500000Y-49000000D01*
X80500000Y-50000000D02*
X80500000Y-52750000D01*
X80112500Y-53137500D02*
X79187500Y-53137500D01*
X80500000Y-52750000D02*
X80500000Y-52900000D01*
%TO.N,VIN*%
X78725000Y-48637500D02*
X78950000Y-48862500D01*
X74250000Y-43950000D02*
X73950000Y-44250000D01*
X70850000Y-44250000D02*
X70850000Y-41600000D01*
X79727844Y-45687500D02*
X80550000Y-45687500D01*
X79675000Y-46162500D02*
X78725000Y-47112500D01*
X73950000Y-44250000D02*
X70850000Y-44250000D01*
D41*
X70850000Y-46560000D02*
X70850000Y-45500000D01*
X72250000Y-47960000D02*
X70850000Y-46560000D01*
D40*
X79675000Y-45634656D02*
X79675000Y-46162500D01*
X79675000Y-45634656D02*
X79727844Y-45687500D01*
X70850000Y-41600000D02*
X70750000Y-41500000D01*
D41*
X80675000Y-47500000D02*
X80675000Y-45812500D01*
D40*
X70850000Y-45500000D02*
X70850000Y-44250000D01*
X70750000Y-41500000D02*
X70750000Y-37250000D01*
X78725000Y-47112500D02*
X78725000Y-48637500D01*
D41*
X80675000Y-45812500D02*
X80550000Y-45687500D01*
%TO.N,Net-(D2-K)*%
X73675000Y-52250000D02*
X73000000Y-52250000D01*
X72250000Y-51500000D02*
X72250000Y-50500000D01*
X73000000Y-52250000D02*
X72250000Y-51500000D01*
%TO.N,Net-(U4-STAT)*%
X76362500Y-51137500D02*
X75325000Y-52175000D01*
X75325000Y-52175000D02*
X75325000Y-52250000D01*
X77050000Y-51137500D02*
X76362500Y-51137500D01*
%TO.N,Net-(U4-PROG)*%
X77876000Y-47836557D02*
X77050000Y-48662557D01*
X78775000Y-45612500D02*
X77876000Y-46511500D01*
X77876000Y-46511500D02*
X77876000Y-47836557D01*
X77050000Y-48662557D02*
X77050000Y-48862500D01*
D40*
%TO.N,/pump2*%
X80475000Y-70025000D02*
X80475000Y-67000000D01*
X80250000Y-70250000D02*
X80475000Y-70025000D01*
X80250000Y-71925000D02*
X80250000Y-70250000D01*
%TO.N,Net-(D3-K)*%
X74250000Y-46050000D02*
X74250000Y-45750000D01*
X75000000Y-45000000D02*
X75000000Y-42000000D01*
X72500000Y-39500000D02*
X72500000Y-36500000D01*
X74250000Y-45750000D02*
X75000000Y-45000000D01*
X82450000Y-45687500D02*
X83126000Y-46363500D01*
X72500000Y-36500000D02*
X70750000Y-34750000D01*
X75000000Y-42000000D02*
X72500000Y-39500000D01*
X83126000Y-46363500D02*
X83126000Y-49224000D01*
X83126000Y-49224000D02*
X82500000Y-49850000D01*
%TD*%
%TA.AperFunction,Conductor*%
%TO.N,/pump1*%
G36*
X82943039Y-59975185D02*
G01*
X82988794Y-60027989D01*
X83000000Y-60079500D01*
X83000000Y-63470500D01*
X82980315Y-63537539D01*
X82927511Y-63583294D01*
X82876000Y-63594500D01*
X81374000Y-63594500D01*
X81306961Y-63574815D01*
X81261206Y-63522011D01*
X81250000Y-63470500D01*
X81250000Y-60079500D01*
X81269685Y-60012461D01*
X81322489Y-59966706D01*
X81374000Y-59955500D01*
X82876000Y-59955500D01*
X82943039Y-59975185D01*
G37*
%TD.AperFunction*%
%TD*%
%TA.AperFunction,Conductor*%
%TO.N,/pump2*%
G36*
X81037539Y-62519685D02*
G01*
X81083294Y-62572489D01*
X81094500Y-62624000D01*
X81094500Y-63470508D01*
X81098054Y-63503555D01*
X81109259Y-63555066D01*
X81113617Y-63563770D01*
X81126024Y-63632530D01*
X81118319Y-63656149D01*
X81119558Y-63656481D01*
X81094500Y-63750000D01*
X81094500Y-67126000D01*
X81074815Y-67193039D01*
X81022011Y-67238794D01*
X80970500Y-67250000D01*
X79874000Y-67250000D01*
X79806961Y-67230315D01*
X79761206Y-67177511D01*
X79750000Y-67126000D01*
X79750000Y-62624000D01*
X79769685Y-62556961D01*
X79822489Y-62511206D01*
X79874000Y-62500000D01*
X80970500Y-62500000D01*
X81037539Y-62519685D01*
G37*
%TD.AperFunction*%
%TD*%
%TA.AperFunction,Conductor*%
%TO.N,VCC*%
G36*
X73443039Y-82769685D02*
G01*
X73488794Y-82822489D01*
X73500000Y-82874000D01*
X73500000Y-83470500D01*
X73480315Y-83537539D01*
X73427511Y-83583294D01*
X73376000Y-83594500D01*
X73250000Y-83594500D01*
X73172248Y-83615333D01*
X73115333Y-83672248D01*
X73094500Y-83750000D01*
X73094500Y-87000000D01*
X73099775Y-87019685D01*
X73115333Y-87077751D01*
X73172248Y-87134666D01*
X73172249Y-87134666D01*
X73172250Y-87134667D01*
X73250000Y-87155500D01*
X73475501Y-87155500D01*
X73542540Y-87175185D01*
X73588295Y-87227989D01*
X73599501Y-87279500D01*
X73599501Y-87506518D01*
X73614354Y-87600304D01*
X73671950Y-87713342D01*
X73671952Y-87713344D01*
X73671954Y-87713347D01*
X73761652Y-87803045D01*
X73761654Y-87803046D01*
X73761658Y-87803050D01*
X73874694Y-87860645D01*
X73874698Y-87860647D01*
X73968475Y-87875499D01*
X73968481Y-87875500D01*
X74531518Y-87875499D01*
X74625304Y-87860646D01*
X74738342Y-87803050D01*
X74828050Y-87713342D01*
X74885646Y-87600304D01*
X74885646Y-87600302D01*
X74885647Y-87600301D01*
X74900500Y-87506524D01*
X74900500Y-87277309D01*
X74920185Y-87210270D01*
X74964059Y-87169037D01*
X74988309Y-87155500D01*
X75000000Y-87155500D01*
X75077750Y-87134667D01*
X75134667Y-87077750D01*
X75135912Y-87073102D01*
X75158665Y-87060401D01*
X75176601Y-87056323D01*
X75192747Y-87047507D01*
X75209965Y-87048738D01*
X75226796Y-87044912D01*
X75244089Y-87051178D01*
X75262439Y-87052491D01*
X75273567Y-87057273D01*
X75391372Y-87114865D01*
X75391373Y-87114865D01*
X75391375Y-87114866D01*
X75464364Y-87125500D01*
X75464370Y-87125500D01*
X76035630Y-87125500D01*
X76035636Y-87125500D01*
X76108625Y-87114866D01*
X76184547Y-87077750D01*
X76221210Y-87059827D01*
X76221212Y-87059825D01*
X76244719Y-87036319D01*
X76306042Y-87002834D01*
X76332400Y-87000000D01*
X76682242Y-87000000D01*
X76684108Y-87000500D01*
X76815892Y-87000500D01*
X76817758Y-87000000D01*
X81876000Y-87000000D01*
X81943039Y-87019685D01*
X81988794Y-87072489D01*
X82000000Y-87124000D01*
X82000000Y-90126000D01*
X81980315Y-90193039D01*
X81927511Y-90238794D01*
X81876000Y-90250000D01*
X71624000Y-90250000D01*
X71556961Y-90230315D01*
X71511206Y-90177511D01*
X71500000Y-90126000D01*
X71500000Y-82874000D01*
X71519685Y-82806961D01*
X71572489Y-82761206D01*
X71624000Y-82750000D01*
X73376000Y-82750000D01*
X73443039Y-82769685D01*
G37*
%TD.AperFunction*%
%TD*%
%TA.AperFunction,Conductor*%
%TO.N,GND*%
G36*
X74862637Y-74510967D02*
G01*
X74862636Y-74510968D01*
X74824500Y-74603036D01*
X74824500Y-77532142D01*
X74804815Y-77599181D01*
X74754960Y-77643543D01*
X74668514Y-77685803D01*
X74585803Y-77768514D01*
X74534426Y-77873608D01*
X74524500Y-77941739D01*
X74524500Y-78558260D01*
X74534426Y-78626391D01*
X74585803Y-78731485D01*
X74668514Y-78814196D01*
X74668515Y-78814196D01*
X74668517Y-78814198D01*
X74773607Y-78865573D01*
X74807673Y-78870536D01*
X74841739Y-78875500D01*
X74841740Y-78875500D01*
X75308261Y-78875500D01*
X75330971Y-78872191D01*
X75376393Y-78865573D01*
X75481483Y-78814198D01*
X75564198Y-78731483D01*
X75615573Y-78626393D01*
X75625500Y-78558260D01*
X75625500Y-77941740D01*
X75615573Y-77873607D01*
X75564198Y-77768517D01*
X75564196Y-77768515D01*
X75564196Y-77768514D01*
X75481485Y-77685803D01*
X75395040Y-77643543D01*
X75343457Y-77596415D01*
X75325500Y-77532142D01*
X75325500Y-74807989D01*
X75345185Y-74740950D01*
X75361819Y-74720308D01*
X75772734Y-74309393D01*
X75834057Y-74275908D01*
X75860415Y-74273074D01*
X77220500Y-74273074D01*
X77287539Y-74292759D01*
X77333294Y-74345563D01*
X77344500Y-74397074D01*
X77344500Y-76168120D01*
X77327887Y-76230120D01*
X77283609Y-76306811D01*
X77283608Y-76306814D01*
X77249500Y-76434108D01*
X77249500Y-76565891D01*
X77283609Y-76693188D01*
X77283610Y-76693191D01*
X77327886Y-76769877D01*
X77344500Y-76831878D01*
X77344500Y-77876008D01*
X77348054Y-77909055D01*
X77359260Y-77960566D01*
X77393686Y-78029342D01*
X77439436Y-78082139D01*
X77444422Y-78087623D01*
X77513145Y-78129513D01*
X77513150Y-78129516D01*
X77580189Y-78149201D01*
X77624000Y-78155500D01*
X77624003Y-78155500D01*
X79875991Y-78155500D01*
X79876000Y-78155500D01*
X79909055Y-78151946D01*
X79944141Y-78144313D01*
X80013832Y-78149297D01*
X80069766Y-78191167D01*
X80094184Y-78256631D01*
X80094500Y-78265479D01*
X80094500Y-82720500D01*
X80074815Y-82787539D01*
X80022011Y-82833294D01*
X79970500Y-82844500D01*
X78142749Y-82844500D01*
X78136632Y-82844620D01*
X78130241Y-82844871D01*
X78129413Y-82844904D01*
X78124546Y-82845000D01*
X77175454Y-82845000D01*
X77170586Y-82844904D01*
X77169693Y-82844868D01*
X77163367Y-82844620D01*
X77157251Y-82844500D01*
X76420833Y-82844500D01*
X76353794Y-82824815D01*
X76333152Y-82808181D01*
X76322765Y-82797794D01*
X76219992Y-82752415D01*
X76194865Y-82749500D01*
X75080143Y-82749500D01*
X75080117Y-82749502D01*
X75055012Y-82752413D01*
X75055008Y-82752415D01*
X74952235Y-82797793D01*
X74872794Y-82877234D01*
X74827415Y-82980006D01*
X74827415Y-82980008D01*
X74824500Y-83005131D01*
X74824500Y-83394856D01*
X74824502Y-83394882D01*
X74827413Y-83419985D01*
X74827414Y-83419990D01*
X74833934Y-83434754D01*
X74835962Y-83444312D01*
X74839393Y-83449623D01*
X74844364Y-83483904D01*
X74844500Y-83484545D01*
X74844500Y-83682241D01*
X74844981Y-83685900D01*
X74845000Y-83693639D01*
X74844991Y-83693669D01*
X74845000Y-83693936D01*
X74845000Y-83806070D01*
X74844735Y-83814179D01*
X74844500Y-83817764D01*
X74844500Y-85626008D01*
X74848054Y-85659055D01*
X74859260Y-85710566D01*
X74893686Y-85779342D01*
X74939436Y-85832139D01*
X74944422Y-85837623D01*
X75000000Y-85871500D01*
X75000000Y-87000000D01*
X73250000Y-87000000D01*
X73250000Y-83750000D01*
X74000000Y-83750000D01*
X74000000Y-83623296D01*
X74047765Y-83602206D01*
X74127206Y-83522765D01*
X74172585Y-83419991D01*
X74175500Y-83394865D01*
X74175499Y-83005136D01*
X74175497Y-83005117D01*
X74172586Y-82980012D01*
X74172585Y-82980010D01*
X74172585Y-82980009D01*
X74127206Y-82877235D01*
X74047765Y-82797794D01*
X74024540Y-82787539D01*
X74000000Y-82776703D01*
X74000000Y-81750000D01*
X74000000Y-81723296D01*
X74047765Y-81702206D01*
X74127206Y-81622765D01*
X74172585Y-81519991D01*
X74175500Y-81494865D01*
X74175499Y-81154119D01*
X74195183Y-81087081D01*
X74247987Y-81041326D01*
X74317146Y-81031382D01*
X74380701Y-81060407D01*
X74387169Y-81066429D01*
X74762636Y-81441895D01*
X74762637Y-81441897D01*
X74800496Y-81479756D01*
X74826249Y-81517351D01*
X74872793Y-81622764D01*
X74872794Y-81622765D01*
X74952235Y-81702206D01*
X75055009Y-81747585D01*
X75080135Y-81750500D01*
X76194864Y-81750499D01*
X76194879Y-81750497D01*
X76194882Y-81750497D01*
X76219987Y-81747586D01*
X76219988Y-81747585D01*
X76219991Y-81747585D01*
X76322765Y-81702206D01*
X76402206Y-81622765D01*
X76447585Y-81519991D01*
X76450500Y-81494865D01*
X76450499Y-81105136D01*
X76448470Y-81087636D01*
X76447586Y-81080012D01*
X76447585Y-81080010D01*
X76447585Y-81080009D01*
X76402206Y-80977235D01*
X76322765Y-80897794D01*
X76262531Y-80871198D01*
X76219992Y-80852415D01*
X76194865Y-80849500D01*
X75080143Y-80849500D01*
X75080117Y-80849502D01*
X75055012Y-80852413D01*
X75055010Y-80852414D01*
X75012467Y-80871198D01*
X74943189Y-80880267D01*
X74880005Y-80850442D01*
X74874703Y-80845443D01*
X74011819Y-79982558D01*
X74000000Y-79960913D01*
X74000000Y-74200000D01*
X75173605Y-74200000D01*
X74862637Y-74510967D01*
G37*
%TD.AperFunction*%
%TA.AperFunction,Conductor*%
G36*
X80250000Y-74851690D02*
G01*
X80236165Y-74850701D01*
X80232583Y-74848020D01*
X80228155Y-74847390D01*
X80204869Y-74827272D01*
X80180232Y-74808829D01*
X80178668Y-74804636D01*
X80175284Y-74801713D01*
X80166570Y-74772200D01*
X80155816Y-74743365D01*
X80155507Y-74734728D01*
X80155500Y-74734703D01*
X80155505Y-74734683D01*
X80155500Y-74734520D01*
X80155500Y-74324008D01*
X80155499Y-74323991D01*
X80151946Y-74290946D01*
X80149606Y-74280189D01*
X80148664Y-74275858D01*
X80150243Y-74253770D01*
X80147092Y-74231853D01*
X80152686Y-74219602D01*
X80153647Y-74206168D01*
X80158264Y-74200000D01*
X80250000Y-74200000D01*
X80250000Y-74851690D01*
G37*
%TD.AperFunction*%
%TD*%
%TA.AperFunction,Conductor*%
%TO.N,GND*%
G36*
X75535166Y-55814196D02*
G01*
X75535167Y-55814196D01*
X75535169Y-55814198D01*
X75640259Y-55865573D01*
X75674325Y-55870536D01*
X75708391Y-55875500D01*
X75708392Y-55875500D01*
X76174913Y-55875500D01*
X76197623Y-55872191D01*
X76243045Y-55865573D01*
X76348135Y-55814198D01*
X76412333Y-55750000D01*
X78012391Y-55750000D01*
X79116652Y-56854261D01*
X79116652Y-59750000D01*
X78361932Y-59750000D01*
X78327112Y-59697888D01*
X78240117Y-59639760D01*
X78240115Y-59639759D01*
X78240112Y-59639758D01*
X78163404Y-59624500D01*
X77736602Y-59624500D01*
X77659881Y-59639760D01*
X77659879Y-59639761D01*
X77572888Y-59697888D01*
X77538068Y-59750000D01*
X74116652Y-59750000D01*
X74116652Y-59949500D01*
X73834295Y-59949500D01*
X73834269Y-59949502D01*
X73809164Y-59952413D01*
X73809160Y-59952415D01*
X73706387Y-59997793D01*
X73626946Y-60077234D01*
X73581567Y-60180006D01*
X73581567Y-60180008D01*
X73578652Y-60205131D01*
X73578652Y-60594856D01*
X73578654Y-60594882D01*
X73581565Y-60619987D01*
X73581567Y-60619991D01*
X73626945Y-60722764D01*
X73626946Y-60722765D01*
X73706387Y-60802206D01*
X73809161Y-60847585D01*
X73834287Y-60850500D01*
X74116652Y-60850499D01*
X74116652Y-64250000D01*
X72866652Y-64250000D01*
X72866652Y-60737471D01*
X72881358Y-60722765D01*
X72926737Y-60619991D01*
X72929652Y-60594865D01*
X72929651Y-60205136D01*
X72929649Y-60205117D01*
X72926738Y-60180012D01*
X72926737Y-60180010D01*
X72926737Y-60180009D01*
X72881358Y-60077235D01*
X72866652Y-60062529D01*
X72866652Y-58837471D01*
X72881358Y-58822765D01*
X72913487Y-58750000D01*
X73594817Y-58750000D01*
X73626945Y-58822764D01*
X73626946Y-58822765D01*
X73706387Y-58902206D01*
X73809161Y-58947585D01*
X73834287Y-58950500D01*
X74949016Y-58950499D01*
X74949031Y-58950497D01*
X74949034Y-58950497D01*
X74974139Y-58947586D01*
X74974140Y-58947585D01*
X74974143Y-58947585D01*
X75076917Y-58902206D01*
X75156358Y-58822765D01*
X75201737Y-58719991D01*
X75204652Y-58694865D01*
X75204651Y-58305136D01*
X75204649Y-58305117D01*
X75201738Y-58280012D01*
X75201737Y-58280010D01*
X75201737Y-58280009D01*
X75156358Y-58177235D01*
X75116652Y-58137529D01*
X75116652Y-55750000D01*
X75470970Y-55750000D01*
X75535166Y-55814196D01*
G37*
%TD.AperFunction*%
%TA.AperFunction,Conductor*%
G36*
X79116652Y-56145739D02*
G01*
X78720913Y-55750000D01*
X79116652Y-55750000D01*
X79116652Y-56145739D01*
G37*
%TD.AperFunction*%
%TD*%
%TA.AperFunction,Conductor*%
%TO.N,/sw2*%
G36*
X82693039Y-75019685D02*
G01*
X82738794Y-75072489D01*
X82750000Y-75124000D01*
X82750000Y-82876000D01*
X82730315Y-82943039D01*
X82677511Y-82988794D01*
X82626000Y-83000000D01*
X80374000Y-83000000D01*
X80306961Y-82980315D01*
X80261206Y-82927511D01*
X80250000Y-82876000D01*
X80250000Y-75124000D01*
X80269685Y-75056961D01*
X80322489Y-75011206D01*
X80374000Y-75000000D01*
X82626000Y-75000000D01*
X82693039Y-75019685D01*
G37*
%TD.AperFunction*%
%TD*%
%TA.AperFunction,Conductor*%
%TO.N,+5V*%
G36*
X79943039Y-74219685D02*
G01*
X79988794Y-74272489D01*
X80000000Y-74324000D01*
X80000000Y-77876000D01*
X79980315Y-77943039D01*
X79927511Y-77988794D01*
X79876000Y-78000000D01*
X77624000Y-78000000D01*
X77556961Y-77980315D01*
X77511206Y-77927511D01*
X77500000Y-77876000D01*
X77500000Y-74324000D01*
X77519685Y-74256961D01*
X77572489Y-74211206D01*
X77624000Y-74200000D01*
X79876000Y-74200000D01*
X79943039Y-74219685D01*
G37*
%TD.AperFunction*%
%TD*%
%TA.AperFunction,Conductor*%
%TO.N,GND*%
G36*
X83250000Y-67500000D02*
G01*
X81250000Y-67500000D01*
X81250000Y-63750000D01*
X83250000Y-63750000D01*
X83250000Y-67500000D01*
G37*
%TD.AperFunction*%
%TD*%
%TA.AperFunction,Conductor*%
%TO.N,/sw*%
G36*
X77166974Y-83000382D02*
G01*
X77168474Y-83000500D01*
X77168480Y-83000500D01*
X78131526Y-83000500D01*
X78133026Y-83000382D01*
X78142749Y-83000000D01*
X80061633Y-83000000D01*
X80128672Y-83019685D01*
X80155346Y-83042797D01*
X80189439Y-83082143D01*
X80194422Y-83087623D01*
X80254101Y-83124000D01*
X80263150Y-83129516D01*
X80330189Y-83149201D01*
X80374000Y-83155500D01*
X80374003Y-83155500D01*
X81876000Y-83155500D01*
X81943039Y-83175185D01*
X81988794Y-83227989D01*
X82000000Y-83279500D01*
X82000000Y-85626000D01*
X81980315Y-85693039D01*
X81927511Y-85738794D01*
X81876000Y-85750000D01*
X75124000Y-85750000D01*
X75056961Y-85730315D01*
X75011206Y-85677511D01*
X75000000Y-85626000D01*
X75000000Y-83817758D01*
X75000500Y-83815892D01*
X75000500Y-83684108D01*
X75000000Y-83682241D01*
X75000000Y-83124000D01*
X75019685Y-83056961D01*
X75072489Y-83011206D01*
X75124000Y-83000000D01*
X77157251Y-83000000D01*
X77166974Y-83000382D01*
G37*
%TD.AperFunction*%
%TD*%
%TA.AperFunction,Conductor*%
%TO.N,/sw3*%
G36*
X78195719Y-59799685D02*
G01*
X78227790Y-59831188D01*
X78228043Y-59830974D01*
X78230396Y-59833747D01*
X78231780Y-59835107D01*
X78232638Y-59836391D01*
X78284182Y-59884667D01*
X78361932Y-59905500D01*
X78361935Y-59905500D01*
X78992652Y-59905500D01*
X79059691Y-59925185D01*
X79105446Y-59977989D01*
X79116652Y-60029500D01*
X79116652Y-64126000D01*
X79096967Y-64193039D01*
X79044163Y-64238794D01*
X78992652Y-64250000D01*
X74396152Y-64250000D01*
X74329113Y-64230315D01*
X74283358Y-64177511D01*
X74272152Y-64126000D01*
X74272152Y-60850500D01*
X74272152Y-60850498D01*
X74251319Y-60772749D01*
X74251318Y-60772748D01*
X74251318Y-60772747D01*
X74194403Y-60715832D01*
X74180264Y-60707669D01*
X74182523Y-60703755D01*
X74148895Y-60683256D01*
X74118368Y-60620408D01*
X74116652Y-60599850D01*
X74116652Y-60200148D01*
X74136337Y-60133109D01*
X74144355Y-60122027D01*
X74169699Y-60090786D01*
X74194402Y-60084167D01*
X74251319Y-60027250D01*
X74266152Y-59971891D01*
X74282793Y-59951379D01*
X74290688Y-59945935D01*
X74295679Y-59937747D01*
X74318983Y-59926425D01*
X74340315Y-59911718D01*
X74349899Y-59911407D01*
X74358525Y-59907217D01*
X74379090Y-59905500D01*
X77538067Y-59905500D01*
X77538068Y-59905500D01*
X77606844Y-59889464D01*
X77667362Y-59836391D01*
X77667365Y-59836387D01*
X77668220Y-59835108D01*
X77669219Y-59834272D01*
X77672720Y-59830281D01*
X77673342Y-59830826D01*
X77721833Y-59790303D01*
X77771321Y-59780000D01*
X78128680Y-59780000D01*
X78195719Y-59799685D01*
G37*
%TD.AperFunction*%
%TD*%
%TA.AperFunction,Conductor*%
%TO.N,VCC*%
G36*
X72661214Y-60019685D02*
G01*
X72706969Y-60072489D01*
X72712362Y-60091266D01*
X72712525Y-60091211D01*
X72716449Y-60102773D01*
X72739464Y-60142636D01*
X72745510Y-60154548D01*
X72763585Y-60195483D01*
X72774151Y-60245570D01*
X72774151Y-60554426D01*
X72763586Y-60604512D01*
X72755006Y-60623944D01*
X72739949Y-60649342D01*
X72731984Y-60659721D01*
X72711152Y-60737471D01*
X72711152Y-61560761D01*
X72697638Y-61617054D01*
X72681004Y-61649699D01*
X72666152Y-61743475D01*
X72666152Y-62756517D01*
X72681006Y-62850304D01*
X72681006Y-62850305D01*
X72697636Y-62882941D01*
X72711152Y-62939237D01*
X72711152Y-64249999D01*
X72731985Y-64327751D01*
X72788900Y-64384666D01*
X72788901Y-64384666D01*
X72788902Y-64384667D01*
X72866652Y-64405500D01*
X72866654Y-64405500D01*
X74116650Y-64405500D01*
X74116652Y-64405500D01*
X74160859Y-64393654D01*
X74210173Y-64380442D01*
X74211067Y-64383781D01*
X74252862Y-64373637D01*
X74281911Y-64378520D01*
X74285301Y-64379515D01*
X74285302Y-64379516D01*
X74352341Y-64399201D01*
X74396152Y-64405500D01*
X74396155Y-64405500D01*
X78992652Y-64405500D01*
X79059691Y-64425185D01*
X79105446Y-64477989D01*
X79116652Y-64529500D01*
X79116652Y-67376000D01*
X79096967Y-67443039D01*
X79044163Y-67488794D01*
X78992652Y-67500000D01*
X70990652Y-67500000D01*
X70923613Y-67480315D01*
X70877858Y-67427511D01*
X70866652Y-67376000D01*
X70866652Y-60124000D01*
X70886337Y-60056961D01*
X70939141Y-60011206D01*
X70990652Y-60000000D01*
X72594175Y-60000000D01*
X72661214Y-60019685D01*
G37*
%TD.AperFunction*%
%TD*%
%TA.AperFunction,Conductor*%
%TO.N,+18V*%
G36*
X81037539Y-57624055D02*
G01*
X81083294Y-57676859D01*
X81094500Y-57728370D01*
X81094500Y-59799999D01*
X81112427Y-59866905D01*
X81116652Y-59898998D01*
X81116652Y-59963870D01*
X81111629Y-59998806D01*
X81100799Y-60035687D01*
X81100797Y-60035697D01*
X81094500Y-60079496D01*
X81094500Y-60826245D01*
X81074815Y-60893284D01*
X81022011Y-60939039D01*
X80952853Y-60948983D01*
X80916040Y-60937646D01*
X80808626Y-60885134D01*
X80798198Y-60883614D01*
X80735636Y-60874500D01*
X80214364Y-60874500D01*
X80141375Y-60885134D01*
X80141373Y-60885134D01*
X80141371Y-60885135D01*
X80028789Y-60940172D01*
X80028787Y-60940174D01*
X79940176Y-61028786D01*
X79940174Y-61028788D01*
X79937219Y-61034833D01*
X79890090Y-61086414D01*
X79825820Y-61104370D01*
X79490652Y-61104370D01*
X79423613Y-61084685D01*
X79377858Y-61031881D01*
X79366652Y-60980370D01*
X79366652Y-57728370D01*
X79386337Y-57661331D01*
X79439141Y-57615576D01*
X79490652Y-57604370D01*
X80970500Y-57604370D01*
X81037539Y-57624055D01*
G37*
%TD.AperFunction*%
%TD*%
%TA.AperFunction,Conductor*%
%TO.N,GND*%
G36*
X83000000Y-59800000D02*
G01*
X81250000Y-59800000D01*
X81250000Y-57050000D01*
X83000000Y-57050000D01*
X83000000Y-59800000D01*
G37*
%TD.AperFunction*%
%TD*%
%TA.AperFunction,Conductor*%
%TO.N,GND*%
G36*
X69969504Y-37884425D02*
G01*
X69972860Y-37887781D01*
X69972861Y-37887782D01*
X70112218Y-38027139D01*
X70150997Y-38053050D01*
X70276079Y-38136628D01*
X70276083Y-38136630D01*
X70276086Y-38136632D01*
X70288383Y-38141725D01*
X70334910Y-38181461D01*
X70349500Y-38233190D01*
X70349500Y-41447273D01*
X70349500Y-41552727D01*
X70352760Y-41564893D01*
X70376794Y-41654592D01*
X70432764Y-41751533D01*
X70431507Y-41752258D01*
X70449466Y-41802957D01*
X70449500Y-41805557D01*
X70449500Y-42537948D01*
X70430593Y-42596139D01*
X70381093Y-42632103D01*
X70379728Y-42632535D01*
X70373608Y-42634425D01*
X70268518Y-42685801D01*
X70185801Y-42768518D01*
X70134427Y-42873604D01*
X70134427Y-42873607D01*
X70124500Y-42941740D01*
X70124500Y-43558260D01*
X70126632Y-43572890D01*
X70134427Y-43626395D01*
X70173126Y-43705554D01*
X70185802Y-43731483D01*
X70268517Y-43814198D01*
X70373607Y-43865573D01*
X70373611Y-43865573D01*
X70379721Y-43867462D01*
X70429739Y-43902702D01*
X70449490Y-43960612D01*
X70449500Y-43962051D01*
X70449500Y-44682477D01*
X70430593Y-44740668D01*
X70420509Y-44752474D01*
X70373484Y-44799500D01*
X70339940Y-44833044D01*
X70315236Y-44865239D01*
X70315234Y-44865243D01*
X70264952Y-44952335D01*
X70249406Y-44979261D01*
X70233876Y-45016753D01*
X70233874Y-45016760D01*
X70203258Y-45131020D01*
X70199798Y-45143932D01*
X70194500Y-45184174D01*
X70194500Y-45815826D01*
X70199799Y-45856073D01*
X70233874Y-45983240D01*
X70249408Y-46020743D01*
X70315234Y-46134757D01*
X70315236Y-46134760D01*
X70339940Y-46166955D01*
X70339942Y-46166957D01*
X70339946Y-46166962D01*
X70433038Y-46260054D01*
X70433042Y-46260057D01*
X70433044Y-46260059D01*
X70465242Y-46284766D01*
X70490768Y-46299503D01*
X70550000Y-46333700D01*
X70590941Y-46379168D01*
X70599500Y-46419436D01*
X70599500Y-46609828D01*
X70637634Y-46701894D01*
X70637635Y-46701895D01*
X70637636Y-46701897D01*
X70954256Y-47018517D01*
X71228080Y-47292341D01*
X71255857Y-47346858D01*
X71249542Y-47400227D01*
X71239870Y-47423579D01*
X71199500Y-47626532D01*
X71199500Y-47833467D01*
X71239869Y-48036418D01*
X71319058Y-48227597D01*
X71354080Y-48280011D01*
X71434023Y-48399655D01*
X71580345Y-48545977D01*
X71752402Y-48660941D01*
X71943580Y-48740130D01*
X72146535Y-48780500D01*
X72146536Y-48780500D01*
X72353464Y-48780500D01*
X72353465Y-48780500D01*
X72556420Y-48740130D01*
X72747598Y-48660941D01*
X72919655Y-48545977D01*
X73065977Y-48399655D01*
X73180941Y-48227598D01*
X73260130Y-48036420D01*
X73300500Y-47833465D01*
X73300500Y-47626535D01*
X73260130Y-47423580D01*
X73180941Y-47232402D01*
X73065977Y-47060345D01*
X72919655Y-46914023D01*
X72890181Y-46894329D01*
X72747597Y-46799058D01*
X72556418Y-46719869D01*
X72353467Y-46679500D01*
X72353465Y-46679500D01*
X72146535Y-46679500D01*
X72146532Y-46679500D01*
X71943581Y-46719869D01*
X71752402Y-46799058D01*
X71634675Y-46877721D01*
X71575787Y-46894329D01*
X71518383Y-46873151D01*
X71509670Y-46865409D01*
X71218765Y-46574504D01*
X71190988Y-46519987D01*
X71200559Y-46459555D01*
X71243824Y-46416290D01*
X71288769Y-46405500D01*
X71349998Y-46405500D01*
X71350000Y-46405500D01*
X71427750Y-46384667D01*
X71429998Y-46382418D01*
X71484513Y-46354643D01*
X71544945Y-46364214D01*
X71570000Y-46382417D01*
X71572250Y-46384667D01*
X71650000Y-46405500D01*
X71650002Y-46405500D01*
X72215825Y-46405500D01*
X72215826Y-46405500D01*
X72256073Y-46400201D01*
X72383240Y-46366126D01*
X72420743Y-46350592D01*
X72534757Y-46284766D01*
X72566962Y-46260054D01*
X72660054Y-46166962D01*
X72684766Y-46134757D01*
X72750592Y-46020743D01*
X72766126Y-45983240D01*
X72800201Y-45856073D01*
X72805500Y-45815826D01*
X72805500Y-45184174D01*
X72800201Y-45143927D01*
X72766126Y-45016760D01*
X72750592Y-44979257D01*
X72684766Y-44865243D01*
X72660054Y-44833038D01*
X72646517Y-44819501D01*
X72618742Y-44764987D01*
X72628313Y-44704555D01*
X72671578Y-44661290D01*
X72716523Y-44650500D01*
X73166160Y-44650500D01*
X73215658Y-44663763D01*
X73306814Y-44716392D01*
X73434108Y-44750500D01*
X73434110Y-44750500D01*
X73565890Y-44750500D01*
X73565892Y-44750500D01*
X73693186Y-44716392D01*
X73784341Y-44663763D01*
X73833840Y-44650500D01*
X74002725Y-44650500D01*
X74002727Y-44650500D01*
X74104588Y-44623207D01*
X74104590Y-44623205D01*
X74104592Y-44623205D01*
X74195913Y-44570480D01*
X74296429Y-44469963D01*
X74339070Y-44427321D01*
X74388334Y-44400522D01*
X74388978Y-44400383D01*
X74465117Y-44385240D01*
X74467687Y-44383522D01*
X74479762Y-44380936D01*
X74501656Y-44383202D01*
X74523602Y-44381473D01*
X74531458Y-44386286D01*
X74540623Y-44387235D01*
X74557005Y-44401939D01*
X74575774Y-44413438D01*
X74579300Y-44421948D01*
X74586157Y-44428103D01*
X74590768Y-44449626D01*
X74599194Y-44469963D01*
X74599500Y-44477740D01*
X74599500Y-44666159D01*
X74586236Y-44715659D01*
X74533609Y-44806810D01*
X74533607Y-44806814D01*
X74506365Y-44908482D01*
X74480743Y-44952861D01*
X73929520Y-45504086D01*
X73929516Y-45504091D01*
X73876794Y-45595407D01*
X73876793Y-45595412D01*
X73858863Y-45662328D01*
X73858863Y-45662329D01*
X73858862Y-45662328D01*
X73849500Y-45697271D01*
X73849500Y-46102726D01*
X73871127Y-46183443D01*
X73874500Y-46209063D01*
X73874500Y-46263396D01*
X73874501Y-46263404D01*
X73889759Y-46340116D01*
X73889760Y-46340118D01*
X73940657Y-46416290D01*
X73947888Y-46427112D01*
X74034883Y-46485240D01*
X74111599Y-46500500D01*
X74388400Y-46500499D01*
X74465117Y-46485240D01*
X74552112Y-46427112D01*
X74610240Y-46340117D01*
X74625500Y-46263401D01*
X74625499Y-46209061D01*
X74628873Y-46183437D01*
X74633288Y-46166962D01*
X74650500Y-46102727D01*
X74650500Y-45956899D01*
X74669407Y-45898708D01*
X74679490Y-45886902D01*
X75047136Y-45519255D01*
X75087629Y-45494760D01*
X75089545Y-45494161D01*
X75193186Y-45466392D01*
X75210514Y-45456387D01*
X75220991Y-45453116D01*
X75241138Y-45453347D01*
X75260844Y-45449158D01*
X75271026Y-45453690D01*
X75282173Y-45453819D01*
X75298335Y-45465847D01*
X75316740Y-45474041D01*
X75322313Y-45483693D01*
X75331256Y-45490349D01*
X75337260Y-45509579D01*
X75347336Y-45527028D01*
X75349500Y-45547616D01*
X75349500Y-45981024D01*
X75330593Y-46039215D01*
X75320504Y-46051027D01*
X74928520Y-46443011D01*
X74928516Y-46443016D01*
X74875794Y-46534332D01*
X74855677Y-46609413D01*
X74848500Y-46636198D01*
X74848500Y-50044099D01*
X74829593Y-50102290D01*
X74819504Y-50114103D01*
X74179516Y-50754091D01*
X74126795Y-50845406D01*
X74126793Y-50845410D01*
X74126793Y-50845412D01*
X74124115Y-50855407D01*
X74100493Y-50943569D01*
X74100489Y-50943582D01*
X74099500Y-50947268D01*
X74099500Y-51538257D01*
X74080593Y-51596448D01*
X74031093Y-51632412D01*
X73984406Y-51632754D01*
X73984001Y-51635536D01*
X73976394Y-51634427D01*
X73976393Y-51634427D01*
X73908260Y-51624500D01*
X73441740Y-51624500D01*
X73407673Y-51629463D01*
X73373604Y-51634427D01*
X73268518Y-51685801D01*
X73185801Y-51768518D01*
X73143919Y-51854190D01*
X73101375Y-51898164D01*
X73041109Y-51908733D01*
X72986141Y-51881860D01*
X72984974Y-51880713D01*
X72593765Y-51489504D01*
X72565988Y-51434987D01*
X72575559Y-51374555D01*
X72618824Y-51331290D01*
X72663769Y-51320500D01*
X73164819Y-51320500D01*
X73164820Y-51320500D01*
X73164821Y-51320499D01*
X73164827Y-51320499D01*
X73186623Y-51316162D01*
X73208722Y-51311767D01*
X73258504Y-51278504D01*
X73291767Y-51228722D01*
X73300500Y-51184820D01*
X73300500Y-49355180D01*
X73300499Y-49355178D01*
X73300499Y-49355172D01*
X73291767Y-49311279D01*
X73291765Y-49311275D01*
X73258505Y-49261498D01*
X73258504Y-49261496D01*
X73228177Y-49241232D01*
X73208724Y-49228234D01*
X73208720Y-49228232D01*
X73164827Y-49219500D01*
X73164820Y-49219500D01*
X71335180Y-49219500D01*
X71335172Y-49219500D01*
X71291279Y-49228232D01*
X71291275Y-49228234D01*
X71241498Y-49261494D01*
X71241494Y-49261498D01*
X71208234Y-49311275D01*
X71208232Y-49311279D01*
X71199500Y-49355172D01*
X71199500Y-51184827D01*
X71208232Y-51228720D01*
X71208233Y-51228722D01*
X71241496Y-51278504D01*
X71291278Y-51311767D01*
X71302327Y-51313964D01*
X71335172Y-51320499D01*
X71335178Y-51320499D01*
X71335180Y-51320500D01*
X71900500Y-51320500D01*
X71958691Y-51339407D01*
X71994655Y-51388907D01*
X71999500Y-51419500D01*
X71999500Y-51549828D01*
X72037634Y-51641894D01*
X72037635Y-51641895D01*
X72037636Y-51641897D01*
X72858103Y-52462364D01*
X72858104Y-52462364D01*
X72858105Y-52462365D01*
X72950171Y-52500500D01*
X72950172Y-52500500D01*
X73030463Y-52500500D01*
X73088654Y-52519407D01*
X73124618Y-52568907D01*
X73128428Y-52585225D01*
X73134426Y-52626392D01*
X73166114Y-52691211D01*
X73185802Y-52731483D01*
X73268517Y-52814198D01*
X73309242Y-52834107D01*
X73373604Y-52865572D01*
X73373605Y-52865572D01*
X73373607Y-52865573D01*
X73441740Y-52875500D01*
X73441743Y-52875500D01*
X73908257Y-52875500D01*
X73908260Y-52875500D01*
X73976393Y-52865573D01*
X73976394Y-52865572D01*
X73984001Y-52864464D01*
X73984421Y-52867348D01*
X74032433Y-52868034D01*
X74081415Y-52904700D01*
X74099500Y-52961742D01*
X74099500Y-53052727D01*
X74123570Y-53142559D01*
X74126794Y-53154592D01*
X74179516Y-53245908D01*
X74179518Y-53245910D01*
X74179520Y-53245913D01*
X75504087Y-54570480D01*
X75504089Y-54570481D01*
X75507286Y-54573678D01*
X75535063Y-54628195D01*
X75525492Y-54688627D01*
X75507288Y-54713682D01*
X75478594Y-54742377D01*
X75452453Y-54768518D01*
X75401079Y-54873604D01*
X75401079Y-54873607D01*
X75391152Y-54941740D01*
X75391152Y-55558260D01*
X75392264Y-55565890D01*
X75401079Y-55626395D01*
X75436296Y-55698432D01*
X75452454Y-55731483D01*
X75470971Y-55750000D01*
X75116652Y-55750000D01*
X75116652Y-58137529D01*
X75076917Y-58097794D01*
X74974143Y-58052415D01*
X74974142Y-58052414D01*
X74974140Y-58052414D01*
X74949021Y-58049500D01*
X74949017Y-58049500D01*
X74641152Y-58049500D01*
X74582961Y-58030593D01*
X74546997Y-57981093D01*
X74542152Y-57950500D01*
X74542152Y-57452252D01*
X74561059Y-57394061D01*
X74597672Y-57363311D01*
X74619498Y-57352641D01*
X74698135Y-57314198D01*
X74780850Y-57231483D01*
X74832225Y-57126393D01*
X74842152Y-57058260D01*
X74842152Y-56441740D01*
X74832225Y-56373607D01*
X74827696Y-56364343D01*
X74807135Y-56322285D01*
X74780850Y-56268517D01*
X74698135Y-56185802D01*
X74697842Y-56185659D01*
X74597672Y-56136689D01*
X74580450Y-56120027D01*
X74561059Y-56105939D01*
X74558845Y-56099125D01*
X74553698Y-56094146D01*
X74542152Y-56047748D01*
X74542152Y-55952252D01*
X74561059Y-55894061D01*
X74597672Y-55863311D01*
X74698135Y-55814198D01*
X74780850Y-55731483D01*
X74832225Y-55626393D01*
X74842152Y-55558260D01*
X74842152Y-54941740D01*
X74832225Y-54873607D01*
X74827696Y-54864343D01*
X74787967Y-54783076D01*
X74780850Y-54768517D01*
X74698135Y-54685802D01*
X74682890Y-54678349D01*
X74593047Y-54634427D01*
X74565791Y-54630456D01*
X74524912Y-54624500D01*
X74058392Y-54624500D01*
X74033032Y-54628195D01*
X73990256Y-54634427D01*
X73885170Y-54685801D01*
X73802453Y-54768518D01*
X73751079Y-54873604D01*
X73751079Y-54873607D01*
X73741152Y-54941740D01*
X73741152Y-55558260D01*
X73742264Y-55565890D01*
X73751079Y-55626395D01*
X73786296Y-55698432D01*
X73802454Y-55731483D01*
X73885169Y-55814198D01*
X73985632Y-55863311D01*
X74002853Y-55879972D01*
X74022245Y-55894061D01*
X74024458Y-55900874D01*
X74029606Y-55905854D01*
X74041152Y-55952252D01*
X74041152Y-56047748D01*
X74022245Y-56105939D01*
X73985632Y-56136689D01*
X73885170Y-56185801D01*
X73802453Y-56268518D01*
X73751079Y-56373604D01*
X73751079Y-56373607D01*
X73741152Y-56441740D01*
X73741152Y-57058260D01*
X73747199Y-57099765D01*
X73751079Y-57126395D01*
X73789797Y-57205593D01*
X73802454Y-57231483D01*
X73885169Y-57314198D01*
X73963806Y-57352641D01*
X73985632Y-57363311D01*
X74029606Y-57405854D01*
X74041152Y-57452252D01*
X74041152Y-57950500D01*
X74022245Y-58008691D01*
X73972745Y-58044655D01*
X73942153Y-58049500D01*
X73834290Y-58049500D01*
X73834287Y-58049501D01*
X73809161Y-58052414D01*
X73706387Y-58097794D01*
X73626946Y-58177235D01*
X73581566Y-58280011D01*
X73578652Y-58305130D01*
X73578652Y-58694860D01*
X73578653Y-58694863D01*
X73581566Y-58719990D01*
X73594817Y-58750000D01*
X72913487Y-58750000D01*
X72926737Y-58719991D01*
X72929652Y-58694865D01*
X72929651Y-58305136D01*
X72926737Y-58280009D01*
X72881358Y-58177235D01*
X72801917Y-58097794D01*
X72699143Y-58052415D01*
X72699142Y-58052414D01*
X72699140Y-58052414D01*
X72674021Y-58049500D01*
X72674017Y-58049500D01*
X72061421Y-58049500D01*
X72003230Y-58030593D01*
X71991417Y-58020504D01*
X71347748Y-57376835D01*
X71319971Y-57322318D01*
X71328812Y-57263350D01*
X71348921Y-57222219D01*
X71358848Y-57154086D01*
X71358848Y-56995827D01*
X71858349Y-56995827D01*
X71858349Y-57152311D01*
X71873181Y-57245967D01*
X71873184Y-57245977D01*
X71930706Y-57358869D01*
X72020304Y-57448467D01*
X72133196Y-57505989D01*
X72133200Y-57505990D01*
X72226863Y-57520825D01*
X72308347Y-57520824D01*
X72308348Y-57520824D01*
X72308348Y-56995827D01*
X72608348Y-56995827D01*
X72608348Y-57520824D01*
X72608349Y-57520825D01*
X72689831Y-57520825D01*
X72689833Y-57520824D01*
X72783489Y-57505992D01*
X72783499Y-57505989D01*
X72896391Y-57448467D01*
X72985989Y-57358869D01*
X73043511Y-57245977D01*
X73043512Y-57245973D01*
X73058348Y-57152310D01*
X73058348Y-56995827D01*
X73058347Y-56995826D01*
X72608349Y-56995826D01*
X72608348Y-56995827D01*
X72308348Y-56995827D01*
X72308347Y-56995826D01*
X71858350Y-56995826D01*
X71858349Y-56995827D01*
X71358848Y-56995827D01*
X71358848Y-56539341D01*
X71858348Y-56539341D01*
X71858348Y-56695825D01*
X71858349Y-56695826D01*
X72308347Y-56695826D01*
X72308348Y-56695825D01*
X72308348Y-56170827D01*
X72608348Y-56170827D01*
X72608348Y-56695825D01*
X72608349Y-56695826D01*
X73058346Y-56695826D01*
X73058347Y-56695825D01*
X73058347Y-56539342D01*
X73058346Y-56539340D01*
X73043514Y-56445684D01*
X73043511Y-56445674D01*
X72985989Y-56332782D01*
X72896391Y-56243184D01*
X72783499Y-56185662D01*
X72783495Y-56185661D01*
X72689832Y-56170826D01*
X72608349Y-56170826D01*
X72608348Y-56170827D01*
X72308348Y-56170827D01*
X72308346Y-56170825D01*
X72226865Y-56170826D01*
X72226862Y-56170827D01*
X72133206Y-56185659D01*
X72133196Y-56185662D01*
X72020304Y-56243184D01*
X71930706Y-56332782D01*
X71873184Y-56445674D01*
X71873183Y-56445678D01*
X71858348Y-56539341D01*
X71358848Y-56539341D01*
X71358848Y-56537566D01*
X71348921Y-56469433D01*
X71297546Y-56364343D01*
X71214831Y-56281628D01*
X71109741Y-56230253D01*
X71109739Y-56230252D01*
X71109742Y-56230252D01*
X71085224Y-56226680D01*
X71077512Y-56222870D01*
X71068907Y-56222870D01*
X71050625Y-56209587D01*
X71030368Y-56199580D01*
X71026367Y-56191963D01*
X71019407Y-56186906D01*
X71012424Y-56165415D01*
X71001918Y-56145411D01*
X71000500Y-56128715D01*
X71000500Y-56062936D01*
X71019407Y-56004745D01*
X71068907Y-55968781D01*
X71085219Y-55964971D01*
X71109741Y-55961399D01*
X71214831Y-55910024D01*
X71297546Y-55827309D01*
X71348921Y-55722219D01*
X71358848Y-55654086D01*
X71358848Y-55037566D01*
X71348921Y-54969433D01*
X71297546Y-54864343D01*
X71214831Y-54781628D01*
X71188012Y-54768517D01*
X71109743Y-54730253D01*
X71082487Y-54726282D01*
X71041608Y-54720326D01*
X70575088Y-54720326D01*
X70541021Y-54725289D01*
X70506952Y-54730253D01*
X70401866Y-54781627D01*
X70319149Y-54864344D01*
X70267775Y-54969430D01*
X70267775Y-54969433D01*
X70257848Y-55037566D01*
X70257848Y-55654086D01*
X70264309Y-55698432D01*
X70267775Y-55722221D01*
X70315813Y-55820483D01*
X70319150Y-55827309D01*
X70401865Y-55910024D01*
X70401866Y-55910024D01*
X70401867Y-55910025D01*
X70443979Y-55930612D01*
X70461199Y-55947271D01*
X70480593Y-55961362D01*
X70482806Y-55968175D01*
X70487954Y-55973155D01*
X70499500Y-56019553D01*
X70499500Y-56172097D01*
X70480593Y-56230288D01*
X70443982Y-56261037D01*
X70401867Y-56281626D01*
X70319149Y-56364344D01*
X70267775Y-56469430D01*
X70267775Y-56469433D01*
X70257848Y-56537566D01*
X70257848Y-57154086D01*
X70264466Y-57199508D01*
X70267775Y-57222221D01*
X70304308Y-57296949D01*
X70319150Y-57327309D01*
X70401865Y-57410024D01*
X70442651Y-57429963D01*
X70506952Y-57461398D01*
X70506953Y-57461398D01*
X70506955Y-57461399D01*
X70575088Y-57471326D01*
X70692709Y-57471326D01*
X70750900Y-57490233D01*
X70762713Y-57500322D01*
X71330849Y-58068458D01*
X71358626Y-58122975D01*
X71351410Y-58178450D01*
X71306566Y-58280011D01*
X71303652Y-58305130D01*
X71303652Y-58694860D01*
X71303653Y-58694863D01*
X71306566Y-58719990D01*
X71331908Y-58777385D01*
X71351946Y-58822765D01*
X71431387Y-58902206D01*
X71534161Y-58947585D01*
X71559287Y-58950500D01*
X72674016Y-58950499D01*
X72699143Y-58947585D01*
X72801917Y-58902206D01*
X72866652Y-58837471D01*
X72866652Y-60051933D01*
X72865037Y-60049136D01*
X72864843Y-60048794D01*
X72864766Y-60048423D01*
X72858811Y-60034401D01*
X72858464Y-60034543D01*
X72856426Y-60029561D01*
X72824493Y-59970667D01*
X72824492Y-59970665D01*
X72824488Y-59970658D01*
X72778733Y-59917854D01*
X72773755Y-59912379D01*
X72705028Y-59870485D01*
X72696153Y-59867879D01*
X72637986Y-59850799D01*
X72637982Y-59850798D01*
X72637981Y-59850798D01*
X72594179Y-59844500D01*
X72594175Y-59844500D01*
X70990652Y-59844500D01*
X70961644Y-59847618D01*
X70957587Y-59848055D01*
X70906088Y-59859259D01*
X70906087Y-59859259D01*
X70837311Y-59893686D01*
X70837305Y-59893690D01*
X70784513Y-59939435D01*
X70779031Y-59944419D01*
X70737137Y-60013146D01*
X70732186Y-60030006D01*
X70718319Y-60077235D01*
X70717450Y-60080193D01*
X70711152Y-60123995D01*
X70711152Y-60124000D01*
X70711152Y-67376000D01*
X70713942Y-67401946D01*
X70714707Y-67409064D01*
X70725911Y-67460563D01*
X70725911Y-67460564D01*
X70725911Y-67460565D01*
X70725912Y-67460566D01*
X70760339Y-67529342D01*
X70806094Y-67582146D01*
X70811072Y-67587621D01*
X70841730Y-67606309D01*
X70879798Y-67629514D01*
X70879799Y-67629514D01*
X70879802Y-67629516D01*
X70946841Y-67649201D01*
X70968746Y-67652350D01*
X70990648Y-67655500D01*
X70990652Y-67655500D01*
X78992647Y-67655500D01*
X78992652Y-67655500D01*
X79025707Y-67651946D01*
X79077218Y-67640740D01*
X79145994Y-67606313D01*
X79198798Y-67560558D01*
X79204273Y-67555580D01*
X79246168Y-67486850D01*
X79265853Y-67419811D01*
X79270033Y-67390740D01*
X79272152Y-67376004D01*
X79272152Y-64529504D01*
X79272152Y-64529500D01*
X79268598Y-64496445D01*
X79257392Y-64444934D01*
X79222965Y-64376158D01*
X79220193Y-64370620D01*
X79222693Y-64369368D01*
X79209201Y-64321526D01*
X79223591Y-64273888D01*
X79246168Y-64236850D01*
X79265853Y-64169811D01*
X79270080Y-64140414D01*
X79272152Y-64126004D01*
X79272152Y-62820223D01*
X79291059Y-62762032D01*
X79305785Y-62745872D01*
X79313153Y-62739393D01*
X79345913Y-62720480D01*
X79427741Y-62638651D01*
X79430133Y-62636549D01*
X79455441Y-62625638D01*
X79480013Y-62613119D01*
X79483281Y-62613636D01*
X79486319Y-62612327D01*
X79513211Y-62618376D01*
X79540445Y-62622690D01*
X79542784Y-62625029D01*
X79546013Y-62625756D01*
X79564215Y-62646460D01*
X79583710Y-62665955D01*
X79584594Y-62669641D01*
X79586412Y-62671708D01*
X79587249Y-62680697D01*
X79594500Y-62710900D01*
X79594500Y-67126000D01*
X79598054Y-67159055D01*
X79598055Y-67159064D01*
X79609259Y-67210563D01*
X79609259Y-67210564D01*
X79609259Y-67210565D01*
X79609260Y-67210566D01*
X79643687Y-67279342D01*
X79689442Y-67332146D01*
X79694420Y-67337621D01*
X79725078Y-67356309D01*
X79763146Y-67379514D01*
X79763147Y-67379514D01*
X79763150Y-67379516D01*
X79830189Y-67399201D01*
X79852094Y-67402350D01*
X79873996Y-67405500D01*
X79874000Y-67405500D01*
X79975500Y-67405500D01*
X80033691Y-67424407D01*
X80069655Y-67473907D01*
X80074500Y-67504500D01*
X80074500Y-69818099D01*
X80055593Y-69876290D01*
X80045504Y-69888102D01*
X79929520Y-70004086D01*
X79929516Y-70004091D01*
X79876793Y-70095411D01*
X79876792Y-70095411D01*
X79876793Y-70095412D01*
X79849500Y-70197273D01*
X79849500Y-71334412D01*
X79830593Y-71392603D01*
X79793982Y-71423352D01*
X79768519Y-71435800D01*
X79685801Y-71518518D01*
X79634427Y-71623604D01*
X79634427Y-71623607D01*
X79624500Y-71691740D01*
X79624500Y-72158260D01*
X79630565Y-72199884D01*
X79634427Y-72226395D01*
X79685801Y-72331481D01*
X79685802Y-72331483D01*
X79768517Y-72414198D01*
X79822285Y-72440483D01*
X79873604Y-72465572D01*
X79873605Y-72465572D01*
X79873607Y-72465573D01*
X79941740Y-72475500D01*
X79941743Y-72475500D01*
X80558257Y-72475500D01*
X80558260Y-72475500D01*
X80626393Y-72465573D01*
X80731483Y-72414198D01*
X80814198Y-72331483D01*
X80865573Y-72226393D01*
X80875500Y-72158260D01*
X80875500Y-71850001D01*
X81575001Y-71850001D01*
X81575001Y-71924127D01*
X81580990Y-71969625D01*
X81580991Y-71969630D01*
X81627564Y-72069505D01*
X81705494Y-72147435D01*
X81805367Y-72194007D01*
X81805377Y-72194010D01*
X81849998Y-72199884D01*
X81850000Y-72199883D01*
X81850000Y-71850001D01*
X82150000Y-71850001D01*
X82150000Y-72199883D01*
X82194625Y-72194009D01*
X82194630Y-72194008D01*
X82294505Y-72147435D01*
X82372435Y-72069505D01*
X82419008Y-71969631D01*
X82419008Y-71969630D01*
X82424999Y-71924121D01*
X82425000Y-71924120D01*
X82425000Y-71850001D01*
X82424999Y-71850000D01*
X82150001Y-71850000D01*
X82150000Y-71850001D01*
X81850000Y-71850001D01*
X81849999Y-71850000D01*
X81575002Y-71850000D01*
X81575001Y-71850001D01*
X80875500Y-71850001D01*
X80875500Y-71691740D01*
X80865573Y-71623607D01*
X80814198Y-71518517D01*
X80771559Y-71475878D01*
X81575000Y-71475878D01*
X81575000Y-71549999D01*
X81575001Y-71550000D01*
X81849999Y-71550000D01*
X81850000Y-71549999D01*
X82150000Y-71549999D01*
X82150001Y-71550000D01*
X82424998Y-71550000D01*
X82424999Y-71549999D01*
X82424999Y-71475883D01*
X82424998Y-71475872D01*
X82419009Y-71430374D01*
X82419008Y-71430369D01*
X82372435Y-71330494D01*
X82294505Y-71252564D01*
X82194634Y-71205993D01*
X82194627Y-71205991D01*
X82150000Y-71200115D01*
X82150000Y-71549999D01*
X81850000Y-71549999D01*
X81850000Y-71200116D01*
X81849999Y-71200115D01*
X81805377Y-71205989D01*
X81805367Y-71205992D01*
X81705494Y-71252564D01*
X81627564Y-71330494D01*
X81580991Y-71430368D01*
X81580991Y-71430369D01*
X81575000Y-71475878D01*
X80771559Y-71475878D01*
X80731483Y-71435802D01*
X80731481Y-71435801D01*
X80731480Y-71435800D01*
X80706018Y-71423352D01*
X80662044Y-71380807D01*
X80650500Y-71334412D01*
X80650500Y-70456900D01*
X80669407Y-70398709D01*
X80679490Y-70386902D01*
X80795480Y-70270913D01*
X80795483Y-70270908D01*
X80848205Y-70179592D01*
X80848205Y-70179590D01*
X80848207Y-70179588D01*
X80875500Y-70077727D01*
X80875500Y-69972273D01*
X80875500Y-67504427D01*
X80894407Y-67446236D01*
X80943907Y-67410272D01*
X80967866Y-67405818D01*
X80967863Y-67405783D01*
X80968326Y-67405733D01*
X80969215Y-67405568D01*
X80970483Y-67405500D01*
X80970500Y-67405500D01*
X81003555Y-67401946D01*
X81055066Y-67390740D01*
X81123842Y-67356313D01*
X81176646Y-67310558D01*
X81182121Y-67305580D01*
X81224016Y-67236850D01*
X81243701Y-67169811D01*
X81247200Y-67145471D01*
X81250000Y-67126004D01*
X81250000Y-67500000D01*
X83250000Y-67500000D01*
X83250000Y-63750000D01*
X82876000Y-63750000D01*
X82909055Y-63746446D01*
X82960566Y-63735240D01*
X83029342Y-63700813D01*
X83082146Y-63655058D01*
X83087621Y-63650080D01*
X83129516Y-63581350D01*
X83149201Y-63514311D01*
X83152700Y-63489971D01*
X83155500Y-63470504D01*
X83155500Y-60079504D01*
X83154560Y-60070758D01*
X83151946Y-60046445D01*
X83140740Y-59994934D01*
X83106313Y-59926158D01*
X83094373Y-59912379D01*
X83060564Y-59873361D01*
X83057948Y-59870484D01*
X83055580Y-59867879D01*
X83046797Y-59862525D01*
X82986853Y-59825985D01*
X82986850Y-59825984D01*
X82919811Y-59806299D01*
X82919807Y-59806298D01*
X82919806Y-59806298D01*
X82876004Y-59800000D01*
X83000000Y-59800000D01*
X83000000Y-57050000D01*
X81250000Y-57050000D01*
X81250000Y-57728374D01*
X81249999Y-57728365D01*
X81246446Y-57695315D01*
X81235240Y-57643804D01*
X81200813Y-57575028D01*
X81155058Y-57522224D01*
X81150080Y-57516749D01*
X81081353Y-57474855D01*
X81081350Y-57474854D01*
X81014311Y-57455169D01*
X81014307Y-57455168D01*
X81014306Y-57455168D01*
X80970504Y-57448870D01*
X80970500Y-57448870D01*
X80620416Y-57448870D01*
X80562225Y-57429963D01*
X80532207Y-57394816D01*
X80528051Y-57386660D01*
X80528050Y-57386658D01*
X80438342Y-57296950D01*
X80325304Y-57239354D01*
X80325305Y-57239354D01*
X80231522Y-57224500D01*
X80231519Y-57224500D01*
X79991152Y-57224500D01*
X79932961Y-57205593D01*
X79896997Y-57156093D01*
X79892152Y-57125500D01*
X79892152Y-56975171D01*
X79854016Y-56883103D01*
X79783549Y-56812635D01*
X79783549Y-56812636D01*
X79116652Y-56145739D01*
X79116652Y-55750000D01*
X78720913Y-55750000D01*
X78008549Y-55037636D01*
X78008547Y-55037635D01*
X78008546Y-55037634D01*
X77916481Y-54999500D01*
X77916480Y-54999500D01*
X76586189Y-54999500D01*
X76527998Y-54980593D01*
X76493057Y-54934076D01*
X76489664Y-54924665D01*
X76482225Y-54873607D01*
X76440445Y-54788145D01*
X76438618Y-54783076D01*
X76437806Y-54757624D01*
X76434238Y-54732399D01*
X76436846Y-54727482D01*
X76436669Y-54721922D01*
X76450973Y-54700853D01*
X76462913Y-54678349D01*
X76467912Y-54675904D01*
X76471038Y-54671302D01*
X76494997Y-54662663D01*
X76517882Y-54651476D01*
X76528003Y-54650763D01*
X76528596Y-54650550D01*
X76529073Y-54650688D01*
X76531750Y-54650500D01*
X78043099Y-54650500D01*
X78101290Y-54669407D01*
X78113103Y-54679496D01*
X79254087Y-55820480D01*
X79254089Y-55820481D01*
X79254090Y-55820482D01*
X79254091Y-55820483D01*
X79345408Y-55873205D01*
X79345406Y-55873205D01*
X79345410Y-55873206D01*
X79345412Y-55873207D01*
X79447273Y-55900500D01*
X80416160Y-55900500D01*
X80465658Y-55913763D01*
X80556814Y-55966392D01*
X80684108Y-56000500D01*
X80684110Y-56000500D01*
X80815890Y-56000500D01*
X80815892Y-56000500D01*
X80943186Y-55966392D01*
X80943188Y-55966390D01*
X80943190Y-55966390D01*
X81057309Y-55900503D01*
X81057309Y-55900502D01*
X81057314Y-55900500D01*
X81150500Y-55807314D01*
X81194281Y-55731483D01*
X81216390Y-55693190D01*
X81216390Y-55693188D01*
X81216392Y-55693186D01*
X81250500Y-55565892D01*
X81250500Y-55434108D01*
X81216392Y-55306814D01*
X81216390Y-55306811D01*
X81216390Y-55306809D01*
X81150503Y-55192690D01*
X81150501Y-55192688D01*
X81150500Y-55192686D01*
X81057314Y-55099500D01*
X81057311Y-55099498D01*
X81057309Y-55099496D01*
X80943189Y-55033609D01*
X80943191Y-55033609D01*
X80893799Y-55020375D01*
X80815892Y-54999500D01*
X80684108Y-54999500D01*
X80556814Y-55033608D01*
X80556813Y-55033608D01*
X80556811Y-55033609D01*
X80508750Y-55061357D01*
X80465658Y-55086236D01*
X80416160Y-55099500D01*
X79706901Y-55099500D01*
X79648710Y-55080593D01*
X79636897Y-55070504D01*
X79167711Y-54601318D01*
X78695878Y-54129485D01*
X78668103Y-54074971D01*
X78677674Y-54014539D01*
X78720939Y-53971274D01*
X78781370Y-53961703D01*
X78868481Y-53975500D01*
X79431518Y-53975499D01*
X79431520Y-53975499D01*
X79431521Y-53975498D01*
X79478411Y-53968072D01*
X79525299Y-53960647D01*
X79525299Y-53960646D01*
X79525304Y-53960646D01*
X79638342Y-53903050D01*
X79728050Y-53813342D01*
X79785646Y-53700304D01*
X79796906Y-53629211D01*
X79798126Y-53621512D01*
X79825904Y-53566996D01*
X79880421Y-53539219D01*
X79895907Y-53538000D01*
X80165225Y-53538000D01*
X80165227Y-53538000D01*
X80267088Y-53510707D01*
X80267090Y-53510705D01*
X80267092Y-53510705D01*
X80358408Y-53457983D01*
X80358408Y-53457982D01*
X80358413Y-53457980D01*
X80358416Y-53457976D01*
X80363559Y-53454031D01*
X80365220Y-53456195D01*
X80409470Y-53433625D01*
X80469906Y-53443171D01*
X80495003Y-53461396D01*
X81549439Y-54515832D01*
X81577216Y-54570349D01*
X81577217Y-54601318D01*
X81574500Y-54618477D01*
X81574500Y-55381521D01*
X81574501Y-55381523D01*
X81589352Y-55475299D01*
X81589354Y-55475304D01*
X81646950Y-55588342D01*
X81736658Y-55678050D01*
X81849696Y-55735646D01*
X81943481Y-55750500D01*
X83256518Y-55750499D01*
X83256521Y-55750499D01*
X83256522Y-55750498D01*
X83303411Y-55743072D01*
X83350299Y-55735647D01*
X83350299Y-55735646D01*
X83350304Y-55735646D01*
X83404554Y-55708003D01*
X83464986Y-55698432D01*
X83519503Y-55726209D01*
X83547281Y-55780725D01*
X83548500Y-55796213D01*
X83548500Y-71594098D01*
X83529593Y-71652289D01*
X83519504Y-71664102D01*
X82011192Y-73172413D01*
X81956675Y-73200190D01*
X81915566Y-73198036D01*
X81827727Y-73174500D01*
X81827726Y-73174500D01*
X80861188Y-73174500D01*
X80802997Y-73155593D01*
X80791190Y-73145509D01*
X80731483Y-73085802D01*
X80731481Y-73085801D01*
X80626395Y-73034427D01*
X80599139Y-73030456D01*
X80558260Y-73024500D01*
X79941740Y-73024500D01*
X79907673Y-73029463D01*
X79873604Y-73034427D01*
X79768518Y-73085801D01*
X79685801Y-73168518D01*
X79634427Y-73273604D01*
X79634427Y-73273607D01*
X79624500Y-73341740D01*
X79624500Y-73808260D01*
X79630582Y-73850000D01*
X79634427Y-73876394D01*
X79646955Y-73902019D01*
X79655526Y-73962601D01*
X79626851Y-74016651D01*
X79571882Y-74043524D01*
X79558014Y-74044500D01*
X77889769Y-74044500D01*
X77831578Y-74025593D01*
X77819766Y-74015504D01*
X77614470Y-73810209D01*
X77522403Y-73772074D01*
X77522402Y-73772074D01*
X75755119Y-73772074D01*
X75655464Y-73772074D01*
X75655463Y-73772074D01*
X75563397Y-73810208D01*
X75173605Y-74200000D01*
X74000000Y-74200000D01*
X74000000Y-79966410D01*
X73976719Y-79920718D01*
X73975500Y-79905231D01*
X73975500Y-79441743D01*
X73975500Y-79441740D01*
X73965573Y-79373607D01*
X73914198Y-79268517D01*
X73831483Y-79185802D01*
X73731019Y-79136688D01*
X73713798Y-79120027D01*
X73694407Y-79105939D01*
X73692193Y-79099125D01*
X73687046Y-79094146D01*
X73675500Y-79047748D01*
X73675500Y-78952252D01*
X73694407Y-78894061D01*
X73731020Y-78863311D01*
X73831483Y-78814198D01*
X73914198Y-78731483D01*
X73965573Y-78626393D01*
X73975500Y-78558260D01*
X73975500Y-77941740D01*
X73965573Y-77873607D01*
X73914198Y-77768517D01*
X73831483Y-77685802D01*
X73831481Y-77685801D01*
X73726395Y-77634427D01*
X73699139Y-77630456D01*
X73658260Y-77624500D01*
X73191740Y-77624500D01*
X73157673Y-77629463D01*
X73123604Y-77634427D01*
X73018518Y-77685801D01*
X72935801Y-77768518D01*
X72884427Y-77873604D01*
X72884427Y-77873607D01*
X72874500Y-77941740D01*
X72874500Y-78558260D01*
X72877406Y-78578202D01*
X72884427Y-78626395D01*
X72914226Y-78687349D01*
X72935802Y-78731483D01*
X73018517Y-78814198D01*
X73083134Y-78845787D01*
X73118980Y-78863311D01*
X73136201Y-78879972D01*
X73155593Y-78894061D01*
X73157806Y-78900874D01*
X73162954Y-78905854D01*
X73174500Y-78952252D01*
X73174500Y-79047748D01*
X73155593Y-79105939D01*
X73118980Y-79136689D01*
X73018518Y-79185801D01*
X72935801Y-79268518D01*
X72884427Y-79373604D01*
X72884427Y-79373607D01*
X72874500Y-79441740D01*
X72874500Y-80058260D01*
X72881118Y-80103682D01*
X72884427Y-80126395D01*
X72896041Y-80150151D01*
X72935802Y-80231483D01*
X73018517Y-80314198D01*
X73072285Y-80340483D01*
X73123604Y-80365572D01*
X73123605Y-80365572D01*
X73123607Y-80365573D01*
X73191740Y-80375500D01*
X73191743Y-80375500D01*
X73655231Y-80375500D01*
X73713422Y-80394407D01*
X73725234Y-80404496D01*
X74000000Y-80679261D01*
X74000000Y-80816367D01*
X73976917Y-80839450D01*
X73922749Y-80849191D01*
X73922722Y-80849665D01*
X73920748Y-80849550D01*
X73920576Y-80849582D01*
X73919868Y-80849500D01*
X72805139Y-80849500D01*
X72805136Y-80849501D01*
X72780009Y-80852414D01*
X72677235Y-80897794D01*
X72597793Y-80977236D01*
X72591943Y-80990487D01*
X72574739Y-81009713D01*
X72559569Y-81030593D01*
X72554615Y-81032202D01*
X72551143Y-81036083D01*
X72501378Y-81049500D01*
X72444769Y-81049500D01*
X72386578Y-81030593D01*
X72374765Y-81020504D01*
X71954496Y-80600235D01*
X71926719Y-80545718D01*
X71925500Y-80530231D01*
X71925500Y-74702252D01*
X71944407Y-74644061D01*
X71981020Y-74613311D01*
X72081483Y-74564198D01*
X72164198Y-74481483D01*
X72215573Y-74376393D01*
X72225500Y-74308260D01*
X72225500Y-74150001D01*
X72725001Y-74150001D01*
X72725001Y-74306485D01*
X72739833Y-74400141D01*
X72739836Y-74400151D01*
X72797358Y-74513043D01*
X72886956Y-74602641D01*
X72999848Y-74660163D01*
X72999852Y-74660164D01*
X73093515Y-74674999D01*
X73174999Y-74674998D01*
X73175000Y-74674998D01*
X73175000Y-74150001D01*
X73475000Y-74150001D01*
X73475000Y-74674998D01*
X73475001Y-74674999D01*
X73556483Y-74674999D01*
X73556485Y-74674998D01*
X73650141Y-74660166D01*
X73650151Y-74660163D01*
X73763043Y-74602641D01*
X73852641Y-74513043D01*
X73910163Y-74400151D01*
X73910164Y-74400147D01*
X73925000Y-74306484D01*
X73925000Y-74150001D01*
X73924999Y-74150000D01*
X73475001Y-74150000D01*
X73475000Y-74150001D01*
X73175000Y-74150001D01*
X73174999Y-74150000D01*
X72725002Y-74150000D01*
X72725001Y-74150001D01*
X72225500Y-74150001D01*
X72225500Y-73693515D01*
X72725000Y-73693515D01*
X72725000Y-73849999D01*
X72725001Y-73850000D01*
X73174999Y-73850000D01*
X73175000Y-73849999D01*
X73175000Y-73325001D01*
X73475000Y-73325001D01*
X73475000Y-73849999D01*
X73475001Y-73850000D01*
X73924998Y-73850000D01*
X73924999Y-73849999D01*
X73924999Y-73693516D01*
X73924998Y-73693514D01*
X73910166Y-73599858D01*
X73910163Y-73599848D01*
X73852641Y-73486956D01*
X73763043Y-73397358D01*
X73650151Y-73339836D01*
X73650147Y-73339835D01*
X73556484Y-73325000D01*
X73475001Y-73325000D01*
X73475000Y-73325001D01*
X73175000Y-73325001D01*
X73174998Y-73324999D01*
X73093517Y-73325000D01*
X73093514Y-73325001D01*
X72999858Y-73339833D01*
X72999848Y-73339836D01*
X72886956Y-73397358D01*
X72797358Y-73486956D01*
X72739836Y-73599848D01*
X72739835Y-73599852D01*
X72725000Y-73693515D01*
X72225500Y-73693515D01*
X72225500Y-73691740D01*
X72215573Y-73623607D01*
X72164198Y-73518517D01*
X72081483Y-73435802D01*
X71981019Y-73386688D01*
X71963798Y-73370027D01*
X71944407Y-73355939D01*
X71942193Y-73349125D01*
X71937046Y-73344146D01*
X71925500Y-73297748D01*
X71925500Y-73202252D01*
X71944407Y-73144061D01*
X71981020Y-73113311D01*
X72081483Y-73064198D01*
X72164198Y-72981483D01*
X72215573Y-72876393D01*
X72225500Y-72808260D01*
X72225500Y-72191740D01*
X72215573Y-72123607D01*
X72164198Y-72018517D01*
X72081483Y-71935802D01*
X72081481Y-71935801D01*
X71976395Y-71884427D01*
X71949139Y-71880456D01*
X71908260Y-71874500D01*
X71441740Y-71874500D01*
X71407673Y-71879463D01*
X71373604Y-71884427D01*
X71268518Y-71935801D01*
X71185801Y-72018518D01*
X71134427Y-72123604D01*
X71134427Y-72123607D01*
X71124500Y-72191740D01*
X71124500Y-72808260D01*
X71131118Y-72853682D01*
X71134427Y-72876395D01*
X71185801Y-72981481D01*
X71185802Y-72981483D01*
X71268517Y-73064198D01*
X71368980Y-73113311D01*
X71386201Y-73129972D01*
X71405593Y-73144061D01*
X71407806Y-73150874D01*
X71412954Y-73155854D01*
X71424500Y-73202252D01*
X71424500Y-73297748D01*
X71405593Y-73355939D01*
X71368980Y-73386689D01*
X71268518Y-73435801D01*
X71185801Y-73518518D01*
X71134427Y-73623604D01*
X71134427Y-73623607D01*
X71124500Y-73691740D01*
X71124500Y-74308260D01*
X71126794Y-74324004D01*
X71134427Y-74376395D01*
X71180743Y-74471135D01*
X71185802Y-74481483D01*
X71268517Y-74564198D01*
X71347154Y-74602641D01*
X71368980Y-74613311D01*
X71412954Y-74655854D01*
X71424500Y-74702252D01*
X71424500Y-80724828D01*
X71462634Y-80816894D01*
X71462635Y-80816895D01*
X71462636Y-80816897D01*
X72158103Y-81512364D01*
X72158104Y-81512364D01*
X72158105Y-81512365D01*
X72250171Y-81550500D01*
X72250172Y-81550500D01*
X72349827Y-81550500D01*
X72501378Y-81550500D01*
X72559569Y-81569407D01*
X72591942Y-81609512D01*
X72597794Y-81622765D01*
X72677235Y-81702206D01*
X72780009Y-81747585D01*
X72805135Y-81750500D01*
X73919864Y-81750499D01*
X73944991Y-81747585D01*
X74000000Y-81723296D01*
X74000000Y-81750000D01*
X74000000Y-82776703D01*
X73944991Y-82752415D01*
X73944990Y-82752414D01*
X73944988Y-82752414D01*
X73919869Y-82749500D01*
X73919865Y-82749500D01*
X73676517Y-82749500D01*
X73618326Y-82730593D01*
X73601698Y-82715331D01*
X73560564Y-82667861D01*
X73555580Y-82662379D01*
X73486853Y-82620485D01*
X73486850Y-82620484D01*
X73419811Y-82600799D01*
X73419807Y-82600798D01*
X73419806Y-82600798D01*
X73376004Y-82594500D01*
X73376000Y-82594500D01*
X71624000Y-82594500D01*
X71594992Y-82597618D01*
X71590935Y-82598055D01*
X71539436Y-82609259D01*
X71539435Y-82609259D01*
X71470659Y-82643686D01*
X71470653Y-82643690D01*
X71417861Y-82689435D01*
X71412379Y-82694419D01*
X71370485Y-82763146D01*
X71350798Y-82830193D01*
X71344500Y-82873995D01*
X71344500Y-82874000D01*
X71344500Y-90126000D01*
X71348054Y-90159055D01*
X71348055Y-90159064D01*
X71359259Y-90210563D01*
X71359259Y-90210564D01*
X71393686Y-90279340D01*
X71393687Y-90279342D01*
X71399168Y-90285667D01*
X71422987Y-90342026D01*
X71409130Y-90401622D01*
X71362890Y-90441690D01*
X71324350Y-90449500D01*
X69899500Y-90449500D01*
X69841309Y-90430593D01*
X69805345Y-90381093D01*
X69800500Y-90350500D01*
X69800500Y-70934108D01*
X72749500Y-70934108D01*
X72749500Y-71065892D01*
X72779579Y-71178151D01*
X72783609Y-71193190D01*
X72849496Y-71307309D01*
X72849498Y-71307311D01*
X72849500Y-71307314D01*
X72942686Y-71400500D01*
X72942688Y-71400501D01*
X72942690Y-71400503D01*
X73025000Y-71448025D01*
X73065941Y-71493494D01*
X73074500Y-71533761D01*
X73074500Y-71797748D01*
X73055593Y-71855939D01*
X73018980Y-71886689D01*
X72918518Y-71935801D01*
X72835801Y-72018518D01*
X72784427Y-72123604D01*
X72784427Y-72123607D01*
X72774500Y-72191740D01*
X72774500Y-72808260D01*
X72781118Y-72853682D01*
X72784427Y-72876395D01*
X72835801Y-72981481D01*
X72835802Y-72981483D01*
X72918517Y-73064198D01*
X72962707Y-73085801D01*
X73023604Y-73115572D01*
X73023605Y-73115572D01*
X73023607Y-73115573D01*
X73091740Y-73125500D01*
X73091743Y-73125500D01*
X73558257Y-73125500D01*
X73558260Y-73125500D01*
X73626393Y-73115573D01*
X73731483Y-73064198D01*
X73814198Y-72981483D01*
X73865573Y-72876393D01*
X73875500Y-72808260D01*
X73875500Y-72191740D01*
X73865573Y-72123607D01*
X73814198Y-72018517D01*
X73731483Y-71935802D01*
X73631019Y-71886688D01*
X73587046Y-71844146D01*
X73575500Y-71797748D01*
X73575500Y-71423321D01*
X73594407Y-71365130D01*
X73604490Y-71353323D01*
X73650500Y-71307314D01*
X73708998Y-71205993D01*
X73716390Y-71193190D01*
X73716390Y-71193188D01*
X73716392Y-71193186D01*
X73750500Y-71065892D01*
X73750500Y-70934108D01*
X73716392Y-70806814D01*
X73716390Y-70806811D01*
X73716390Y-70806809D01*
X73650503Y-70692690D01*
X73650501Y-70692688D01*
X73650500Y-70692686D01*
X73557314Y-70599500D01*
X73557311Y-70599498D01*
X73557309Y-70599496D01*
X73443189Y-70533609D01*
X73443191Y-70533609D01*
X73393799Y-70520375D01*
X73315892Y-70499500D01*
X73184108Y-70499500D01*
X73106200Y-70520375D01*
X73056809Y-70533609D01*
X72942690Y-70599496D01*
X72849496Y-70692690D01*
X72783609Y-70806809D01*
X72783608Y-70806814D01*
X72749500Y-70934108D01*
X69800500Y-70934108D01*
X69800500Y-54184108D01*
X71249500Y-54184108D01*
X71249500Y-54315892D01*
X71273941Y-54407108D01*
X71283609Y-54443190D01*
X71349496Y-54557309D01*
X71349498Y-54557311D01*
X71349500Y-54557314D01*
X71442686Y-54650500D01*
X71442688Y-54650501D01*
X71442690Y-54650503D01*
X71556810Y-54716390D01*
X71556808Y-54716390D01*
X71556812Y-54716391D01*
X71556814Y-54716392D01*
X71684108Y-54750500D01*
X71684110Y-54750500D01*
X71815891Y-54750500D01*
X71815892Y-54750500D01*
X71846207Y-54742377D01*
X71907305Y-54745578D01*
X71954856Y-54784082D01*
X71970693Y-54843182D01*
X71960770Y-54881483D01*
X71917775Y-54969430D01*
X71917775Y-54969433D01*
X71907848Y-55037566D01*
X71907848Y-55654086D01*
X71914309Y-55698432D01*
X71917775Y-55722221D01*
X71965813Y-55820483D01*
X71969150Y-55827309D01*
X72051865Y-55910024D01*
X72093979Y-55930612D01*
X72156952Y-55961398D01*
X72156953Y-55961398D01*
X72156955Y-55961399D01*
X72225088Y-55971326D01*
X72225091Y-55971326D01*
X72691605Y-55971326D01*
X72691608Y-55971326D01*
X72759741Y-55961399D01*
X72864831Y-55910024D01*
X72947546Y-55827309D01*
X72998921Y-55722219D01*
X73008848Y-55654086D01*
X73008848Y-55037566D01*
X72998921Y-54969433D01*
X72947546Y-54864343D01*
X72864831Y-54781628D01*
X72806018Y-54752876D01*
X72762045Y-54710333D01*
X72750500Y-54663936D01*
X72750500Y-54450171D01*
X72712364Y-54358103D01*
X72641898Y-54287636D01*
X72391896Y-54037635D01*
X72299829Y-53999500D01*
X72299828Y-53999500D01*
X72240459Y-53999500D01*
X72182268Y-53980593D01*
X72154722Y-53949999D01*
X72150500Y-53942686D01*
X72057314Y-53849500D01*
X72057311Y-53849498D01*
X72057309Y-53849496D01*
X71943189Y-53783609D01*
X71943191Y-53783609D01*
X71889627Y-53769257D01*
X71815892Y-53749500D01*
X71684108Y-53749500D01*
X71610373Y-53769257D01*
X71556809Y-53783609D01*
X71442690Y-53849496D01*
X71349496Y-53942690D01*
X71283609Y-54056809D01*
X71283608Y-54056814D01*
X71249500Y-54184108D01*
X69800500Y-54184108D01*
X69800500Y-37954429D01*
X69819407Y-37896238D01*
X69868907Y-37860274D01*
X69930093Y-37860274D01*
X69969504Y-37884425D01*
G37*
%TD.AperFunction*%
%TA.AperFunction,Conductor*%
G36*
X84145445Y-72267690D02*
G01*
X84188710Y-72310955D01*
X84199500Y-72355900D01*
X84199500Y-90350500D01*
X84180593Y-90408691D01*
X84131093Y-90444655D01*
X84100500Y-90449500D01*
X82176182Y-90449500D01*
X82117991Y-90430593D01*
X82082027Y-90381093D01*
X82082027Y-90319907D01*
X82091649Y-90298972D01*
X82129514Y-90236853D01*
X82129513Y-90236853D01*
X82129516Y-90236850D01*
X82149201Y-90169811D01*
X82152700Y-90145471D01*
X82155500Y-90126004D01*
X82155500Y-87124004D01*
X82155500Y-87124000D01*
X82151946Y-87090945D01*
X82140740Y-87039434D01*
X82106313Y-86970658D01*
X82099812Y-86963156D01*
X82060564Y-86917861D01*
X82055580Y-86912379D01*
X81986853Y-86870485D01*
X81986850Y-86870484D01*
X81919811Y-86850799D01*
X81919807Y-86850798D01*
X81919806Y-86850798D01*
X81876004Y-86844500D01*
X81876000Y-86844500D01*
X77300504Y-86844500D01*
X77242313Y-86825593D01*
X77206349Y-86776093D01*
X77206349Y-86714907D01*
X77214768Y-86695998D01*
X77216392Y-86693186D01*
X77250500Y-86565892D01*
X77250500Y-86434108D01*
X77216392Y-86306814D01*
X77216390Y-86306811D01*
X77216390Y-86306809D01*
X77150503Y-86192690D01*
X77150501Y-86192688D01*
X77150500Y-86192686D01*
X77057314Y-86099500D01*
X77057311Y-86099498D01*
X77041269Y-86090236D01*
X77000329Y-86044766D01*
X76993934Y-85983916D01*
X77024527Y-85930928D01*
X77080423Y-85906042D01*
X77090770Y-85905500D01*
X81875995Y-85905500D01*
X81876000Y-85905500D01*
X81909055Y-85901946D01*
X81960566Y-85890740D01*
X82029342Y-85856313D01*
X82082146Y-85810558D01*
X82087621Y-85805580D01*
X82129516Y-85736850D01*
X82149201Y-85669811D01*
X82152700Y-85645471D01*
X82155500Y-85626004D01*
X82155500Y-83279502D01*
X82155499Y-83279494D01*
X82153950Y-83265086D01*
X82166526Y-83205207D01*
X82211897Y-83164157D01*
X82252382Y-83155500D01*
X82625995Y-83155500D01*
X82626000Y-83155500D01*
X82659055Y-83151946D01*
X82710566Y-83140740D01*
X82779342Y-83106313D01*
X82832146Y-83060558D01*
X82837621Y-83055580D01*
X82879516Y-82986850D01*
X82899201Y-82919811D01*
X82902700Y-82895471D01*
X82905500Y-82876004D01*
X82905500Y-75124004D01*
X82905500Y-75124000D01*
X82901946Y-75090945D01*
X82890740Y-75039434D01*
X82856313Y-74970658D01*
X82810558Y-74917854D01*
X82805580Y-74912379D01*
X82736853Y-74870485D01*
X82731479Y-74868907D01*
X82669811Y-74850799D01*
X82669807Y-74850798D01*
X82669806Y-74850798D01*
X82626004Y-74844500D01*
X82626000Y-74844500D01*
X80374000Y-74844500D01*
X80344992Y-74847618D01*
X80340935Y-74848055D01*
X80289435Y-74859259D01*
X80287435Y-74859965D01*
X80286030Y-74860000D01*
X80283383Y-74860576D01*
X80283272Y-74860068D01*
X80250000Y-74860899D01*
X80250000Y-74200000D01*
X80146637Y-74200000D01*
X80148175Y-74184664D01*
X80188899Y-74139000D01*
X80238807Y-74125500D01*
X80558257Y-74125500D01*
X80558260Y-74125500D01*
X80626393Y-74115573D01*
X80731483Y-74064198D01*
X80791186Y-74004494D01*
X80845701Y-73976719D01*
X80861188Y-73975500D01*
X81535715Y-73975500D01*
X81593906Y-73994407D01*
X81629870Y-74043907D01*
X81632813Y-74055189D01*
X81639759Y-74090115D01*
X81639760Y-74090118D01*
X81656768Y-74115572D01*
X81697888Y-74177112D01*
X81784883Y-74235240D01*
X81861599Y-74250500D01*
X82138400Y-74250499D01*
X82215117Y-74235240D01*
X82302112Y-74177112D01*
X82360240Y-74090117D01*
X82375500Y-74013401D01*
X82375499Y-73981901D01*
X82394405Y-73923711D01*
X82404489Y-73911902D01*
X84030497Y-72285895D01*
X84085013Y-72258119D01*
X84145445Y-72267690D01*
G37*
%TD.AperFunction*%
%TA.AperFunction,Conductor*%
G36*
X74250000Y-87000001D02*
G01*
X74250000Y-87051000D01*
X74231093Y-87109191D01*
X74181593Y-87145155D01*
X74151000Y-87150000D01*
X73771685Y-87150000D01*
X73713494Y-87131093D01*
X73708007Y-87126803D01*
X73702001Y-87121757D01*
X73660059Y-87073354D01*
X73655081Y-87067879D01*
X73592331Y-87029629D01*
X73586586Y-87024803D01*
X73574166Y-87004902D01*
X73569959Y-87000000D01*
X74250001Y-87000000D01*
X74250000Y-87000001D01*
G37*
%TD.AperFunction*%
%TA.AperFunction,Conductor*%
G36*
X75013146Y-85879514D02*
G01*
X75013147Y-85879514D01*
X75013150Y-85879516D01*
X75080189Y-85899201D01*
X75102094Y-85902350D01*
X75123996Y-85905500D01*
X75124456Y-85905500D01*
X75124586Y-85905542D01*
X75127520Y-85905752D01*
X75127468Y-85906478D01*
X75182647Y-85924407D01*
X75218611Y-85973907D01*
X75218611Y-86035093D01*
X75194461Y-86074501D01*
X75190174Y-86078789D01*
X75190173Y-86078790D01*
X75135134Y-86191373D01*
X75124500Y-86264367D01*
X75124500Y-86364563D01*
X75105593Y-86422754D01*
X75056093Y-86458718D01*
X75000000Y-86458718D01*
X75000000Y-85871500D01*
X75013146Y-85879514D01*
G37*
%TD.AperFunction*%
%TA.AperFunction,Conductor*%
G36*
X74000000Y-83750000D02*
G01*
X73376000Y-83750000D01*
X73409055Y-83746446D01*
X73460566Y-83735240D01*
X73529342Y-83700813D01*
X73559500Y-83674681D01*
X73615859Y-83650862D01*
X73624332Y-83650499D01*
X73919861Y-83650499D01*
X73919864Y-83650499D01*
X73944991Y-83647585D01*
X74000000Y-83623296D01*
X74000000Y-83750000D01*
G37*
%TD.AperFunction*%
%TA.AperFunction,Conductor*%
G36*
X74118202Y-64140414D02*
G01*
X74116652Y-64147794D01*
X74116652Y-64126005D01*
X74118202Y-64140414D01*
G37*
%TD.AperFunction*%
%TA.AperFunction,Conductor*%
G36*
X81366481Y-63748919D02*
G01*
X81373996Y-63750000D01*
X81344828Y-63750000D01*
X81363094Y-63748432D01*
X81366481Y-63748919D01*
G37*
%TD.AperFunction*%
%TA.AperFunction,Conductor*%
G36*
X81359580Y-59801550D02*
G01*
X81352202Y-59800000D01*
X81373997Y-59800000D01*
X81359580Y-59801550D01*
G37*
%TD.AperFunction*%
%TA.AperFunction,Conductor*%
G36*
X79362156Y-57099765D02*
G01*
X79365782Y-57106882D01*
X79372245Y-57111578D01*
X79379408Y-57133626D01*
X79389933Y-57154282D01*
X79391152Y-57169769D01*
X79391152Y-57328062D01*
X79374528Y-57379228D01*
X79375487Y-57379717D01*
X79372403Y-57385769D01*
X79372247Y-57386250D01*
X79371949Y-57386659D01*
X79310816Y-57506639D01*
X79309824Y-57506133D01*
X79285323Y-57543103D01*
X79284507Y-57543809D01*
X79279031Y-57548789D01*
X79237137Y-57617516D01*
X79217450Y-57684563D01*
X79211152Y-57728365D01*
X79211152Y-59675344D01*
X79192245Y-59733535D01*
X79142745Y-59769499D01*
X79084260Y-59770334D01*
X79081416Y-59769499D01*
X79036463Y-59756299D01*
X79036460Y-59756298D01*
X78992656Y-59750000D01*
X79116652Y-59750000D01*
X79116652Y-56854261D01*
X79362156Y-57099765D01*
G37*
%TD.AperFunction*%
%TA.AperFunction,Conductor*%
G36*
X77780074Y-55519407D02*
G01*
X77791887Y-55529496D01*
X78012391Y-55750000D01*
X76412333Y-55750000D01*
X76430850Y-55731483D01*
X76482225Y-55626393D01*
X76483140Y-55620110D01*
X76488224Y-55585225D01*
X76515324Y-55530369D01*
X76569492Y-55501918D01*
X76586189Y-55500500D01*
X77721883Y-55500500D01*
X77780074Y-55519407D01*
G37*
%TD.AperFunction*%
%TA.AperFunction,Conductor*%
G36*
X82750000Y-53799999D02*
G01*
X82750001Y-53800000D01*
X82953792Y-53800000D01*
X82953795Y-53799999D01*
X83108349Y-53769257D01*
X83253940Y-53708951D01*
X83253949Y-53708947D01*
X83384972Y-53621399D01*
X83386699Y-53619982D01*
X83387649Y-53619609D01*
X83389013Y-53618699D01*
X83389212Y-53618998D01*
X83443676Y-53597684D01*
X83502879Y-53613136D01*
X83541692Y-53660435D01*
X83548500Y-53696513D01*
X83548500Y-54203786D01*
X83529593Y-54261977D01*
X83480093Y-54297941D01*
X83418907Y-54297941D01*
X83404555Y-54291996D01*
X83380998Y-54279993D01*
X83350304Y-54264354D01*
X83326857Y-54260640D01*
X83256522Y-54249500D01*
X83256519Y-54249500D01*
X82456901Y-54249500D01*
X82398710Y-54230593D01*
X82386897Y-54220504D01*
X82127686Y-53961293D01*
X82099909Y-53906776D01*
X82109480Y-53846344D01*
X82152745Y-53803079D01*
X82213177Y-53793508D01*
X82217005Y-53794191D01*
X82246207Y-53799999D01*
X82246208Y-53800000D01*
X82449999Y-53800000D01*
X82450000Y-53799999D01*
X82450000Y-53346410D01*
X82455255Y-53349444D01*
X82550630Y-53375000D01*
X82649370Y-53375000D01*
X82744745Y-53349444D01*
X82750000Y-53346410D01*
X82750000Y-53799999D01*
G37*
%TD.AperFunction*%
%TA.AperFunction,Conductor*%
G36*
X72947050Y-26069407D02*
G01*
X72983014Y-26118907D01*
X72983014Y-26180093D01*
X72947050Y-26229593D01*
X72926744Y-26240964D01*
X72776086Y-26303367D01*
X72612218Y-26412861D01*
X72612214Y-26412864D01*
X72472864Y-26552214D01*
X72472861Y-26552218D01*
X72363367Y-26716086D01*
X72287949Y-26898163D01*
X72287949Y-26898165D01*
X72249500Y-27091456D01*
X72249500Y-27288543D01*
X72287949Y-27481834D01*
X72287949Y-27481836D01*
X72363367Y-27663913D01*
X72363368Y-27663914D01*
X72472861Y-27827782D01*
X72612218Y-27967139D01*
X72776086Y-28076632D01*
X72958165Y-28152051D01*
X73151459Y-28190500D01*
X73151460Y-28190500D01*
X73348540Y-28190500D01*
X73348541Y-28190500D01*
X73541835Y-28152051D01*
X73723914Y-28076632D01*
X73887782Y-27967139D01*
X74027139Y-27827782D01*
X74136632Y-27663914D01*
X74212051Y-27481835D01*
X74250500Y-27288541D01*
X74250500Y-27091459D01*
X74212051Y-26898165D01*
X74136632Y-26716086D01*
X74027139Y-26552218D01*
X73887782Y-26412861D01*
X73723914Y-26303368D01*
X73723915Y-26303368D01*
X73723913Y-26303367D01*
X73573256Y-26240964D01*
X73526730Y-26201228D01*
X73512446Y-26141733D01*
X73535860Y-26085205D01*
X73588029Y-26053236D01*
X73611141Y-26050500D01*
X76600500Y-26050500D01*
X76658691Y-26069407D01*
X76694655Y-26118907D01*
X76699500Y-26149500D01*
X76699500Y-34289564D01*
X76719978Y-34365988D01*
X76719980Y-34365992D01*
X76759538Y-34434508D01*
X76759540Y-34434511D01*
X76815489Y-34490460D01*
X76815491Y-34490461D01*
X76884007Y-34530019D01*
X76884011Y-34530021D01*
X76960435Y-34550499D01*
X76960437Y-34550500D01*
X76960438Y-34550500D01*
X84100500Y-34550500D01*
X84158691Y-34569407D01*
X84194655Y-34618907D01*
X84199500Y-34649500D01*
X84199500Y-40844099D01*
X84180593Y-40902290D01*
X84131093Y-40938254D01*
X84069907Y-40938254D01*
X84030496Y-40914103D01*
X81460396Y-38344003D01*
X81432619Y-38289486D01*
X81442190Y-38229054D01*
X81485455Y-38185789D01*
X81530400Y-38174999D01*
X81550000Y-38174999D01*
X81550000Y-37400001D01*
X81850000Y-37400001D01*
X81850000Y-38174998D01*
X81850001Y-38174999D01*
X82004203Y-38174999D01*
X82034600Y-38172149D01*
X82034602Y-38172149D01*
X82162647Y-38127345D01*
X82271790Y-38046792D01*
X82271792Y-38046790D01*
X82352345Y-37937647D01*
X82397149Y-37809601D01*
X82399999Y-37779211D01*
X82400000Y-37779210D01*
X82400000Y-37400001D01*
X82399999Y-37400000D01*
X81850001Y-37400000D01*
X81850000Y-37400001D01*
X81550000Y-37400001D01*
X81549999Y-37400000D01*
X81000002Y-37400000D01*
X81000001Y-37400001D01*
X81000001Y-37644600D01*
X80981094Y-37702791D01*
X80931594Y-37738755D01*
X80870408Y-37738755D01*
X80830997Y-37714604D01*
X80479495Y-37363102D01*
X80451718Y-37308585D01*
X80450499Y-37293098D01*
X80450499Y-36743482D01*
X80448992Y-36733966D01*
X80448992Y-36733963D01*
X80446905Y-36720788D01*
X81000000Y-36720788D01*
X81000000Y-37099999D01*
X81000001Y-37100000D01*
X81549999Y-37100000D01*
X81550000Y-37099999D01*
X81550000Y-36325001D01*
X81850000Y-36325001D01*
X81850000Y-37099999D01*
X81850001Y-37100000D01*
X82399998Y-37100000D01*
X82399999Y-37099999D01*
X82399999Y-36720796D01*
X82397149Y-36690399D01*
X82397149Y-36690397D01*
X82352345Y-36562352D01*
X82271792Y-36453209D01*
X82271790Y-36453207D01*
X82162647Y-36372654D01*
X82034601Y-36327850D01*
X82004211Y-36325000D01*
X81850001Y-36325000D01*
X81850000Y-36325001D01*
X81550000Y-36325001D01*
X81549999Y-36325000D01*
X81395796Y-36325000D01*
X81365399Y-36327850D01*
X81365397Y-36327850D01*
X81237352Y-36372654D01*
X81128209Y-36453207D01*
X81128207Y-36453209D01*
X81047654Y-36562352D01*
X81002850Y-36690398D01*
X81000000Y-36720788D01*
X80446905Y-36720788D01*
X80435647Y-36649699D01*
X80435646Y-36649697D01*
X80435646Y-36649696D01*
X80378050Y-36536658D01*
X80288342Y-36446950D01*
X80175304Y-36389354D01*
X80175305Y-36389354D01*
X80081522Y-36374500D01*
X79531901Y-36374500D01*
X79473710Y-36355593D01*
X79461897Y-36345504D01*
X78888443Y-35772050D01*
X78295913Y-35179520D01*
X78295910Y-35179518D01*
X78295909Y-35179517D01*
X78295908Y-35179516D01*
X78204591Y-35126794D01*
X78204593Y-35126794D01*
X78161504Y-35115249D01*
X78102727Y-35099500D01*
X78102725Y-35099500D01*
X76956901Y-35099500D01*
X76898710Y-35080593D01*
X76886897Y-35070504D01*
X74277038Y-32460645D01*
X74249261Y-32406128D01*
X74249946Y-32371321D01*
X74250500Y-32368541D01*
X74250500Y-32171459D01*
X74212051Y-31978165D01*
X74136632Y-31796086D01*
X74027139Y-31632218D01*
X73887782Y-31492861D01*
X73723914Y-31383368D01*
X73723915Y-31383368D01*
X73723913Y-31383367D01*
X73541835Y-31307949D01*
X73348543Y-31269500D01*
X73348541Y-31269500D01*
X73151459Y-31269500D01*
X73151456Y-31269500D01*
X72958165Y-31307949D01*
X72958163Y-31307949D01*
X72776086Y-31383367D01*
X72612218Y-31492861D01*
X72612214Y-31492864D01*
X72472864Y-31632214D01*
X72472861Y-31632218D01*
X72363367Y-31796086D01*
X72287949Y-31978163D01*
X72287949Y-31978165D01*
X72249500Y-32171456D01*
X72249500Y-32368543D01*
X72287949Y-32561834D01*
X72287949Y-32561836D01*
X72363367Y-32743913D01*
X72363368Y-32743914D01*
X72472861Y-32907782D01*
X72612218Y-33047139D01*
X72776086Y-33156632D01*
X72958165Y-33232051D01*
X73151459Y-33270500D01*
X73151460Y-33270500D01*
X73348540Y-33270500D01*
X73348541Y-33270500D01*
X73541835Y-33232051D01*
X73723914Y-33156632D01*
X73726080Y-33155184D01*
X73727227Y-33154860D01*
X73728200Y-33154341D01*
X73728313Y-33154554D01*
X73784960Y-33138568D01*
X73842367Y-33159735D01*
X73851095Y-33167488D01*
X76504087Y-35820480D01*
X76504089Y-35820481D01*
X76504090Y-35820482D01*
X76504091Y-35820483D01*
X76595408Y-35873205D01*
X76595406Y-35873205D01*
X76595410Y-35873206D01*
X76595412Y-35873207D01*
X76697273Y-35900500D01*
X77843099Y-35900500D01*
X77901290Y-35919407D01*
X77913103Y-35929496D01*
X79120504Y-37136896D01*
X79148281Y-37191413D01*
X79149500Y-37206900D01*
X79149500Y-37756520D01*
X79149501Y-37756523D01*
X79164352Y-37850299D01*
X79164354Y-37850304D01*
X79221950Y-37963342D01*
X79311658Y-38053050D01*
X79424696Y-38110646D01*
X79518481Y-38125500D01*
X80068098Y-38125499D01*
X80126289Y-38144406D01*
X80138102Y-38154495D01*
X83519504Y-41535897D01*
X83547281Y-41590414D01*
X83548500Y-41605901D01*
X83548500Y-45980599D01*
X83529593Y-46038790D01*
X83480093Y-46074754D01*
X83418907Y-46074754D01*
X83379496Y-46050603D01*
X82929495Y-45600602D01*
X82901718Y-45546085D01*
X82900499Y-45530598D01*
X82900499Y-45055139D01*
X82900499Y-45055136D01*
X82897585Y-45030009D01*
X82852206Y-44927235D01*
X82772765Y-44847794D01*
X82669991Y-44802415D01*
X82669990Y-44802414D01*
X82669988Y-44802414D01*
X82644868Y-44799500D01*
X82255139Y-44799500D01*
X82255136Y-44799501D01*
X82230009Y-44802414D01*
X82127235Y-44847794D01*
X82069501Y-44905527D01*
X82014987Y-44933303D01*
X81954555Y-44923732D01*
X81911290Y-44880467D01*
X81900500Y-44835522D01*
X81900500Y-44597511D01*
X81908934Y-44557527D01*
X81947585Y-44469991D01*
X81950500Y-44444865D01*
X81950499Y-43180136D01*
X81947585Y-43155009D01*
X81902206Y-43052235D01*
X81822765Y-42972794D01*
X81719991Y-42927415D01*
X81719990Y-42927414D01*
X81719988Y-42927414D01*
X81694868Y-42924500D01*
X81305139Y-42924500D01*
X81305136Y-42924501D01*
X81280009Y-42927414D01*
X81177235Y-42972794D01*
X81097794Y-43052235D01*
X81052414Y-43155011D01*
X81049500Y-43180130D01*
X81049500Y-44444860D01*
X81049501Y-44444863D01*
X81052414Y-44469990D01*
X81072134Y-44514652D01*
X81091065Y-44557526D01*
X81099500Y-44597512D01*
X81099500Y-44835522D01*
X81080593Y-44893713D01*
X81031093Y-44929677D01*
X80969907Y-44929677D01*
X80930498Y-44905527D01*
X80872765Y-44847794D01*
X80769991Y-44802415D01*
X80769990Y-44802414D01*
X80769988Y-44802414D01*
X80744868Y-44799500D01*
X80355139Y-44799500D01*
X80355136Y-44799501D01*
X80330009Y-44802414D01*
X80227235Y-44847794D01*
X80147794Y-44927235D01*
X80102414Y-45030011D01*
X80099500Y-45055130D01*
X80099500Y-45130340D01*
X80080593Y-45188531D01*
X80031093Y-45224495D01*
X79969907Y-45224495D01*
X79951000Y-45216076D01*
X79868189Y-45168265D01*
X79868191Y-45168265D01*
X79818799Y-45155031D01*
X79740892Y-45134156D01*
X79609108Y-45134156D01*
X79545461Y-45151210D01*
X79481812Y-45168264D01*
X79418157Y-45205016D01*
X79358308Y-45217737D01*
X79302413Y-45192850D01*
X79279717Y-45162760D01*
X79264200Y-45131020D01*
X79264198Y-45131018D01*
X79264198Y-45131017D01*
X79181483Y-45048302D01*
X79181481Y-45048301D01*
X79076395Y-44996927D01*
X79049139Y-44992956D01*
X79008260Y-44987000D01*
X78541740Y-44987000D01*
X78507673Y-44991963D01*
X78473604Y-44996927D01*
X78368518Y-45048301D01*
X78285801Y-45131018D01*
X78234427Y-45236104D01*
X78224500Y-45304243D01*
X78224500Y-45767731D01*
X78205593Y-45825922D01*
X78195503Y-45837735D01*
X77829666Y-46203571D01*
X77775150Y-46231348D01*
X77714718Y-46221777D01*
X77671453Y-46178512D01*
X77661882Y-46118080D01*
X77671454Y-46088621D01*
X77710163Y-46012651D01*
X77710164Y-46012647D01*
X77725000Y-45918984D01*
X77725000Y-45762501D01*
X77724999Y-45762500D01*
X77275001Y-45762500D01*
X77275000Y-45762501D01*
X77275000Y-46287498D01*
X77303997Y-46316495D01*
X77302710Y-46317781D01*
X77313573Y-46324997D01*
X77334907Y-46382342D01*
X77325000Y-46417838D01*
X77325000Y-47787498D01*
X77325001Y-47787499D01*
X77331789Y-47787499D01*
X77353839Y-47794663D01*
X77376735Y-47798290D01*
X77382382Y-47803937D01*
X77389980Y-47806406D01*
X77403608Y-47825164D01*
X77419999Y-47841555D01*
X77421248Y-47849442D01*
X77425944Y-47855906D01*
X77425944Y-47879092D01*
X77429570Y-47901987D01*
X77425944Y-47909103D01*
X77425944Y-47917092D01*
X77401792Y-47956503D01*
X77336003Y-48022291D01*
X77281486Y-48050068D01*
X77254598Y-48050628D01*
X77244869Y-48049500D01*
X76855139Y-48049500D01*
X76855136Y-48049501D01*
X76830009Y-48052414D01*
X76727235Y-48097794D01*
X76647794Y-48177235D01*
X76602414Y-48280011D01*
X76599500Y-48305130D01*
X76599500Y-49419860D01*
X76599501Y-49419863D01*
X76602414Y-49444990D01*
X76611357Y-49465243D01*
X76647794Y-49547765D01*
X76727235Y-49627206D01*
X76830009Y-49672585D01*
X76855135Y-49675500D01*
X77244864Y-49675499D01*
X77269991Y-49672585D01*
X77372765Y-49627206D01*
X77452206Y-49547765D01*
X77497585Y-49444991D01*
X77500500Y-49419865D01*
X77500499Y-48607324D01*
X77519406Y-48549134D01*
X77529488Y-48537328D01*
X78088364Y-47978454D01*
X78126500Y-47886385D01*
X78126500Y-47886384D01*
X78128402Y-47876824D01*
X78158297Y-47823439D01*
X78213862Y-47797822D01*
X78273872Y-47809758D01*
X78315405Y-47854687D01*
X78324500Y-47896136D01*
X78324500Y-48584773D01*
X78324500Y-48690227D01*
X78337871Y-48740130D01*
X78351794Y-48792092D01*
X78404516Y-48883408D01*
X78404518Y-48883410D01*
X78404520Y-48883413D01*
X78470505Y-48949398D01*
X78498281Y-49003913D01*
X78499500Y-49019400D01*
X78499500Y-49419860D01*
X78499501Y-49419863D01*
X78502414Y-49444990D01*
X78511357Y-49465243D01*
X78547794Y-49547765D01*
X78627235Y-49627206D01*
X78730009Y-49672585D01*
X78755135Y-49675500D01*
X79144864Y-49675499D01*
X79169991Y-49672585D01*
X79272765Y-49627206D01*
X79352206Y-49547765D01*
X79397585Y-49444991D01*
X79400500Y-49419865D01*
X79400499Y-48305136D01*
X79397585Y-48280009D01*
X79352206Y-48177235D01*
X79272765Y-48097794D01*
X79184511Y-48058826D01*
X79138916Y-48018026D01*
X79125500Y-47968262D01*
X79125500Y-47755921D01*
X79144407Y-47697730D01*
X79166980Y-47675345D01*
X79171200Y-47672330D01*
X79171211Y-47672326D01*
X79259826Y-47583711D01*
X79314866Y-47471125D01*
X79325500Y-47398136D01*
X79325500Y-47119400D01*
X79344407Y-47061209D01*
X79354490Y-47049402D01*
X79986897Y-46416995D01*
X80041410Y-46389221D01*
X80101842Y-46398792D01*
X80145107Y-46442057D01*
X80147458Y-46447006D01*
X80147791Y-46447761D01*
X80147793Y-46447763D01*
X80147794Y-46447765D01*
X80227235Y-46527206D01*
X80330009Y-46572585D01*
X80336906Y-46573385D01*
X80346041Y-46577570D01*
X80356093Y-46577570D01*
X80373252Y-46590036D01*
X80392530Y-46598869D01*
X80397461Y-46607625D01*
X80405593Y-46613534D01*
X80412146Y-46633703D01*
X80422552Y-46652182D01*
X80424500Y-46671725D01*
X80424500Y-46797748D01*
X80405593Y-46855939D01*
X80368980Y-46886689D01*
X80268518Y-46935801D01*
X80185801Y-47018518D01*
X80134427Y-47123604D01*
X80134427Y-47123607D01*
X80124500Y-47191740D01*
X80124500Y-47808260D01*
X80128173Y-47833467D01*
X80134427Y-47876395D01*
X80154323Y-47917092D01*
X80185802Y-47981483D01*
X80268517Y-48064198D01*
X80322285Y-48090483D01*
X80373604Y-48115572D01*
X80373605Y-48115572D01*
X80373607Y-48115573D01*
X80441740Y-48125500D01*
X80441743Y-48125500D01*
X80908257Y-48125500D01*
X80908260Y-48125500D01*
X80976393Y-48115573D01*
X80976394Y-48115572D01*
X80984001Y-48114464D01*
X80984421Y-48117348D01*
X81032433Y-48118034D01*
X81081415Y-48154700D01*
X81099500Y-48211742D01*
X81099500Y-48793099D01*
X81080593Y-48851290D01*
X81070504Y-48863103D01*
X80179516Y-49754091D01*
X80126793Y-49845411D01*
X80126792Y-49845411D01*
X80126793Y-49845412D01*
X80099500Y-49947273D01*
X80099500Y-52543099D01*
X80097031Y-52550696D01*
X80098281Y-52558586D01*
X80087756Y-52579241D01*
X80080593Y-52601290D01*
X80070504Y-52613103D01*
X79975603Y-52708004D01*
X79921086Y-52735781D01*
X79905599Y-52737000D01*
X79899499Y-52737000D01*
X79871650Y-52727951D01*
X79860654Y-52726210D01*
X79857941Y-52723497D01*
X79841308Y-52718093D01*
X79805344Y-52668593D01*
X79800499Y-52638000D01*
X79800499Y-52593478D01*
X79800498Y-52593476D01*
X79785647Y-52499700D01*
X79785646Y-52499698D01*
X79785646Y-52499696D01*
X79728050Y-52386658D01*
X79638342Y-52296950D01*
X79525304Y-52239354D01*
X79525305Y-52239354D01*
X79434012Y-52224894D01*
X79379496Y-52197116D01*
X79351719Y-52142599D01*
X79350500Y-52127113D01*
X79350500Y-51847511D01*
X79358934Y-51807527D01*
X79397585Y-51719991D01*
X79400500Y-51694865D01*
X79400499Y-50580136D01*
X79397585Y-50555009D01*
X79352206Y-50452235D01*
X79272765Y-50372794D01*
X79169991Y-50327415D01*
X79169990Y-50327414D01*
X79169988Y-50327414D01*
X79144868Y-50324500D01*
X78755139Y-50324500D01*
X78755136Y-50324501D01*
X78730009Y-50327414D01*
X78627235Y-50372794D01*
X78580003Y-50420025D01*
X78525489Y-50447801D01*
X78465057Y-50438230D01*
X78439998Y-50420024D01*
X78356187Y-50336213D01*
X78251248Y-50284912D01*
X78183216Y-50275000D01*
X78150001Y-50275000D01*
X78150000Y-50275001D01*
X78150000Y-51999998D01*
X78150001Y-51999999D01*
X78183213Y-51999999D01*
X78183216Y-51999998D01*
X78251250Y-51990087D01*
X78356188Y-51938785D01*
X78380496Y-51914478D01*
X78435013Y-51886701D01*
X78495445Y-51896272D01*
X78538710Y-51939537D01*
X78549500Y-51984482D01*
X78549500Y-52406949D01*
X78538710Y-52451893D01*
X78514355Y-52499691D01*
X78514354Y-52499696D01*
X78499500Y-52593479D01*
X78499500Y-53606521D01*
X78499501Y-53606523D01*
X78514352Y-53700299D01*
X78514353Y-53700302D01*
X78535870Y-53742532D01*
X78545441Y-53802965D01*
X78517663Y-53857481D01*
X78463146Y-53885258D01*
X78409777Y-53878942D01*
X78404593Y-53876794D01*
X78365070Y-53866204D01*
X78302727Y-53849500D01*
X78302725Y-53849500D01*
X78020229Y-53849500D01*
X77962038Y-53830593D01*
X77926074Y-53781093D01*
X77926074Y-53719907D01*
X77926785Y-53717802D01*
X77947149Y-53659603D01*
X77949999Y-53629211D01*
X77950000Y-53629210D01*
X77950000Y-53250001D01*
X77949999Y-53250000D01*
X76550002Y-53250000D01*
X76550001Y-53250001D01*
X76550001Y-53629203D01*
X76552850Y-53659600D01*
X76552851Y-53659606D01*
X76573215Y-53717802D01*
X76574588Y-53778972D01*
X76539744Y-53829267D01*
X76481992Y-53849475D01*
X76479771Y-53849500D01*
X75956901Y-53849500D01*
X75898710Y-53830593D01*
X75886897Y-53820504D01*
X75110897Y-53044504D01*
X75083120Y-52989987D01*
X75092691Y-52929555D01*
X75135956Y-52886290D01*
X75180901Y-52875500D01*
X75558257Y-52875500D01*
X75558260Y-52875500D01*
X75626393Y-52865573D01*
X75731483Y-52814198D01*
X75814198Y-52731483D01*
X75865573Y-52626393D01*
X75873675Y-52570788D01*
X76550000Y-52570788D01*
X76550000Y-52949999D01*
X76550001Y-52950000D01*
X77099999Y-52950000D01*
X77100000Y-52949999D01*
X77100000Y-52175001D01*
X77400000Y-52175001D01*
X77400000Y-52949999D01*
X77400001Y-52950000D01*
X77949998Y-52950000D01*
X77949999Y-52949999D01*
X77949999Y-52570796D01*
X77947149Y-52540399D01*
X77947149Y-52540397D01*
X77902345Y-52412352D01*
X77821792Y-52303209D01*
X77821790Y-52303207D01*
X77712647Y-52222654D01*
X77584601Y-52177850D01*
X77554211Y-52175000D01*
X77400001Y-52175000D01*
X77400000Y-52175001D01*
X77100000Y-52175001D01*
X77099999Y-52175000D01*
X76945796Y-52175000D01*
X76915399Y-52177850D01*
X76915397Y-52177850D01*
X76787352Y-52222654D01*
X76678209Y-52303207D01*
X76678207Y-52303209D01*
X76597654Y-52412352D01*
X76552850Y-52540398D01*
X76550000Y-52570788D01*
X75873675Y-52570788D01*
X75875500Y-52558260D01*
X75875500Y-52019768D01*
X75894407Y-51961577D01*
X75904496Y-51949764D01*
X76430497Y-51423763D01*
X76485014Y-51395986D01*
X76545446Y-51405557D01*
X76588711Y-51448822D01*
X76599501Y-51493767D01*
X76599501Y-51694863D01*
X76602414Y-51719990D01*
X76622786Y-51766127D01*
X76647794Y-51822765D01*
X76727235Y-51902206D01*
X76830009Y-51947585D01*
X76855135Y-51950500D01*
X77244864Y-51950499D01*
X77269991Y-51947585D01*
X77372765Y-51902206D01*
X77419996Y-51854974D01*
X77474511Y-51827199D01*
X77534943Y-51836770D01*
X77560002Y-51854976D01*
X77643812Y-51938786D01*
X77748751Y-51990087D01*
X77816783Y-51999999D01*
X77849999Y-51999999D01*
X77850000Y-51999998D01*
X77850000Y-50275000D01*
X77816787Y-50275000D01*
X77816782Y-50275001D01*
X77748750Y-50284912D01*
X77643811Y-50336214D01*
X77560002Y-50420024D01*
X77505485Y-50447801D01*
X77445053Y-50438230D01*
X77419997Y-50420026D01*
X77372765Y-50372794D01*
X77269991Y-50327415D01*
X77269990Y-50327414D01*
X77269988Y-50327414D01*
X77244868Y-50324500D01*
X76855139Y-50324500D01*
X76855136Y-50324501D01*
X76830009Y-50327414D01*
X76727235Y-50372794D01*
X76647794Y-50452235D01*
X76602414Y-50555011D01*
X76599500Y-50580130D01*
X76599500Y-50788000D01*
X76594655Y-50802911D01*
X76594655Y-50818593D01*
X76585438Y-50831278D01*
X76580593Y-50846191D01*
X76567907Y-50855407D01*
X76558691Y-50868093D01*
X76543778Y-50872938D01*
X76531093Y-50882155D01*
X76500500Y-50887000D01*
X76423859Y-50887000D01*
X76423851Y-50886999D01*
X76412328Y-50886999D01*
X76312673Y-50886999D01*
X76312672Y-50886999D01*
X76271418Y-50904086D01*
X76271419Y-50904087D01*
X76220603Y-50925135D01*
X76150135Y-50995602D01*
X76150136Y-50995603D01*
X75550235Y-51595504D01*
X75495718Y-51623281D01*
X75480231Y-51624500D01*
X75091740Y-51624500D01*
X75023607Y-51634427D01*
X75023605Y-51634427D01*
X75015999Y-51635536D01*
X75015579Y-51632658D01*
X74967528Y-51631952D01*
X74918562Y-51595266D01*
X74900500Y-51538257D01*
X74900500Y-51206900D01*
X74919407Y-51148709D01*
X74929490Y-51136902D01*
X75569480Y-50496913D01*
X75609412Y-50427749D01*
X75622205Y-50405592D01*
X75622205Y-50405590D01*
X75622207Y-50405588D01*
X75649500Y-50303727D01*
X75649500Y-50198273D01*
X75649500Y-47395953D01*
X76525000Y-47395953D01*
X76540760Y-47495465D01*
X76540762Y-47495469D01*
X76601881Y-47615421D01*
X76697078Y-47710618D01*
X76817030Y-47771737D01*
X76817029Y-47771737D01*
X76916545Y-47787499D01*
X77025000Y-47787499D01*
X77025000Y-47262501D01*
X77024999Y-47262500D01*
X76525002Y-47262500D01*
X76525001Y-47262501D01*
X76525001Y-47395953D01*
X76525000Y-47395953D01*
X75649500Y-47395953D01*
X75649500Y-46895825D01*
X75651968Y-46888227D01*
X75650719Y-46880338D01*
X75661243Y-46859682D01*
X75668407Y-46837634D01*
X75675741Y-46829046D01*
X76525000Y-46829046D01*
X76525000Y-46962499D01*
X76525001Y-46962500D01*
X77024999Y-46962500D01*
X77025000Y-46962499D01*
X77025000Y-46437500D01*
X77006226Y-46418726D01*
X77005814Y-46418593D01*
X77005074Y-46417575D01*
X76996003Y-46408504D01*
X76997289Y-46407217D01*
X76986426Y-46400002D01*
X76980254Y-46383413D01*
X76969850Y-46369093D01*
X76969850Y-46355446D01*
X76965092Y-46342657D01*
X76969850Y-46325609D01*
X76969850Y-46307907D01*
X76975000Y-46299503D01*
X76975000Y-45762501D01*
X76974999Y-45762500D01*
X76525002Y-45762500D01*
X76525001Y-45762501D01*
X76525001Y-45918985D01*
X76539833Y-46012641D01*
X76539836Y-46012651D01*
X76597358Y-46125543D01*
X76686956Y-46215141D01*
X76806795Y-46276203D01*
X76806175Y-46277417D01*
X76848958Y-46308498D01*
X76867867Y-46366688D01*
X76848962Y-46424880D01*
X76813813Y-46454901D01*
X76697078Y-46514381D01*
X76601881Y-46609578D01*
X76540762Y-46729530D01*
X76525000Y-46829046D01*
X75675741Y-46829046D01*
X75678490Y-46825827D01*
X76070480Y-46433838D01*
X76080203Y-46416998D01*
X76123205Y-46342517D01*
X76123205Y-46342515D01*
X76123207Y-46342513D01*
X76150500Y-46240652D01*
X76150500Y-46135198D01*
X76150500Y-45306015D01*
X76525000Y-45306015D01*
X76525000Y-45462499D01*
X76525001Y-45462500D01*
X76974999Y-45462500D01*
X76975000Y-45462499D01*
X76975000Y-44937501D01*
X77275000Y-44937501D01*
X77275000Y-45462499D01*
X77275001Y-45462500D01*
X77724998Y-45462500D01*
X77724999Y-45462499D01*
X77724999Y-45306016D01*
X77724998Y-45306014D01*
X77710166Y-45212358D01*
X77710163Y-45212348D01*
X77652641Y-45099456D01*
X77563043Y-45009858D01*
X77450151Y-44952336D01*
X77450147Y-44952335D01*
X77356484Y-44937500D01*
X77275001Y-44937500D01*
X77275000Y-44937501D01*
X76975000Y-44937501D01*
X76974998Y-44937499D01*
X76893517Y-44937500D01*
X76893514Y-44937501D01*
X76799858Y-44952333D01*
X76799848Y-44952336D01*
X76686956Y-45009858D01*
X76597358Y-45099456D01*
X76539836Y-45212348D01*
X76539835Y-45212352D01*
X76525000Y-45306015D01*
X76150500Y-45306015D01*
X76150500Y-40697273D01*
X76123207Y-40595413D01*
X76070480Y-40504087D01*
X75995913Y-40429519D01*
X75995913Y-40429520D01*
X74454496Y-38888103D01*
X74426719Y-38833586D01*
X74425500Y-38818099D01*
X74425500Y-38371689D01*
X74444407Y-38313498D01*
X74479552Y-38283481D01*
X74588342Y-38228050D01*
X74678050Y-38138342D01*
X74735646Y-38025304D01*
X74746926Y-37954081D01*
X74750500Y-37931521D01*
X74750500Y-37400001D01*
X76200001Y-37400001D01*
X76200001Y-37954203D01*
X76202850Y-37984600D01*
X76202850Y-37984602D01*
X76247654Y-38112647D01*
X76328207Y-38221790D01*
X76328209Y-38221792D01*
X76437352Y-38302345D01*
X76565398Y-38347149D01*
X76595789Y-38349999D01*
X76824998Y-38349999D01*
X76825000Y-38349998D01*
X76825000Y-37400001D01*
X77125000Y-37400001D01*
X77125000Y-38349998D01*
X77125001Y-38349999D01*
X77354203Y-38349999D01*
X77384600Y-38347149D01*
X77384602Y-38347149D01*
X77512647Y-38302345D01*
X77621790Y-38221792D01*
X77621792Y-38221790D01*
X77702345Y-38112647D01*
X77747149Y-37984601D01*
X77749999Y-37954211D01*
X77750000Y-37954210D01*
X77750000Y-37400001D01*
X77749999Y-37400000D01*
X77125001Y-37400000D01*
X77125000Y-37400001D01*
X76825000Y-37400001D01*
X76824999Y-37400000D01*
X76200002Y-37400000D01*
X76200001Y-37400001D01*
X74750500Y-37400001D01*
X74750500Y-37358993D01*
X74750499Y-36568482D01*
X74748992Y-36558966D01*
X74748992Y-36558963D01*
X74746905Y-36545788D01*
X76200000Y-36545788D01*
X76200000Y-37099999D01*
X76200001Y-37100000D01*
X76824999Y-37100000D01*
X76825000Y-37099999D01*
X76825000Y-36150001D01*
X77125000Y-36150001D01*
X77125000Y-37099999D01*
X77125001Y-37100000D01*
X77749998Y-37100000D01*
X77749999Y-37099999D01*
X77749999Y-36545796D01*
X77747149Y-36515399D01*
X77747149Y-36515397D01*
X77702345Y-36387352D01*
X77621792Y-36278209D01*
X77621790Y-36278207D01*
X77512647Y-36197654D01*
X77384601Y-36152850D01*
X77354211Y-36150000D01*
X77125001Y-36150000D01*
X77125000Y-36150001D01*
X76825000Y-36150001D01*
X76824999Y-36150000D01*
X76595796Y-36150000D01*
X76565399Y-36152850D01*
X76565397Y-36152850D01*
X76437352Y-36197654D01*
X76328209Y-36278207D01*
X76328207Y-36278209D01*
X76247654Y-36387352D01*
X76202850Y-36515398D01*
X76200000Y-36545788D01*
X74746905Y-36545788D01*
X74735647Y-36474699D01*
X74735646Y-36474697D01*
X74735646Y-36474696D01*
X74686290Y-36377831D01*
X74675500Y-36332886D01*
X74675500Y-35520932D01*
X74675500Y-35520931D01*
X74650501Y-35395256D01*
X74624693Y-35332951D01*
X74601466Y-35276874D01*
X74530277Y-35170331D01*
X74414077Y-35054131D01*
X74279496Y-34919549D01*
X74251719Y-34865033D01*
X74250500Y-34849546D01*
X74250500Y-34711460D01*
X74250499Y-34711456D01*
X74238565Y-34651459D01*
X74212051Y-34518165D01*
X74136632Y-34336086D01*
X74027139Y-34172218D01*
X73887782Y-34032861D01*
X73723914Y-33923368D01*
X73723915Y-33923368D01*
X73723913Y-33923367D01*
X73541835Y-33847949D01*
X73348543Y-33809500D01*
X73348541Y-33809500D01*
X73151459Y-33809500D01*
X73151456Y-33809500D01*
X72958165Y-33847949D01*
X72958163Y-33847949D01*
X72776086Y-33923367D01*
X72612218Y-34032861D01*
X72612214Y-34032864D01*
X72472864Y-34172214D01*
X72472861Y-34172218D01*
X72363367Y-34336086D01*
X72287949Y-34518163D01*
X72287949Y-34518165D01*
X72249500Y-34711456D01*
X72249500Y-34908543D01*
X72275132Y-35037403D01*
X72282041Y-35072136D01*
X72287949Y-35101834D01*
X72287949Y-35101836D01*
X72363367Y-35283913D01*
X72363368Y-35283914D01*
X72472861Y-35447782D01*
X72612218Y-35587139D01*
X72776086Y-35696632D01*
X72958165Y-35772051D01*
X73151459Y-35810500D01*
X73275500Y-35810500D01*
X73333691Y-35829407D01*
X73369655Y-35878907D01*
X73374500Y-35909500D01*
X73374500Y-36332886D01*
X73363709Y-36377832D01*
X73314354Y-36474694D01*
X73299500Y-36568478D01*
X73299500Y-37931521D01*
X73299501Y-37931523D01*
X73314352Y-38025299D01*
X73314354Y-38025304D01*
X73371950Y-38138342D01*
X73461658Y-38228050D01*
X73570447Y-38283481D01*
X73613710Y-38326744D01*
X73624500Y-38371689D01*
X73624500Y-38972273D01*
X73624500Y-39077727D01*
X73648570Y-39167559D01*
X73651794Y-39179592D01*
X73704516Y-39270908D01*
X73704518Y-39270910D01*
X73704520Y-39270913D01*
X75320505Y-40886898D01*
X75348281Y-40941413D01*
X75349500Y-40956900D01*
X75349500Y-41544099D01*
X75330593Y-41602290D01*
X75281093Y-41638254D01*
X75219907Y-41638254D01*
X75180496Y-41614103D01*
X72929496Y-39363103D01*
X72901719Y-39308586D01*
X72900500Y-39293099D01*
X72900500Y-36560714D01*
X72900501Y-36560701D01*
X72900501Y-36447272D01*
X72900500Y-36447270D01*
X72873207Y-36345413D01*
X72830793Y-36271950D01*
X72820480Y-36254087D01*
X72745913Y-36179520D01*
X72745910Y-36179518D01*
X71728416Y-35162023D01*
X71700639Y-35107506D01*
X71706956Y-35054133D01*
X71712051Y-35041835D01*
X71750500Y-34848541D01*
X71750500Y-34651459D01*
X71712051Y-34458165D01*
X71636632Y-34276086D01*
X71527139Y-34112218D01*
X71387782Y-33972861D01*
X71223914Y-33863368D01*
X71223915Y-33863368D01*
X71223913Y-33863367D01*
X71041835Y-33787949D01*
X70848543Y-33749500D01*
X70848541Y-33749500D01*
X70651459Y-33749500D01*
X70651456Y-33749500D01*
X70458165Y-33787949D01*
X70458163Y-33787949D01*
X70276086Y-33863367D01*
X70112218Y-33972861D01*
X70112214Y-33972864D01*
X69969504Y-34115575D01*
X69914987Y-34143352D01*
X69854555Y-34133781D01*
X69811290Y-34090516D01*
X69800500Y-34045571D01*
X69800500Y-28860299D01*
X72200000Y-28860299D01*
X72200000Y-29579999D01*
X72200001Y-29580000D01*
X72772555Y-29580000D01*
X72750000Y-29664174D01*
X72750000Y-29795826D01*
X72772555Y-29880000D01*
X72200001Y-29880000D01*
X72200000Y-29880001D01*
X72200000Y-30599700D01*
X72211603Y-30658036D01*
X72255806Y-30724189D01*
X72255810Y-30724193D01*
X72321963Y-30768396D01*
X72380299Y-30779999D01*
X72380303Y-30780000D01*
X73099999Y-30780000D01*
X73100000Y-30779999D01*
X73100000Y-30207445D01*
X73184174Y-30230000D01*
X73315826Y-30230000D01*
X73400000Y-30207445D01*
X73400000Y-30779999D01*
X73400001Y-30780000D01*
X74119697Y-30780000D01*
X74119700Y-30779999D01*
X74178036Y-30768396D01*
X74244189Y-30724193D01*
X74244193Y-30724189D01*
X74288396Y-30658036D01*
X74299999Y-30599700D01*
X74300000Y-30599697D01*
X74300000Y-29880001D01*
X74299999Y-29880000D01*
X73727445Y-29880000D01*
X73750000Y-29795826D01*
X73750000Y-29664174D01*
X73727445Y-29580000D01*
X74299999Y-29580000D01*
X74300000Y-29579999D01*
X74300000Y-28860302D01*
X74299999Y-28860299D01*
X74288396Y-28801963D01*
X74244193Y-28735810D01*
X74244189Y-28735806D01*
X74178036Y-28691603D01*
X74119700Y-28680000D01*
X73400001Y-28680000D01*
X73400000Y-28680001D01*
X73400000Y-29252554D01*
X73315826Y-29230000D01*
X73184174Y-29230000D01*
X73100000Y-29252554D01*
X73100000Y-28680001D01*
X73099999Y-28680000D01*
X72380299Y-28680000D01*
X72321963Y-28691603D01*
X72255810Y-28735806D01*
X72255806Y-28735810D01*
X72211603Y-28801963D01*
X72200000Y-28860299D01*
X69800500Y-28860299D01*
X69800500Y-26149500D01*
X69819407Y-26091309D01*
X69868907Y-26055345D01*
X69899500Y-26050500D01*
X72888859Y-26050500D01*
X72947050Y-26069407D01*
G37*
%TD.AperFunction*%
%TA.AperFunction,Conductor*%
G36*
X81555002Y-49608131D02*
G01*
X81598267Y-49651396D01*
X81607838Y-49711828D01*
X81605684Y-49721962D01*
X81599798Y-49743927D01*
X81594500Y-49784174D01*
X81594500Y-50350000D01*
X81615333Y-50427750D01*
X81617581Y-50429998D01*
X81645357Y-50484513D01*
X81635786Y-50544945D01*
X81617582Y-50570000D01*
X81615333Y-50572250D01*
X81594500Y-50650000D01*
X81594500Y-51215826D01*
X81599799Y-51256073D01*
X81617063Y-51320500D01*
X81633872Y-51383232D01*
X81633876Y-51383246D01*
X81636221Y-51388907D01*
X81649408Y-51420743D01*
X81715234Y-51534757D01*
X81715236Y-51534760D01*
X81739940Y-51566955D01*
X81739942Y-51566957D01*
X81739946Y-51566962D01*
X81833038Y-51660054D01*
X81833042Y-51660057D01*
X81833044Y-51660059D01*
X81865239Y-51684763D01*
X81865243Y-51684766D01*
X81979257Y-51750592D01*
X82016760Y-51766126D01*
X82143927Y-51800201D01*
X82184174Y-51805500D01*
X82815825Y-51805500D01*
X82815826Y-51805500D01*
X82856073Y-51800201D01*
X82983240Y-51766126D01*
X83020743Y-51750592D01*
X83134757Y-51684766D01*
X83166962Y-51660054D01*
X83260054Y-51566962D01*
X83284766Y-51534757D01*
X83350592Y-51420743D01*
X83358036Y-51402770D01*
X83397771Y-51356245D01*
X83457266Y-51341961D01*
X83513794Y-51365375D01*
X83545764Y-51417543D01*
X83548500Y-51440656D01*
X83548500Y-52303486D01*
X83529593Y-52361677D01*
X83480093Y-52397641D01*
X83418907Y-52397641D01*
X83389020Y-52381289D01*
X83389013Y-52381301D01*
X83388886Y-52381216D01*
X83386707Y-52380024D01*
X83384973Y-52378602D01*
X83253949Y-52291052D01*
X83253940Y-52291048D01*
X83108349Y-52230742D01*
X82953795Y-52200000D01*
X82750001Y-52200000D01*
X82750000Y-52200001D01*
X82750000Y-52653589D01*
X82744745Y-52650556D01*
X82649370Y-52625000D01*
X82550630Y-52625000D01*
X82455255Y-52650556D01*
X82450000Y-52653589D01*
X82450000Y-52200001D01*
X82449999Y-52200000D01*
X82246204Y-52200000D01*
X82091650Y-52230742D01*
X81946059Y-52291048D01*
X81946050Y-52291052D01*
X81815030Y-52378599D01*
X81815026Y-52378602D01*
X81703602Y-52490026D01*
X81703599Y-52490030D01*
X81616052Y-52621050D01*
X81616048Y-52621059D01*
X81555742Y-52766651D01*
X81539164Y-52849999D01*
X81539165Y-52850000D01*
X82253590Y-52850000D01*
X82250556Y-52855255D01*
X82225000Y-52950630D01*
X82225000Y-53049370D01*
X82250556Y-53144745D01*
X82253590Y-53150000D01*
X81539164Y-53150000D01*
X81509460Y-53186195D01*
X81508345Y-53185280D01*
X81482069Y-53213696D01*
X81422057Y-53225622D01*
X81366497Y-53199996D01*
X81363707Y-53197314D01*
X80929497Y-52763104D01*
X80925881Y-52756008D01*
X80919439Y-52751333D01*
X80912273Y-52729300D01*
X80901720Y-52708587D01*
X80901209Y-52702123D01*
X80901107Y-52702135D01*
X80901106Y-52702126D01*
X80900861Y-52697720D01*
X80900501Y-52693152D01*
X80900500Y-52691245D01*
X80900501Y-52691241D01*
X80900501Y-52691211D01*
X80900500Y-52691193D01*
X80900500Y-50206899D01*
X80919407Y-50148708D01*
X80929490Y-50136901D01*
X81440055Y-49626335D01*
X81494570Y-49598560D01*
X81555002Y-49608131D01*
G37*
%TD.AperFunction*%
%TA.AperFunction,Conductor*%
G36*
X82069501Y-46469472D02*
G01*
X82127235Y-46527206D01*
X82230009Y-46572585D01*
X82255135Y-46575500D01*
X82626500Y-46575499D01*
X82641412Y-46580344D01*
X82657093Y-46580344D01*
X82669778Y-46589560D01*
X82684691Y-46594406D01*
X82693907Y-46607091D01*
X82706593Y-46616308D01*
X82711438Y-46631220D01*
X82720655Y-46643906D01*
X82725500Y-46674499D01*
X82725500Y-46735855D01*
X82706593Y-46794046D01*
X82657093Y-46830010D01*
X82611014Y-46833636D01*
X82556485Y-46825000D01*
X82475001Y-46825000D01*
X82475000Y-46825001D01*
X82475000Y-48174998D01*
X82475001Y-48174999D01*
X82556483Y-48174999D01*
X82611014Y-48166363D01*
X82671446Y-48175935D01*
X82714710Y-48219200D01*
X82725500Y-48264144D01*
X82725500Y-49017100D01*
X82723031Y-49024697D01*
X82724281Y-49032586D01*
X82713757Y-49053239D01*
X82706593Y-49075291D01*
X82696504Y-49087103D01*
X82618105Y-49165503D01*
X82563589Y-49193281D01*
X82548101Y-49194500D01*
X82184174Y-49194500D01*
X82143932Y-49199798D01*
X82143929Y-49199798D01*
X82143927Y-49199799D01*
X82016760Y-49233874D01*
X82016754Y-49233876D01*
X82013702Y-49234913D01*
X82013633Y-49234711D01*
X82013629Y-49234713D01*
X82013609Y-49234642D01*
X82013428Y-49234107D01*
X81999975Y-49235163D01*
X81984179Y-49241232D01*
X81970236Y-49237499D01*
X81955846Y-49238630D01*
X81941419Y-49229786D01*
X81925075Y-49225411D01*
X81915988Y-49214196D01*
X81903682Y-49206652D01*
X81897209Y-49191018D01*
X81886557Y-49177871D01*
X81885800Y-49163461D01*
X81880277Y-49150120D01*
X81883340Y-49116770D01*
X81883492Y-49116200D01*
X81884350Y-49113000D01*
X81900501Y-49052727D01*
X81900501Y-48947273D01*
X81900501Y-48941211D01*
X81900500Y-48941193D01*
X81900500Y-48260342D01*
X81919407Y-48202151D01*
X81968907Y-48166187D01*
X82014988Y-48162561D01*
X82093516Y-48174999D01*
X82174999Y-48174998D01*
X82175000Y-48174998D01*
X82175000Y-46825001D01*
X82174998Y-46824999D01*
X82093522Y-46825000D01*
X82014985Y-46837438D01*
X81954553Y-46827865D01*
X81911289Y-46784599D01*
X81900500Y-46739656D01*
X81900500Y-46539478D01*
X81919407Y-46481287D01*
X81968907Y-46445323D01*
X82030093Y-46445323D01*
X82069501Y-46469472D01*
G37*
%TD.AperFunction*%
%TA.AperFunction,Conductor*%
G36*
X69969504Y-35384425D02*
G01*
X69972861Y-35387782D01*
X70112218Y-35527139D01*
X70276086Y-35636632D01*
X70458165Y-35712051D01*
X70651459Y-35750500D01*
X70651460Y-35750500D01*
X70848540Y-35750500D01*
X70848541Y-35750500D01*
X71041835Y-35712051D01*
X71054133Y-35706956D01*
X71115128Y-35702155D01*
X71162023Y-35728416D01*
X72070504Y-36636896D01*
X72098281Y-36691413D01*
X72099500Y-36706900D01*
X72099500Y-39447273D01*
X72099500Y-39552727D01*
X72123570Y-39642559D01*
X72126794Y-39654592D01*
X72179516Y-39745908D01*
X72179518Y-39745910D01*
X72179520Y-39745913D01*
X74570505Y-42136898D01*
X74598281Y-42191413D01*
X74599500Y-42206900D01*
X74599500Y-43422259D01*
X74580593Y-43480450D01*
X74531093Y-43516414D01*
X74474728Y-43516414D01*
X74474679Y-43516662D01*
X74473432Y-43516414D01*
X74469907Y-43516414D01*
X74465783Y-43514892D01*
X74388410Y-43499501D01*
X74388402Y-43499500D01*
X74388401Y-43499500D01*
X74388400Y-43499500D01*
X74111602Y-43499500D01*
X74111595Y-43499501D01*
X74034883Y-43514759D01*
X74034881Y-43514760D01*
X73947890Y-43572886D01*
X73947886Y-43572890D01*
X73889762Y-43659879D01*
X73889759Y-43659885D01*
X73874769Y-43735241D01*
X73847676Y-43785929D01*
X73846316Y-43787289D01*
X73791799Y-43815066D01*
X73731367Y-43805495D01*
X73726813Y-43803022D01*
X73693187Y-43783608D01*
X73627419Y-43765986D01*
X73565892Y-43749500D01*
X73434108Y-43749500D01*
X73306814Y-43783608D01*
X73306813Y-43783608D01*
X73306811Y-43783609D01*
X73258750Y-43811357D01*
X73215658Y-43836236D01*
X73166160Y-43849500D01*
X72970143Y-43849500D01*
X72911952Y-43830593D01*
X72875988Y-43781093D01*
X72875988Y-43719907D01*
X72881934Y-43705554D01*
X72910163Y-43650151D01*
X72910164Y-43650147D01*
X72925000Y-43556484D01*
X72925000Y-43400001D01*
X72924999Y-43400000D01*
X71725002Y-43400000D01*
X71725001Y-43400001D01*
X71725001Y-43556485D01*
X71739833Y-43650141D01*
X71739836Y-43650151D01*
X71768066Y-43705554D01*
X71777638Y-43765986D01*
X71749861Y-43820503D01*
X71695345Y-43848281D01*
X71679857Y-43849500D01*
X71349500Y-43849500D01*
X71291309Y-43830593D01*
X71255345Y-43781093D01*
X71250500Y-43750500D01*
X71250500Y-42943515D01*
X71725000Y-42943515D01*
X71725000Y-43099999D01*
X71725001Y-43100000D01*
X72174999Y-43100000D01*
X72175000Y-43099999D01*
X72175000Y-42575001D01*
X72475000Y-42575001D01*
X72475000Y-43099999D01*
X72475001Y-43100000D01*
X72924998Y-43100000D01*
X72924999Y-43099999D01*
X72924999Y-42943516D01*
X72924998Y-42943514D01*
X72910166Y-42849858D01*
X72910163Y-42849848D01*
X72852641Y-42736956D01*
X72763043Y-42647358D01*
X72650151Y-42589836D01*
X72650147Y-42589835D01*
X72556484Y-42575000D01*
X72475001Y-42575000D01*
X72475000Y-42575001D01*
X72175000Y-42575001D01*
X72174998Y-42574999D01*
X72093517Y-42575000D01*
X72093514Y-42575001D01*
X71999858Y-42589833D01*
X71999848Y-42589836D01*
X71886956Y-42647358D01*
X71797358Y-42736956D01*
X71739836Y-42849848D01*
X71739835Y-42849852D01*
X71725000Y-42943515D01*
X71250500Y-42943515D01*
X71250500Y-41547274D01*
X71250500Y-41547273D01*
X71223207Y-41445413D01*
X71170480Y-41354087D01*
X71167236Y-41348468D01*
X71168488Y-41347744D01*
X71150534Y-41297021D01*
X71150500Y-41294442D01*
X71150500Y-38233190D01*
X71169407Y-38174999D01*
X71211615Y-38141725D01*
X71223914Y-38136632D01*
X71387782Y-38027139D01*
X71527139Y-37887782D01*
X71636632Y-37723914D01*
X71712051Y-37541835D01*
X71750500Y-37348541D01*
X71750500Y-37151459D01*
X71712051Y-36958165D01*
X71636632Y-36776086D01*
X71527139Y-36612218D01*
X71387782Y-36472861D01*
X71259809Y-36387352D01*
X71223913Y-36363367D01*
X71041835Y-36287949D01*
X70848543Y-36249500D01*
X70848541Y-36249500D01*
X70651459Y-36249500D01*
X70651456Y-36249500D01*
X70458165Y-36287949D01*
X70458163Y-36287949D01*
X70276086Y-36363367D01*
X70112218Y-36472861D01*
X70112214Y-36472864D01*
X69969504Y-36615575D01*
X69914987Y-36643352D01*
X69854555Y-36633781D01*
X69811290Y-36590516D01*
X69800500Y-36545571D01*
X69800500Y-35454429D01*
X69819407Y-35396238D01*
X69868907Y-35360274D01*
X69930093Y-35360274D01*
X69969504Y-35384425D01*
G37*
%TD.AperFunction*%
%TD*%
M02*
