M48
; DRILL file {KiCad 9.0.5} date 2025-10-29T22:07:00+0100
; FORMAT={-:-/ absolute / metric / decimal}
; #@! TF.CreationDate,2025-10-29T22:07:00+01:00
; #@! TF.GenerationSoftware,Kicad,Pcbnew,9.0.5
; #@! TF.FileFunction,Plated,1,2,PTH
FMAT,2
METRIC
; #@! TA.AperFunction,Plated,PTH,ViaDrill
T1C0.300
; #@! TA.AperFunction,Plated,PTH,ComponentDrill
T2C0.750
; #@! TA.AperFunction,Plated,PTH,ComponentDrill
T3C0.900
; #@! TA.AperFunction,Plated,PTH,ComponentDrill
T4C1.000
%
G90
G05
T1
X70.5Y-59.5
X71.55Y-43.5
X71.75Y-54.25
X71.75Y-63.6
X72.25Y-45.5
X72.4Y-86.0
X72.5Y-75.5
X73.117Y-59.5
X73.25Y-57.5
X73.25Y-71.0
X73.367Y-61.0
X73.4Y-63.5
X73.5Y-43.25
X73.5Y-44.25
X74.3Y-86.0
X74.5Y-74.0
X74.5Y-81.75
X74.5Y-82.75
X74.5Y-83.75
X75.0Y-45.0
X75.25Y-37.25
X75.675Y-74.988
X75.675Y-77.0
X76.0Y-47.0
X76.45Y-50.112
X76.5Y-76.0
X76.75Y-86.5
X77.0Y-44.25
X77.0Y-58.1
X77.75Y-76.0
X77.95Y-48.612
X77.95Y-49.612
X78.0Y-56.9
X78.25Y-37.25
X79.469Y-50.09
X79.675Y-45.635
X80.75Y-55.5
X81.5Y-67.75
X81.5Y-82.25
X81.75Y-59.0
X82.25Y-48.75
X82.5Y-51.15
X82.6Y-35.5
X83.0Y-56.25
X83.186Y-46.985
X83.5Y-74.75
T2
X82.6Y-53.0
X82.6Y-55.0
T3
X72.25Y-47.73
X72.25Y-50.27
T4
X70.75Y-34.75
X70.75Y-37.25
X73.25Y-27.19
X73.25Y-29.73
X73.25Y-32.27
X73.25Y-34.81
M30
