%TF.GenerationSoftware,KiCad,Pcbnew,9.0.6-9.0.6~ubuntu24.04.1*%
%TF.CreationDate,2025-11-27T16:32:03+01:00*%
%TF.ProjectId,GB_DMG_PSU,47425f44-4d47-45f5-9053-552e6b696361,rev?*%
%TF.SameCoordinates,Original*%
%TF.FileFunction,Copper,L1,Top*%
%TF.FilePolarity,Positive*%
%FSLAX46Y46*%
G04 Gerber Fmt 4.6, Leading zero omitted, Abs format (unit mm)*
G04 Created by KiCad (PCBNEW 9.0.6-9.0.6~ubuntu24.04.1) date 2025-11-27 16:32:03*
%MOMM*%
%LPD*%
G01*
G04 APERTURE LIST*
G04 Aperture macros list*
%AMRoundRect*
0 Rectangle with rounded corners*
0 $1 Rounding radius*
0 $2 $3 $4 $5 $6 $7 $8 $9 X,Y pos of 4 corners*
0 Add a 4 corners polygon primitive as box body*
4,1,4,$2,$3,$4,$5,$6,$7,$8,$9,$2,$3,0*
0 Add four circle primitives for the rounded corners*
1,1,$1+$1,$2,$3*
1,1,$1+$1,$4,$5*
1,1,$1+$1,$6,$7*
1,1,$1+$1,$8,$9*
0 Add four rect primitives between the rounded corners*
20,1,$1+$1,$2,$3,$4,$5,0*
20,1,$1+$1,$4,$5,$6,$7,0*
20,1,$1+$1,$6,$7,$8,$9,0*
20,1,$1+$1,$8,$9,$2,$3,0*%
G04 Aperture macros list end*
%ADD10C,0.150000*%
%TA.AperFunction,SMDPad,CuDef*%
%ADD11RoundRect,0.250000X0.250000X0.475000X-0.250000X0.475000X-0.250000X-0.475000X0.250000X-0.475000X0*%
%TD*%
%TA.AperFunction,SMDPad,CuDef*%
%ADD12RoundRect,0.225000X-0.225000X-0.250000X0.225000X-0.250000X0.225000X0.250000X-0.225000X0.250000X0*%
%TD*%
%TA.AperFunction,SMDPad,CuDef*%
%ADD13RoundRect,0.200000X-0.200000X-0.275000X0.200000X-0.275000X0.200000X0.275000X-0.200000X0.275000X0*%
%TD*%
%TA.AperFunction,SMDPad,CuDef*%
%ADD14RoundRect,0.112500X-0.187500X-0.112500X0.187500X-0.112500X0.187500X0.112500X-0.187500X0.112500X0*%
%TD*%
%TA.AperFunction,SMDPad,CuDef*%
%ADD15RoundRect,0.249999X1.850001X-0.450001X1.850001X0.450001X-1.850001X0.450001X-1.850001X-0.450001X0*%
%TD*%
%TA.AperFunction,SMDPad,CuDef*%
%ADD16RoundRect,0.250000X-0.325000X-0.650000X0.325000X-0.650000X0.325000X0.650000X-0.325000X0.650000X0*%
%TD*%
%TA.AperFunction,SMDPad,CuDef*%
%ADD17RoundRect,0.250000X-0.250000X-0.475000X0.250000X-0.475000X0.250000X0.475000X-0.250000X0.475000X0*%
%TD*%
%TA.AperFunction,SMDPad,CuDef*%
%ADD18RoundRect,0.249999X0.450001X1.850001X-0.450001X1.850001X-0.450001X-1.850001X0.450001X-1.850001X0*%
%TD*%
%TA.AperFunction,ComponentPad*%
%ADD19C,1.700000*%
%TD*%
%TA.AperFunction,ComponentPad*%
%ADD20R,1.700000X1.700000*%
%TD*%
%TA.AperFunction,SMDPad,CuDef*%
%ADD21RoundRect,0.225000X0.250000X-0.225000X0.250000X0.225000X-0.250000X0.225000X-0.250000X-0.225000X0*%
%TD*%
%TA.AperFunction,SMDPad,CuDef*%
%ADD22RoundRect,0.200000X-0.275000X0.200000X-0.275000X-0.200000X0.275000X-0.200000X0.275000X0.200000X0*%
%TD*%
%TA.AperFunction,SMDPad,CuDef*%
%ADD23RoundRect,0.225000X-0.250000X0.225000X-0.250000X-0.225000X0.250000X-0.225000X0.250000X0.225000X0*%
%TD*%
%TA.AperFunction,SMDPad,CuDef*%
%ADD24RoundRect,0.150000X0.512500X0.150000X-0.512500X0.150000X-0.512500X-0.150000X0.512500X-0.150000X0*%
%TD*%
%TA.AperFunction,SMDPad,CuDef*%
%ADD25RoundRect,0.200000X0.200000X0.275000X-0.200000X0.275000X-0.200000X-0.275000X0.200000X-0.275000X0*%
%TD*%
%TA.AperFunction,SMDPad,CuDef*%
%ADD26RoundRect,0.112500X0.187500X0.112500X-0.187500X0.112500X-0.187500X-0.112500X0.187500X-0.112500X0*%
%TD*%
%TA.AperFunction,SMDPad,CuDef*%
%ADD27RoundRect,0.112500X-0.112500X0.187500X-0.112500X-0.187500X0.112500X-0.187500X0.112500X0.187500X0*%
%TD*%
%TA.AperFunction,ViaPad*%
%ADD28C,0.700000*%
%TD*%
%TA.AperFunction,Conductor*%
%ADD29C,0.200000*%
%TD*%
%TA.AperFunction,Conductor*%
%ADD30C,0.500000*%
%TD*%
%TA.AperFunction,Conductor*%
%ADD31C,1.000000*%
%TD*%
G04 APERTURE END LIST*
D10*
G36*
X75869444Y-30286744D02*
G01*
X75130555Y-30286744D01*
X75130555Y-29500633D01*
X75208333Y-29500633D01*
X75208333Y-29733966D01*
X75209774Y-29748598D01*
X75220973Y-29775634D01*
X75241665Y-29796326D01*
X75268701Y-29807525D01*
X75283333Y-29808966D01*
X75416666Y-29808966D01*
X75431298Y-29807525D01*
X75458334Y-29796326D01*
X75479026Y-29775634D01*
X75490225Y-29748598D01*
X75490225Y-29719334D01*
X75479026Y-29692298D01*
X75458334Y-29671606D01*
X75431298Y-29660407D01*
X75416666Y-29658966D01*
X75358333Y-29658966D01*
X75358333Y-29532467D01*
X75428836Y-29508966D01*
X75471162Y-29508966D01*
X75542819Y-29532852D01*
X75588360Y-29578393D01*
X75612568Y-29626808D01*
X75641666Y-29743199D01*
X75641666Y-29824732D01*
X75612568Y-29941124D01*
X75588361Y-29989539D01*
X75542819Y-30035080D01*
X75471163Y-30058966D01*
X75401038Y-30058966D01*
X75350207Y-30033551D01*
X75336475Y-30028296D01*
X75307285Y-30026222D01*
X75279524Y-30035476D01*
X75257416Y-30054650D01*
X75244329Y-30080824D01*
X75242255Y-30110014D01*
X75251509Y-30137775D01*
X75270683Y-30159883D01*
X75283125Y-30167715D01*
X75349793Y-30201048D01*
X75363524Y-30206303D01*
X75366211Y-30206493D01*
X75368701Y-30207525D01*
X75383333Y-30208966D01*
X75483333Y-30208966D01*
X75490738Y-30208236D01*
X75492713Y-30208377D01*
X75495310Y-30207786D01*
X75497965Y-30207525D01*
X75499796Y-30206766D01*
X75507050Y-30205117D01*
X75607050Y-30171784D01*
X75620475Y-30165790D01*
X75622510Y-30164024D01*
X75625001Y-30162993D01*
X75636366Y-30153666D01*
X75703033Y-30086999D01*
X75707751Y-30081249D01*
X75709250Y-30079950D01*
X75710671Y-30077690D01*
X75712360Y-30075634D01*
X75713117Y-30073806D01*
X75717082Y-30067507D01*
X75750415Y-30000841D01*
X75750824Y-29999771D01*
X75751147Y-29999336D01*
X75753342Y-29993190D01*
X75755670Y-29987109D01*
X75755708Y-29986569D01*
X75756094Y-29985490D01*
X75789427Y-29852156D01*
X75789802Y-29849619D01*
X75790225Y-29848598D01*
X75790767Y-29843085D01*
X75791577Y-29837612D01*
X75791414Y-29836519D01*
X75791666Y-29833966D01*
X75791666Y-29733966D01*
X75791414Y-29731412D01*
X75791577Y-29730320D01*
X75790767Y-29724846D01*
X75790225Y-29719334D01*
X75789802Y-29718312D01*
X75789427Y-29715776D01*
X75756094Y-29582443D01*
X75755708Y-29581363D01*
X75755670Y-29580824D01*
X75753345Y-29574748D01*
X75751147Y-29568597D01*
X75750823Y-29568160D01*
X75750415Y-29567093D01*
X75717082Y-29500425D01*
X75713117Y-29494127D01*
X75712360Y-29492298D01*
X75710669Y-29490238D01*
X75709250Y-29487983D01*
X75707753Y-29486685D01*
X75703033Y-29480933D01*
X75636366Y-29414267D01*
X75625000Y-29404939D01*
X75622509Y-29403907D01*
X75620475Y-29402143D01*
X75607050Y-29396149D01*
X75507051Y-29362815D01*
X75499795Y-29361165D01*
X75497965Y-29360407D01*
X75495311Y-29360145D01*
X75492714Y-29359555D01*
X75490738Y-29359695D01*
X75483333Y-29358966D01*
X75416666Y-29358966D01*
X75409259Y-29359695D01*
X75407285Y-29359555D01*
X75404687Y-29360145D01*
X75402034Y-29360407D01*
X75400203Y-29361165D01*
X75392948Y-29362815D01*
X75292948Y-29396149D01*
X75279523Y-29402143D01*
X75277486Y-29403909D01*
X75274998Y-29404940D01*
X75263633Y-29414267D01*
X75230300Y-29447600D01*
X75220973Y-29458965D01*
X75209774Y-29486001D01*
X75208333Y-29500633D01*
X75130555Y-29500633D01*
X75130555Y-29281188D01*
X75869444Y-29281188D01*
X75869444Y-30286744D01*
G37*
G36*
X76485522Y-27536744D02*
G01*
X74381996Y-27536744D01*
X74381996Y-26736002D01*
X74459774Y-26736002D01*
X74459774Y-26765264D01*
X74470973Y-26792301D01*
X74491665Y-26812993D01*
X74518702Y-26824192D01*
X74547964Y-26824192D01*
X74575001Y-26812993D01*
X74586366Y-26803666D01*
X74607179Y-26782852D01*
X74678836Y-26758966D01*
X74721162Y-26758966D01*
X74792819Y-26782852D01*
X74838360Y-26828393D01*
X74862568Y-26876808D01*
X74891666Y-26993199D01*
X74891666Y-27074732D01*
X74862568Y-27191124D01*
X74838361Y-27239539D01*
X74792819Y-27285080D01*
X74721163Y-27308966D01*
X74678836Y-27308966D01*
X74607179Y-27285080D01*
X74586366Y-27264267D01*
X74575001Y-27254940D01*
X74547964Y-27243741D01*
X74518702Y-27243741D01*
X74491665Y-27254940D01*
X74470973Y-27275632D01*
X74459774Y-27302669D01*
X74459774Y-27331931D01*
X74470973Y-27358968D01*
X74480300Y-27370333D01*
X74513633Y-27403666D01*
X74524998Y-27412993D01*
X74527488Y-27414024D01*
X74529524Y-27415790D01*
X74542949Y-27421784D01*
X74642949Y-27455117D01*
X74650202Y-27456766D01*
X74652034Y-27457525D01*
X74654688Y-27457786D01*
X74657286Y-27458377D01*
X74659260Y-27458236D01*
X74666666Y-27458966D01*
X74733333Y-27458966D01*
X74740738Y-27458236D01*
X74742713Y-27458377D01*
X74745310Y-27457786D01*
X74747965Y-27457525D01*
X74749796Y-27456766D01*
X74757050Y-27455117D01*
X74857050Y-27421784D01*
X74870475Y-27415790D01*
X74872510Y-27414024D01*
X74875001Y-27412993D01*
X74886366Y-27403666D01*
X74953033Y-27336999D01*
X74957751Y-27331249D01*
X74959250Y-27329950D01*
X74960671Y-27327690D01*
X74962360Y-27325634D01*
X74963117Y-27323806D01*
X74967082Y-27317507D01*
X75000415Y-27250841D01*
X75000824Y-27249771D01*
X75001147Y-27249336D01*
X75003342Y-27243190D01*
X75005670Y-27237109D01*
X75005708Y-27236569D01*
X75006094Y-27235490D01*
X75039427Y-27102156D01*
X75039802Y-27099619D01*
X75040225Y-27098598D01*
X75040767Y-27093085D01*
X75041577Y-27087612D01*
X75041414Y-27086519D01*
X75041666Y-27083966D01*
X75041666Y-26983966D01*
X75041414Y-26981412D01*
X75041577Y-26980320D01*
X75040767Y-26974846D01*
X75040225Y-26969334D01*
X75039802Y-26968312D01*
X75039427Y-26965776D01*
X75006094Y-26832443D01*
X75005708Y-26831363D01*
X75005670Y-26830824D01*
X75003345Y-26824748D01*
X75001147Y-26818597D01*
X75000823Y-26818160D01*
X75000415Y-26817093D01*
X74967082Y-26750425D01*
X74963117Y-26744127D01*
X74962360Y-26742298D01*
X74960669Y-26740238D01*
X74959250Y-26737983D01*
X74957753Y-26736685D01*
X74957193Y-26736002D01*
X75159774Y-26736002D01*
X75159774Y-26765264D01*
X75170973Y-26792301D01*
X75191665Y-26812993D01*
X75218702Y-26824192D01*
X75247964Y-26824192D01*
X75275001Y-26812993D01*
X75286366Y-26803666D01*
X75307179Y-26782852D01*
X75378836Y-26758966D01*
X75421162Y-26758966D01*
X75492819Y-26782852D01*
X75538360Y-26828393D01*
X75562568Y-26876808D01*
X75591666Y-26993199D01*
X75591666Y-27074732D01*
X75562568Y-27191124D01*
X75538361Y-27239539D01*
X75492819Y-27285080D01*
X75421163Y-27308966D01*
X75378836Y-27308966D01*
X75307179Y-27285080D01*
X75286366Y-27264267D01*
X75275001Y-27254940D01*
X75247964Y-27243741D01*
X75218702Y-27243741D01*
X75191665Y-27254940D01*
X75170973Y-27275632D01*
X75159774Y-27302669D01*
X75159774Y-27331931D01*
X75170973Y-27358968D01*
X75180300Y-27370333D01*
X75213633Y-27403666D01*
X75224998Y-27412993D01*
X75227488Y-27414024D01*
X75229524Y-27415790D01*
X75242949Y-27421784D01*
X75342949Y-27455117D01*
X75350202Y-27456766D01*
X75352034Y-27457525D01*
X75354688Y-27457786D01*
X75357286Y-27458377D01*
X75359260Y-27458236D01*
X75366666Y-27458966D01*
X75433333Y-27458966D01*
X75440738Y-27458236D01*
X75442713Y-27458377D01*
X75445310Y-27457786D01*
X75447965Y-27457525D01*
X75449796Y-27456766D01*
X75457050Y-27455117D01*
X75557050Y-27421784D01*
X75570475Y-27415790D01*
X75572510Y-27414024D01*
X75575001Y-27412993D01*
X75586366Y-27403666D01*
X75615446Y-27374586D01*
X75792255Y-27374586D01*
X75794330Y-27403776D01*
X75807416Y-27429949D01*
X75829523Y-27449123D01*
X75857286Y-27458377D01*
X75886476Y-27456302D01*
X75912649Y-27443216D01*
X75931823Y-27421109D01*
X75937817Y-27407683D01*
X76099999Y-26921135D01*
X76262182Y-27407683D01*
X76268176Y-27421109D01*
X76287350Y-27443216D01*
X76313523Y-27456303D01*
X76342713Y-27458378D01*
X76370476Y-27449123D01*
X76392583Y-27429950D01*
X76405670Y-27403776D01*
X76407744Y-27374586D01*
X76404484Y-27360249D01*
X76171151Y-26660249D01*
X76165157Y-26646823D01*
X76161645Y-26642774D01*
X76159250Y-26637983D01*
X76152145Y-26631820D01*
X76145983Y-26624716D01*
X76141191Y-26622320D01*
X76137143Y-26618809D01*
X76128219Y-26615834D01*
X76119810Y-26611630D01*
X76114465Y-26611250D01*
X76109380Y-26609555D01*
X76100000Y-26610221D01*
X76090620Y-26609555D01*
X76085534Y-26611250D01*
X76080190Y-26611630D01*
X76071780Y-26615834D01*
X76062857Y-26618809D01*
X76058808Y-26622320D01*
X76054017Y-26624716D01*
X76047854Y-26631820D01*
X76040750Y-26637983D01*
X76038354Y-26642774D01*
X76034843Y-26646823D01*
X76028849Y-26660249D01*
X75795515Y-27360249D01*
X75792255Y-27374586D01*
X75615446Y-27374586D01*
X75653033Y-27336999D01*
X75657751Y-27331249D01*
X75659250Y-27329950D01*
X75660671Y-27327690D01*
X75662360Y-27325634D01*
X75663117Y-27323806D01*
X75667082Y-27317507D01*
X75700415Y-27250841D01*
X75700824Y-27249771D01*
X75701147Y-27249336D01*
X75703342Y-27243190D01*
X75705670Y-27237109D01*
X75705708Y-27236569D01*
X75706094Y-27235490D01*
X75739427Y-27102156D01*
X75739802Y-27099619D01*
X75740225Y-27098598D01*
X75740767Y-27093085D01*
X75741577Y-27087612D01*
X75741414Y-27086519D01*
X75741666Y-27083966D01*
X75741666Y-26983966D01*
X75741414Y-26981412D01*
X75741577Y-26980320D01*
X75740767Y-26974846D01*
X75740225Y-26969334D01*
X75739802Y-26968312D01*
X75739427Y-26965776D01*
X75706094Y-26832443D01*
X75705708Y-26831363D01*
X75705670Y-26830824D01*
X75703345Y-26824748D01*
X75701147Y-26818597D01*
X75700823Y-26818160D01*
X75700415Y-26817093D01*
X75667082Y-26750425D01*
X75663117Y-26744127D01*
X75662360Y-26742298D01*
X75660669Y-26740238D01*
X75659250Y-26737983D01*
X75657753Y-26736685D01*
X75653033Y-26730933D01*
X75586366Y-26664267D01*
X75575000Y-26654939D01*
X75572509Y-26653907D01*
X75570475Y-26652143D01*
X75557050Y-26646149D01*
X75457051Y-26612815D01*
X75449795Y-26611165D01*
X75447965Y-26610407D01*
X75445311Y-26610145D01*
X75442714Y-26609555D01*
X75440738Y-26609695D01*
X75433333Y-26608966D01*
X75366666Y-26608966D01*
X75359259Y-26609695D01*
X75357285Y-26609555D01*
X75354687Y-26610145D01*
X75352034Y-26610407D01*
X75350203Y-26611165D01*
X75342948Y-26612815D01*
X75242948Y-26646149D01*
X75229523Y-26652143D01*
X75227486Y-26653909D01*
X75224998Y-26654940D01*
X75213633Y-26664267D01*
X75180300Y-26697600D01*
X75170973Y-26708965D01*
X75159774Y-26736002D01*
X74957193Y-26736002D01*
X74953033Y-26730933D01*
X74886366Y-26664267D01*
X74875000Y-26654939D01*
X74872509Y-26653907D01*
X74870475Y-26652143D01*
X74857050Y-26646149D01*
X74757051Y-26612815D01*
X74749795Y-26611165D01*
X74747965Y-26610407D01*
X74745311Y-26610145D01*
X74742714Y-26609555D01*
X74740738Y-26609695D01*
X74733333Y-26608966D01*
X74666666Y-26608966D01*
X74659259Y-26609695D01*
X74657285Y-26609555D01*
X74654687Y-26610145D01*
X74652034Y-26610407D01*
X74650203Y-26611165D01*
X74642948Y-26612815D01*
X74542948Y-26646149D01*
X74529523Y-26652143D01*
X74527486Y-26653909D01*
X74524998Y-26654940D01*
X74513633Y-26664267D01*
X74480300Y-26697600D01*
X74470973Y-26708965D01*
X74459774Y-26736002D01*
X74381996Y-26736002D01*
X74381996Y-26531188D01*
X76485522Y-26531188D01*
X76485522Y-27536744D01*
G37*
D11*
%TO.P,C14,1*%
%TO.N,+18V*%
X79950000Y-58100000D03*
%TO.P,C14,2*%
%TO.N,GND*%
X78050000Y-58100000D03*
%TD*%
D12*
%TO.P,C15,1*%
%TO.N,/pump2*%
X80475000Y-66500000D03*
%TO.P,C15,2*%
%TO.N,GND*%
X82025000Y-66500000D03*
%TD*%
D13*
%TO.P,R9,1*%
%TO.N,Net-(U2-EN)*%
X71175000Y-55345826D03*
%TO.P,R9,2*%
%TO.N,VCC*%
X72825000Y-55345826D03*
%TD*%
D14*
%TO.P,D1,1,K*%
%TO.N,+5V*%
X79700000Y-76750000D03*
%TO.P,D1,2,A*%
%TO.N,/sw2*%
X81800000Y-76750000D03*
%TD*%
D15*
%TO.P,L5,1*%
%TO.N,VCC*%
X76750000Y-66100000D03*
%TO.P,L5,2*%
%TO.N,/sw3*%
X76750000Y-62400000D03*
%TD*%
D16*
%TO.P,C3,1*%
%TO.N,-18V*%
X79625000Y-37200000D03*
%TO.P,C3,2*%
%TO.N,GND*%
X82575000Y-37200000D03*
%TD*%
D17*
%TO.P,C12,1*%
%TO.N,VCC*%
X71416652Y-62250000D03*
%TO.P,C12,2*%
%TO.N,GND*%
X73316652Y-62250000D03*
%TD*%
D11*
%TO.P,C4,1*%
%TO.N,+5V*%
X78450000Y-75000000D03*
%TO.P,C4,2*%
%TO.N,GND*%
X76550000Y-75000000D03*
%TD*%
D12*
%TO.P,C13,1*%
%TO.N,/sw3*%
X80475000Y-61500000D03*
%TO.P,C13,2*%
%TO.N,/pump1*%
X82025000Y-61500000D03*
%TD*%
D18*
%TO.P,L4,1*%
%TO.N,/sw2*%
X81350000Y-80750000D03*
%TO.P,L4,2*%
%TO.N,GND*%
X77650000Y-80750000D03*
%TD*%
D16*
%TO.P,C10,1*%
%TO.N,+5V*%
X74025000Y-37250000D03*
%TO.P,C10,2*%
%TO.N,GND*%
X76975000Y-37250000D03*
%TD*%
D19*
%TO.P,J2,1,Pin_1*%
%TO.N,+5V*%
X73250000Y-34810000D03*
%TO.P,J2,2,Pin_2*%
%TO.N,-18V*%
X73250000Y-32270000D03*
D20*
%TO.P,J2,3,Pin_3*%
%TO.N,GND*%
X73250000Y-29730000D03*
D19*
%TO.P,J2,4,Pin_4*%
%TO.N,VCC*%
X73250000Y-27190000D03*
%TD*%
D21*
%TO.P,C5,1*%
%TO.N,-18V*%
X80500000Y-73300000D03*
%TO.P,C5,2*%
%TO.N,GND*%
X80500000Y-71750000D03*
%TD*%
D13*
%TO.P,R12,1*%
%TO.N,Net-(U2-FB)*%
X74291652Y-56750000D03*
%TO.P,R12,2*%
%TO.N,GND*%
X75941652Y-56750000D03*
%TD*%
%TO.P,R8,1*%
%TO.N,Net-(U3-EN)*%
X71675000Y-72500000D03*
%TO.P,R8,2*%
%TO.N,VCC*%
X73325000Y-72500000D03*
%TD*%
D22*
%TO.P,R14,1*%
%TO.N,/pump2*%
X82000000Y-71700000D03*
%TO.P,R14,2*%
%TO.N,-18V*%
X82000000Y-73350000D03*
%TD*%
D23*
%TO.P,C9,1*%
%TO.N,/sw*%
X75750000Y-84975000D03*
%TO.P,C9,2*%
%TO.N,/sw2*%
X75750000Y-86525000D03*
%TD*%
D24*
%TO.P,U3,1,SW*%
%TO.N,/sw*%
X75637500Y-83200000D03*
%TO.P,U3,2,GND*%
%TO.N,GND*%
X75637500Y-82250000D03*
%TO.P,U3,3,FB*%
%TO.N,Net-(U3-FB)*%
X75637500Y-81300000D03*
%TO.P,U3,4,EN*%
%TO.N,Net-(U3-EN)*%
X73362500Y-81300000D03*
%TO.P,U3,5,IN*%
%TO.N,VCC*%
X73362500Y-83200000D03*
%TD*%
D13*
%TO.P,R1,1*%
%TO.N,Net-(U3-FB)*%
X73425000Y-79750000D03*
%TO.P,R1,2*%
%TO.N,GND*%
X75075000Y-79750000D03*
%TD*%
D24*
%TO.P,U2,1,SW*%
%TO.N,/sw3*%
X74391652Y-60400000D03*
%TO.P,U2,2,GND*%
%TO.N,GND*%
X74391652Y-59450000D03*
%TO.P,U2,3,FB*%
%TO.N,Net-(U2-FB)*%
X74391652Y-58500000D03*
%TO.P,U2,4,EN*%
%TO.N,Net-(U2-EN)*%
X72116652Y-58500000D03*
%TO.P,U2,5,IN*%
%TO.N,VCC*%
X72116652Y-60400000D03*
%TD*%
D17*
%TO.P,C11,1*%
%TO.N,VCC*%
X72350000Y-85000000D03*
%TO.P,C11,2*%
%TO.N,GND*%
X74250000Y-85000000D03*
%TD*%
D25*
%TO.P,R7,1*%
%TO.N,+5V*%
X75075000Y-78250000D03*
%TO.P,R7,2*%
%TO.N,Net-(U3-FB)*%
X73425000Y-78250000D03*
%TD*%
D11*
%TO.P,C2,1*%
%TO.N,+5V*%
X78450000Y-77000000D03*
%TO.P,C2,2*%
%TO.N,GND*%
X76550000Y-77000000D03*
%TD*%
D13*
%TO.P,R13,1*%
%TO.N,/pump2*%
X80425000Y-65000000D03*
%TO.P,R13,2*%
%TO.N,GND*%
X82075000Y-65000000D03*
%TD*%
D26*
%TO.P,D5,1,K*%
%TO.N,/pump1*%
X82350000Y-63250000D03*
%TO.P,D5,2,A*%
%TO.N,/pump2*%
X80250000Y-63250000D03*
%TD*%
D13*
%TO.P,R10,1*%
%TO.N,Net-(U2-EN)*%
X71175000Y-56845826D03*
%TO.P,R10,2*%
%TO.N,GND*%
X72825000Y-56845826D03*
%TD*%
D25*
%TO.P,R11,1*%
%TO.N,+18V*%
X75941652Y-55250000D03*
%TO.P,R11,2*%
%TO.N,Net-(U2-FB)*%
X74291652Y-55250000D03*
%TD*%
D13*
%TO.P,R3,1*%
%TO.N,Net-(U3-EN)*%
X71675000Y-74000000D03*
%TO.P,R3,2*%
%TO.N,GND*%
X73325000Y-74000000D03*
%TD*%
D17*
%TO.P,C1,1*%
%TO.N,VCC*%
X72350000Y-87000000D03*
%TO.P,C1,2*%
%TO.N,GND*%
X74250000Y-87000000D03*
%TD*%
D26*
%TO.P,D4,1,K*%
%TO.N,+18V*%
X80050000Y-60000000D03*
%TO.P,D4,2,A*%
%TO.N,/sw3*%
X77950000Y-60000000D03*
%TD*%
D15*
%TO.P,L3,1*%
%TO.N,VCC*%
X79500000Y-88600000D03*
%TO.P,L3,2*%
%TO.N,/sw*%
X79500000Y-84900000D03*
%TD*%
D27*
%TO.P,D6,1,K*%
%TO.N,GND*%
X82000000Y-58200000D03*
%TO.P,D6,2,A*%
%TO.N,/pump1*%
X82000000Y-60300000D03*
%TD*%
D28*
%TO.N,GND*%
X83750000Y-69000000D03*
X83750000Y-84750000D03*
X83750000Y-55000000D03*
X83750000Y-60250000D03*
X83750000Y-72500000D03*
X83750000Y-76000000D03*
X70250000Y-51500000D03*
X70250000Y-86500000D03*
X74500000Y-74000000D03*
X82600000Y-35500000D03*
X78750000Y-90000000D03*
X83750000Y-58500000D03*
X73250000Y-57750000D03*
X74500000Y-83750000D03*
X83750000Y-88250000D03*
X75250000Y-90000000D03*
X70250000Y-72500000D03*
X81500000Y-67750000D03*
X83750000Y-70750000D03*
X70250000Y-74250000D03*
X83750000Y-53250000D03*
X83750000Y-83000000D03*
X83750000Y-86500000D03*
X83750000Y-74250000D03*
X74500000Y-82750000D03*
X75675000Y-77000000D03*
X70250000Y-79500000D03*
X81750000Y-59000000D03*
X70250000Y-76000000D03*
X83750000Y-79500000D03*
X70250000Y-90000000D03*
X83750000Y-77750000D03*
X70250000Y-60250000D03*
X73250000Y-59500000D03*
X83750000Y-49750000D03*
X70250000Y-81250000D03*
X83750000Y-63750000D03*
X73400000Y-63500000D03*
X70250000Y-83000000D03*
X71750000Y-90000000D03*
X70250000Y-88250000D03*
X83750000Y-90000000D03*
X75250000Y-37250000D03*
X83750000Y-81250000D03*
X76500000Y-76000000D03*
X83750000Y-67250000D03*
X70250000Y-49750000D03*
X72500000Y-75500000D03*
X77000000Y-90000000D03*
X70250000Y-63750000D03*
X82250000Y-90000000D03*
X73500000Y-90000000D03*
X70250000Y-69000000D03*
X75675000Y-74988198D03*
X74300000Y-86000000D03*
X80500000Y-90000000D03*
X74500000Y-81750000D03*
X70250000Y-56750000D03*
X70250000Y-65500000D03*
X70250000Y-55000000D03*
X78000000Y-56900000D03*
X77000000Y-58100000D03*
X70250000Y-70750000D03*
X70250000Y-53250000D03*
X70250000Y-67250000D03*
X70250000Y-62000000D03*
X73366652Y-61000000D03*
X83750000Y-56750000D03*
X83750000Y-65500000D03*
X83750000Y-51500000D03*
X83750000Y-62000000D03*
X70250000Y-58500000D03*
X70250000Y-77750000D03*
X70250000Y-84750000D03*
X78250000Y-37250000D03*
%TO.N,+5V*%
X74025000Y-39000000D03*
X77750000Y-76000000D03*
%TO.N,-18V*%
X83000000Y-73350000D03*
X81000000Y-37250000D03*
%TO.N,VCC*%
X71750000Y-63600000D03*
X72400000Y-86000000D03*
X71750000Y-54250000D03*
X73250000Y-71000000D03*
%TO.N,/sw2*%
X81500000Y-82250000D03*
X76750000Y-86500000D03*
%TD*%
D29*
%TO.N,+5V*%
X75705292Y-74022574D02*
X77472574Y-74022574D01*
X78275000Y-74825000D02*
X78275000Y-75075000D01*
X75075000Y-74652866D02*
X75705292Y-74022574D01*
D30*
X74025000Y-39000000D02*
X74025000Y-37250000D01*
D31*
X74025000Y-37250000D02*
X74025000Y-35585000D01*
D29*
X77472574Y-74022574D02*
X78275000Y-74825000D01*
X75075000Y-78250000D02*
X75075000Y-74652866D01*
D31*
X74025000Y-35585000D02*
X73250000Y-34810000D01*
D29*
%TO.N,-18V*%
X79675000Y-37250000D02*
X81000000Y-37250000D01*
X79625000Y-37200000D02*
X79675000Y-37250000D01*
D30*
X77925000Y-35500000D02*
X76750000Y-35500000D01*
D29*
X83000000Y-73350000D02*
X80550000Y-73350000D01*
D30*
X73520000Y-32270000D02*
X73250000Y-32270000D01*
X79625000Y-37200000D02*
X77925000Y-35500000D01*
D29*
X80550000Y-73350000D02*
X80500000Y-73300000D01*
D30*
X76750000Y-35500000D02*
X73520000Y-32270000D01*
D29*
%TO.N,Net-(U3-FB)*%
X74975001Y-81300000D02*
X75637500Y-81300000D01*
X73425000Y-79750000D02*
X74975001Y-81300000D01*
X73425000Y-78250000D02*
X73425000Y-79750000D01*
%TO.N,Net-(U3-EN)*%
X71675000Y-74000000D02*
X71675000Y-80675000D01*
X71675000Y-72250000D02*
X71675000Y-74000000D01*
X72300000Y-81300000D02*
X73362500Y-81300000D01*
X71675000Y-80675000D02*
X72300000Y-81300000D01*
%TO.N,VCC*%
X72250000Y-54250000D02*
X72825000Y-54825000D01*
X73250000Y-71000000D02*
X73325000Y-71075000D01*
X72825000Y-54825000D02*
X72825000Y-55345826D01*
X71750000Y-54250000D02*
X72250000Y-54250000D01*
X73325000Y-71075000D02*
X73325000Y-72250000D01*
%TO.N,Net-(U2-EN)*%
X71175000Y-56845826D02*
X71175000Y-57558348D01*
X71116652Y-55404174D02*
X71116652Y-56787478D01*
X71175000Y-57558348D02*
X72116652Y-58500000D01*
X70925000Y-55000000D02*
X70866652Y-55058348D01*
%TO.N,Net-(U2-FB)*%
X74291652Y-55250000D02*
X74291652Y-58400000D01*
X74291652Y-58400000D02*
X74391652Y-58500000D01*
D30*
%TO.N,/sw*%
X75637500Y-84862500D02*
X75750000Y-84975000D01*
X79425000Y-84975000D02*
X79500000Y-84900000D01*
D29*
%TO.N,/sw2*%
X75750000Y-86525000D02*
X76725000Y-86525000D01*
X76725000Y-86525000D02*
X76750000Y-86500000D01*
%TO.N,+18V*%
X75941652Y-55250000D02*
X77866652Y-55250000D01*
X79641652Y-57025000D02*
X79641652Y-58500000D01*
X77866652Y-55250000D02*
X79641652Y-57025000D01*
D30*
%TO.N,/sw3*%
X80000000Y-61500000D02*
X79100000Y-62400000D01*
X80475000Y-61500000D02*
X80000000Y-61500000D01*
X79100000Y-62400000D02*
X76750000Y-62400000D01*
%TO.N,/pump2*%
X82000000Y-71700000D02*
X82000000Y-71000000D01*
X82000000Y-71000000D02*
X80475000Y-69475000D01*
X80475000Y-69475000D02*
X80475000Y-67000000D01*
%TD*%
%TA.AperFunction,Conductor*%
%TO.N,/pump1*%
G36*
X82943039Y-59975185D02*
G01*
X82988794Y-60027989D01*
X83000000Y-60079500D01*
X83000000Y-63470500D01*
X82980315Y-63537539D01*
X82927511Y-63583294D01*
X82876000Y-63594500D01*
X81374000Y-63594500D01*
X81306961Y-63574815D01*
X81261206Y-63522011D01*
X81250000Y-63470500D01*
X81250000Y-60079500D01*
X81269685Y-60012461D01*
X81322489Y-59966706D01*
X81374000Y-59955500D01*
X82876000Y-59955500D01*
X82943039Y-59975185D01*
G37*
%TD.AperFunction*%
%TD*%
%TA.AperFunction,Conductor*%
%TO.N,/pump2*%
G36*
X81037539Y-62519685D02*
G01*
X81083294Y-62572489D01*
X81094500Y-62624000D01*
X81094500Y-63470508D01*
X81098054Y-63503555D01*
X81109259Y-63555066D01*
X81113617Y-63563770D01*
X81126024Y-63632530D01*
X81118319Y-63656149D01*
X81119558Y-63656481D01*
X81094500Y-63750000D01*
X81094500Y-67126000D01*
X81074815Y-67193039D01*
X81022011Y-67238794D01*
X80970500Y-67250000D01*
X79874000Y-67250000D01*
X79806961Y-67230315D01*
X79761206Y-67177511D01*
X79750000Y-67126000D01*
X79750000Y-62624000D01*
X79769685Y-62556961D01*
X79822489Y-62511206D01*
X79874000Y-62500000D01*
X80970500Y-62500000D01*
X81037539Y-62519685D01*
G37*
%TD.AperFunction*%
%TD*%
%TA.AperFunction,Conductor*%
%TO.N,VCC*%
G36*
X73443039Y-82769685D02*
G01*
X73488794Y-82822489D01*
X73500000Y-82874000D01*
X73500000Y-83470500D01*
X73480315Y-83537539D01*
X73427511Y-83583294D01*
X73376000Y-83594500D01*
X73250000Y-83594500D01*
X73172248Y-83615333D01*
X73115333Y-83672248D01*
X73094500Y-83750000D01*
X73094500Y-87000000D01*
X73099775Y-87019685D01*
X73115333Y-87077751D01*
X73172248Y-87134666D01*
X73172249Y-87134666D01*
X73172250Y-87134667D01*
X73250000Y-87155500D01*
X73475501Y-87155500D01*
X73542540Y-87175185D01*
X73588295Y-87227989D01*
X73599501Y-87279500D01*
X73599501Y-87506518D01*
X73614354Y-87600304D01*
X73671950Y-87713342D01*
X73671952Y-87713344D01*
X73671954Y-87713347D01*
X73761652Y-87803045D01*
X73761654Y-87803046D01*
X73761658Y-87803050D01*
X73874694Y-87860645D01*
X73874698Y-87860647D01*
X73968475Y-87875499D01*
X73968481Y-87875500D01*
X74531518Y-87875499D01*
X74625304Y-87860646D01*
X74738342Y-87803050D01*
X74828050Y-87713342D01*
X74885646Y-87600304D01*
X74885646Y-87600302D01*
X74885647Y-87600301D01*
X74900500Y-87506524D01*
X74900500Y-87277309D01*
X74920185Y-87210270D01*
X74964059Y-87169037D01*
X74988309Y-87155500D01*
X75000000Y-87155500D01*
X75077750Y-87134667D01*
X75134667Y-87077750D01*
X75135912Y-87073102D01*
X75158665Y-87060401D01*
X75176601Y-87056323D01*
X75192747Y-87047507D01*
X75209965Y-87048738D01*
X75226796Y-87044912D01*
X75244089Y-87051178D01*
X75262439Y-87052491D01*
X75273567Y-87057273D01*
X75391372Y-87114865D01*
X75391373Y-87114865D01*
X75391375Y-87114866D01*
X75464364Y-87125500D01*
X75464370Y-87125500D01*
X76035630Y-87125500D01*
X76035636Y-87125500D01*
X76108625Y-87114866D01*
X76184547Y-87077750D01*
X76221210Y-87059827D01*
X76221212Y-87059825D01*
X76244719Y-87036319D01*
X76306042Y-87002834D01*
X76332400Y-87000000D01*
X76682242Y-87000000D01*
X76684108Y-87000500D01*
X76815892Y-87000500D01*
X76817758Y-87000000D01*
X81876000Y-87000000D01*
X81943039Y-87019685D01*
X81988794Y-87072489D01*
X82000000Y-87124000D01*
X82000000Y-89494818D01*
X81980315Y-89561857D01*
X81947820Y-89592845D01*
X81949131Y-89594554D01*
X81942689Y-89599496D01*
X81849498Y-89692688D01*
X81844550Y-89699137D01*
X81842320Y-89697425D01*
X81801636Y-89736217D01*
X81744818Y-89750000D01*
X81005182Y-89750000D01*
X80938143Y-89730315D01*
X80907161Y-89697823D01*
X80905450Y-89699137D01*
X80900498Y-89692684D01*
X80807316Y-89599502D01*
X80807314Y-89599500D01*
X80742115Y-89561857D01*
X80693187Y-89533608D01*
X80629539Y-89516554D01*
X80565892Y-89499500D01*
X80434108Y-89499500D01*
X80306812Y-89533608D01*
X80192686Y-89599500D01*
X80192683Y-89599502D01*
X80099501Y-89692684D01*
X80094550Y-89699137D01*
X80092320Y-89697425D01*
X80051636Y-89736217D01*
X79994818Y-89750000D01*
X79255182Y-89750000D01*
X79188143Y-89730315D01*
X79157161Y-89697823D01*
X79155450Y-89699137D01*
X79150498Y-89692684D01*
X79057316Y-89599502D01*
X79057314Y-89599500D01*
X78992115Y-89561857D01*
X78943187Y-89533608D01*
X78879539Y-89516554D01*
X78815892Y-89499500D01*
X78684108Y-89499500D01*
X78556812Y-89533608D01*
X78442686Y-89599500D01*
X78442683Y-89599502D01*
X78349501Y-89692684D01*
X78344550Y-89699137D01*
X78342320Y-89697425D01*
X78301636Y-89736217D01*
X78244818Y-89750000D01*
X77505182Y-89750000D01*
X77438143Y-89730315D01*
X77407161Y-89697823D01*
X77405450Y-89699137D01*
X77400498Y-89692684D01*
X77307316Y-89599502D01*
X77307314Y-89599500D01*
X77242115Y-89561857D01*
X77193187Y-89533608D01*
X77129539Y-89516554D01*
X77065892Y-89499500D01*
X76934108Y-89499500D01*
X76806812Y-89533608D01*
X76692686Y-89599500D01*
X76692683Y-89599502D01*
X76599501Y-89692684D01*
X76594550Y-89699137D01*
X76592320Y-89697425D01*
X76551636Y-89736217D01*
X76494818Y-89750000D01*
X75755182Y-89750000D01*
X75688143Y-89730315D01*
X75657161Y-89697823D01*
X75655450Y-89699137D01*
X75650498Y-89692684D01*
X75557316Y-89599502D01*
X75557314Y-89599500D01*
X75492115Y-89561857D01*
X75443187Y-89533608D01*
X75379539Y-89516554D01*
X75315892Y-89499500D01*
X75184108Y-89499500D01*
X75056812Y-89533608D01*
X74942686Y-89599500D01*
X74942683Y-89599502D01*
X74849501Y-89692684D01*
X74844550Y-89699137D01*
X74842320Y-89697425D01*
X74801636Y-89736217D01*
X74744818Y-89750000D01*
X74005182Y-89750000D01*
X73938143Y-89730315D01*
X73907161Y-89697823D01*
X73905450Y-89699137D01*
X73900498Y-89692684D01*
X73807316Y-89599502D01*
X73807314Y-89599500D01*
X73742115Y-89561857D01*
X73693187Y-89533608D01*
X73629539Y-89516554D01*
X73565892Y-89499500D01*
X73434108Y-89499500D01*
X73306812Y-89533608D01*
X73192686Y-89599500D01*
X73192683Y-89599502D01*
X73099501Y-89692684D01*
X73094550Y-89699137D01*
X73092320Y-89697425D01*
X73051636Y-89736217D01*
X72994818Y-89750000D01*
X72255182Y-89750000D01*
X72188143Y-89730315D01*
X72157161Y-89697823D01*
X72155450Y-89699137D01*
X72150498Y-89692684D01*
X72057316Y-89599502D01*
X72057314Y-89599500D01*
X71992115Y-89561857D01*
X71943187Y-89533608D01*
X71879539Y-89516554D01*
X71815892Y-89499500D01*
X71684108Y-89499500D01*
X71656090Y-89507007D01*
X71586241Y-89505342D01*
X71528379Y-89466178D01*
X71500877Y-89401949D01*
X71500000Y-89387231D01*
X71500000Y-82874000D01*
X71519685Y-82806961D01*
X71572489Y-82761206D01*
X71624000Y-82750000D01*
X73376000Y-82750000D01*
X73443039Y-82769685D01*
G37*
%TD.AperFunction*%
%TD*%
%TA.AperFunction,Conductor*%
%TO.N,GND*%
G36*
X74862637Y-74510967D02*
G01*
X74862636Y-74510968D01*
X74824500Y-74603036D01*
X74824500Y-77532142D01*
X74804815Y-77599181D01*
X74754960Y-77643543D01*
X74668514Y-77685803D01*
X74585803Y-77768514D01*
X74534426Y-77873608D01*
X74524500Y-77941739D01*
X74524500Y-78558260D01*
X74534426Y-78626391D01*
X74585803Y-78731485D01*
X74668514Y-78814196D01*
X74668515Y-78814196D01*
X74668517Y-78814198D01*
X74773607Y-78865573D01*
X74807673Y-78870536D01*
X74841739Y-78875500D01*
X74841740Y-78875500D01*
X75308261Y-78875500D01*
X75330971Y-78872191D01*
X75376393Y-78865573D01*
X75481483Y-78814198D01*
X75564198Y-78731483D01*
X75615573Y-78626393D01*
X75625500Y-78558260D01*
X75625500Y-77941740D01*
X75615573Y-77873607D01*
X75564198Y-77768517D01*
X75564196Y-77768515D01*
X75564196Y-77768514D01*
X75481485Y-77685803D01*
X75395040Y-77643543D01*
X75343457Y-77596415D01*
X75325500Y-77532142D01*
X75325500Y-74807989D01*
X75345185Y-74740950D01*
X75361819Y-74720308D01*
X75772734Y-74309393D01*
X75834057Y-74275908D01*
X75860415Y-74273074D01*
X77220500Y-74273074D01*
X77287539Y-74292759D01*
X77333294Y-74345563D01*
X77344500Y-74397074D01*
X77344500Y-75668120D01*
X77327887Y-75730120D01*
X77283609Y-75806811D01*
X77283608Y-75806814D01*
X77249500Y-75934108D01*
X77249500Y-76065891D01*
X77283609Y-76193188D01*
X77283610Y-76193191D01*
X77327886Y-76269877D01*
X77344500Y-76331878D01*
X77344500Y-77876008D01*
X77348054Y-77909055D01*
X77359260Y-77960566D01*
X77393686Y-78029342D01*
X77439436Y-78082139D01*
X77444422Y-78087623D01*
X77513145Y-78129513D01*
X77513150Y-78129516D01*
X77580189Y-78149201D01*
X77624000Y-78155500D01*
X77624003Y-78155500D01*
X79875991Y-78155500D01*
X79876000Y-78155500D01*
X79909055Y-78151946D01*
X79944141Y-78144313D01*
X80013832Y-78149297D01*
X80069766Y-78191167D01*
X80094184Y-78256631D01*
X80094500Y-78265479D01*
X80094500Y-82720500D01*
X80074815Y-82787539D01*
X80022011Y-82833294D01*
X79970500Y-82844500D01*
X78142749Y-82844500D01*
X78136632Y-82844620D01*
X78130241Y-82844871D01*
X78129413Y-82844904D01*
X78124546Y-82845000D01*
X77175454Y-82845000D01*
X77170586Y-82844904D01*
X77169693Y-82844868D01*
X77163367Y-82844620D01*
X77157251Y-82844500D01*
X76420833Y-82844500D01*
X76353794Y-82824815D01*
X76333152Y-82808181D01*
X76322765Y-82797794D01*
X76219992Y-82752415D01*
X76194865Y-82749500D01*
X75080143Y-82749500D01*
X75080117Y-82749502D01*
X75055012Y-82752413D01*
X75055008Y-82752415D01*
X74952235Y-82797793D01*
X74872794Y-82877234D01*
X74827415Y-82980006D01*
X74827415Y-82980008D01*
X74824500Y-83005131D01*
X74824500Y-83394856D01*
X74824502Y-83394882D01*
X74827413Y-83419985D01*
X74827414Y-83419990D01*
X74833934Y-83434754D01*
X74835962Y-83444312D01*
X74839393Y-83449623D01*
X74844364Y-83483904D01*
X74844500Y-83484545D01*
X74844500Y-83682241D01*
X74844981Y-83685900D01*
X74845000Y-83693639D01*
X74844991Y-83693669D01*
X74845000Y-83693936D01*
X74845000Y-83806070D01*
X74844735Y-83814179D01*
X74844500Y-83817764D01*
X74844500Y-85626008D01*
X74848054Y-85659055D01*
X74859260Y-85710566D01*
X74893686Y-85779342D01*
X74939436Y-85832139D01*
X74944422Y-85837623D01*
X75000000Y-85871500D01*
X75000000Y-87000000D01*
X73250000Y-87000000D01*
X73250000Y-83750000D01*
X74000000Y-83750000D01*
X74000000Y-83623296D01*
X74047765Y-83602206D01*
X74127206Y-83522765D01*
X74172585Y-83419991D01*
X74175500Y-83394865D01*
X74175499Y-83005136D01*
X74175497Y-83005117D01*
X74172586Y-82980012D01*
X74172585Y-82980010D01*
X74172585Y-82980009D01*
X74127206Y-82877235D01*
X74047765Y-82797794D01*
X74024540Y-82787539D01*
X74000000Y-82776703D01*
X74000000Y-81750000D01*
X74000000Y-81723296D01*
X74047765Y-81702206D01*
X74127206Y-81622765D01*
X74172585Y-81519991D01*
X74175500Y-81494865D01*
X74175499Y-81154119D01*
X74195183Y-81087081D01*
X74247987Y-81041326D01*
X74317146Y-81031382D01*
X74380701Y-81060407D01*
X74387169Y-81066429D01*
X74762636Y-81441895D01*
X74762637Y-81441897D01*
X74800496Y-81479756D01*
X74826249Y-81517351D01*
X74872793Y-81622764D01*
X74872794Y-81622765D01*
X74952235Y-81702206D01*
X75055009Y-81747585D01*
X75080135Y-81750500D01*
X76194864Y-81750499D01*
X76194879Y-81750497D01*
X76194882Y-81750497D01*
X76219987Y-81747586D01*
X76219988Y-81747585D01*
X76219991Y-81747585D01*
X76322765Y-81702206D01*
X76402206Y-81622765D01*
X76447585Y-81519991D01*
X76450500Y-81494865D01*
X76450499Y-81105136D01*
X76448470Y-81087636D01*
X76447586Y-81080012D01*
X76447585Y-81080010D01*
X76447585Y-81080009D01*
X76402206Y-80977235D01*
X76322765Y-80897794D01*
X76262531Y-80871198D01*
X76219992Y-80852415D01*
X76194865Y-80849500D01*
X75080143Y-80849500D01*
X75080117Y-80849502D01*
X75055012Y-80852413D01*
X75055010Y-80852414D01*
X75012467Y-80871198D01*
X74943189Y-80880267D01*
X74880005Y-80850442D01*
X74874703Y-80845443D01*
X74011819Y-79982558D01*
X74000000Y-79960913D01*
X74000000Y-74200000D01*
X75173605Y-74200000D01*
X74862637Y-74510967D01*
G37*
%TD.AperFunction*%
%TA.AperFunction,Conductor*%
G36*
X80250000Y-75851690D02*
G01*
X80236165Y-75850701D01*
X80180232Y-75808829D01*
X80155816Y-75743365D01*
X80155500Y-75734520D01*
X80155500Y-74324008D01*
X80155499Y-74323991D01*
X80153929Y-74309393D01*
X80151946Y-74290945D01*
X80140740Y-74239434D01*
X80121001Y-74200000D01*
X80250000Y-74200000D01*
X80250000Y-75851690D01*
G37*
%TD.AperFunction*%
%TD*%
%TA.AperFunction,Conductor*%
%TO.N,GND*%
G36*
X75535166Y-55814196D02*
G01*
X75535167Y-55814196D01*
X75535169Y-55814198D01*
X75640259Y-55865573D01*
X75674325Y-55870536D01*
X75708391Y-55875500D01*
X75708392Y-55875500D01*
X76174913Y-55875500D01*
X76197623Y-55872191D01*
X76243045Y-55865573D01*
X76348135Y-55814198D01*
X76412333Y-55750000D01*
X78012391Y-55750000D01*
X79116652Y-56854261D01*
X79116652Y-59750000D01*
X78361932Y-59750000D01*
X78327112Y-59697888D01*
X78240117Y-59639760D01*
X78240115Y-59639759D01*
X78240112Y-59639758D01*
X78163404Y-59624500D01*
X77736602Y-59624500D01*
X77659881Y-59639760D01*
X77659879Y-59639761D01*
X77572888Y-59697888D01*
X77538068Y-59750000D01*
X74116652Y-59750000D01*
X74116652Y-59949500D01*
X73834295Y-59949500D01*
X73834269Y-59949502D01*
X73809164Y-59952413D01*
X73809160Y-59952415D01*
X73706387Y-59997793D01*
X73626946Y-60077234D01*
X73581567Y-60180006D01*
X73581567Y-60180008D01*
X73578652Y-60205131D01*
X73578652Y-60594856D01*
X73578654Y-60594882D01*
X73581565Y-60619987D01*
X73581567Y-60619991D01*
X73626945Y-60722764D01*
X73626946Y-60722765D01*
X73706387Y-60802206D01*
X73809161Y-60847585D01*
X73834287Y-60850500D01*
X74116652Y-60850499D01*
X74116652Y-64250000D01*
X72866652Y-64250000D01*
X72866652Y-60737471D01*
X72881358Y-60722765D01*
X72926737Y-60619991D01*
X72929652Y-60594865D01*
X72929651Y-60205136D01*
X72929649Y-60205117D01*
X72926738Y-60180012D01*
X72926737Y-60180010D01*
X72926737Y-60180009D01*
X72881358Y-60077235D01*
X72866652Y-60062529D01*
X72866652Y-58837471D01*
X72881358Y-58822765D01*
X72913487Y-58750000D01*
X73594817Y-58750000D01*
X73626945Y-58822764D01*
X73626946Y-58822765D01*
X73706387Y-58902206D01*
X73809161Y-58947585D01*
X73834287Y-58950500D01*
X74949016Y-58950499D01*
X74949031Y-58950497D01*
X74949034Y-58950497D01*
X74974139Y-58947586D01*
X74974140Y-58947585D01*
X74974143Y-58947585D01*
X75076917Y-58902206D01*
X75156358Y-58822765D01*
X75201737Y-58719991D01*
X75204652Y-58694865D01*
X75204651Y-58305136D01*
X75204649Y-58305117D01*
X75201738Y-58280012D01*
X75201737Y-58280010D01*
X75201737Y-58280009D01*
X75156358Y-58177235D01*
X75116652Y-58137529D01*
X75116652Y-55750000D01*
X75470970Y-55750000D01*
X75535166Y-55814196D01*
G37*
%TD.AperFunction*%
%TA.AperFunction,Conductor*%
G36*
X79116652Y-56145739D02*
G01*
X78720913Y-55750000D01*
X79116652Y-55750000D01*
X79116652Y-56145739D01*
G37*
%TD.AperFunction*%
%TD*%
%TA.AperFunction,Conductor*%
%TO.N,/sw2*%
G36*
X82693039Y-76019685D02*
G01*
X82738794Y-76072489D01*
X82750000Y-76124000D01*
X82750000Y-82876000D01*
X82730315Y-82943039D01*
X82677511Y-82988794D01*
X82626000Y-83000000D01*
X80374000Y-83000000D01*
X80306961Y-82980315D01*
X80261206Y-82927511D01*
X80250000Y-82876000D01*
X80250000Y-76124000D01*
X80269685Y-76056961D01*
X80322489Y-76011206D01*
X80374000Y-76000000D01*
X82626000Y-76000000D01*
X82693039Y-76019685D01*
G37*
%TD.AperFunction*%
%TD*%
%TA.AperFunction,Conductor*%
%TO.N,+5V*%
G36*
X79943039Y-74219685D02*
G01*
X79988794Y-74272489D01*
X80000000Y-74324000D01*
X80000000Y-77876000D01*
X79980315Y-77943039D01*
X79927511Y-77988794D01*
X79876000Y-78000000D01*
X77624000Y-78000000D01*
X77556961Y-77980315D01*
X77511206Y-77927511D01*
X77500000Y-77876000D01*
X77500000Y-74324000D01*
X77519685Y-74256961D01*
X77572489Y-74211206D01*
X77624000Y-74200000D01*
X79876000Y-74200000D01*
X79943039Y-74219685D01*
G37*
%TD.AperFunction*%
%TD*%
%TA.AperFunction,Conductor*%
%TO.N,GND*%
G36*
X83250000Y-67500000D02*
G01*
X81250000Y-67500000D01*
X81250000Y-63750000D01*
X83250000Y-63750000D01*
X83250000Y-67500000D01*
G37*
%TD.AperFunction*%
%TD*%
%TA.AperFunction,Conductor*%
%TO.N,/sw*%
G36*
X77166974Y-83000382D02*
G01*
X77168474Y-83000500D01*
X77168480Y-83000500D01*
X78131526Y-83000500D01*
X78133026Y-83000382D01*
X78142749Y-83000000D01*
X80061633Y-83000000D01*
X80128672Y-83019685D01*
X80155346Y-83042797D01*
X80189439Y-83082143D01*
X80194422Y-83087623D01*
X80254101Y-83124000D01*
X80263150Y-83129516D01*
X80330189Y-83149201D01*
X80374000Y-83155500D01*
X80374003Y-83155500D01*
X81876000Y-83155500D01*
X81943039Y-83175185D01*
X81988794Y-83227989D01*
X82000000Y-83279500D01*
X82000000Y-85626000D01*
X81980315Y-85693039D01*
X81927511Y-85738794D01*
X81876000Y-85750000D01*
X75124000Y-85750000D01*
X75056961Y-85730315D01*
X75011206Y-85677511D01*
X75000000Y-85626000D01*
X75000000Y-83817758D01*
X75000500Y-83815892D01*
X75000500Y-83684108D01*
X75000000Y-83682241D01*
X75000000Y-83124000D01*
X75019685Y-83056961D01*
X75072489Y-83011206D01*
X75124000Y-83000000D01*
X77157251Y-83000000D01*
X77166974Y-83000382D01*
G37*
%TD.AperFunction*%
%TD*%
%TA.AperFunction,Conductor*%
%TO.N,/sw3*%
G36*
X78195719Y-59799685D02*
G01*
X78227790Y-59831188D01*
X78228043Y-59830974D01*
X78230396Y-59833747D01*
X78231780Y-59835107D01*
X78232638Y-59836391D01*
X78284182Y-59884667D01*
X78361932Y-59905500D01*
X78361935Y-59905500D01*
X78992652Y-59905500D01*
X79059691Y-59925185D01*
X79105446Y-59977989D01*
X79116652Y-60029500D01*
X79116652Y-64126000D01*
X79096967Y-64193039D01*
X79044163Y-64238794D01*
X78992652Y-64250000D01*
X74396152Y-64250000D01*
X74329113Y-64230315D01*
X74283358Y-64177511D01*
X74272152Y-64126000D01*
X74272152Y-60850500D01*
X74272152Y-60850498D01*
X74251319Y-60772749D01*
X74251318Y-60772748D01*
X74251318Y-60772747D01*
X74194403Y-60715832D01*
X74180264Y-60707669D01*
X74182523Y-60703755D01*
X74148895Y-60683256D01*
X74118368Y-60620408D01*
X74116652Y-60599850D01*
X74116652Y-60200148D01*
X74136337Y-60133109D01*
X74144355Y-60122027D01*
X74169699Y-60090786D01*
X74194402Y-60084167D01*
X74251319Y-60027250D01*
X74266152Y-59971891D01*
X74282793Y-59951379D01*
X74290688Y-59945935D01*
X74295679Y-59937747D01*
X74318983Y-59926425D01*
X74340315Y-59911718D01*
X74349899Y-59911407D01*
X74358525Y-59907217D01*
X74379090Y-59905500D01*
X77538067Y-59905500D01*
X77538068Y-59905500D01*
X77606844Y-59889464D01*
X77667362Y-59836391D01*
X77667365Y-59836387D01*
X77668220Y-59835108D01*
X77669219Y-59834272D01*
X77672720Y-59830281D01*
X77673342Y-59830826D01*
X77721833Y-59790303D01*
X77771321Y-59780000D01*
X78128680Y-59780000D01*
X78195719Y-59799685D01*
G37*
%TD.AperFunction*%
%TD*%
%TA.AperFunction,Conductor*%
%TO.N,VCC*%
G36*
X72661214Y-60019685D02*
G01*
X72706969Y-60072489D01*
X72712362Y-60091266D01*
X72712525Y-60091211D01*
X72716449Y-60102773D01*
X72739464Y-60142636D01*
X72745510Y-60154548D01*
X72763585Y-60195483D01*
X72774151Y-60245570D01*
X72774151Y-60554426D01*
X72763586Y-60604512D01*
X72755006Y-60623944D01*
X72739949Y-60649342D01*
X72731984Y-60659721D01*
X72711152Y-60737471D01*
X72711152Y-61560761D01*
X72697638Y-61617054D01*
X72681004Y-61649699D01*
X72666152Y-61743475D01*
X72666152Y-62756517D01*
X72681006Y-62850304D01*
X72681006Y-62850305D01*
X72697636Y-62882941D01*
X72711152Y-62939237D01*
X72711152Y-64249999D01*
X72731985Y-64327751D01*
X72788900Y-64384666D01*
X72788901Y-64384666D01*
X72788902Y-64384667D01*
X72866652Y-64405500D01*
X72866654Y-64405500D01*
X74116650Y-64405500D01*
X74116652Y-64405500D01*
X74160859Y-64393654D01*
X74210173Y-64380442D01*
X74211067Y-64383781D01*
X74252862Y-64373637D01*
X74281911Y-64378520D01*
X74285301Y-64379515D01*
X74285302Y-64379516D01*
X74352341Y-64399201D01*
X74396152Y-64405500D01*
X74396155Y-64405500D01*
X78992652Y-64405500D01*
X79059691Y-64425185D01*
X79105446Y-64477989D01*
X79116652Y-64529500D01*
X79116652Y-67376000D01*
X79096967Y-67443039D01*
X79044163Y-67488794D01*
X78992652Y-67500000D01*
X70990652Y-67500000D01*
X70923613Y-67480315D01*
X70877858Y-67427511D01*
X70866652Y-67376000D01*
X70866652Y-60124000D01*
X70886337Y-60056961D01*
X70939141Y-60011206D01*
X70990652Y-60000000D01*
X72594175Y-60000000D01*
X72661214Y-60019685D01*
G37*
%TD.AperFunction*%
%TD*%
%TA.AperFunction,Conductor*%
%TO.N,+18V*%
G36*
X81037539Y-57624055D02*
G01*
X81083294Y-57676859D01*
X81094500Y-57728370D01*
X81094500Y-59799999D01*
X81112427Y-59866905D01*
X81116652Y-59898998D01*
X81116652Y-59963870D01*
X81111629Y-59998806D01*
X81100799Y-60035687D01*
X81100797Y-60035697D01*
X81094500Y-60079496D01*
X81094500Y-60826245D01*
X81074815Y-60893284D01*
X81022011Y-60939039D01*
X80952853Y-60948983D01*
X80916040Y-60937646D01*
X80808626Y-60885134D01*
X80798198Y-60883614D01*
X80735636Y-60874500D01*
X80214364Y-60874500D01*
X80141375Y-60885134D01*
X80141373Y-60885134D01*
X80141371Y-60885135D01*
X80028789Y-60940172D01*
X80028787Y-60940174D01*
X79940176Y-61028786D01*
X79940174Y-61028788D01*
X79937219Y-61034833D01*
X79890090Y-61086414D01*
X79825820Y-61104370D01*
X79490652Y-61104370D01*
X79423613Y-61084685D01*
X79377858Y-61031881D01*
X79366652Y-60980370D01*
X79366652Y-57728370D01*
X79386337Y-57661331D01*
X79439141Y-57615576D01*
X79490652Y-57604370D01*
X80970500Y-57604370D01*
X81037539Y-57624055D01*
G37*
%TD.AperFunction*%
%TD*%
%TA.AperFunction,Conductor*%
%TO.N,GND*%
G36*
X83000000Y-59800000D02*
G01*
X81250000Y-59800000D01*
X81250000Y-57050000D01*
X83000000Y-57050000D01*
X83000000Y-59800000D01*
G37*
%TD.AperFunction*%
%TD*%
%TA.AperFunction,Conductor*%
%TO.N,GND*%
G36*
X74250000Y-87000001D02*
G01*
X74250000Y-87051000D01*
X74231093Y-87109191D01*
X74181593Y-87145155D01*
X74151000Y-87150000D01*
X73771685Y-87150000D01*
X73713494Y-87131093D01*
X73708007Y-87126803D01*
X73702001Y-87121757D01*
X73660059Y-87073354D01*
X73655081Y-87067879D01*
X73592331Y-87029629D01*
X73586586Y-87024803D01*
X73574166Y-87004902D01*
X73569959Y-87000000D01*
X74250001Y-87000000D01*
X74250000Y-87000001D01*
G37*
%TD.AperFunction*%
%TA.AperFunction,Conductor*%
G36*
X75013146Y-85879514D02*
G01*
X75013147Y-85879514D01*
X75013150Y-85879516D01*
X75080189Y-85899201D01*
X75102094Y-85902350D01*
X75123996Y-85905500D01*
X75124456Y-85905500D01*
X75124586Y-85905542D01*
X75127520Y-85905752D01*
X75127468Y-85906478D01*
X75182647Y-85924407D01*
X75218611Y-85973907D01*
X75218611Y-86035093D01*
X75194461Y-86074501D01*
X75190174Y-86078789D01*
X75190173Y-86078790D01*
X75135134Y-86191373D01*
X75124500Y-86264367D01*
X75124500Y-86364563D01*
X75105593Y-86422754D01*
X75056093Y-86458718D01*
X75000000Y-86458718D01*
X75000000Y-85871500D01*
X75013146Y-85879514D01*
G37*
%TD.AperFunction*%
%TA.AperFunction,Conductor*%
G36*
X74000000Y-83750000D02*
G01*
X73376000Y-83750000D01*
X73409055Y-83746446D01*
X73460566Y-83735240D01*
X73529342Y-83700813D01*
X73559500Y-83674681D01*
X73615859Y-83650862D01*
X73624332Y-83650499D01*
X73919861Y-83650499D01*
X73919864Y-83650499D01*
X73944991Y-83647585D01*
X74000000Y-83623296D01*
X74000000Y-83750000D01*
G37*
%TD.AperFunction*%
%TA.AperFunction,Conductor*%
G36*
X74118202Y-64140414D02*
G01*
X74116652Y-64147794D01*
X74116652Y-64126005D01*
X74118202Y-64140414D01*
G37*
%TD.AperFunction*%
%TA.AperFunction,Conductor*%
G36*
X81366481Y-63748919D02*
G01*
X81373996Y-63750000D01*
X81344828Y-63750000D01*
X81363094Y-63748432D01*
X81366481Y-63748919D01*
G37*
%TD.AperFunction*%
%TA.AperFunction,Conductor*%
G36*
X81359580Y-59801550D02*
G01*
X81352202Y-59800000D01*
X81373997Y-59800000D01*
X81359580Y-59801550D01*
G37*
%TD.AperFunction*%
%TA.AperFunction,Conductor*%
G36*
X79362156Y-57099765D02*
G01*
X79365782Y-57106882D01*
X79372245Y-57111578D01*
X79379408Y-57133626D01*
X79389933Y-57154282D01*
X79391152Y-57169769D01*
X79391152Y-57328062D01*
X79374528Y-57379228D01*
X79375487Y-57379717D01*
X79372403Y-57385769D01*
X79372247Y-57386250D01*
X79371949Y-57386659D01*
X79310816Y-57506639D01*
X79309824Y-57506133D01*
X79285323Y-57543103D01*
X79284507Y-57543809D01*
X79279031Y-57548789D01*
X79237137Y-57617516D01*
X79217450Y-57684563D01*
X79211152Y-57728365D01*
X79211152Y-59675344D01*
X79192245Y-59733535D01*
X79142745Y-59769499D01*
X79084260Y-59770334D01*
X79081416Y-59769499D01*
X79036463Y-59756299D01*
X79036460Y-59756298D01*
X78992656Y-59750000D01*
X79116652Y-59750000D01*
X79116652Y-56854261D01*
X79362156Y-57099765D01*
G37*
%TD.AperFunction*%
%TA.AperFunction,Conductor*%
G36*
X77780074Y-55519407D02*
G01*
X77791887Y-55529496D01*
X78012391Y-55750000D01*
X76412333Y-55750000D01*
X76430850Y-55731483D01*
X76482225Y-55626393D01*
X76483140Y-55620110D01*
X76488224Y-55585225D01*
X76515324Y-55530369D01*
X76569492Y-55501918D01*
X76586189Y-55500500D01*
X77721883Y-55500500D01*
X77780074Y-55519407D01*
G37*
%TD.AperFunction*%
%TA.AperFunction,Conductor*%
G36*
X72947050Y-26069407D02*
G01*
X72983014Y-26118907D01*
X72983014Y-26180093D01*
X72947050Y-26229593D01*
X72926744Y-26240964D01*
X72776086Y-26303367D01*
X72612218Y-26412861D01*
X72612214Y-26412864D01*
X72472864Y-26552214D01*
X72472861Y-26552218D01*
X72363367Y-26716086D01*
X72287949Y-26898163D01*
X72287949Y-26898165D01*
X72249500Y-27091456D01*
X72249500Y-27288543D01*
X72287949Y-27481834D01*
X72287949Y-27481836D01*
X72363367Y-27663913D01*
X72363368Y-27663914D01*
X72472861Y-27827782D01*
X72612218Y-27967139D01*
X72776086Y-28076632D01*
X72958165Y-28152051D01*
X73151459Y-28190500D01*
X73151460Y-28190500D01*
X73348540Y-28190500D01*
X73348541Y-28190500D01*
X73541835Y-28152051D01*
X73723914Y-28076632D01*
X73887782Y-27967139D01*
X74027139Y-27827782D01*
X74136632Y-27663914D01*
X74212051Y-27481835D01*
X74215435Y-27464822D01*
X74453333Y-27464822D01*
X74453334Y-27464822D01*
X76414188Y-27464822D01*
X76414189Y-27464822D01*
X76414189Y-26603110D01*
X74453333Y-26603110D01*
X74453333Y-27464822D01*
X74215435Y-27464822D01*
X74250500Y-27288541D01*
X74250500Y-27091459D01*
X74212051Y-26898165D01*
X74136632Y-26716086D01*
X74027139Y-26552218D01*
X73887782Y-26412861D01*
X73723914Y-26303368D01*
X73723915Y-26303368D01*
X73723913Y-26303367D01*
X73573256Y-26240964D01*
X73526730Y-26201228D01*
X73512446Y-26141733D01*
X73535860Y-26085205D01*
X73588029Y-26053236D01*
X73611141Y-26050500D01*
X76600500Y-26050500D01*
X76658691Y-26069407D01*
X76694655Y-26118907D01*
X76699500Y-26149500D01*
X76699500Y-34289564D01*
X76719978Y-34365988D01*
X76719980Y-34365992D01*
X76759538Y-34434508D01*
X76759540Y-34434511D01*
X76815489Y-34490460D01*
X76815491Y-34490461D01*
X76884007Y-34530019D01*
X76884011Y-34530021D01*
X76960435Y-34550499D01*
X76960437Y-34550500D01*
X76960438Y-34550500D01*
X84100500Y-34550500D01*
X84158691Y-34569407D01*
X84194655Y-34618907D01*
X84199500Y-34649500D01*
X84199500Y-90350500D01*
X84180593Y-90408691D01*
X84131093Y-90444655D01*
X84100500Y-90449500D01*
X69899500Y-90449500D01*
X69841309Y-90430593D01*
X69805345Y-90381093D01*
X69800500Y-90350500D01*
X69800500Y-72191740D01*
X71124500Y-72191740D01*
X71124500Y-72808260D01*
X71130509Y-72849500D01*
X71134427Y-72876395D01*
X71178415Y-72966373D01*
X71185802Y-72981483D01*
X71268517Y-73064198D01*
X71340729Y-73099500D01*
X71368980Y-73113311D01*
X71386201Y-73129972D01*
X71405593Y-73144061D01*
X71407806Y-73150874D01*
X71412954Y-73155854D01*
X71424500Y-73202252D01*
X71424500Y-73297748D01*
X71405593Y-73355939D01*
X71368980Y-73386689D01*
X71268518Y-73435801D01*
X71185801Y-73518518D01*
X71134427Y-73623604D01*
X71129705Y-73656019D01*
X71124500Y-73691740D01*
X71124500Y-74308260D01*
X71126794Y-74324004D01*
X71134427Y-74376395D01*
X71180743Y-74471135D01*
X71185802Y-74481483D01*
X71268517Y-74564198D01*
X71347154Y-74602641D01*
X71368980Y-74613311D01*
X71412954Y-74655854D01*
X71424500Y-74702252D01*
X71424500Y-80724828D01*
X71462634Y-80816894D01*
X71462635Y-80816895D01*
X71462636Y-80816897D01*
X72158103Y-81512364D01*
X72158104Y-81512364D01*
X72158105Y-81512365D01*
X72250171Y-81550500D01*
X72250172Y-81550500D01*
X72349827Y-81550500D01*
X72501378Y-81550500D01*
X72559569Y-81569407D01*
X72591942Y-81609512D01*
X72597794Y-81622765D01*
X72677235Y-81702206D01*
X72780009Y-81747585D01*
X72805135Y-81750500D01*
X73919864Y-81750499D01*
X73944991Y-81747585D01*
X74000000Y-81723296D01*
X74000000Y-81750000D01*
X74000000Y-82776703D01*
X73944991Y-82752415D01*
X73944990Y-82752414D01*
X73944988Y-82752414D01*
X73919869Y-82749500D01*
X73919865Y-82749500D01*
X73676517Y-82749500D01*
X73618326Y-82730593D01*
X73601698Y-82715331D01*
X73560564Y-82667861D01*
X73555580Y-82662379D01*
X73486853Y-82620485D01*
X73486850Y-82620484D01*
X73419811Y-82600799D01*
X73419807Y-82600798D01*
X73419806Y-82600798D01*
X73376004Y-82594500D01*
X73376000Y-82594500D01*
X71624000Y-82594500D01*
X71594992Y-82597618D01*
X71590935Y-82598055D01*
X71539436Y-82609259D01*
X71539435Y-82609259D01*
X71470659Y-82643686D01*
X71470653Y-82643690D01*
X71417861Y-82689435D01*
X71412379Y-82694419D01*
X71370485Y-82763146D01*
X71350798Y-82830193D01*
X71344500Y-82873995D01*
X71344500Y-89387234D01*
X71344775Y-89396474D01*
X71345651Y-89411193D01*
X71345651Y-89411196D01*
X71345652Y-89411198D01*
X71357930Y-89463157D01*
X71385432Y-89527386D01*
X71388507Y-89534120D01*
X71388508Y-89534122D01*
X71441217Y-89594953D01*
X71499079Y-89634117D01*
X71505304Y-89638118D01*
X71582535Y-89660798D01*
X71652384Y-89662463D01*
X71696334Y-89657209D01*
X71696339Y-89657207D01*
X71698513Y-89656789D01*
X71717247Y-89655000D01*
X71782384Y-89655000D01*
X71808006Y-89658373D01*
X71870577Y-89675138D01*
X71894453Y-89685028D01*
X71950545Y-89717413D01*
X71971048Y-89733145D01*
X72069350Y-89831446D01*
X72071505Y-89833325D01*
X72075604Y-89837624D01*
X72144332Y-89879516D01*
X72211371Y-89899201D01*
X72224690Y-89901116D01*
X72255178Y-89905500D01*
X72255182Y-89905500D01*
X72994819Y-89905500D01*
X72998733Y-89905031D01*
X73031476Y-89901117D01*
X73088294Y-89887334D01*
X73088296Y-89887334D01*
X73158943Y-89848758D01*
X73187208Y-89821806D01*
X73194482Y-89817611D01*
X73209454Y-89802637D01*
X73209456Y-89802639D01*
X73278954Y-89733140D01*
X73299444Y-89717417D01*
X73355547Y-89685025D01*
X73379419Y-89675138D01*
X73426730Y-89662462D01*
X73441992Y-89658373D01*
X73467613Y-89655000D01*
X73532384Y-89655000D01*
X73558006Y-89658373D01*
X73620577Y-89675138D01*
X73644453Y-89685028D01*
X73700545Y-89717413D01*
X73721048Y-89733145D01*
X73819350Y-89831446D01*
X73821505Y-89833325D01*
X73825604Y-89837624D01*
X73894332Y-89879516D01*
X73961371Y-89899201D01*
X73974690Y-89901116D01*
X74005178Y-89905500D01*
X74005182Y-89905500D01*
X74744819Y-89905500D01*
X74748733Y-89905031D01*
X74781476Y-89901117D01*
X74838294Y-89887334D01*
X74838296Y-89887334D01*
X74908943Y-89848758D01*
X74937208Y-89821806D01*
X74944482Y-89817611D01*
X74959454Y-89802637D01*
X74959456Y-89802639D01*
X75028954Y-89733140D01*
X75049444Y-89717417D01*
X75105547Y-89685025D01*
X75129419Y-89675138D01*
X75176730Y-89662462D01*
X75191992Y-89658373D01*
X75217613Y-89655000D01*
X75282384Y-89655000D01*
X75308006Y-89658373D01*
X75370577Y-89675138D01*
X75394453Y-89685028D01*
X75450545Y-89717413D01*
X75471048Y-89733145D01*
X75569350Y-89831446D01*
X75571505Y-89833325D01*
X75575604Y-89837624D01*
X75644332Y-89879516D01*
X75711371Y-89899201D01*
X75724690Y-89901116D01*
X75755178Y-89905500D01*
X75755182Y-89905500D01*
X76494819Y-89905500D01*
X76498733Y-89905031D01*
X76531476Y-89901117D01*
X76588294Y-89887334D01*
X76588296Y-89887334D01*
X76658943Y-89848758D01*
X76687208Y-89821806D01*
X76694482Y-89817611D01*
X76709454Y-89802637D01*
X76709456Y-89802639D01*
X76778954Y-89733140D01*
X76799444Y-89717417D01*
X76855547Y-89685025D01*
X76879419Y-89675138D01*
X76926730Y-89662462D01*
X76941992Y-89658373D01*
X76967613Y-89655000D01*
X77032384Y-89655000D01*
X77058006Y-89658373D01*
X77120577Y-89675138D01*
X77144453Y-89685028D01*
X77200545Y-89717413D01*
X77221048Y-89733145D01*
X77319350Y-89831446D01*
X77321505Y-89833325D01*
X77325604Y-89837624D01*
X77394332Y-89879516D01*
X77461371Y-89899201D01*
X77474690Y-89901116D01*
X77505178Y-89905500D01*
X77505182Y-89905500D01*
X78244819Y-89905500D01*
X78248733Y-89905031D01*
X78281476Y-89901117D01*
X78338294Y-89887334D01*
X78338296Y-89887334D01*
X78408943Y-89848758D01*
X78437208Y-89821806D01*
X78444482Y-89817611D01*
X78459454Y-89802637D01*
X78459456Y-89802639D01*
X78528954Y-89733140D01*
X78549444Y-89717417D01*
X78605547Y-89685025D01*
X78629419Y-89675138D01*
X78676730Y-89662462D01*
X78691992Y-89658373D01*
X78717613Y-89655000D01*
X78782384Y-89655000D01*
X78808006Y-89658373D01*
X78870577Y-89675138D01*
X78894453Y-89685028D01*
X78950545Y-89717413D01*
X78971048Y-89733145D01*
X79069350Y-89831446D01*
X79071505Y-89833325D01*
X79075604Y-89837624D01*
X79144332Y-89879516D01*
X79211371Y-89899201D01*
X79224690Y-89901116D01*
X79255178Y-89905500D01*
X79255182Y-89905500D01*
X79994819Y-89905500D01*
X79998733Y-89905031D01*
X80031476Y-89901117D01*
X80088294Y-89887334D01*
X80088296Y-89887334D01*
X80158943Y-89848758D01*
X80187208Y-89821806D01*
X80194482Y-89817611D01*
X80209454Y-89802637D01*
X80209456Y-89802639D01*
X80278954Y-89733140D01*
X80299444Y-89717417D01*
X80355547Y-89685025D01*
X80379419Y-89675138D01*
X80426730Y-89662462D01*
X80441992Y-89658373D01*
X80467613Y-89655000D01*
X80532384Y-89655000D01*
X80558006Y-89658373D01*
X80620577Y-89675138D01*
X80644453Y-89685028D01*
X80700545Y-89717413D01*
X80721048Y-89733145D01*
X80819350Y-89831446D01*
X80821505Y-89833325D01*
X80825604Y-89837624D01*
X80894332Y-89879516D01*
X80961371Y-89899201D01*
X80974690Y-89901116D01*
X81005178Y-89905500D01*
X81005182Y-89905500D01*
X81744819Y-89905500D01*
X81748733Y-89905031D01*
X81781476Y-89901117D01*
X81838294Y-89887334D01*
X81838296Y-89887334D01*
X81908943Y-89848758D01*
X81937211Y-89821804D01*
X81944492Y-89817604D01*
X81959453Y-89802642D01*
X81959454Y-89802643D01*
X82052645Y-89709451D01*
X82052644Y-89709450D01*
X82081401Y-89680694D01*
X82083324Y-89678497D01*
X82087630Y-89674391D01*
X82129516Y-89605668D01*
X82149201Y-89538629D01*
X82151900Y-89519852D01*
X82155500Y-89494822D01*
X82155500Y-87124004D01*
X82155500Y-87124000D01*
X82151946Y-87090945D01*
X82140740Y-87039434D01*
X82106313Y-86970658D01*
X82099812Y-86963156D01*
X82060564Y-86917861D01*
X82055580Y-86912379D01*
X81986853Y-86870485D01*
X81986850Y-86870484D01*
X81919811Y-86850799D01*
X81919807Y-86850798D01*
X81919806Y-86850798D01*
X81876004Y-86844500D01*
X81876000Y-86844500D01*
X77300504Y-86844500D01*
X77242313Y-86825593D01*
X77206349Y-86776093D01*
X77206349Y-86714907D01*
X77214768Y-86695998D01*
X77216392Y-86693186D01*
X77250500Y-86565892D01*
X77250500Y-86434108D01*
X77216392Y-86306814D01*
X77216390Y-86306811D01*
X77216390Y-86306809D01*
X77150503Y-86192690D01*
X77150501Y-86192688D01*
X77150500Y-86192686D01*
X77057314Y-86099500D01*
X77057311Y-86099498D01*
X77041269Y-86090236D01*
X77000329Y-86044766D01*
X76993934Y-85983916D01*
X77024527Y-85930928D01*
X77080423Y-85906042D01*
X77090770Y-85905500D01*
X81875995Y-85905500D01*
X81876000Y-85905500D01*
X81909055Y-85901946D01*
X81960566Y-85890740D01*
X82029342Y-85856313D01*
X82082146Y-85810558D01*
X82087621Y-85805580D01*
X82129516Y-85736850D01*
X82149201Y-85669811D01*
X82152700Y-85645471D01*
X82155500Y-85626004D01*
X82155500Y-83279502D01*
X82155499Y-83279494D01*
X82153950Y-83265086D01*
X82166526Y-83205207D01*
X82211897Y-83164157D01*
X82252382Y-83155500D01*
X82625995Y-83155500D01*
X82626000Y-83155500D01*
X82659055Y-83151946D01*
X82710566Y-83140740D01*
X82779342Y-83106313D01*
X82832146Y-83060558D01*
X82837621Y-83055580D01*
X82879516Y-82986850D01*
X82899201Y-82919811D01*
X82902700Y-82895471D01*
X82905500Y-82876004D01*
X82905500Y-76124004D01*
X82905355Y-76122654D01*
X82901946Y-76090945D01*
X82890740Y-76039434D01*
X82856313Y-75970658D01*
X82810558Y-75917854D01*
X82805580Y-75912379D01*
X82796026Y-75906555D01*
X82736853Y-75870485D01*
X82736850Y-75870484D01*
X82669811Y-75850799D01*
X82669807Y-75850798D01*
X82669806Y-75850798D01*
X82626004Y-75844500D01*
X82626000Y-75844500D01*
X80374000Y-75844500D01*
X80344992Y-75847618D01*
X80340935Y-75848055D01*
X80289435Y-75859259D01*
X80287435Y-75859965D01*
X80286030Y-75860000D01*
X80283383Y-75860576D01*
X80283272Y-75860068D01*
X80250000Y-75860899D01*
X80250000Y-74200000D01*
X80121001Y-74200000D01*
X80106313Y-74170658D01*
X80060558Y-74117854D01*
X80055580Y-74112379D01*
X79986853Y-74070485D01*
X79986850Y-74070484D01*
X79919811Y-74050799D01*
X79919807Y-74050798D01*
X79919806Y-74050798D01*
X79876004Y-74044500D01*
X79876000Y-74044500D01*
X77889769Y-74044500D01*
X77831578Y-74025593D01*
X77819766Y-74015504D01*
X77614470Y-73810209D01*
X77522403Y-73772074D01*
X77522402Y-73772074D01*
X75755119Y-73772074D01*
X75655464Y-73772074D01*
X75655463Y-73772074D01*
X75563397Y-73810208D01*
X75173605Y-74200000D01*
X74000000Y-74200000D01*
X74000000Y-79966410D01*
X73976719Y-79920718D01*
X73975500Y-79905231D01*
X73975500Y-79441743D01*
X73975500Y-79441740D01*
X73965573Y-79373607D01*
X73914198Y-79268517D01*
X73831483Y-79185802D01*
X73731019Y-79136688D01*
X73713798Y-79120027D01*
X73694407Y-79105939D01*
X73692193Y-79099125D01*
X73687046Y-79094146D01*
X73675500Y-79047748D01*
X73675500Y-78952252D01*
X73694407Y-78894061D01*
X73731020Y-78863311D01*
X73831483Y-78814198D01*
X73914198Y-78731483D01*
X73965573Y-78626393D01*
X73975500Y-78558260D01*
X73975500Y-77941740D01*
X73965573Y-77873607D01*
X73914198Y-77768517D01*
X73831483Y-77685802D01*
X73831481Y-77685801D01*
X73726395Y-77634427D01*
X73699139Y-77630456D01*
X73658260Y-77624500D01*
X73191740Y-77624500D01*
X73157673Y-77629463D01*
X73123604Y-77634427D01*
X73018518Y-77685801D01*
X72935801Y-77768518D01*
X72884427Y-77873604D01*
X72884427Y-77873607D01*
X72874500Y-77941740D01*
X72874500Y-78558260D01*
X72877406Y-78578202D01*
X72884427Y-78626395D01*
X72914226Y-78687349D01*
X72935802Y-78731483D01*
X73018517Y-78814198D01*
X73083134Y-78845787D01*
X73118980Y-78863311D01*
X73136201Y-78879972D01*
X73155593Y-78894061D01*
X73157806Y-78900874D01*
X73162954Y-78905854D01*
X73174500Y-78952252D01*
X73174500Y-79047748D01*
X73155593Y-79105939D01*
X73118980Y-79136689D01*
X73018518Y-79185801D01*
X72935801Y-79268518D01*
X72884427Y-79373604D01*
X72884427Y-79373607D01*
X72874500Y-79441740D01*
X72874500Y-80058260D01*
X72881118Y-80103682D01*
X72884427Y-80126395D01*
X72896041Y-80150151D01*
X72935802Y-80231483D01*
X73018517Y-80314198D01*
X73072285Y-80340483D01*
X73123604Y-80365572D01*
X73123605Y-80365572D01*
X73123607Y-80365573D01*
X73191740Y-80375500D01*
X73191743Y-80375500D01*
X73655231Y-80375500D01*
X73713422Y-80394407D01*
X73725234Y-80404496D01*
X74000000Y-80679261D01*
X74000000Y-80816367D01*
X73976917Y-80839450D01*
X73922749Y-80849191D01*
X73922722Y-80849665D01*
X73920748Y-80849550D01*
X73920576Y-80849582D01*
X73919868Y-80849500D01*
X72805139Y-80849500D01*
X72805136Y-80849501D01*
X72780009Y-80852414D01*
X72677235Y-80897794D01*
X72597793Y-80977236D01*
X72591943Y-80990487D01*
X72574739Y-81009713D01*
X72559569Y-81030593D01*
X72554615Y-81032202D01*
X72551143Y-81036083D01*
X72501378Y-81049500D01*
X72444769Y-81049500D01*
X72386578Y-81030593D01*
X72374765Y-81020504D01*
X71954496Y-80600235D01*
X71926719Y-80545718D01*
X71925500Y-80530231D01*
X71925500Y-74702252D01*
X71944407Y-74644061D01*
X71981020Y-74613311D01*
X72081483Y-74564198D01*
X72164198Y-74481483D01*
X72215573Y-74376393D01*
X72225500Y-74308260D01*
X72225500Y-74150001D01*
X72725001Y-74150001D01*
X72725001Y-74306485D01*
X72739833Y-74400141D01*
X72739836Y-74400151D01*
X72797358Y-74513043D01*
X72886956Y-74602641D01*
X72999848Y-74660163D01*
X72999852Y-74660164D01*
X73093515Y-74674999D01*
X73174999Y-74674998D01*
X73175000Y-74674998D01*
X73175000Y-74150001D01*
X73475000Y-74150001D01*
X73475000Y-74674998D01*
X73475001Y-74674999D01*
X73556483Y-74674999D01*
X73556485Y-74674998D01*
X73650141Y-74660166D01*
X73650151Y-74660163D01*
X73763043Y-74602641D01*
X73852641Y-74513043D01*
X73910163Y-74400151D01*
X73910164Y-74400147D01*
X73925000Y-74306484D01*
X73925000Y-74150001D01*
X73924999Y-74150000D01*
X73475001Y-74150000D01*
X73475000Y-74150001D01*
X73175000Y-74150001D01*
X73174999Y-74150000D01*
X72725002Y-74150000D01*
X72725001Y-74150001D01*
X72225500Y-74150001D01*
X72225500Y-73693515D01*
X72725000Y-73693515D01*
X72725000Y-73849999D01*
X72725001Y-73850000D01*
X73174999Y-73850000D01*
X73175000Y-73849999D01*
X73175000Y-73325001D01*
X73475000Y-73325001D01*
X73475000Y-73849999D01*
X73475001Y-73850000D01*
X73924998Y-73850000D01*
X73924999Y-73849999D01*
X73924999Y-73693516D01*
X73924998Y-73693514D01*
X73910166Y-73599858D01*
X73910163Y-73599848D01*
X73852641Y-73486956D01*
X73763043Y-73397358D01*
X73650151Y-73339836D01*
X73650147Y-73339835D01*
X73556484Y-73325000D01*
X73475001Y-73325000D01*
X73475000Y-73325001D01*
X73175000Y-73325001D01*
X73174998Y-73324999D01*
X73093517Y-73325000D01*
X73093514Y-73325001D01*
X72999858Y-73339833D01*
X72999848Y-73339836D01*
X72886956Y-73397358D01*
X72797358Y-73486956D01*
X72739836Y-73599848D01*
X72739835Y-73599852D01*
X72725000Y-73693515D01*
X72225500Y-73693515D01*
X72225500Y-73691740D01*
X72215573Y-73623607D01*
X72212437Y-73617193D01*
X72190483Y-73572285D01*
X72164198Y-73518517D01*
X72081483Y-73435802D01*
X71981019Y-73386688D01*
X71963798Y-73370027D01*
X71944407Y-73355939D01*
X71942193Y-73349125D01*
X71937046Y-73344146D01*
X71925500Y-73297748D01*
X71925500Y-73202252D01*
X71944407Y-73144061D01*
X71981020Y-73113311D01*
X72009271Y-73099500D01*
X72081483Y-73064198D01*
X72164198Y-72981483D01*
X72215573Y-72876393D01*
X72225500Y-72808260D01*
X72225500Y-72191740D01*
X72215573Y-72123607D01*
X72164198Y-72018517D01*
X72081483Y-71935802D01*
X72076275Y-71933256D01*
X71976395Y-71884427D01*
X71949139Y-71880456D01*
X71908260Y-71874500D01*
X71441740Y-71874500D01*
X71407673Y-71879463D01*
X71373604Y-71884427D01*
X71268518Y-71935801D01*
X71185801Y-72018518D01*
X71134427Y-72123604D01*
X71134427Y-72123607D01*
X71124500Y-72191740D01*
X69800500Y-72191740D01*
X69800500Y-70934108D01*
X72749500Y-70934108D01*
X72749500Y-71065892D01*
X72774927Y-71160788D01*
X72783609Y-71193190D01*
X72849496Y-71307309D01*
X72849498Y-71307311D01*
X72849500Y-71307314D01*
X72942686Y-71400500D01*
X72942688Y-71400501D01*
X72942690Y-71400503D01*
X73025000Y-71448025D01*
X73065941Y-71493494D01*
X73074500Y-71533761D01*
X73074500Y-71797748D01*
X73055593Y-71855939D01*
X73018980Y-71886689D01*
X72918518Y-71935801D01*
X72835801Y-72018518D01*
X72784427Y-72123604D01*
X72784427Y-72123607D01*
X72774500Y-72191740D01*
X72774500Y-72808260D01*
X72780509Y-72849500D01*
X72784427Y-72876395D01*
X72828415Y-72966373D01*
X72835802Y-72981483D01*
X72918517Y-73064198D01*
X72952054Y-73080593D01*
X73023604Y-73115572D01*
X73023605Y-73115572D01*
X73023607Y-73115573D01*
X73091740Y-73125500D01*
X73091743Y-73125500D01*
X73558257Y-73125500D01*
X73558260Y-73125500D01*
X73626393Y-73115573D01*
X73731483Y-73064198D01*
X73756317Y-73039364D01*
X79874500Y-73039364D01*
X79874500Y-73560636D01*
X79880308Y-73600500D01*
X79885134Y-73633626D01*
X79913546Y-73691743D01*
X79940174Y-73746211D01*
X80028789Y-73834826D01*
X80141375Y-73889866D01*
X80214364Y-73900500D01*
X80214367Y-73900500D01*
X80785632Y-73900500D01*
X80785636Y-73900500D01*
X80858625Y-73889866D01*
X80971211Y-73834826D01*
X81059826Y-73746211D01*
X81103918Y-73656018D01*
X81120581Y-73638795D01*
X81134668Y-73619407D01*
X81141481Y-73617193D01*
X81146462Y-73612045D01*
X81192859Y-73600500D01*
X81297748Y-73600500D01*
X81355939Y-73619407D01*
X81386688Y-73656019D01*
X81435802Y-73756483D01*
X81518517Y-73839198D01*
X81541636Y-73850500D01*
X81623604Y-73890572D01*
X81623605Y-73890572D01*
X81623607Y-73890573D01*
X81691740Y-73900500D01*
X81691743Y-73900500D01*
X82308257Y-73900500D01*
X82308260Y-73900500D01*
X82376393Y-73890573D01*
X82481483Y-73839198D01*
X82561979Y-73758701D01*
X82616493Y-73730925D01*
X82676926Y-73740496D01*
X82692253Y-73750167D01*
X82692693Y-73750505D01*
X82806810Y-73816390D01*
X82806808Y-73816390D01*
X82806812Y-73816391D01*
X82806814Y-73816392D01*
X82934108Y-73850500D01*
X82934110Y-73850500D01*
X83065890Y-73850500D01*
X83065892Y-73850500D01*
X83193186Y-73816392D01*
X83193188Y-73816390D01*
X83193190Y-73816390D01*
X83307309Y-73750503D01*
X83307309Y-73750502D01*
X83307314Y-73750500D01*
X83400500Y-73657314D01*
X83401248Y-73656019D01*
X83466390Y-73543190D01*
X83466390Y-73543188D01*
X83466392Y-73543186D01*
X83500500Y-73415892D01*
X83500500Y-73284108D01*
X83466392Y-73156814D01*
X83466390Y-73156811D01*
X83466390Y-73156809D01*
X83400503Y-73042690D01*
X83400501Y-73042688D01*
X83400500Y-73042686D01*
X83307314Y-72949500D01*
X83307311Y-72949498D01*
X83307309Y-72949496D01*
X83193189Y-72883609D01*
X83193191Y-72883609D01*
X83143799Y-72870375D01*
X83065892Y-72849500D01*
X82934108Y-72849500D01*
X82856200Y-72870375D01*
X82806809Y-72883609D01*
X82692684Y-72949500D01*
X82692237Y-72949844D01*
X82691856Y-72949978D01*
X82687067Y-72952744D01*
X82686553Y-72951855D01*
X82634558Y-72970259D01*
X82575895Y-72952873D01*
X82561982Y-72941301D01*
X82481483Y-72860802D01*
X82467138Y-72853789D01*
X82376395Y-72809427D01*
X82349139Y-72805456D01*
X82308260Y-72799500D01*
X81691740Y-72799500D01*
X81657673Y-72804463D01*
X81623604Y-72809427D01*
X81518518Y-72860801D01*
X81435801Y-72943518D01*
X81386689Y-73043980D01*
X81370027Y-73061201D01*
X81355939Y-73080593D01*
X81349125Y-73082806D01*
X81344146Y-73087954D01*
X81297748Y-73099500D01*
X81219883Y-73099500D01*
X81161692Y-73080593D01*
X81125728Y-73031093D01*
X81121917Y-73014773D01*
X81117067Y-72981483D01*
X81114866Y-72966375D01*
X81059826Y-72853789D01*
X80971211Y-72765174D01*
X80858625Y-72710134D01*
X80858626Y-72710134D01*
X80840377Y-72707475D01*
X80785636Y-72699500D01*
X80214364Y-72699500D01*
X80170570Y-72705880D01*
X80141373Y-72710134D01*
X80028790Y-72765173D01*
X79940173Y-72853790D01*
X79885134Y-72966373D01*
X79885134Y-72966375D01*
X79874500Y-73039364D01*
X73756317Y-73039364D01*
X73814198Y-72981483D01*
X73865573Y-72876393D01*
X73875500Y-72808260D01*
X73875500Y-72191740D01*
X73865573Y-72123607D01*
X73814198Y-72018517D01*
X73804134Y-72008453D01*
X79825000Y-72008453D01*
X79840760Y-72107965D01*
X79840762Y-72107969D01*
X79901881Y-72227921D01*
X79997078Y-72323118D01*
X80117030Y-72384237D01*
X80117029Y-72384237D01*
X80216545Y-72399999D01*
X80350000Y-72399999D01*
X80350000Y-71900001D01*
X80650000Y-71900001D01*
X80650000Y-72399998D01*
X80650001Y-72399999D01*
X80783453Y-72399999D01*
X80882965Y-72384239D01*
X80882969Y-72384237D01*
X81002921Y-72323118D01*
X81098118Y-72227921D01*
X81159237Y-72107969D01*
X81175000Y-72008453D01*
X81175000Y-71900001D01*
X81174999Y-71900000D01*
X80650001Y-71900000D01*
X80650000Y-71900001D01*
X80350000Y-71900001D01*
X80349999Y-71900000D01*
X79825002Y-71900000D01*
X79825001Y-71900001D01*
X79825001Y-72008453D01*
X79825000Y-72008453D01*
X73804134Y-72008453D01*
X73731483Y-71935802D01*
X73630194Y-71886285D01*
X73629429Y-71885894D01*
X73608412Y-71864817D01*
X73587046Y-71844146D01*
X73586795Y-71843137D01*
X73586226Y-71842567D01*
X73585496Y-71837921D01*
X73575500Y-71797748D01*
X73575500Y-71491546D01*
X79825000Y-71491546D01*
X79825000Y-71599999D01*
X79825001Y-71600000D01*
X80349999Y-71600000D01*
X80350000Y-71599999D01*
X80350000Y-71100001D01*
X80650000Y-71100001D01*
X80650000Y-71599999D01*
X80650001Y-71600000D01*
X81174998Y-71600000D01*
X81174999Y-71599999D01*
X81174999Y-71491546D01*
X81159239Y-71392034D01*
X81159237Y-71392030D01*
X81098118Y-71272078D01*
X81002921Y-71176881D01*
X80882969Y-71115762D01*
X80882970Y-71115762D01*
X80783454Y-71100000D01*
X80650001Y-71100000D01*
X80650000Y-71100001D01*
X80350000Y-71100001D01*
X80349999Y-71100000D01*
X80216547Y-71100000D01*
X80216546Y-71100001D01*
X80117034Y-71115760D01*
X80117030Y-71115762D01*
X79997078Y-71176881D01*
X79901881Y-71272078D01*
X79840762Y-71392030D01*
X79825000Y-71491546D01*
X73575500Y-71491546D01*
X73575500Y-71423321D01*
X73594407Y-71365130D01*
X73604490Y-71353323D01*
X73650500Y-71307314D01*
X73670844Y-71272078D01*
X73716390Y-71193190D01*
X73716390Y-71193188D01*
X73716392Y-71193186D01*
X73750500Y-71065892D01*
X73750500Y-70934108D01*
X73716392Y-70806814D01*
X73716390Y-70806811D01*
X73716390Y-70806809D01*
X73650503Y-70692690D01*
X73650501Y-70692688D01*
X73650500Y-70692686D01*
X73557314Y-70599500D01*
X73557311Y-70599498D01*
X73557309Y-70599496D01*
X73443189Y-70533609D01*
X73443191Y-70533609D01*
X73393799Y-70520375D01*
X73315892Y-70499500D01*
X73184108Y-70499500D01*
X73106200Y-70520375D01*
X73056809Y-70533609D01*
X72942690Y-70599496D01*
X72849496Y-70692690D01*
X72783609Y-70806809D01*
X72764539Y-70877978D01*
X72749500Y-70934108D01*
X69800500Y-70934108D01*
X69800500Y-55008520D01*
X70616152Y-55008520D01*
X70616152Y-55108176D01*
X70623405Y-55125687D01*
X70624346Y-55142493D01*
X70623806Y-55144535D01*
X70624500Y-55148022D01*
X70624500Y-55654086D01*
X70631118Y-55699508D01*
X70634427Y-55722221D01*
X70679392Y-55814198D01*
X70685802Y-55827309D01*
X70768517Y-55910024D01*
X70768518Y-55910024D01*
X70768519Y-55910025D01*
X70810631Y-55930612D01*
X70827851Y-55947271D01*
X70847245Y-55961362D01*
X70849458Y-55968175D01*
X70854606Y-55973155D01*
X70866152Y-56019553D01*
X70866152Y-56172097D01*
X70847245Y-56230288D01*
X70810634Y-56261037D01*
X70768519Y-56281626D01*
X70685801Y-56364344D01*
X70634427Y-56469430D01*
X70634427Y-56469433D01*
X70624500Y-56537566D01*
X70624500Y-57154086D01*
X70631118Y-57199508D01*
X70634427Y-57222221D01*
X70646041Y-57245977D01*
X70685802Y-57327309D01*
X70768517Y-57410024D01*
X70860861Y-57455168D01*
X70868980Y-57459137D01*
X70912954Y-57501680D01*
X70924500Y-57548078D01*
X70924500Y-57608176D01*
X70962634Y-57700242D01*
X70962635Y-57700243D01*
X70962636Y-57700245D01*
X71330850Y-58068459D01*
X71358626Y-58122974D01*
X71351410Y-58178449D01*
X71306566Y-58280011D01*
X71303652Y-58305130D01*
X71303652Y-58694860D01*
X71303653Y-58694863D01*
X71306566Y-58719990D01*
X71331908Y-58777385D01*
X71351946Y-58822765D01*
X71431387Y-58902206D01*
X71534161Y-58947585D01*
X71559287Y-58950500D01*
X72674016Y-58950499D01*
X72699143Y-58947585D01*
X72801917Y-58902206D01*
X72866652Y-58837471D01*
X72866652Y-60051933D01*
X72865037Y-60049136D01*
X72864843Y-60048794D01*
X72864766Y-60048423D01*
X72858811Y-60034401D01*
X72858464Y-60034543D01*
X72856426Y-60029561D01*
X72824493Y-59970667D01*
X72824492Y-59970665D01*
X72824488Y-59970658D01*
X72778733Y-59917854D01*
X72773755Y-59912379D01*
X72705028Y-59870485D01*
X72696153Y-59867879D01*
X72637986Y-59850799D01*
X72637982Y-59850798D01*
X72637981Y-59850798D01*
X72594179Y-59844500D01*
X72594175Y-59844500D01*
X70990652Y-59844500D01*
X70961644Y-59847618D01*
X70957587Y-59848055D01*
X70906088Y-59859259D01*
X70906087Y-59859259D01*
X70837311Y-59893686D01*
X70837305Y-59893690D01*
X70784513Y-59939435D01*
X70779031Y-59944419D01*
X70737137Y-60013146D01*
X70732186Y-60030006D01*
X70718319Y-60077235D01*
X70717450Y-60080193D01*
X70711152Y-60123995D01*
X70711152Y-60124000D01*
X70711152Y-67376000D01*
X70713942Y-67401946D01*
X70714707Y-67409064D01*
X70725911Y-67460563D01*
X70725911Y-67460564D01*
X70725911Y-67460565D01*
X70725912Y-67460566D01*
X70760339Y-67529342D01*
X70806094Y-67582146D01*
X70811072Y-67587621D01*
X70841730Y-67606309D01*
X70879798Y-67629514D01*
X70879799Y-67629514D01*
X70879802Y-67629516D01*
X70946841Y-67649201D01*
X70968746Y-67652350D01*
X70990648Y-67655500D01*
X70990652Y-67655500D01*
X78992647Y-67655500D01*
X78992652Y-67655500D01*
X79025707Y-67651946D01*
X79077218Y-67640740D01*
X79145994Y-67606313D01*
X79198798Y-67560558D01*
X79204273Y-67555580D01*
X79246168Y-67486850D01*
X79265853Y-67419811D01*
X79270033Y-67390740D01*
X79272152Y-67376004D01*
X79272152Y-64529504D01*
X79272152Y-64529500D01*
X79268598Y-64496445D01*
X79257392Y-64444934D01*
X79222965Y-64376158D01*
X79220193Y-64370620D01*
X79222693Y-64369368D01*
X79209201Y-64321526D01*
X79223591Y-64273888D01*
X79246168Y-64236850D01*
X79265853Y-64169811D01*
X79270080Y-64140414D01*
X79272152Y-64126004D01*
X79272152Y-62820223D01*
X79291059Y-62762032D01*
X79305785Y-62745872D01*
X79313153Y-62739393D01*
X79345913Y-62720480D01*
X79427741Y-62638651D01*
X79430133Y-62636549D01*
X79455441Y-62625638D01*
X79480013Y-62613119D01*
X79483281Y-62613636D01*
X79486319Y-62612327D01*
X79513211Y-62618376D01*
X79540445Y-62622690D01*
X79542784Y-62625029D01*
X79546013Y-62625756D01*
X79564215Y-62646460D01*
X79583710Y-62665955D01*
X79584594Y-62669641D01*
X79586412Y-62671708D01*
X79587249Y-62680697D01*
X79594500Y-62710900D01*
X79594500Y-67126000D01*
X79598054Y-67159055D01*
X79598055Y-67159064D01*
X79609259Y-67210563D01*
X79609259Y-67210564D01*
X79609259Y-67210565D01*
X79609260Y-67210566D01*
X79643687Y-67279342D01*
X79689442Y-67332146D01*
X79694420Y-67337621D01*
X79725078Y-67356309D01*
X79763146Y-67379514D01*
X79763147Y-67379514D01*
X79763150Y-67379516D01*
X79830189Y-67399201D01*
X79852094Y-67402350D01*
X79873996Y-67405500D01*
X79874000Y-67405500D01*
X79975500Y-67405500D01*
X80033691Y-67424407D01*
X80069655Y-67473907D01*
X80074500Y-67504500D01*
X80074500Y-69422273D01*
X80074500Y-69527727D01*
X80098570Y-69617559D01*
X80101794Y-69629592D01*
X80154516Y-69720908D01*
X80154518Y-69720910D01*
X80154520Y-69720913D01*
X80933108Y-70499500D01*
X81511460Y-71077852D01*
X81539237Y-71132369D01*
X81529666Y-71192801D01*
X81511462Y-71217856D01*
X81457241Y-71272078D01*
X81435801Y-71293518D01*
X81384427Y-71398604D01*
X81380826Y-71423321D01*
X81374500Y-71466740D01*
X81374500Y-71933260D01*
X81381118Y-71978682D01*
X81384427Y-72001395D01*
X81435801Y-72106481D01*
X81435802Y-72106483D01*
X81518517Y-72189198D01*
X81572285Y-72215483D01*
X81623604Y-72240572D01*
X81623605Y-72240572D01*
X81623607Y-72240573D01*
X81691740Y-72250500D01*
X81691743Y-72250500D01*
X82308257Y-72250500D01*
X82308260Y-72250500D01*
X82376393Y-72240573D01*
X82481483Y-72189198D01*
X82564198Y-72106483D01*
X82615573Y-72001393D01*
X82625500Y-71933260D01*
X82625500Y-71466740D01*
X82615573Y-71398607D01*
X82564198Y-71293517D01*
X82481483Y-71210802D01*
X82481481Y-71210801D01*
X82481480Y-71210800D01*
X82456018Y-71198352D01*
X82438797Y-71181691D01*
X82419407Y-71167603D01*
X82417192Y-71160788D01*
X82412044Y-71155807D01*
X82400500Y-71109412D01*
X82400500Y-71060714D01*
X82400501Y-71060701D01*
X82400501Y-70947272D01*
X82400500Y-70947270D01*
X82396973Y-70934109D01*
X82373207Y-70845413D01*
X82339849Y-70787636D01*
X82320480Y-70754087D01*
X82245913Y-70679520D01*
X82245910Y-70679518D01*
X80904496Y-69338103D01*
X80876719Y-69283586D01*
X80875500Y-69268099D01*
X80875500Y-67504427D01*
X80894407Y-67446236D01*
X80943907Y-67410272D01*
X80967866Y-67405818D01*
X80967863Y-67405783D01*
X80968326Y-67405733D01*
X80969215Y-67405568D01*
X80970483Y-67405500D01*
X80970500Y-67405500D01*
X81003555Y-67401946D01*
X81055066Y-67390740D01*
X81123842Y-67356313D01*
X81176646Y-67310558D01*
X81182121Y-67305580D01*
X81224016Y-67236850D01*
X81243701Y-67169811D01*
X81247200Y-67145471D01*
X81250000Y-67126004D01*
X81250000Y-67500000D01*
X83250000Y-67500000D01*
X83250000Y-63750000D01*
X82876000Y-63750000D01*
X82909055Y-63746446D01*
X82960566Y-63735240D01*
X83029342Y-63700813D01*
X83082146Y-63655058D01*
X83087621Y-63650080D01*
X83129516Y-63581350D01*
X83149201Y-63514311D01*
X83152700Y-63489971D01*
X83155500Y-63470504D01*
X83155500Y-60079504D01*
X83154560Y-60070758D01*
X83151946Y-60046445D01*
X83140740Y-59994934D01*
X83106313Y-59926158D01*
X83094373Y-59912379D01*
X83060564Y-59873361D01*
X83057948Y-59870484D01*
X83055580Y-59867879D01*
X83046797Y-59862525D01*
X82986853Y-59825985D01*
X82986850Y-59825984D01*
X82919811Y-59806299D01*
X82919807Y-59806298D01*
X82919806Y-59806298D01*
X82876004Y-59800000D01*
X83000000Y-59800000D01*
X83000000Y-57050000D01*
X81250000Y-57050000D01*
X81250000Y-57728374D01*
X81249999Y-57728365D01*
X81246446Y-57695315D01*
X81235240Y-57643804D01*
X81200813Y-57575028D01*
X81155058Y-57522224D01*
X81150080Y-57516749D01*
X81136580Y-57508520D01*
X81081353Y-57474855D01*
X81081350Y-57474854D01*
X81014311Y-57455169D01*
X81014307Y-57455168D01*
X81014306Y-57455168D01*
X80970504Y-57448870D01*
X80970500Y-57448870D01*
X80620416Y-57448870D01*
X80562225Y-57429963D01*
X80532207Y-57394816D01*
X80528051Y-57386660D01*
X80528050Y-57386658D01*
X80438342Y-57296950D01*
X80325304Y-57239354D01*
X80325305Y-57239354D01*
X80231522Y-57224500D01*
X80231519Y-57224500D01*
X79991152Y-57224500D01*
X79932961Y-57205593D01*
X79896997Y-57156093D01*
X79892152Y-57125500D01*
X79892152Y-56975171D01*
X79854016Y-56883103D01*
X79783549Y-56812635D01*
X79783549Y-56812636D01*
X79116652Y-56145739D01*
X79116652Y-55750000D01*
X78720913Y-55750000D01*
X78008549Y-55037636D01*
X78008547Y-55037635D01*
X78008546Y-55037634D01*
X77916481Y-54999500D01*
X77916480Y-54999500D01*
X76586189Y-54999500D01*
X76527998Y-54980593D01*
X76492034Y-54931093D01*
X76488224Y-54914775D01*
X76482225Y-54873607D01*
X76457068Y-54822147D01*
X76430850Y-54768517D01*
X76348135Y-54685802D01*
X76342614Y-54683103D01*
X76243047Y-54634427D01*
X76215791Y-54630456D01*
X76174912Y-54624500D01*
X75708392Y-54624500D01*
X75674325Y-54629463D01*
X75640256Y-54634427D01*
X75535170Y-54685801D01*
X75452453Y-54768518D01*
X75401079Y-54873604D01*
X75401079Y-54873607D01*
X75391152Y-54941740D01*
X75391152Y-55558260D01*
X75395081Y-55585225D01*
X75401079Y-55626395D01*
X75447925Y-55722219D01*
X75452454Y-55731483D01*
X75470971Y-55750000D01*
X75116652Y-55750000D01*
X75116652Y-58137529D01*
X75076917Y-58097794D01*
X74974143Y-58052415D01*
X74974142Y-58052414D01*
X74974140Y-58052414D01*
X74949021Y-58049500D01*
X74949017Y-58049500D01*
X74641152Y-58049500D01*
X74582961Y-58030593D01*
X74546997Y-57981093D01*
X74542152Y-57950500D01*
X74542152Y-57452252D01*
X74561059Y-57394061D01*
X74597672Y-57363311D01*
X74619498Y-57352641D01*
X74698135Y-57314198D01*
X74780850Y-57231483D01*
X74832225Y-57126393D01*
X74842152Y-57058260D01*
X74842152Y-56441740D01*
X74832225Y-56373607D01*
X74827696Y-56364343D01*
X74807135Y-56322285D01*
X74780850Y-56268517D01*
X74698135Y-56185802D01*
X74697842Y-56185659D01*
X74597672Y-56136689D01*
X74580450Y-56120027D01*
X74561059Y-56105939D01*
X74558845Y-56099125D01*
X74553698Y-56094146D01*
X74542152Y-56047748D01*
X74542152Y-55952252D01*
X74561059Y-55894061D01*
X74597672Y-55863311D01*
X74698135Y-55814198D01*
X74780850Y-55731483D01*
X74832225Y-55626393D01*
X74842152Y-55558260D01*
X74842152Y-54941740D01*
X74832225Y-54873607D01*
X74827696Y-54864343D01*
X74807068Y-54822147D01*
X74780850Y-54768517D01*
X74698135Y-54685802D01*
X74692614Y-54683103D01*
X74593047Y-54634427D01*
X74565791Y-54630456D01*
X74524912Y-54624500D01*
X74058392Y-54624500D01*
X74024325Y-54629463D01*
X73990256Y-54634427D01*
X73885170Y-54685801D01*
X73802453Y-54768518D01*
X73751079Y-54873604D01*
X73751079Y-54873607D01*
X73741152Y-54941740D01*
X73741152Y-55558260D01*
X73745081Y-55585225D01*
X73751079Y-55626395D01*
X73797925Y-55722219D01*
X73802454Y-55731483D01*
X73885169Y-55814198D01*
X73985632Y-55863311D01*
X74002853Y-55879972D01*
X74022245Y-55894061D01*
X74024458Y-55900874D01*
X74029606Y-55905854D01*
X74041152Y-55952252D01*
X74041152Y-56047748D01*
X74022245Y-56105939D01*
X73985632Y-56136689D01*
X73885170Y-56185801D01*
X73802453Y-56268518D01*
X73751079Y-56373604D01*
X73751079Y-56373607D01*
X73741152Y-56441740D01*
X73741152Y-57058260D01*
X73747199Y-57099765D01*
X73751079Y-57126395D01*
X73789797Y-57205593D01*
X73802454Y-57231483D01*
X73885169Y-57314198D01*
X73963806Y-57352641D01*
X73985632Y-57363311D01*
X74029606Y-57405854D01*
X74041152Y-57452252D01*
X74041152Y-57950500D01*
X74022245Y-58008691D01*
X73972745Y-58044655D01*
X73942153Y-58049500D01*
X73834290Y-58049500D01*
X73834287Y-58049501D01*
X73809161Y-58052414D01*
X73706387Y-58097794D01*
X73626946Y-58177235D01*
X73581566Y-58280011D01*
X73578652Y-58305130D01*
X73578652Y-58694860D01*
X73578653Y-58694863D01*
X73581566Y-58719990D01*
X73594817Y-58750000D01*
X72913487Y-58750000D01*
X72926737Y-58719991D01*
X72929652Y-58694865D01*
X72929651Y-58305136D01*
X72926737Y-58280009D01*
X72881358Y-58177235D01*
X72801917Y-58097794D01*
X72699143Y-58052415D01*
X72699142Y-58052414D01*
X72699140Y-58052414D01*
X72674021Y-58049500D01*
X72674017Y-58049500D01*
X72061421Y-58049500D01*
X72003230Y-58030593D01*
X71991417Y-58020504D01*
X71544832Y-57573919D01*
X71517055Y-57519402D01*
X71526626Y-57458970D01*
X71569891Y-57415705D01*
X71571329Y-57414987D01*
X71581483Y-57410024D01*
X71664198Y-57327309D01*
X71715573Y-57222219D01*
X71725500Y-57154086D01*
X71725500Y-56995827D01*
X72225001Y-56995827D01*
X72225001Y-57152311D01*
X72239833Y-57245967D01*
X72239836Y-57245977D01*
X72297358Y-57358869D01*
X72386956Y-57448467D01*
X72499848Y-57505989D01*
X72499852Y-57505990D01*
X72593515Y-57520825D01*
X72674999Y-57520824D01*
X72675000Y-57520824D01*
X72675000Y-56995827D01*
X72975000Y-56995827D01*
X72975000Y-57520824D01*
X72975001Y-57520825D01*
X73056483Y-57520825D01*
X73056485Y-57520824D01*
X73150141Y-57505992D01*
X73150151Y-57505989D01*
X73263043Y-57448467D01*
X73352641Y-57358869D01*
X73410163Y-57245977D01*
X73410164Y-57245973D01*
X73425000Y-57152310D01*
X73425000Y-56995827D01*
X73424999Y-56995826D01*
X72975001Y-56995826D01*
X72975000Y-56995827D01*
X72675000Y-56995827D01*
X72674999Y-56995826D01*
X72225002Y-56995826D01*
X72225001Y-56995827D01*
X71725500Y-56995827D01*
X71725500Y-56539341D01*
X72225000Y-56539341D01*
X72225000Y-56695825D01*
X72225001Y-56695826D01*
X72674999Y-56695826D01*
X72675000Y-56695825D01*
X72675000Y-56170827D01*
X72975000Y-56170827D01*
X72975000Y-56695825D01*
X72975001Y-56695826D01*
X73424998Y-56695826D01*
X73424999Y-56695825D01*
X73424999Y-56539342D01*
X73424998Y-56539340D01*
X73410166Y-56445684D01*
X73410163Y-56445674D01*
X73352641Y-56332782D01*
X73263043Y-56243184D01*
X73150151Y-56185662D01*
X73150147Y-56185661D01*
X73056484Y-56170826D01*
X72975001Y-56170826D01*
X72975000Y-56170827D01*
X72675000Y-56170827D01*
X72674998Y-56170825D01*
X72593517Y-56170826D01*
X72593514Y-56170827D01*
X72499858Y-56185659D01*
X72499848Y-56185662D01*
X72386956Y-56243184D01*
X72297358Y-56332782D01*
X72239836Y-56445674D01*
X72239835Y-56445678D01*
X72225000Y-56539341D01*
X71725500Y-56539341D01*
X71725500Y-56537566D01*
X71715573Y-56469433D01*
X71664198Y-56364343D01*
X71581483Y-56281628D01*
X71476393Y-56230253D01*
X71476391Y-56230252D01*
X71476394Y-56230252D01*
X71451876Y-56226680D01*
X71444164Y-56222870D01*
X71435559Y-56222870D01*
X71417277Y-56209587D01*
X71397020Y-56199580D01*
X71393019Y-56191963D01*
X71386059Y-56186906D01*
X71379076Y-56165415D01*
X71368570Y-56145411D01*
X71367152Y-56128715D01*
X71367152Y-56062936D01*
X71386059Y-56004745D01*
X71435559Y-55968781D01*
X71451871Y-55964971D01*
X71476393Y-55961399D01*
X71581483Y-55910024D01*
X71664198Y-55827309D01*
X71715573Y-55722219D01*
X71725500Y-55654086D01*
X71725500Y-55037566D01*
X71715573Y-54969433D01*
X71702036Y-54941743D01*
X71678198Y-54892980D01*
X71669627Y-54832398D01*
X71698303Y-54778348D01*
X71753271Y-54751476D01*
X71767139Y-54750500D01*
X71815890Y-54750500D01*
X71815892Y-54750500D01*
X71943186Y-54716392D01*
X71943188Y-54716390D01*
X71943190Y-54716390D01*
X72057309Y-54650503D01*
X72057309Y-54650502D01*
X72057314Y-54650500D01*
X72106774Y-54601039D01*
X72120744Y-54593921D01*
X72131831Y-54582835D01*
X72147315Y-54580382D01*
X72161288Y-54573263D01*
X72176776Y-54575715D01*
X72192263Y-54573263D01*
X72206233Y-54580381D01*
X72221720Y-54582834D01*
X72246779Y-54601040D01*
X72352938Y-54707198D01*
X72380716Y-54761715D01*
X72371145Y-54822147D01*
X72352940Y-54847204D01*
X72335803Y-54864340D01*
X72335801Y-54864344D01*
X72284427Y-54969430D01*
X72284427Y-54969433D01*
X72274500Y-55037566D01*
X72274500Y-55654086D01*
X72281118Y-55699508D01*
X72284427Y-55722221D01*
X72329392Y-55814198D01*
X72335802Y-55827309D01*
X72418517Y-55910024D01*
X72460631Y-55930612D01*
X72523604Y-55961398D01*
X72523605Y-55961398D01*
X72523607Y-55961399D01*
X72591740Y-55971326D01*
X72591743Y-55971326D01*
X73058257Y-55971326D01*
X73058260Y-55971326D01*
X73126393Y-55961399D01*
X73231483Y-55910024D01*
X73314198Y-55827309D01*
X73365573Y-55722219D01*
X73375500Y-55654086D01*
X73375500Y-55037566D01*
X73365573Y-54969433D01*
X73314198Y-54864343D01*
X73231483Y-54781628D01*
X73204664Y-54768517D01*
X73126395Y-54730253D01*
X73116440Y-54728802D01*
X73106239Y-54727316D01*
X73051383Y-54700217D01*
X73038198Y-54684352D01*
X73037364Y-54683104D01*
X73037364Y-54683103D01*
X72966897Y-54612636D01*
X72966895Y-54612635D01*
X72391897Y-54037636D01*
X72391895Y-54037635D01*
X72391894Y-54037634D01*
X72299829Y-53999500D01*
X72299828Y-53999500D01*
X72240459Y-53999500D01*
X72182268Y-53980593D01*
X72154722Y-53949999D01*
X72150500Y-53942686D01*
X72057314Y-53849500D01*
X72057311Y-53849498D01*
X72057309Y-53849496D01*
X71943189Y-53783609D01*
X71943191Y-53783609D01*
X71893799Y-53770375D01*
X71815892Y-53749500D01*
X71684108Y-53749500D01*
X71606200Y-53770375D01*
X71556809Y-53783609D01*
X71442690Y-53849496D01*
X71349496Y-53942690D01*
X71283609Y-54056809D01*
X71283608Y-54056814D01*
X71249500Y-54184108D01*
X71249500Y-54315892D01*
X71279579Y-54428151D01*
X71283609Y-54443190D01*
X71349498Y-54557313D01*
X71352373Y-54561059D01*
X71372797Y-54618735D01*
X71355419Y-54677401D01*
X71306877Y-54714648D01*
X71273831Y-54720326D01*
X70941740Y-54720326D01*
X70907673Y-54725289D01*
X70873604Y-54730253D01*
X70768518Y-54781627D01*
X70685800Y-54864345D01*
X70685798Y-54864348D01*
X70674218Y-54888034D01*
X70674197Y-54888080D01*
X70666105Y-54904634D01*
X70654288Y-54916451D01*
X70616152Y-55008520D01*
X69800500Y-55008520D01*
X69800500Y-34711456D01*
X72249500Y-34711456D01*
X72249500Y-34908543D01*
X72287949Y-35101834D01*
X72287949Y-35101836D01*
X72363367Y-35283913D01*
X72363368Y-35283914D01*
X72472861Y-35447782D01*
X72612218Y-35587139D01*
X72776086Y-35696632D01*
X72958165Y-35772051D01*
X73151459Y-35810500D01*
X73275500Y-35810500D01*
X73333691Y-35829407D01*
X73369655Y-35878907D01*
X73374500Y-35909500D01*
X73374500Y-36332886D01*
X73363709Y-36377832D01*
X73314354Y-36474694D01*
X73299500Y-36568478D01*
X73299500Y-37931521D01*
X73299501Y-37931523D01*
X73314352Y-38025299D01*
X73314354Y-38025304D01*
X73371950Y-38138342D01*
X73461658Y-38228050D01*
X73570447Y-38283481D01*
X73613710Y-38326744D01*
X73624500Y-38371689D01*
X73624500Y-38666159D01*
X73611236Y-38715659D01*
X73558609Y-38806809D01*
X73558608Y-38806814D01*
X73524500Y-38934108D01*
X73524500Y-39065892D01*
X73554579Y-39178151D01*
X73558609Y-39193190D01*
X73624496Y-39307309D01*
X73624498Y-39307311D01*
X73624500Y-39307314D01*
X73717686Y-39400500D01*
X73717688Y-39400501D01*
X73717690Y-39400503D01*
X73831810Y-39466390D01*
X73831808Y-39466390D01*
X73831812Y-39466391D01*
X73831814Y-39466392D01*
X73959108Y-39500500D01*
X73959110Y-39500500D01*
X74090890Y-39500500D01*
X74090892Y-39500500D01*
X74218186Y-39466392D01*
X74218188Y-39466390D01*
X74218190Y-39466390D01*
X74332309Y-39400503D01*
X74332309Y-39400502D01*
X74332314Y-39400500D01*
X74425500Y-39307314D01*
X74491392Y-39193186D01*
X74525500Y-39065892D01*
X74525500Y-38934108D01*
X74491392Y-38806814D01*
X74491390Y-38806811D01*
X74491390Y-38806809D01*
X74438764Y-38715659D01*
X74425500Y-38666159D01*
X74425500Y-38371689D01*
X74444407Y-38313498D01*
X74479552Y-38283481D01*
X74588342Y-38228050D01*
X74678050Y-38138342D01*
X74735646Y-38025304D01*
X74750012Y-37934600D01*
X74750500Y-37931521D01*
X74750500Y-37400001D01*
X76200001Y-37400001D01*
X76200001Y-37954203D01*
X76202850Y-37984600D01*
X76202850Y-37984602D01*
X76247654Y-38112647D01*
X76328207Y-38221790D01*
X76328209Y-38221792D01*
X76437352Y-38302345D01*
X76565398Y-38347149D01*
X76595789Y-38349999D01*
X76824998Y-38349999D01*
X76825000Y-38349998D01*
X76825000Y-37400001D01*
X77125000Y-37400001D01*
X77125000Y-38349998D01*
X77125001Y-38349999D01*
X77354203Y-38349999D01*
X77384600Y-38347149D01*
X77384602Y-38347149D01*
X77512647Y-38302345D01*
X77621790Y-38221792D01*
X77621792Y-38221790D01*
X77702345Y-38112647D01*
X77747149Y-37984601D01*
X77749999Y-37954211D01*
X77750000Y-37954210D01*
X77750000Y-37400001D01*
X77749999Y-37400000D01*
X77125001Y-37400000D01*
X77125000Y-37400001D01*
X76825000Y-37400001D01*
X76824999Y-37400000D01*
X76200002Y-37400000D01*
X76200001Y-37400001D01*
X74750500Y-37400001D01*
X74750500Y-37358993D01*
X74750499Y-36568482D01*
X74748992Y-36558966D01*
X74748992Y-36558963D01*
X74746905Y-36545788D01*
X76200000Y-36545788D01*
X76200000Y-37099999D01*
X76200001Y-37100000D01*
X76824999Y-37100000D01*
X76825000Y-37099999D01*
X76825000Y-36150001D01*
X77125000Y-36150001D01*
X77125000Y-37099999D01*
X77125001Y-37100000D01*
X77749998Y-37100000D01*
X77749999Y-37099999D01*
X77749999Y-36545796D01*
X77747149Y-36515399D01*
X77747149Y-36515397D01*
X77702345Y-36387352D01*
X77621792Y-36278209D01*
X77621790Y-36278207D01*
X77512647Y-36197654D01*
X77384601Y-36152850D01*
X77354211Y-36150000D01*
X77125001Y-36150000D01*
X77125000Y-36150001D01*
X76825000Y-36150001D01*
X76824999Y-36150000D01*
X76595796Y-36150000D01*
X76565399Y-36152850D01*
X76565397Y-36152850D01*
X76437352Y-36197654D01*
X76328209Y-36278207D01*
X76328207Y-36278209D01*
X76247654Y-36387352D01*
X76202850Y-36515398D01*
X76200000Y-36545788D01*
X74746905Y-36545788D01*
X74735647Y-36474699D01*
X74735646Y-36474697D01*
X74735646Y-36474696D01*
X74686290Y-36377831D01*
X74675500Y-36332886D01*
X74675500Y-35520932D01*
X74675500Y-35520931D01*
X74650501Y-35395256D01*
X74629855Y-35345412D01*
X74601466Y-35276874D01*
X74530277Y-35170331D01*
X74430450Y-35070504D01*
X74279496Y-34919549D01*
X74251719Y-34865033D01*
X74250500Y-34849546D01*
X74250500Y-34711460D01*
X74250499Y-34711456D01*
X74238175Y-34649500D01*
X74212051Y-34518165D01*
X74136632Y-34336086D01*
X74027139Y-34172218D01*
X73887782Y-34032861D01*
X73723914Y-33923368D01*
X73723915Y-33923368D01*
X73723913Y-33923367D01*
X73541835Y-33847949D01*
X73348543Y-33809500D01*
X73348541Y-33809500D01*
X73151459Y-33809500D01*
X73151456Y-33809500D01*
X72958165Y-33847949D01*
X72958163Y-33847949D01*
X72776086Y-33923367D01*
X72612218Y-34032861D01*
X72612214Y-34032864D01*
X72472864Y-34172214D01*
X72472861Y-34172218D01*
X72363367Y-34336086D01*
X72287949Y-34518163D01*
X72287949Y-34518165D01*
X72249500Y-34711456D01*
X69800500Y-34711456D01*
X69800500Y-32171456D01*
X72249500Y-32171456D01*
X72249500Y-32368543D01*
X72287949Y-32561834D01*
X72287949Y-32561836D01*
X72363367Y-32743913D01*
X72363368Y-32743914D01*
X72472861Y-32907782D01*
X72612218Y-33047139D01*
X72776086Y-33156632D01*
X72958165Y-33232051D01*
X73151459Y-33270500D01*
X73151460Y-33270500D01*
X73348540Y-33270500D01*
X73348541Y-33270500D01*
X73541835Y-33232051D01*
X73723914Y-33156632D01*
X73726080Y-33155184D01*
X73727227Y-33154860D01*
X73728200Y-33154341D01*
X73728313Y-33154554D01*
X73784960Y-33138568D01*
X73842367Y-33159735D01*
X73851095Y-33167488D01*
X76504087Y-35820480D01*
X76504089Y-35820481D01*
X76504090Y-35820482D01*
X76504091Y-35820483D01*
X76595408Y-35873205D01*
X76595406Y-35873205D01*
X76595410Y-35873206D01*
X76595412Y-35873207D01*
X76697273Y-35900500D01*
X76802727Y-35900500D01*
X77718099Y-35900500D01*
X77776290Y-35919407D01*
X77788103Y-35929496D01*
X78870504Y-37011897D01*
X78898281Y-37066414D01*
X78899500Y-37081901D01*
X78899500Y-37881521D01*
X78899501Y-37881523D01*
X78914352Y-37975299D01*
X78914354Y-37975304D01*
X78971950Y-38088342D01*
X79061658Y-38178050D01*
X79174696Y-38235646D01*
X79268481Y-38250500D01*
X79981518Y-38250499D01*
X79981520Y-38250499D01*
X79981521Y-38250498D01*
X80028411Y-38243072D01*
X80075299Y-38235647D01*
X80075299Y-38235646D01*
X80075304Y-38235646D01*
X80188342Y-38178050D01*
X80278050Y-38088342D01*
X80335646Y-37975304D01*
X80346926Y-37904081D01*
X80350500Y-37881521D01*
X80350500Y-37599500D01*
X80355345Y-37584588D01*
X80355345Y-37568907D01*
X80364561Y-37556221D01*
X80369407Y-37541309D01*
X80382092Y-37532092D01*
X80391309Y-37519407D01*
X80406221Y-37514561D01*
X80418907Y-37505345D01*
X80449500Y-37500500D01*
X80509541Y-37500500D01*
X80567732Y-37519407D01*
X80595277Y-37550000D01*
X80599500Y-37557314D01*
X80692686Y-37650500D01*
X80692688Y-37650501D01*
X80692690Y-37650503D01*
X80806810Y-37716390D01*
X80806808Y-37716390D01*
X80806812Y-37716391D01*
X80806814Y-37716392D01*
X80934108Y-37750500D01*
X80934110Y-37750500D01*
X81065890Y-37750500D01*
X81065892Y-37750500D01*
X81193186Y-37716392D01*
X81193188Y-37716390D01*
X81193190Y-37716390D01*
X81307309Y-37650503D01*
X81307309Y-37650502D01*
X81307314Y-37650500D01*
X81400500Y-37557314D01*
X81425184Y-37514561D01*
X81466390Y-37443190D01*
X81466390Y-37443188D01*
X81466392Y-37443186D01*
X81491361Y-37350001D01*
X81800001Y-37350001D01*
X81800001Y-37904203D01*
X81802850Y-37934600D01*
X81802850Y-37934602D01*
X81847654Y-38062647D01*
X81928207Y-38171790D01*
X81928209Y-38171792D01*
X82037352Y-38252345D01*
X82165398Y-38297149D01*
X82195789Y-38299999D01*
X82424998Y-38299999D01*
X82425000Y-38299998D01*
X82425000Y-37350001D01*
X82725000Y-37350001D01*
X82725000Y-38299998D01*
X82725001Y-38299999D01*
X82954203Y-38299999D01*
X82984600Y-38297149D01*
X82984602Y-38297149D01*
X83112647Y-38252345D01*
X83221790Y-38171792D01*
X83221792Y-38171790D01*
X83302345Y-38062647D01*
X83347149Y-37934601D01*
X83349999Y-37904211D01*
X83350000Y-37904210D01*
X83350000Y-37350001D01*
X83349999Y-37350000D01*
X82725001Y-37350000D01*
X82725000Y-37350001D01*
X82425000Y-37350001D01*
X82424999Y-37350000D01*
X81800002Y-37350000D01*
X81800001Y-37350001D01*
X81491361Y-37350001D01*
X81500500Y-37315892D01*
X81500500Y-37184108D01*
X81466392Y-37056814D01*
X81466390Y-37056811D01*
X81466390Y-37056809D01*
X81400503Y-36942690D01*
X81400501Y-36942688D01*
X81400500Y-36942686D01*
X81307314Y-36849500D01*
X81307311Y-36849498D01*
X81307309Y-36849496D01*
X81193189Y-36783609D01*
X81193191Y-36783609D01*
X81143799Y-36770375D01*
X81065892Y-36749500D01*
X80934108Y-36749500D01*
X80856200Y-36770375D01*
X80806809Y-36783609D01*
X80692690Y-36849496D01*
X80599499Y-36942687D01*
X80597819Y-36945596D01*
X80595277Y-36949999D01*
X80579898Y-36963846D01*
X80567732Y-36980593D01*
X80557670Y-36983862D01*
X80549810Y-36990940D01*
X80509541Y-36999500D01*
X80449499Y-36999500D01*
X80391308Y-36980593D01*
X80355344Y-36931093D01*
X80350499Y-36900500D01*
X80350499Y-36518482D01*
X80348992Y-36508966D01*
X80348992Y-36508963D01*
X80346905Y-36495788D01*
X81800000Y-36495788D01*
X81800000Y-37049999D01*
X81800001Y-37050000D01*
X82424999Y-37050000D01*
X82425000Y-37049999D01*
X82425000Y-36100001D01*
X82725000Y-36100001D01*
X82725000Y-37049999D01*
X82725001Y-37050000D01*
X83349998Y-37050000D01*
X83349999Y-37049999D01*
X83349999Y-36495796D01*
X83347149Y-36465399D01*
X83347149Y-36465397D01*
X83302345Y-36337352D01*
X83221792Y-36228209D01*
X83221790Y-36228207D01*
X83112647Y-36147654D01*
X82984601Y-36102850D01*
X82954211Y-36100000D01*
X82725001Y-36100000D01*
X82725000Y-36100001D01*
X82425000Y-36100001D01*
X82424999Y-36100000D01*
X82195796Y-36100000D01*
X82165399Y-36102850D01*
X82165397Y-36102850D01*
X82037352Y-36147654D01*
X81928209Y-36228207D01*
X81928207Y-36228209D01*
X81847654Y-36337352D01*
X81802850Y-36465398D01*
X81800000Y-36495788D01*
X80346905Y-36495788D01*
X80335647Y-36424699D01*
X80335646Y-36424697D01*
X80335646Y-36424696D01*
X80278050Y-36311658D01*
X80188342Y-36221950D01*
X80075304Y-36164354D01*
X80075305Y-36164354D01*
X79981521Y-36149500D01*
X79268482Y-36149500D01*
X79208157Y-36159054D01*
X79147726Y-36149480D01*
X79122669Y-36131276D01*
X78688025Y-35696632D01*
X78170913Y-35179520D01*
X78170910Y-35179518D01*
X78170909Y-35179517D01*
X78170908Y-35179516D01*
X78079591Y-35126794D01*
X78079593Y-35126794D01*
X78040070Y-35116204D01*
X77977727Y-35099500D01*
X77977725Y-35099500D01*
X76956901Y-35099500D01*
X76898710Y-35080593D01*
X76886897Y-35070504D01*
X74277038Y-32460645D01*
X74249261Y-32406128D01*
X74249946Y-32371321D01*
X74250500Y-32368541D01*
X74250500Y-32171459D01*
X74212051Y-31978165D01*
X74136632Y-31796086D01*
X74027139Y-31632218D01*
X73887782Y-31492861D01*
X73723914Y-31383368D01*
X73723915Y-31383368D01*
X73723913Y-31383367D01*
X73541835Y-31307949D01*
X73348543Y-31269500D01*
X73348541Y-31269500D01*
X73151459Y-31269500D01*
X73151456Y-31269500D01*
X72958165Y-31307949D01*
X72958163Y-31307949D01*
X72776086Y-31383367D01*
X72612218Y-31492861D01*
X72612214Y-31492864D01*
X72472864Y-31632214D01*
X72472861Y-31632218D01*
X72363367Y-31796086D01*
X72287949Y-31978163D01*
X72287949Y-31978165D01*
X72249500Y-32171456D01*
X69800500Y-32171456D01*
X69800500Y-28860299D01*
X72200000Y-28860299D01*
X72200000Y-29579999D01*
X72200001Y-29580000D01*
X72772555Y-29580000D01*
X72750000Y-29664174D01*
X72750000Y-29795826D01*
X72772555Y-29880000D01*
X72200001Y-29880000D01*
X72200000Y-29880001D01*
X72200000Y-30599700D01*
X72211603Y-30658036D01*
X72255806Y-30724189D01*
X72255810Y-30724193D01*
X72321963Y-30768396D01*
X72380299Y-30779999D01*
X72380303Y-30780000D01*
X73099999Y-30780000D01*
X73100000Y-30779999D01*
X73100000Y-30207445D01*
X73184174Y-30230000D01*
X73315826Y-30230000D01*
X73400000Y-30207445D01*
X73400000Y-30779999D01*
X73400001Y-30780000D01*
X74119697Y-30780000D01*
X74119700Y-30779999D01*
X74178036Y-30768396D01*
X74244189Y-30724193D01*
X74244193Y-30724189D01*
X74288396Y-30658036D01*
X74299999Y-30599700D01*
X74300000Y-30599697D01*
X74300000Y-30214822D01*
X75203333Y-30214822D01*
X75203334Y-30214822D01*
X75797990Y-30214822D01*
X75797991Y-30214822D01*
X75797991Y-29353110D01*
X75203333Y-29353110D01*
X75203333Y-30214822D01*
X74300000Y-30214822D01*
X74300000Y-29880001D01*
X74299999Y-29880000D01*
X73727445Y-29880000D01*
X73750000Y-29795826D01*
X73750000Y-29664174D01*
X73727445Y-29580000D01*
X74299999Y-29580000D01*
X74300000Y-29579999D01*
X74300000Y-28860302D01*
X74299999Y-28860299D01*
X74288396Y-28801963D01*
X74244193Y-28735810D01*
X74244189Y-28735806D01*
X74178036Y-28691603D01*
X74119700Y-28680000D01*
X73400001Y-28680000D01*
X73400000Y-28680001D01*
X73400000Y-29252554D01*
X73315826Y-29230000D01*
X73184174Y-29230000D01*
X73100000Y-29252554D01*
X73100000Y-28680001D01*
X73099999Y-28680000D01*
X72380299Y-28680000D01*
X72321963Y-28691603D01*
X72255810Y-28735806D01*
X72255806Y-28735810D01*
X72211603Y-28801963D01*
X72200000Y-28860299D01*
X69800500Y-28860299D01*
X69800500Y-26149500D01*
X69819407Y-26091309D01*
X69868907Y-26055345D01*
X69899500Y-26050500D01*
X72888859Y-26050500D01*
X72947050Y-26069407D01*
G37*
%TD.AperFunction*%
%TD*%
M02*
