%TF.GenerationSoftware,KiCad,Pcbnew,9.0.5*%
%TF.CreationDate,2025-10-29T21:47:57+01:00*%
%TF.ProjectId,GB_DMG_PSU,47425f44-4d47-45f5-9053-552e6b696361,rev?*%
%TF.SameCoordinates,Original*%
%TF.FileFunction,Soldermask,Top*%
%TF.FilePolarity,Negative*%
%FSLAX46Y46*%
G04 Gerber Fmt 4.6, Leading zero omitted, Abs format (unit mm)*
G04 Created by KiCad (PCBNEW 9.0.5) date 2025-10-29 21:47:57*
%MOMM*%
%LPD*%
G01*
G04 APERTURE LIST*
G04 Aperture macros list*
%AMRoundRect*
0 Rectangle with rounded corners*
0 $1 Rounding radius*
0 $2 $3 $4 $5 $6 $7 $8 $9 X,Y pos of 4 corners*
0 Add a 4 corners polygon primitive as box body*
4,1,4,$2,$3,$4,$5,$6,$7,$8,$9,$2,$3,0*
0 Add four circle primitives for the rounded corners*
1,1,$1+$1,$2,$3*
1,1,$1+$1,$4,$5*
1,1,$1+$1,$6,$7*
1,1,$1+$1,$8,$9*
0 Add four rect primitives between the rounded corners*
20,1,$1+$1,$2,$3,$4,$5,0*
20,1,$1+$1,$4,$5,$6,$7,0*
20,1,$1+$1,$6,$7,$8,$9,0*
20,1,$1+$1,$8,$9,$2,$3,0*%
%AMFreePoly0*
4,1,23,0.500000,-0.750000,0.000000,-0.750000,0.000000,-0.745722,-0.065263,-0.745722,-0.191342,-0.711940,-0.304381,-0.646677,-0.396677,-0.554381,-0.461940,-0.441342,-0.495722,-0.315263,-0.495722,-0.250000,-0.500000,-0.250000,-0.500000,0.250000,-0.495722,0.250000,-0.495722,0.315263,-0.461940,0.441342,-0.396677,0.554381,-0.304381,0.646677,-0.191342,0.711940,-0.065263,0.745722,0.000000,0.745722,
0.000000,0.750000,0.500000,0.750000,0.500000,-0.750000,0.500000,-0.750000,$1*%
%AMFreePoly1*
4,1,23,0.000000,0.745722,0.065263,0.745722,0.191342,0.711940,0.304381,0.646677,0.396677,0.554381,0.461940,0.441342,0.495722,0.315263,0.495722,0.250000,0.500000,0.250000,0.500000,-0.250000,0.495722,-0.250000,0.495722,-0.315263,0.461940,-0.441342,0.396677,-0.554381,0.304381,-0.646677,0.191342,-0.711940,0.065263,-0.745722,0.000000,-0.745722,0.000000,-0.750000,-0.500000,-0.750000,
-0.500000,0.750000,0.000000,0.750000,0.000000,0.745722,0.000000,0.745722,$1*%
G04 Aperture macros list end*
%ADD10RoundRect,0.250000X-0.325000X-0.650000X0.325000X-0.650000X0.325000X0.650000X-0.325000X0.650000X0*%
%ADD11RoundRect,0.225000X0.250000X-0.225000X0.250000X0.225000X-0.250000X0.225000X-0.250000X-0.225000X0*%
%ADD12RoundRect,0.250000X0.250000X0.475000X-0.250000X0.475000X-0.250000X-0.475000X0.250000X-0.475000X0*%
%ADD13RoundRect,0.225000X-0.225000X-0.250000X0.225000X-0.250000X0.225000X0.250000X-0.225000X0.250000X0*%
%ADD14RoundRect,0.112500X-0.112500X0.187500X-0.112500X-0.187500X0.112500X-0.187500X0.112500X0.187500X0*%
%ADD15RoundRect,0.112500X0.112500X-0.187500X0.112500X0.187500X-0.112500X0.187500X-0.112500X-0.187500X0*%
%ADD16RoundRect,0.200000X-0.200000X-0.275000X0.200000X-0.275000X0.200000X0.275000X-0.200000X0.275000X0*%
%ADD17RoundRect,0.112500X-0.187500X-0.112500X0.187500X-0.112500X0.187500X0.112500X-0.187500X0.112500X0*%
%ADD18RoundRect,0.249999X1.850001X-0.450001X1.850001X0.450001X-1.850001X0.450001X-1.850001X-0.450001X0*%
%ADD19C,1.700000*%
%ADD20RoundRect,0.250000X-0.250000X-0.475000X0.250000X-0.475000X0.250000X0.475000X-0.250000X0.475000X0*%
%ADD21RoundRect,0.150000X0.150000X-0.587500X0.150000X0.587500X-0.150000X0.587500X-0.150000X-0.587500X0*%
%ADD22RoundRect,0.200000X0.200000X0.275000X-0.200000X0.275000X-0.200000X-0.275000X0.200000X-0.275000X0*%
%ADD23RoundRect,0.249999X0.450001X1.850001X-0.450001X1.850001X-0.450001X-1.850001X0.450001X-1.850001X0*%
%ADD24R,1.700000X1.700000*%
%ADD25R,1.800000X1.800000*%
%ADD26C,1.800000*%
%ADD27RoundRect,0.200000X-0.275000X0.200000X-0.275000X-0.200000X0.275000X-0.200000X0.275000X0.200000X0*%
%ADD28RoundRect,0.225000X-0.250000X0.225000X-0.250000X-0.225000X0.250000X-0.225000X0.250000X0.225000X0*%
%ADD29RoundRect,0.150000X0.512500X0.150000X-0.512500X0.150000X-0.512500X-0.150000X0.512500X-0.150000X0*%
%ADD30RoundRect,0.225000X0.225000X0.250000X-0.225000X0.250000X-0.225000X-0.250000X0.225000X-0.250000X0*%
%ADD31RoundRect,0.112500X0.187500X0.112500X-0.187500X0.112500X-0.187500X-0.112500X0.187500X-0.112500X0*%
%ADD32FreePoly0,0.000000*%
%ADD33FreePoly1,0.000000*%
%ADD34FreePoly0,270.000000*%
%ADD35FreePoly1,270.000000*%
%ADD36RoundRect,0.150000X0.150000X-0.512500X0.150000X0.512500X-0.150000X0.512500X-0.150000X-0.512500X0*%
%ADD37RoundRect,0.250000X0.625000X-0.350000X0.625000X0.350000X-0.625000X0.350000X-0.625000X-0.350000X0*%
%ADD38O,1.750000X1.200000*%
G04 APERTURE END LIST*
%TO.C,JP1*%
G36*
X71350000Y-44750000D02*
G01*
X71650000Y-44750000D01*
X71650000Y-46250000D01*
X71350000Y-46250000D01*
X71350000Y-44750000D01*
G37*
%TO.C,JP2*%
G36*
X83250000Y-50350000D02*
G01*
X81750000Y-50350000D01*
X81750000Y-50650000D01*
X83250000Y-50650000D01*
X83250000Y-50350000D01*
G37*
%TD*%
D10*
%TO.C,C3*%
X79625000Y-37200000D03*
X82575000Y-37200000D03*
%TD*%
D11*
%TO.C,C5*%
X78800000Y-73300000D03*
X78800000Y-71750000D03*
%TD*%
D12*
%TO.C,C14*%
X79950000Y-58100000D03*
X78050000Y-58100000D03*
%TD*%
D13*
%TO.C,C15*%
X80475000Y-66500000D03*
X82025000Y-66500000D03*
%TD*%
D14*
%TO.C,D7*%
X82050000Y-71475000D03*
X82050000Y-73575000D03*
%TD*%
D15*
%TO.C,D3*%
X74250000Y-46050000D03*
X74250000Y-43950000D03*
%TD*%
D16*
%TO.C,R9*%
X70808348Y-55345826D03*
X72458348Y-55345826D03*
%TD*%
D17*
%TO.C,D1*%
X79700000Y-76750000D03*
X81800000Y-76750000D03*
%TD*%
D18*
%TO.C,L5*%
X76750000Y-66100000D03*
X76750000Y-62400000D03*
%TD*%
D19*
%TO.C,J4*%
X70750000Y-37250000D03*
%TD*%
D20*
%TO.C,C12*%
X71416652Y-62250000D03*
X73316652Y-62250000D03*
%TD*%
D12*
%TO.C,C4*%
X78450000Y-75000000D03*
X76550000Y-75000000D03*
%TD*%
D13*
%TO.C,C13*%
X80475000Y-61500000D03*
X82025000Y-61500000D03*
%TD*%
D16*
%TO.C,R4*%
X73675000Y-52250000D03*
X75325000Y-52250000D03*
%TD*%
D21*
%TO.C,Q1*%
X80550000Y-45687500D03*
X82450000Y-45687500D03*
X81500000Y-43812500D03*
%TD*%
D22*
%TO.C,R5*%
X82325000Y-47500000D03*
X80675000Y-47500000D03*
%TD*%
D23*
%TO.C,L4*%
X81350000Y-80750000D03*
X77650000Y-80750000D03*
%TD*%
D10*
%TO.C,C10*%
X74025000Y-37250000D03*
X76975000Y-37250000D03*
%TD*%
D19*
%TO.C,J2*%
X73250000Y-34810000D03*
X73250000Y-32270000D03*
D24*
X73250000Y-29730000D03*
D19*
X73250000Y-27190000D03*
%TD*%
D16*
%TO.C,RV1*%
X70675000Y-43250000D03*
X72325000Y-43250000D03*
%TD*%
D25*
%TO.C,D2*%
X72250000Y-50270000D03*
D26*
X72250000Y-47730000D03*
%TD*%
D19*
%TO.C,J1*%
X70750000Y-34750000D03*
%TD*%
D16*
%TO.C,R12*%
X74291652Y-56750000D03*
X75941652Y-56750000D03*
%TD*%
D20*
%TO.C,C16*%
X77250000Y-53100000D03*
X79150000Y-53100000D03*
%TD*%
D16*
%TO.C,R8*%
X71675000Y-72500000D03*
X73325000Y-72500000D03*
%TD*%
D27*
%TO.C,R14*%
X80300000Y-71700000D03*
X80300000Y-73350000D03*
%TD*%
D28*
%TO.C,C9*%
X75750000Y-84975000D03*
X75750000Y-86525000D03*
%TD*%
D29*
%TO.C,U3*%
X75637500Y-83200000D03*
X75637500Y-82250000D03*
X75637500Y-81300000D03*
X73362500Y-81300000D03*
X73362500Y-83200000D03*
%TD*%
D16*
%TO.C,R1*%
X73425000Y-79750000D03*
X75075000Y-79750000D03*
%TD*%
D29*
%TO.C,U2*%
X74391652Y-60400000D03*
X74391652Y-59450000D03*
X74391652Y-58500000D03*
X72116652Y-58500000D03*
X72116652Y-60400000D03*
%TD*%
D20*
%TO.C,C11*%
X72350000Y-85000000D03*
X74250000Y-85000000D03*
%TD*%
D22*
%TO.C,R7*%
X75075000Y-78250000D03*
X73425000Y-78250000D03*
%TD*%
D30*
%TO.C,C18*%
X78725000Y-47112500D03*
X77175000Y-47112500D03*
%TD*%
D12*
%TO.C,C2*%
X78450000Y-77000000D03*
X76550000Y-77000000D03*
%TD*%
D16*
%TO.C,R13*%
X80425000Y-65000000D03*
X82075000Y-65000000D03*
%TD*%
D31*
%TO.C,D5*%
X82350000Y-63250000D03*
X80250000Y-63250000D03*
%TD*%
D16*
%TO.C,R10*%
X70808348Y-56845826D03*
X72458348Y-56845826D03*
%TD*%
D22*
%TO.C,R11*%
X75941652Y-55250000D03*
X74291652Y-55250000D03*
%TD*%
D16*
%TO.C,R3*%
X71675000Y-74000000D03*
X73325000Y-74000000D03*
%TD*%
D20*
%TO.C,C1*%
X72350000Y-87000000D03*
X74250000Y-87000000D03*
%TD*%
D31*
%TO.C,D4*%
X80050000Y-60000000D03*
X77950000Y-60000000D03*
%TD*%
D32*
%TO.C,JP1*%
X70850000Y-45500000D03*
D33*
X72150000Y-45500000D03*
%TD*%
D34*
%TO.C,JP2*%
X82500000Y-49850000D03*
D35*
X82500000Y-51150000D03*
%TD*%
D18*
%TO.C,L3*%
X79500000Y-88600000D03*
X79500000Y-84900000D03*
%TD*%
D36*
%TO.C,U4*%
X77050000Y-51137500D03*
X78000000Y-51137500D03*
X78950000Y-51137500D03*
X78950000Y-48862500D03*
X77050000Y-48862500D03*
%TD*%
D14*
%TO.C,D6*%
X82000000Y-58200000D03*
X82000000Y-60300000D03*
%TD*%
D16*
%TO.C,R6*%
X77125000Y-45612500D03*
X78775000Y-45612500D03*
%TD*%
D37*
%TO.C,J3*%
X82600000Y-55000000D03*
D38*
X82600000Y-53000000D03*
%TD*%
M02*
